<svg width="157" height="192" viewBox="0 0 157 192" fill="none" xmlns="http://www.w3.org/2000/svg">
<g opacity="0.8">
<path d="M0.237355 14.03L0 114.506L24.5927 128.7L24.8118 28.2428L0.237355 14.03Z" fill="#97B5FF"/>
<path d="M24.5928 128.7L48.6925 114.689L48.9299 14.2128L24.8119 28.2429L24.5928 128.7Z" fill="#587CE5"/>
<path d="M24.8118 28.2428L48.9298 14.2128L24.3371 0L0.237305 14.0301L24.8118 28.2428Z" fill="#C5D2FC"/>
<path d="M36.2045 80.6912L36.0767 135.332L60.6694 149.545L60.7972 94.8857L36.2045 80.6912Z" fill="#3123C3"/>
<path d="M60.6694 149.545L84.7693 135.515L84.8971 80.8739L60.7972 94.8857L60.6694 149.545Z" fill="#180CB3"/>
<path d="M60.7972 94.8857L84.897 80.8739L60.3225 66.6611L36.2045 80.6912L60.7972 94.8857Z" fill="#5447CB"/>
<path d="M72.3359 75.2108L72.1533 156.176L96.7461 170.389L96.9287 89.4236L72.3359 75.2108Z" fill="#97B5FF"/>
<path d="M96.7461 170.389L120.846 156.359L121.028 75.3934L96.9287 89.4235L96.7461 170.389Z" fill="#587CE5"/>
<path d="M96.9287 89.4236L121.028 75.3935L96.454 61.199L72.3359 75.2108L96.9287 89.4236Z" fill="#C5D2FC"/>
<path d="M108.303 139.059L108.23 177.02L132.823 191.233L132.896 153.271L108.303 139.059Z" fill="#3123C3"/>
<path d="M132.823 191.233L156.923 177.203L156.996 139.26L132.896 153.271L132.823 191.233Z" fill="#180CB3"/>
<path d="M132.896 153.271L156.995 139.26L132.421 125.047L108.303 139.059L132.896 153.271Z" fill="#5447CB"/>
</g>
</svg>
