<svg width="146" height="180" viewBox="0 0 146 180" fill="none" xmlns="http://www.w3.org/2000/svg">
<g opacity="0.7">
<path d="M136.931 84.1805L136.657 179.085L0 100.129L0.273864 5.24304L136.931 84.1805Z" fill="#587DE5"/>
<path d="M136.931 84.1806L145.932 78.9558L145.676 173.842L136.657 179.085L136.931 84.1806Z" fill="#0D095E"/>
<path d="M0.273804 5.24301L9.27473 0L145.931 78.9558L136.931 84.1805L0.273804 5.24301Z" fill="#CCD9FF"/>
<path d="M39.9473 76.5078C39.9108 88.0716 46.4652 101.663 55.5756 110.268L52.0337 120.845C38.3224 107.874 28.4086 87.3409 28.4634 69.8763L39.9655 76.5078H39.9473Z" fill="#3123C3"/>
<path d="M62.6047 50.4206C66.2197 52.5031 69.7068 55.1703 72.9566 58.2577L69.433 68.8168C67.2603 66.7707 64.9599 65.017 62.5682 63.6286C50.1166 56.4308 39.9837 62.2036 39.9472 76.5077L28.4451 69.8763C28.4998 48.2649 43.7996 39.5692 62.5864 50.4206H62.6047Z" fill="#5647CB"/>
<path d="M72.9749 58.2577C86.6862 71.2282 96.6 91.7618 96.5452 109.208C96.4904 130.82 81.1907 139.534 62.4038 128.682C58.7889 126.6 55.32 123.932 52.0519 120.845L55.5938 110.268C57.7482 112.314 60.0486 114.086 62.4404 115.456C74.8919 122.654 85.0248 116.881 85.0613 102.558C85.0978 91.0128 78.5434 77.4029 69.4512 68.8168L72.9749 58.2577Z" fill="#97B5FF"/>
</g>
</svg>
