<svg width="447" height="501" viewBox="0 0 447 501" fill="none" xmlns="http://www.w3.org/2000/svg">
<path d="M430.145 396.169C436.517 399.859 436.553 405.815 430.218 409.505L278.9 497.504C272.583 501.176 262.268 501.194 255.896 497.504L4.80179 352.453C-1.57005 348.781 -1.60657 342.807 4.72876 339.117L156.046 251.119C162.382 247.428 172.679 247.447 179.051 251.119L430.145 396.169Z" fill="#97B5FF"/>
<path d="M434.618 146.624L183.524 1.57314C180.42 -0.21716 177.608 -0.418112 175.527 0.65972L175.399 0.714526C175.381 0.714526 175.344 0.751062 175.326 0.751062L170.342 3.54612L172.533 4.36819C172.149 5.46429 171.948 6.72481 171.948 8.16801L171.456 183.288C171.437 190.614 176.586 199.547 182.958 203.219L434.052 348.27C435.184 348.927 436.279 349.366 437.32 349.603L437.064 351.996L442.104 349.165C444.276 348.014 445.645 345.402 445.664 341.657L446.157 166.536C446.175 159.211 441.026 150.277 434.654 146.587L434.618 146.624Z" fill="#97B5FF"/>
<path d="M429.542 149.492C435.914 153.182 441.063 162.097 441.045 169.441L440.552 344.561C440.533 351.887 435.348 354.846 428.976 351.156L177.882 206.105C171.51 202.433 166.362 193.5 166.38 186.175L166.873 11.0544C166.891 3.7288 172.076 0.769328 178.448 4.44126L429.542 149.492Z" fill="#0D095E"/>
<path d="M428.356 163.412L427.863 335.884L179.069 192.167L179.562 19.6953L428.356 163.412Z" fill="#5447CB"/>
<path d="M434.947 371.598V358.043L426.585 362.957L179.051 219.953C172.679 216.281 162.382 216.263 156.046 219.953L10.6807 304.48L0.00012207 300.681V314.583C0.00012207 316.994 1.60677 319.424 4.80182 321.269L255.896 466.32C262.268 470.01 272.565 469.992 278.9 466.32L430.218 378.321C433.413 376.458 434.983 374.028 434.947 371.58V371.598Z" fill="#587CE5"/>
<path d="M106.733 366.593L146.041 389.3L143.43 391.401C142.554 392.114 141.24 392.059 139.87 391.273L112.867 375.672C111.48 374.868 110.184 373.425 109.307 371.69L106.715 366.593H106.733Z" fill="#0D095E"/>
<path d="M430.145 351.43C436.517 355.12 436.553 361.076 430.218 364.766L278.9 452.764C272.583 456.436 262.268 456.455 255.896 452.764L4.80179 307.714C-1.57005 304.042 -1.60657 298.068 4.72876 294.378L156.046 206.379C162.382 202.689 172.679 202.708 179.051 206.379L430.145 351.43Z" fill="#97B5FF"/>
<path d="M403.343 352.015C405.26 353.111 405.278 354.919 403.38 356.015L321.732 403.495C319.834 404.591 316.748 404.591 314.831 403.495L84.5137 270.447C82.5966 269.35 82.5966 267.56 84.4954 266.446L166.143 218.966C168.041 217.87 171.127 217.87 173.044 218.966L403.361 352.015H403.343Z" fill="#587CE5"/>
<path d="M134.503 280.366L123.877 286.541L111.516 279.398L122.142 273.223L134.503 280.366Z" fill="#0D095E"/>
<path d="M116.957 270.227L106.331 276.402L92.5287 268.437L103.155 262.262L116.957 270.227Z" fill="#0D095E"/>
<path d="M173.153 237.545L162.528 243.72L148.743 235.755L159.351 229.58L173.153 237.545Z" fill="#0D095E"/>
<path d="M163.605 248.323L152.997 254.498L134.685 243.921L145.311 237.746L163.605 248.323Z" fill="#0D095E"/>
<path d="M153.6 258.828L142.992 265.003L120.627 252.087L131.253 245.912L153.6 258.828Z" fill="#0D095E"/>
<path d="M150.277 273.187L139.651 279.361L106.587 260.271L117.213 254.078L150.277 273.187Z" fill="#0D095E"/>
<path d="M152.048 290.505L141.422 296.68L129.062 289.537L139.688 283.362L152.048 290.505Z" fill="#0D095E"/>
<path d="M169.977 300.863L159.351 307.038L146.607 299.676L157.233 293.501L169.977 300.863Z" fill="#0D095E"/>
<path d="M376.322 343.045L369.512 347.009L181.771 238.55L188.581 234.586L376.322 343.045Z" fill="#0D095E"/>
<path d="M353.391 341.675L342.783 347.849L167.731 246.716L178.339 240.541L353.391 341.675Z" fill="#0D095E"/>
<path d="M332.413 345.84L321.805 352.015L158.182 257.494L168.808 251.319L332.413 345.84Z" fill="#0D095E"/>
<path d="M395.31 354.006L388.482 357.97L374.697 350.005L381.525 346.041L395.31 354.006Z" fill="#0D095E"/>
<path d="M258.251 351.85L247.625 358.025L164.554 310.034L175.18 303.859L258.251 351.85Z" fill="#0D095E"/>
<path d="M320.966 355.504L310.34 361.679L148.177 267.999L158.785 261.824L320.966 355.504Z" fill="#0D095E"/>
<path d="M295.095 356.837L284.469 363.03L144.854 282.376L155.48 276.183L295.095 356.837Z" fill="#0D095E"/>
<path d="M352.04 357.166L341.414 363.341L326.99 355.011L337.616 348.836L352.04 357.166Z" fill="#0D095E"/>
<path d="M385.049 359.961L374.442 366.136L347.968 350.845L358.594 344.671L385.049 359.961Z" fill="#0D095E"/>
<path d="M278.444 363.524L267.818 369.698L252.829 361.039L263.455 354.846L278.444 363.524Z" fill="#0D095E"/>
<path d="M371.009 368.127L360.383 374.302L346.617 366.337L357.225 360.181L371.009 368.127Z" fill="#0D095E"/>
<path d="M356.951 376.311L346.343 382.486L315.543 364.693L326.151 358.518L356.951 376.311Z" fill="#0D095E"/>
<path d="M342.911 384.477L332.285 390.652L289.654 366.026L300.28 359.852L342.911 384.477Z" fill="#0D095E"/>
<path d="M328.853 392.643L318.227 398.818L273.003 372.694L283.629 366.52L328.853 392.643Z" fill="#0D095E"/>
<path d="M183.396 231.59L176.568 235.554L162.783 227.589L169.593 223.625L183.396 231.59Z" fill="#0D095E"/>
<path d="M144.672 382.961C146.041 383.747 146.735 384.861 146.571 385.975L146.059 389.282L106.751 366.575L112.466 366.264C114.401 366.154 116.3 366.556 117.687 367.36L144.69 382.961H144.672Z" fill="#587CE5"/>
<path d="M229.076 365.716C230.993 366.812 230.993 368.621 229.094 369.717L183.889 396.005C181.99 397.101 178.886 397.101 176.969 396.005L95.0482 348.672C93.1312 347.575 93.1312 345.767 95.0482 344.671L140.254 318.383C142.152 317.287 145.238 317.268 147.155 318.383L229.076 365.716Z" fill="#587CE5"/>
<path d="M391.95 391.401V395.402L362.483 412.428V408.427L391.95 391.401Z" fill="#0D095E"/>
<path d="M410.043 380.952V384.952L397.373 392.278V388.259L410.043 380.952Z" fill="#0D095E"/>
<path d="M428.118 370.502L428.137 374.503L415.466 381.829L415.448 377.81L428.118 370.502Z" fill="#0D095E"/>
</svg>
