<svg width="765" height="482" viewBox="0 0 765 482" fill="none" xmlns="http://www.w3.org/2000/svg">
<path d="M764 221.389H719.981L420.377 48.3152C398.45 35.6552 363.012 35.6552 341.231 48.3152L43.5805 221.389H0V260.21C0.0547723 268.503 5.55026 276.815 16.523 283.155L343.623 472.122C365.55 484.782 400.988 484.782 422.769 472.122L747.751 283.155C758.632 276.815 764.055 268.522 764.018 260.228V221.408L764 221.389Z" fill="#97B5FF"/>
<path d="M747.477 198.463C769.404 211.123 769.514 231.674 747.733 244.334L422.751 433.302C400.969 445.962 365.532 445.962 343.605 433.302L16.523 244.334C-5.4042 231.674 -5.51375 211.123 16.2674 198.463L341.249 9.49497C363.031 -3.16499 398.468 -3.16499 420.395 9.49497L747.495 198.463H747.477Z" fill="#CCD9FF"/>
</svg>
