<svg width="189" height="177" viewBox="0 0 189 177" fill="none" xmlns="http://www.w3.org/2000/svg">
<path d="M151.025 95.4425C111.48 72.5888 51.7963 68.4785 5.13036 83.0566C2.50129 83.8787 1.73446 87.24 3.74278 89.1399L14.4051 99.1875C16.2491 100.941 15.6649 103.992 13.3097 104.96C11.4292 105.746 9.58517 106.568 7.77768 107.445C5.34945 108.632 5.18512 112.048 7.54033 113.4L24.9214 123.43C26.8932 124.562 29.2849 124.654 31.3115 123.649C33.3016 122.681 35.4012 121.804 37.5555 121.036C56.9632 114.149 82.7609 115.574 99.6125 125.311C108.267 130.317 113.141 136.692 114.255 143.233C114.803 146.503 117.359 149.024 120.663 149.225L146.644 150.686C148.761 150.814 150.295 152.86 149.693 154.888C148.725 158.103 147.21 161.263 145.165 164.332C143.759 166.433 144.854 169.301 147.283 169.996L169.465 176.39C172.77 177.339 176.294 176.061 178.284 173.266C182.885 166.744 185.751 159.893 186.865 152.97C190.169 132.418 178.229 111.135 151.025 95.4243V95.4425Z" fill="#97B5FF"/>
<g opacity="0.7">
<path d="M19.1885 28.4708L19.079 64.2219L0 46.2094L0.0912648 10.4765L19.1885 28.4708Z" fill="#180CB3"/>
<path d="M151.756 71.7668C151.756 71.2188 151.719 70.6889 151.701 70.1409C151.701 69.8669 151.701 69.5928 151.664 69.3371C151.628 68.9352 151.573 68.5333 151.518 68.1131C151.463 67.7112 151.445 67.3093 151.372 66.9074C151.135 65.4094 150.751 63.9114 150.277 62.4317C150.24 62.3038 150.204 62.1942 150.167 62.0663C150.003 61.5548 149.784 61.0433 149.583 60.5318C149.473 60.2395 149.382 59.9655 149.254 59.6732C149.127 59.3626 148.962 59.052 148.816 58.7415C148.597 58.2665 148.396 57.7732 148.141 57.2983C148.104 57.2252 148.049 57.1339 148.013 57.0608C147.246 55.5628 146.351 54.1013 145.347 52.6398C143.85 50.4842 142.061 48.4016 140.034 46.3555C139.888 46.2094 139.779 46.0815 139.633 45.9353C135.963 42.3365 131.435 38.9386 126.086 35.833C124.369 34.8465 122.599 33.9148 120.791 33.0379C120.627 32.9648 120.462 32.8735 120.298 32.8004C118.564 31.9601 116.793 31.1745 114.967 30.4255C114.711 30.3159 114.456 30.2063 114.2 30.115C113.981 30.0236 113.762 29.9323 113.543 29.8409C111.845 29.165 110.092 28.5256 108.321 27.9411C108.175 27.8862 108.029 27.8497 107.901 27.8132C106.313 27.2834 104.688 26.7719 103.045 26.2969C102.789 26.2238 102.534 26.169 102.26 26.0959C101.803 25.9681 101.347 25.8584 100.909 25.7306C99.302 25.2921 97.6589 24.9085 96.0157 24.5249C95.5593 24.4152 95.1211 24.3239 94.6647 24.2143C94.409 24.1595 94.1717 24.1047 93.9344 24.0499C92.2182 23.7028 90.502 23.3922 88.7492 23.0999C88.3293 23.0269 87.9277 22.972 87.5077 22.899C86.7774 22.7894 86.0289 22.6615 85.2986 22.5519C84.0753 22.3692 82.8338 22.223 81.5923 22.0769C81.4645 22.0769 81.355 22.0404 81.2272 22.0404C79.7666 21.876 78.306 21.7298 76.8454 21.6019C76.2247 21.5471 75.5857 21.5106 74.9649 21.474C74.545 21.4375 74.1251 21.4193 73.7051 21.3827C71.8977 21.2731 70.0902 21.1818 68.2827 21.1452C68.0453 21.1452 67.7897 21.1452 67.5524 21.1452C67.169 21.1452 66.7673 21.1452 66.3839 21.1452C64.4851 21.127 62.5681 21.1452 60.6693 21.1818C60.3772 21.1818 60.0668 21.1818 59.7747 21.1818C59.6287 21.1818 59.4826 21.1818 59.3366 21.1818C57.383 21.2548 55.4477 21.3644 53.5124 21.5106C53.0012 21.5471 52.49 21.6019 51.9971 21.6385C51.2303 21.7116 50.4452 21.7481 49.6784 21.8394C48.875 21.9125 48.09 22.0404 47.2867 22.1317C46.5564 22.223 45.8443 22.2961 45.1323 22.3875C43.4161 22.6067 41.7181 22.8807 40.0202 23.1547C39.6003 23.2278 39.1804 23.2826 38.7604 23.3557C38.6692 23.3557 38.5778 23.374 38.4866 23.3922C36.5878 23.7393 34.689 24.1412 32.8268 24.5614C32.4069 24.6527 31.9869 24.7624 31.567 24.8537C29.6135 25.3104 27.6782 25.8036 25.7794 26.3517C25.5238 26.4248 25.2865 26.4979 25.0309 26.5709C24.0632 26.8632 23.0956 27.1372 22.1645 27.4478C21.1603 27.7766 20.1561 28.1055 19.1702 28.4708L19.0607 64.2037C20.9777 63.5278 22.9495 62.9066 24.9213 62.322C25.1769 62.249 25.4143 62.1759 25.6516 62.1028C27.5504 61.5548 29.4857 61.0615 31.4392 60.6048C31.8591 60.5135 32.279 60.4039 32.699 60.3125C34.6525 59.8741 36.6243 59.4539 38.6326 59.1068C39.0525 59.0337 39.4725 58.9789 39.8924 58.9059C41.5903 58.6136 43.2883 58.3578 45.0045 58.1386C45.7165 58.0473 46.4468 57.9559 47.1588 57.8829C48.729 57.7002 50.2991 57.5357 51.8693 57.4079C52.3805 57.3713 52.8734 57.3165 53.3846 57.28C55.466 57.1338 57.5473 57.006 59.6469 56.9511C59.9391 56.9511 60.2494 56.9511 60.5415 56.9511C62.4403 56.8963 64.3573 56.8964 66.2561 56.9146C66.6395 56.9146 67.0412 56.9146 67.4246 56.9146C69.4877 56.9512 71.5325 57.0425 73.5773 57.1704C73.9972 57.1887 74.4172 57.2252 74.8371 57.2617C76.9367 57.4079 79.0363 57.5906 81.1176 57.8281C81.2455 57.8281 81.355 57.8646 81.4828 57.8646C83.4729 58.1021 85.4447 58.3761 87.4165 58.6867C87.8364 58.7597 88.2381 58.8145 88.658 58.8876C90.648 59.2164 92.6198 59.6001 94.5734 60.002C95.0298 60.0933 95.468 60.2029 95.9244 60.3125C97.5676 60.6779 99.2107 61.0798 100.817 61.5182C101.274 61.6461 101.73 61.7557 102.168 61.8836C104.067 62.4134 105.948 62.9797 107.792 63.6009C107.938 63.6557 108.084 63.6922 108.212 63.7287C110.202 64.4047 112.174 65.1354 114.091 65.9026C114.346 66.0122 114.602 66.1219 114.857 66.2132C116.665 66.9622 118.454 67.7477 120.189 68.5881C120.353 68.6611 120.517 68.7525 120.681 68.8256C122.489 69.7207 124.26 70.6341 125.976 71.6389C127.565 72.5523 129.062 73.5205 130.504 74.4888C131.38 75.0734 132.238 75.6762 133.06 76.2973C134.174 77.1194 135.233 77.9598 136.237 78.8001C137.095 79.5309 137.935 80.2616 138.72 81.0106C138.975 81.2481 139.268 81.5038 139.505 81.7413C139.651 81.8874 139.779 82.0153 139.907 82.1615C141.933 84.1893 143.704 86.2901 145.201 88.4275C145.986 89.5602 146.68 90.7111 147.319 91.862C147.976 93.0494 148.597 94.2551 149.108 95.4608C149.711 96.8675 150.167 98.3107 150.551 99.7356C150.605 99.9183 150.66 100.083 150.697 100.265C150.843 100.887 150.971 101.508 151.08 102.129C151.117 102.311 151.171 102.494 151.19 102.695C151.263 103.097 151.281 103.499 151.336 103.901C151.39 104.303 151.445 104.705 151.482 105.125C151.5 105.399 151.482 105.673 151.518 105.929C151.555 106.477 151.573 107.006 151.573 107.554C151.573 106.257 151.573 104.924 151.573 103.535L151.61 90.9668C151.628 84.2806 151.646 77.5396 151.664 71.8033L151.756 71.7668Z" fill="#180CB3"/>
<mask id="mask0_2003_97" style="mask-type:luminance" maskUnits="userSpaceOnUse" x="151" y="71" width="1" height="42">
<path d="M151.756 71.7668L151.646 107.5C151.646 109.052 151.518 110.605 151.263 112.14L151.372 76.4069C151.628 74.8541 151.756 73.3196 151.756 71.7668Z" fill="white"/>
</mask>
<g mask="url(#mask0_2003_97)">
<path d="M151.756 71.7668L151.646 107.5C151.646 107.755 151.646 108.011 151.646 108.267L151.756 72.534C151.756 72.2783 151.756 72.0225 151.756 71.7668Z" fill="#00658B"/>
<path d="M151.737 72.534L151.628 108.267C151.591 109.564 151.464 110.843 151.263 112.14L151.372 76.4069C151.573 75.1281 151.701 73.8311 151.737 72.534Z" fill="#00688F"/>
</g>
<path d="M188.051 74.434C188.033 74.7628 188.015 75.0916 187.997 75.4205C187.905 76.4435 187.796 77.4482 187.632 78.4712C187.504 79.2568 187.339 80.0423 187.157 80.8096C187.029 81.4307 186.865 82.0519 186.7 82.673C186.573 83.1662 186.427 83.6595 186.281 84.1527C186.098 84.7739 185.879 85.395 185.66 86.0161C185.495 86.4911 185.331 86.966 185.13 87.4593C184.856 88.1352 184.564 88.8294 184.272 89.5053C184.071 89.9438 183.889 90.3822 183.688 90.8207C183.341 91.5697 182.939 92.3004 182.538 93.0494C182.337 93.4148 182.173 93.7619 181.972 94.1272C181.314 95.2781 180.602 96.429 179.854 97.5617C179.69 97.8174 179.489 98.0732 179.306 98.3289C178.704 99.2058 178.065 100.083 177.407 100.941C176.768 101.763 176.129 102.585 175.436 103.408L175.326 139.14C175.91 138.465 176.476 137.77 177.006 137.076C177.115 136.948 177.188 136.802 177.298 136.674C177.955 135.816 178.594 134.939 179.197 134.08C179.379 133.824 179.58 133.55 179.744 133.295C180.511 132.162 181.205 131.011 181.862 129.86C181.899 129.805 181.935 129.75 181.953 129.696C182.118 129.385 182.264 129.075 182.428 128.764C182.83 128.033 183.213 127.284 183.578 126.554C183.779 126.115 183.962 125.677 184.163 125.238C184.455 124.562 184.765 123.886 185.021 123.192C185.094 123.028 185.167 122.863 185.24 122.681C185.349 122.37 185.441 122.06 185.55 121.749C185.769 121.128 185.97 120.507 186.171 119.886C186.317 119.392 186.463 118.899 186.591 118.406C186.755 117.785 186.901 117.164 187.047 116.542C187.102 116.287 187.175 116.049 187.23 115.794C187.339 115.264 187.431 114.734 187.522 114.204C187.686 113.181 187.796 112.176 187.887 111.153C187.924 110.824 187.924 110.496 187.942 110.167C187.978 109.674 188.015 109.199 188.033 108.705C188.033 108.34 188.033 107.975 188.033 107.609L188.143 71.8764C188.143 72.735 188.088 73.5936 188.033 74.434H188.051Z" fill="#3123C3"/>
<path d="M28.9563 50.813L28.8467 86.5459L2.93945 71.5841L3.04902 35.8513L28.9563 50.813Z" fill="#587CE5"/>
<path d="M100.379 50.813C99.2839 50.1736 98.1337 49.589 96.9652 49.0227C96.5818 48.84 96.1619 48.6756 95.7785 48.4929C94.9751 48.1276 94.1901 47.7805 93.3685 47.4516C93.2772 47.4151 93.2042 47.3786 93.1129 47.342C92.127 46.9584 91.1046 46.5748 90.0822 46.2459C90.0091 46.2277 89.9361 46.2094 89.8631 46.1729C88.9319 45.8623 87.9826 45.57 87.0332 45.296C86.9419 45.2594 86.8323 45.2412 86.741 45.2229C85.2074 44.7845 83.619 44.4008 82.0306 44.072C81.9393 44.0537 81.8481 44.0172 81.7568 43.9989C81.4464 43.9258 81.1178 43.8893 80.7891 43.8345C79.6754 43.6153 78.5617 43.4143 77.448 43.2499C77.2107 43.2134 76.9916 43.1586 76.7542 43.122C76.4439 43.0855 76.1152 43.049 75.8048 43.0124C74.8189 42.8846 73.8331 42.7749 72.8472 42.6836C72.5185 42.6471 72.1716 42.5923 71.843 42.574C71.6239 42.574 71.4048 42.5557 71.1857 42.5374C70.0903 42.4644 69.0131 42.4096 67.9177 42.3548C67.5708 42.3548 67.2239 42.3 66.8587 42.3C66.7674 42.3 66.6761 42.3 66.5666 42.3C64.9965 42.2634 63.4081 42.2634 61.8379 42.3182C61.7832 42.3182 61.7284 42.3182 61.6553 42.3182C61.4363 42.3182 61.2172 42.3548 61.0163 42.3548C59.5923 42.4096 58.1864 42.5009 56.7624 42.6471C56.525 42.6653 56.2877 42.6653 56.0503 42.7019C55.5756 42.7567 55.1192 42.8115 54.6627 42.8663C54.2428 42.9211 53.8229 42.9576 53.4213 43.0124C52.4171 43.1403 51.4312 43.3047 50.4453 43.4691C50.2079 43.5057 49.9706 43.5422 49.7332 43.5788C49.6785 43.5788 49.642 43.5787 49.5872 43.597C49.3681 43.6335 49.149 43.6884 48.9299 43.7432C47.7067 43.9806 46.4834 44.2364 45.2784 44.5287C44.7855 44.6566 44.3108 44.7845 43.8179 44.9123C42.8502 45.1681 41.8826 45.4421 40.9332 45.7344C40.6593 45.8257 40.3855 45.8806 40.1299 45.9719C39.5456 46.1546 38.9614 46.3555 38.3954 46.5565C35.0726 47.7439 31.8958 49.1506 29.0293 50.8313L28.9198 86.5642C31.7862 84.9018 34.963 83.4768 38.2858 82.2893C39.1257 81.997 39.9838 81.7413 40.8419 81.4673C41.7913 81.175 42.7589 80.9009 43.7448 80.6452C44.2378 80.5173 44.7125 80.3895 45.2054 80.2616C46.4104 79.9693 47.6337 79.7135 48.8569 79.476C49.1308 79.4212 49.3864 79.3664 49.6602 79.3116C49.8976 79.2751 50.1532 79.2385 50.3905 79.202C51.3764 79.0376 52.3623 78.8914 53.3665 78.7453C53.7864 78.6905 54.2063 78.6357 54.6263 78.5991C55.32 78.5261 56.0321 78.453 56.7258 78.3799C58.1317 78.2521 59.5557 78.1607 60.9798 78.0876C61.2537 78.0876 61.5275 78.0511 61.8014 78.0511C63.3715 77.9963 64.9599 77.9963 66.5301 78.0328C66.9865 78.0328 67.4247 78.0694 67.8811 78.0876C68.9766 78.1242 70.0538 78.179 71.1492 78.2703C71.6969 78.3069 72.2629 78.3616 72.8106 78.4165C73.7965 78.5078 74.7824 78.6174 75.7683 78.7453C76.3161 78.8183 76.8638 78.8915 77.4115 78.9645C78.5435 79.129 79.6389 79.3299 80.7526 79.5491C81.1725 79.6222 81.5924 79.6952 81.9941 79.7866C83.5825 80.1154 85.1526 80.5173 86.7045 80.9375C87.7635 81.2298 88.8224 81.5586 89.8448 81.8874C89.9178 81.9057 89.9909 81.924 90.0639 81.9605C91.1776 82.3442 92.273 82.7461 93.3502 83.1845C94.1718 83.5133 94.9569 83.8787 95.7602 84.2258C96.1619 84.4085 96.5635 84.5729 96.9652 84.7556C98.1337 85.3219 99.2656 85.9065 100.379 86.5459C107.208 90.4918 111.699 95.2964 113.817 100.375C114.784 102.677 115.259 105.033 115.259 107.39L115.369 71.6572C115.387 64.1124 110.439 56.5676 100.489 50.813H100.379Z" fill="#0D095E"/>
<path d="M126.104 35.8513C145.274 46.9219 153.709 61.9201 151.372 76.4069L115.022 74.3609C116.373 65.9574 111.498 57.2435 100.361 50.813C83.5095 41.076 57.7117 39.6511 38.3041 46.5382C34.9813 47.7257 31.8045 49.1323 28.938 50.813L3.03076 35.8513C7.99678 32.9649 13.4375 30.5169 19.1703 28.4708C52.5997 16.6147 97.0382 19.0627 126.086 35.8513H126.104Z" fill="#C5D2FC"/>
<path d="M151.372 76.4069L151.281 112.158L114.931 110.094L115.022 74.3609L151.372 76.4069Z" fill="#587CE5"/>
<path d="M151.774 20.926C178.978 36.6368 190.936 57.9011 187.613 78.4712C186.226 87.0573 182.136 95.5156 175.417 103.389L142.773 93.9811C147.502 88.4275 150.368 82.472 151.354 76.4069C153.691 61.9201 145.256 46.9218 126.086 35.8512C97.0382 19.0626 52.5997 16.6146 19.1703 28.4708L0.0913086 10.4582C47.5058 -6.36693 110.567 -2.89594 151.774 20.9077V20.926Z" fill="#5447CB"/>
<path d="M175.436 103.389L175.344 139.122L142.7 129.714L142.791 93.9811L175.436 103.389Z" fill="#180CB3"/>
</g>
</svg>
