<svg width="80" height="166" viewBox="0 0 80 166" fill="none" xmlns="http://www.w3.org/2000/svg">
<path d="M0 45.5795L78.8903 0L79.2372 119.913L0.346895 165.493L0 45.5795ZM39.7647 136.209C55.3017 127.239 67.8446 105.5 67.7898 87.6332C67.7533 73.2012 59.5009 65.7477 48.1448 68.1226C45.4427 68.6889 42.5763 69.8216 39.5821 71.5388C24.045 80.5086 11.5022 102.266 11.557 120.114C11.5935 134.528 19.8458 142 31.2019 139.607C33.904 139.04 36.7887 137.908 39.7647 136.19M72.062 28.9188V23.7306L6.95607 61.3268V66.515L72.062 28.9188ZM6.9926 73.256V82.0431L25.6517 71.2831V62.496L6.9926 73.256ZM72.0985 44.4469V35.6598L53.4395 46.4199V55.2069L72.0985 44.4469ZM30.2525 68.6341L48.8751 57.8741V49.087L30.216 59.8471V68.6341M6.91956 51.9734V57.1616L30.4169 43.6065V38.4183L6.91956 51.9734Z" fill="#587DE5"/>
<path d="M48.1448 68.1409C59.5009 65.7478 67.7533 73.2195 67.7898 87.6515C67.8446 105.5 55.2834 127.257 39.7646 136.227C36.7704 137.944 33.904 139.077 31.2019 139.643L34.0683 127.568C35.8575 127.184 37.7563 126.453 39.7464 125.303C50.0253 119.365 58.3324 104.952 58.3142 93.132C58.2959 83.5777 52.8187 78.627 45.2966 80.2163L48.1631 68.1409H48.1448Z" fill="#97B5FF"/>
<path d="M21.0508 114.652C21.0691 124.206 26.5463 129.139 34.0683 127.568L31.2019 139.643C19.8458 142.036 11.5935 134.565 11.5569 120.151L21.0508 114.67V114.652Z" fill="#3123C3"/>
<path d="M45.2784 80.2163C52.8004 78.627 58.2594 83.5777 58.2959 93.1321C58.3324 104.952 50.0253 119.365 39.7281 125.303C37.7563 126.454 35.8393 127.184 34.0501 127.568C26.528 129.157 21.069 124.206 21.0325 114.652C20.996 102.814 29.3031 88.4188 39.6003 82.4816C41.5721 81.349 43.4892 80.6 45.2784 80.2163Z" fill="#587DE5"/>
<path d="M39.5821 71.5571C42.5763 69.8398 45.4427 68.7072 48.1448 68.1409L45.2784 80.2162C43.4892 80.5816 41.5904 81.3306 39.6004 82.4815C29.3032 88.4187 20.996 102.832 21.0326 114.652L11.5387 120.133C11.4839 102.284 24.045 80.5268 39.5638 71.5571H39.5821Z" fill="#5647CB"/>
<path d="M48.8386 49.087L48.8751 57.8741L30.2525 68.6342L30.216 59.8471L48.8386 49.087Z" fill="white"/>
<path d="M25.6152 62.496L25.6334 71.3013L7.01088 82.0614L6.99261 73.256L25.6152 62.496Z" fill="white"/>
<path d="M72.0438 23.7306L72.062 28.9188L6.97432 66.515L6.95605 61.3268L72.0438 23.7306Z" fill="#CCD9FF"/>
<path d="M30.3986 38.4183L30.4169 43.6065L6.93782 57.1799L6.91956 51.9735L30.3986 38.4183Z" fill="#CCD9FF"/>
<path d="M72.0803 35.6598L72.0985 44.4469L53.476 55.2069L53.4577 46.4198L72.0803 35.6598Z" fill="white"/>
</svg>
