<svg width="153" height="177" viewBox="0 0 153 177" fill="none" xmlns="http://www.w3.org/2000/svg">
<g opacity="0.7">
<path d="M87.0879 106.646L87.0697 112.4L113.835 127.855L113.853 122.101L87.0879 106.646Z" fill="white"/>
<path d="M87.0332 126.229V128.348L120.481 147.658V145.557L87.0332 126.229Z" fill="white"/>
<path d="M87.0514 122.356V124.476L132.604 150.8L132.622 148.681L87.0514 122.356Z" fill="white"/>
<path d="M87.0697 118.484L87.0514 120.603L129.427 145.064V142.963L87.0697 118.484Z" fill="white"/>
<path d="M122.307 89.309L122.234 115.579L145.092 128.787L145.183 102.517L122.307 89.309Z" fill="#97B5FF"/>
<path d="M56.9632 51.5483L56.9449 58.4172L89.0963 76.9961L89.1145 70.1272L56.9632 51.5483Z" fill="white"/>
<path d="M8.03333 33.9194V36.9154L89.078 83.7554L89.0963 80.7411L8.03333 33.9194Z" fill="white"/>
<path d="M72.9384 97.1461C67.4064 93.9491 62.9151 96.5249 62.8969 102.882C62.8969 109.24 67.3517 116.985 72.8837 120.182C78.4157 123.379 82.907 120.804 82.9252 114.464C82.9252 108.107 78.4887 100.361 72.9567 97.1644L72.9384 97.1461Z" fill="white"/>
<path d="M87.0697 114.611V116.73L139.724 147.146V145.046L87.0697 114.611Z" fill="white"/>
<path d="M25.2866 90.5512V92.6703L58.7342 111.98V109.879L25.2866 90.5512Z" fill="white"/>
<path d="M13.1819 79.6815L13.1637 81.8007L58.7342 108.107V106.006L13.1819 79.6815Z" fill="white"/>
<path d="M18.0019 78.5854L17.9836 80.7045L58.7525 104.234V102.133L18.0019 78.5854Z" fill="white"/>
<path d="M24.2459 78.3114L24.2277 80.4305L58.7525 100.38L58.7707 98.2604L24.2459 78.3114Z" fill="white"/>
<path d="M42.0652 80.6315L42.047 86.386L58.7708 96.05L58.789 90.2954L42.0652 80.6315Z" fill="white"/>
<path d="M141.24 133.043C143.376 134.267 145.074 137.245 145.074 139.693L145.019 160.939C145.019 163.387 143.284 164.374 141.167 163.131L11.2102 88.0485C9.07407 86.8245 7.35786 83.8467 7.37612 81.3988L7.43089 60.1527C7.43089 57.7047 9.16534 56.7183 11.3015 57.9605L141.258 133.043H141.24ZM72.8837 120.164C78.4157 123.361 82.9071 120.785 82.9253 114.446C82.9253 108.089 78.4888 100.343 72.9568 97.1461C67.4248 93.9491 62.9334 96.525 62.9152 102.882C62.9152 109.24 67.37 116.986 72.902 120.182M87.0698 112.4L113.835 127.855V122.101L87.088 106.646V112.4M87.0698 116.73L139.724 147.147V145.027L87.0698 114.611V116.73ZM87.0515 124.476L132.622 150.8V148.681L87.0698 122.356V124.476M13.1637 81.8007L58.7343 108.125V106.006L13.182 79.6816V81.8007M58.789 90.2955L42.0652 80.6315V86.386L58.7707 96.05V90.2955M87.0515 120.603L129.409 145.082V142.981L87.0515 118.502V120.603ZM58.7525 102.133L18.0019 78.5855V80.6863L58.7525 104.234V102.133ZM58.7707 98.2605L24.246 78.3114V80.4306L58.7707 100.38V98.2605ZM25.2866 92.6704L58.7343 111.998V109.879L25.3049 90.5512V92.6704M87.0332 128.348L120.481 147.676V145.557L87.0515 126.229V128.348" fill="#97B5FF"/>
<path d="M107.025 80.467C100.708 76.8134 95.5776 79.7363 95.5594 87.0071C95.5411 94.2596 100.653 103.102 106.952 106.755C113.269 110.409 118.399 107.468 118.418 100.215C118.436 92.9626 113.342 84.1207 107.025 80.467Z" fill="white"/>
<path d="M58.3143 75.6442L58.296 78.6402L89.0415 96.4153L89.0598 93.4193L58.3143 75.6442Z" fill="white"/>
<path d="M8.01514 40.2585V43.2545L89.0598 90.0762L89.078 87.0802L8.01514 40.2585Z" fill="white"/>
<path d="M152.34 170.95C152.34 175.846 148.871 177.819 144.617 175.353L7.66818 96.2326C3.4142 93.7847 -0.0181849 87.8292 7.24989e-05 82.9333L0.200877 11.2118L152.559 99.2286L152.358 170.95H152.34ZM7.35781 81.417C7.35781 83.865 9.07399 86.8427 11.1919 88.0667L141.148 163.15C143.284 164.374 145 163.387 145 160.957L145.055 139.711C145.055 137.263 143.357 134.304 141.221 133.062L11.2649 57.9787C9.12878 56.7548 7.41256 57.723 7.39431 60.171L7.33954 81.417M107.025 80.467C100.708 76.8134 95.5777 79.7363 95.5594 87.0071C95.5411 94.2596 100.653 103.102 106.952 106.755C113.269 110.409 118.399 107.468 118.418 100.215C118.436 92.9626 113.342 84.1207 107.025 80.467ZM145.183 102.517L122.325 89.3089L122.252 115.597L145.11 128.805L145.183 102.517ZM89.078 87.0802L8.01508 40.2584V43.2545L89.0598 90.0762V87.0802M89.0963 80.7411L8.03333 33.9193V36.9153L89.078 83.7371V80.7411M89.1145 70.1272L56.9632 51.5483V58.4172L89.0963 76.9961V70.1272M89.0598 93.4193L58.3142 75.6625V78.6585L89.0598 96.4153V93.4193Z" fill="#CCD9FF"/>
<path d="M144.891 80.1748L7.942 1.05463C3.68802 -1.39333 0.237374 0.56139 0.219116 5.4573V11.2118L152.559 99.2287V93.4741C152.596 88.5782 149.163 82.6228 144.891 80.1748Z" fill="#97B5FF"/>
</g>
</svg>
