<svg width="47" height="48" viewBox="0 0 47 48" fill="none" xmlns="http://www.w3.org/2000/svg">
<g clip-path="url(#clip0_130_3871)">
<path d="M42.2158 19.7405L38.235 20.1318C37.4105 20.2129 36.8079 20.9469 36.8889 21.7714C36.97 22.5958 37.704 23.1985 38.5285 23.1174L42.5093 22.7261C43.3337 22.6451 43.9364 21.911 43.8554 21.0866C43.7743 20.2621 43.0403 19.6595 42.2158 19.7405Z" fill="#2161D0"/>
<path d="M7.38182 23.1648L3.40101 23.5561C2.57655 23.6372 1.9739 24.3712 2.05495 25.1957C2.13599 26.0201 2.87004 26.6228 3.6945 26.5417L7.67531 26.1504C8.49976 26.0694 9.10241 25.3353 9.02137 24.5109C8.94033 23.6864 8.20627 23.0838 7.38182 23.1648Z" fill="#2161D0"/>
<path d="M19.5537 3.88014L19.9451 7.86095C20.0261 8.68541 20.7601 9.28806 21.5846 9.20702C22.4091 9.12597 23.0117 8.39192 22.9307 7.56747L22.5393 3.58665C22.4583 2.7622 21.7243 2.15955 20.8998 2.24059C20.0753 2.32164 19.4727 3.05569 19.5537 3.88014Z" fill="#2161D0"/>
<path d="M22.9774 38.7144L23.3688 42.6952C23.4498 43.5197 24.1839 44.1224 25.0083 44.0413C25.8328 43.9603 26.4354 43.2262 26.3544 42.4018L25.9631 38.4209C25.882 37.5965 25.148 36.9938 24.3235 37.0749C23.4991 37.1559 22.8964 37.89 22.9774 38.7144Z" fill="#2161D0"/>
<mask id="mask0_130_3871" style="mask-type:luminance" maskUnits="userSpaceOnUse" x="9" y="10" width="28" height="27">
<path d="M33.7228 10.0234L9.83789 12.3713L12.1858 36.2562L36.0707 33.9083L33.7228 10.0234Z" fill="white"/>
</mask>
<g mask="url(#mask0_130_3871)">
<path d="M16.3252 24.8625L25.9947 12.023C26.4415 11.4298 27.3828 11.8488 27.2411 12.5778L25.6141 20.9432L29.8702 20.5248C30.5695 20.456 31.0113 21.2577 30.5798 21.8122L20.9344 34.2064C20.4791 34.7914 19.5459 34.3601 19.6966 33.6343L21.3384 25.7176L17.0425 26.1399C16.3493 26.2081 15.9062 25.419 16.3252 24.8625Z" fill="#2161D0"/>
</g>
</g>
<defs>
<clipPath id="clip0_130_3871">
<rect width="43" height="43" fill="white" transform="translate(0 4.29517) rotate(-5.61417)"/>
</clipPath>
</defs>
</svg>
