<svg width="36" height="36" viewBox="0 0 36 36" fill="none" xmlns="http://www.w3.org/2000/svg">
<path d="M11.2428 36C8.52744 35.9983 5.90433 35.0145 3.8575 33.2302C1.81067 31.4459 0.478272 28.9815 0.106162 26.2917C-0.265948 23.602 0.347345 20.8684 1.83287 18.5954C3.3184 16.3224 5.5759 14.6634 8.18882 13.9245C10.088 13.3807 12.0983 13.3558 14.0103 13.8525L25.8723 1.99353C26.502 1.35945 27.2514 0.85673 28.0769 0.514523C28.9024 0.172315 29.7877 -0.00256471 30.6813 2.84209e-05C32.0877 0.00122007 33.4361 0.560415 34.4305 1.55485C35.4249 2.54928 35.9841 3.89769 35.9853 5.30403C35.9876 6.19771 35.8128 7.083 35.4709 7.90869C35.129 8.73439 34.6268 9.48411 33.9933 10.1145L32.9853 11.1225C32.4213 11.6827 31.6592 11.998 30.8643 12H28.4853V13.5C28.4853 14.2957 28.1692 15.0587 27.6066 15.6213C27.044 16.184 26.281 16.5 25.4853 16.5H23.9853V18.879C23.9864 19.2731 23.9092 19.6635 23.7584 20.0276C23.6075 20.3917 23.3858 20.7222 23.1063 21L22.1313 21.975C22.6308 23.8862 22.6064 25.8965 22.0608 27.795C21.4469 29.958 20.2013 31.8886 18.4835 33.3393C16.7658 34.7901 14.6541 35.6952 12.4188 35.9385C12.0281 35.9791 11.6356 35.9997 11.2428 36ZM11.2428 16.5C9.70704 16.4985 8.20134 16.9258 6.8952 17.7336C5.58906 18.5415 4.53434 19.6978 3.84977 21.0726C3.1652 22.4474 2.87796 23.9859 3.02038 25.5151C3.1628 27.0442 3.72922 28.5033 4.6559 29.728C5.58257 30.9527 6.83269 31.8944 8.26555 32.4472C9.69841 32.9999 11.2571 33.1417 12.7662 32.8567C14.2753 32.5716 15.6748 31.8709 16.8073 30.8336C17.9398 29.7962 18.7603 28.4634 19.1763 26.985C19.6443 25.3598 19.5919 23.6289 19.0263 22.035C18.934 21.7688 18.9186 21.482 18.9817 21.2075C19.0448 20.9329 19.184 20.6817 19.3833 20.4825L20.9853 18.879V16.5C20.9853 15.7044 21.3014 14.9413 21.864 14.3787C22.4266 13.8161 23.1897 13.5 23.9853 13.5H25.4853V12C25.4853 11.2044 25.8014 10.4413 26.364 9.87871C26.9266 9.3161 27.6897 9.00003 28.4853 9.00003H30.8643L31.8723 7.99203C32.2263 7.63976 32.5069 7.22082 32.6979 6.75944C32.8889 6.29806 32.9866 5.80339 32.9853 5.30403C32.9849 4.69335 32.7423 4.10778 32.3106 3.67582C31.8789 3.24387 31.2935 3.00082 30.6828 3.00003C30.1831 2.9988 29.6881 3.09667 29.2265 3.28797C28.7648 3.47927 28.3457 3.76021 27.9933 4.11453L15.4968 16.6095C15.2974 16.8089 15.0458 16.9479 14.771 17.0108C14.4961 17.0737 14.2091 17.0578 13.9428 16.965C13.0729 16.6588 12.1576 16.5015 11.2353 16.5H11.2428ZM7.48532 27C7.48532 27.2967 7.57329 27.5867 7.73811 27.8334C7.90294 28.0801 8.1372 28.2723 8.41129 28.3859C8.68538 28.4994 8.98698 28.5291 9.27795 28.4712C9.56892 28.4133 9.8362 28.2705 10.046 28.0607C10.2558 27.8509 10.3986 27.5836 10.4565 27.2927C10.5144 27.0017 10.4847 26.7001 10.3711 26.426C10.2576 26.1519 10.0653 25.9176 9.81867 25.7528C9.572 25.588 9.28199 25.5 8.98532 25.5C8.58749 25.5 8.20596 25.6581 7.92466 25.9394C7.64335 26.2207 7.48532 26.6022 7.48532 27Z" fill="white"/>
</svg>
