<svg width="560" height="238" viewBox="0 0 560 238" fill="none" xmlns="http://www.w3.org/2000/svg">
<g filter="url(#filter0_d_138_4282)">
<rect x="433" y="11.73" width="112.08" height="44.19" rx="18" fill="white" shape-rendering="crispEdges"/>
<g clip-path="url(#clip0_138_4282)">
<g clip-path="url(#clip1_138_4282)">
<g clip-path="url(#clip2_138_4282)">
<path d="M470.903 24.82H447.097C445.94 24.82 445 25.74 445 26.877V30.82H473V26.877C473 25.74 472.06 24.82 470.903 24.82Z" fill="#FAB446"/>
<path d="M445 40.763C445 41.898 445.94 42.82 447.097 42.82H470.903C472.06 42.82 473 41.898 473 40.763V36.82H445V40.763Z" fill="#73AF00"/>
<path d="M473 30.818H445V36.818H473V30.818Z" fill="#F5F5F5"/>
<path d="M458.999 36.3651C458.312 36.3651 457.652 36.0951 457.166 35.6181C456.927 35.3838 456.736 35.1042 456.605 34.7955C456.475 34.4868 456.407 34.1552 456.406 33.8201C456.406 32.4161 457.569 31.2741 459 31.2741C460.431 31.2741 461.595 32.4161 461.595 33.8201C461.594 34.4951 461.32 35.1421 460.834 35.6201C460.344 36.0988 459.686 36.3666 459 36.3661L458.999 36.3651ZM458.999 31.7461C458.439 31.7471 457.903 31.9661 457.507 32.3541C457.312 32.545 457.156 32.773 457.05 33.0247C456.943 33.2764 456.888 33.5468 456.887 33.8201C456.888 34.3701 457.111 34.8961 457.507 35.2851C457.906 35.6752 458.442 35.8935 459 35.8935C459.558 35.8935 460.094 35.6752 460.493 35.2851C460.889 34.8961 461.112 34.3701 461.113 33.8201C461.111 33.2701 460.889 32.7441 460.493 32.3551C460.094 31.9646 459.558 31.746 458.999 31.7461Z" fill="#3C3C3C"/>
<path d="M459 34.11C459.04 34.1126 459.081 34.107 459.119 34.0936C459.157 34.0802 459.192 34.0592 459.222 34.032C459.266 33.9913 459.297 33.9379 459.309 33.8791C459.322 33.8204 459.316 33.7592 459.292 33.704C459.276 33.667 459.252 33.6339 459.222 33.6067C459.192 33.5795 459.157 33.5588 459.119 33.546C459.08 33.5329 459.04 33.5278 458.999 33.531C458.927 33.5382 458.859 33.5717 458.81 33.625C458.761 33.6779 458.734 33.7472 458.734 33.819C458.734 33.8908 458.761 33.9601 458.81 34.013C458.86 34.0669 458.927 34.1008 459 34.108V34.11Z" fill="#3C3C3C"/>
<path d="M459 33.8638L458.253 33.9368L456.646 33.8638V33.7768L458.253 33.7018L459 33.7768V33.8638ZM459 33.8638L459.747 33.9368L461.354 33.8638V33.7768L459.748 33.7018L459.002 33.7768V33.8638H459Z" fill="#3C3C3C"/>
<path d="M458.957 33.82L458.881 33.087L458.957 31.51H459.046L459.12 33.087L459.047 33.819H458.957V33.82ZM458.957 33.82L458.881 34.552L458.957 36.129H459.046L459.12 34.553L459.047 33.82H458.957Z" fill="#3C3C3C"/>
<path d="M458.97 33.8499L458.387 33.3839L457.305 32.2179L457.367 32.1569L458.557 33.2169L459.031 33.7889L458.969 33.8489L458.97 33.8499Z" fill="#3C3C3C"/>
<path d="M458.969 33.8502L459.445 34.4202L460.633 35.4832L460.695 35.4222L459.613 34.2562L459.031 33.7892L458.969 33.8502Z" fill="#3C3C3C"/>
<path d="M458.969 33.789L459.445 33.218L460.633 32.155L460.695 32.216L459.613 33.384L459.031 33.85L458.969 33.789Z" fill="#3C3C3C"/>
<path d="M458.97 33.7892L458.387 34.2562L457.305 35.4222L457.367 35.4832L458.557 34.4212L459.031 33.8502L458.969 33.7892H458.97Z" fill="#3C3C3C"/>
<path d="M459.019 33.8592L458.358 34.2092L456.844 34.7442L456.811 34.6642L458.266 33.9922L458.985 33.7782L459.019 33.8592ZM459.019 33.8592L459.739 33.6472L461.193 32.9752L461.159 32.8952L459.647 33.4302L458.987 33.7802L459.019 33.8592Z" fill="#3C3C3C"/>
<path d="M458.96 33.8361L458.603 33.1871L458.059 31.7021L458.139 31.6701L458.824 33.0971L459.042 33.8021L458.959 33.8361H458.96Z" fill="#3C3C3C"/>
<path d="M458.959 33.836L459.175 34.543L459.86 35.97L459.94 35.936L459.396 34.453L459.04 33.803L458.959 33.836Z" fill="#3C3C3C"/>
<path d="M458.986 33.8592L458.266 33.6472L456.811 32.9752L456.844 32.8952L458.358 33.4302L459.018 33.7802L458.986 33.8592Z" fill="#3C3C3C"/>
<path d="M458.984 33.859L459.646 34.21L461.157 34.744L461.192 34.664L459.737 33.992L459.017 33.778L458.984 33.859Z" fill="#3C3C3C"/>
<path d="M458.959 33.804L459.175 33.097L459.86 31.67L459.94 31.702L459.396 33.187L459.04 33.836L458.959 33.802V33.804Z" fill="#3C3C3C"/>
<path d="M458.96 33.8039L458.603 34.4529L458.059 35.9359L458.139 35.9699L458.824 34.5429L459.042 33.8359L458.959 33.8019V33.8039H458.96Z" fill="#3C3C3C"/>
<path d="M459.001 34.2082C459.105 34.2083 459.206 34.1674 459.281 34.0942C459.317 34.0584 459.346 34.0156 459.366 33.9684C459.386 33.9211 459.396 33.8704 459.396 33.8192C459.396 33.768 459.386 33.7173 459.366 33.6701C459.346 33.6228 459.317 33.5801 459.281 33.5442C459.206 33.4709 459.105 33.4299 459.001 33.4299C458.896 33.4299 458.795 33.4709 458.721 33.5442C458.684 33.5801 458.655 33.6229 458.635 33.6701C458.616 33.7174 458.605 33.768 458.605 33.8192C458.605 33.8704 458.616 33.9211 458.635 33.9683C458.655 34.0155 458.684 34.0583 458.721 34.0942C458.795 34.1674 458.896 34.2083 459.001 34.2082Z" fill="#F5F5F5"/>
<path d="M458.999 34.0532C459.062 34.0531 459.122 34.0284 459.167 33.9842C459.189 33.9627 459.206 33.9371 459.218 33.9087C459.23 33.8804 459.236 33.85 459.236 33.8192C459.236 33.7885 459.23 33.7581 459.218 33.7298C459.206 33.7014 459.189 33.6757 459.167 33.6542C459.122 33.6103 459.062 33.5856 458.999 33.5856C458.936 33.5856 458.876 33.6103 458.831 33.6542C458.809 33.6757 458.792 33.7014 458.78 33.7298C458.768 33.7581 458.762 33.7885 458.762 33.8192C458.762 33.85 458.768 33.8804 458.78 33.9087C458.792 33.9371 458.809 33.9627 458.831 33.9842C458.876 34.0284 458.936 34.0531 458.999 34.0532Z" fill="#3C3C3C"/>
</g>
</g>
</g>
<path opacity="0.8" d="M484.68 38.63V27.43H486.28V38.63H484.68ZM494.097 30.07C494.79 30.07 495.398 30.2033 495.921 30.47C496.454 30.7367 496.87 31.142 497.169 31.686C497.468 32.23 497.617 32.918 497.617 33.75V38.63H496.081V33.926C496.081 33.1047 495.878 32.486 495.473 32.07C495.078 31.654 494.518 31.446 493.793 31.446C493.249 31.446 492.774 31.5527 492.369 31.766C491.964 31.9793 491.649 32.294 491.425 32.71C491.212 33.126 491.105 33.6433 491.105 34.262V38.63H489.569V30.15H491.041V32.438L490.801 31.83C491.078 31.2753 491.505 30.8433 492.081 30.534C492.657 30.2247 493.329 30.07 494.097 30.07ZM504.124 38.726C503.302 38.726 502.566 38.5447 501.916 38.182C501.276 37.8193 500.769 37.3127 500.396 36.662C500.022 36.0113 499.836 35.254 499.836 34.39C499.836 33.526 500.022 32.774 500.396 32.134C500.769 31.4833 501.276 30.9767 501.916 30.614C502.566 30.2513 503.302 30.07 504.124 30.07C504.838 30.07 505.484 30.23 506.06 30.55C506.636 30.87 507.094 31.35 507.436 31.99C507.788 32.63 507.964 33.43 507.964 34.39C507.964 35.35 507.793 36.15 507.452 36.79C507.121 37.43 506.668 37.9153 506.092 38.246C505.516 38.566 504.86 38.726 504.124 38.726ZM504.252 37.382C504.785 37.382 505.265 37.2593 505.692 37.014C506.129 36.7687 506.47 36.422 506.716 35.974C506.972 35.5153 507.1 34.9873 507.1 34.39C507.1 33.782 506.972 33.2593 506.716 32.822C506.47 32.374 506.129 32.0273 505.692 31.782C505.265 31.5367 504.785 31.414 504.252 31.414C503.708 31.414 503.222 31.5367 502.796 31.782C502.369 32.0273 502.028 32.374 501.772 32.822C501.516 33.2593 501.388 33.782 501.388 34.39C501.388 34.9873 501.516 35.5153 501.772 35.974C502.028 36.422 502.369 36.7687 502.796 37.014C503.222 37.2593 503.708 37.382 504.252 37.382ZM507.148 38.63V36.342L507.244 34.374L507.084 32.406V26.758H508.62V38.63H507.148ZM511.686 38.63V30.15H513.222V38.63H511.686ZM512.454 28.518C512.155 28.518 511.905 28.422 511.702 28.23C511.51 28.038 511.414 27.8033 511.414 27.526C511.414 27.238 511.51 26.998 511.702 26.806C511.905 26.614 512.155 26.518 512.454 26.518C512.753 26.518 512.998 26.614 513.19 26.806C513.393 26.9873 513.494 27.2167 513.494 27.494C513.494 27.782 513.398 28.0273 513.206 28.23C513.014 28.422 512.763 28.518 512.454 28.518ZM521.579 38.63V36.838L521.499 36.502V33.446C521.499 32.7953 521.307 32.294 520.923 31.942C520.549 31.5793 519.984 31.398 519.227 31.398C518.725 31.398 518.235 31.4833 517.755 31.654C517.275 31.814 516.869 32.0327 516.539 32.31L515.899 31.158C516.336 30.806 516.859 30.5393 517.467 30.358C518.085 30.166 518.731 30.07 519.403 30.07C520.565 30.07 521.461 30.3527 522.091 30.918C522.72 31.4833 523.035 32.3473 523.035 33.51V38.63H521.579ZM518.795 38.726C518.165 38.726 517.611 38.6193 517.131 38.406C516.661 38.1927 516.299 37.8993 516.043 37.526C515.787 37.142 515.659 36.71 515.659 36.23C515.659 35.7713 515.765 35.3553 515.979 34.982C516.203 34.6087 516.56 34.31 517.051 34.086C517.552 33.862 518.224 33.75 519.067 33.75H521.755V34.854H519.131C518.363 34.854 517.845 34.982 517.579 35.238C517.312 35.494 517.179 35.8033 517.179 36.166C517.179 36.582 517.344 36.918 517.675 37.174C518.005 37.4193 518.464 37.542 519.051 37.542C519.627 37.542 520.128 37.414 520.555 37.158C520.992 36.902 521.307 36.5287 521.499 36.038L521.803 37.094C521.6 37.5953 521.243 37.9953 520.731 38.294C520.219 38.582 519.573 38.726 518.795 38.726Z" fill="#505050"/>
<path d="M436.671 41.5218C436.148 40.1448 434.609 39.4519 433.232 39.9742C431.855 40.4965 431.162 42.0362 431.684 43.4133C432.206 44.7903 433.746 45.4832 435.123 44.9609C436.5 44.4385 437.193 42.8988 436.671 41.5218ZM434 42L433.094 42.3438L433.448 43.2788L434.355 42.935L434 42ZM431.281 43.0313L429.469 43.7188L429.823 44.6538L431.636 43.9663L431.281 43.0313ZM427.656 44.4063L425.844 45.0938L426.198 46.0288L428.011 45.3413L427.656 44.4063ZM424.031 45.7813L422.219 46.4688L422.573 47.4038L424.386 46.7163L424.031 45.7813ZM420.406 47.1563L418.594 47.8438L418.948 48.7788L420.761 48.0913L420.406 47.1563ZM416.781 48.5313L414.969 49.2188L415.323 50.1538L417.136 49.4663L416.781 48.5313ZM413.156 49.9063L411.344 50.5938L411.698 51.5288L413.511 50.8413L413.156 49.9063ZM409.531 51.2813L407.719 51.9688L408.073 52.9038L409.886 52.2163L409.531 51.2813ZM405.906 52.6563L405 53L405.355 53.935L406.261 53.5913L405.906 52.6563Z" fill="#2161D0"/>
</g>
<g filter="url(#filter1_d_138_4282)">
<rect x="15" y="22" width="170.86" height="44.19" rx="18" fill="white" shape-rendering="crispEdges"/>
<g clip-path="url(#clip3_138_4282)">
<g clip-path="url(#clip4_138_4282)">
<g clip-path="url(#clip5_138_4282)">
<mask id="mask0_138_4282" style="mask-type:luminance" maskUnits="userSpaceOnUse" x="27" y="35" width="28" height="19">
<path d="M53 35.09H29C27.8954 35.09 27 35.9855 27 37.09V51.09C27 52.1946 27.8954 53.09 29 53.09H53C54.1046 53.09 55 52.1946 55 51.09V37.09C55 35.9855 54.1046 35.09 53 35.09Z" fill="white"/>
</mask>
<g mask="url(#mask0_138_4282)">
<path d="M48.724 53.09H54.035C54.291 53.09 54.537 52.995 54.718 52.827C54.8064 52.746 54.877 52.6476 54.9255 52.538C54.9741 52.4284 54.9994 52.3099 55 52.1901V35.989C54.9993 35.8693 54.9739 35.7511 54.9253 35.6416C54.8768 35.5322 54.8062 35.434 54.718 35.353C54.5317 35.1823 54.2877 35.0884 54.035 35.09H27.966C27.84 35.09 27.714 35.113 27.596 35.158C27.4802 35.2025 27.3739 35.2687 27.283 35.353C27.194 35.4352 27.1226 35.5346 27.073 35.645C27.0248 35.7533 27 35.8705 27 35.989V52.191C27 52.687 27.432 53.09 27.964 53.09H48.724Z" fill="#4C8056"/>
<path d="M46.3115 44.0898C46.311 44.7428 46.1734 45.3884 45.9075 45.9848C45.6359 46.5925 45.2444 47.1391 44.7565 47.5918C44.2558 48.0561 43.671 48.4203 43.0335 48.6648C42.3848 48.9145 41.6955 49.0423 41.0005 49.0418C40.3057 49.0422 39.6168 48.9144 38.9685 48.6648C38.3309 48.4203 37.7461 48.0561 37.2455 47.5918C36.7575 47.1391 36.366 46.5925 36.0945 45.9848C35.8283 45.3888 35.6903 44.7435 35.6895 44.0908C35.6895 42.7778 36.2495 41.5188 37.2455 40.5908C38.2415 39.6608 39.5925 39.1408 41.0005 39.1408C42.4095 39.1408 43.7605 39.6608 44.7565 40.5908C45.7525 41.5188 46.3115 42.7778 46.3115 44.0908V44.0898Z" fill="#C03A2B"/>
</g>
</g>
</g>
</g>
<path opacity="0.8" d="M66.68 48.9V37.7H71.704C72.9947 37.7 73.9867 37.9614 74.68 38.484C75.3733 38.996 75.72 39.7 75.72 40.596C75.72 41.204 75.5813 41.716 75.304 42.132C75.0373 42.548 74.6747 42.868 74.216 43.092C73.7573 43.316 73.2613 43.428 72.728 43.428L73.016 42.948C73.656 42.948 74.2213 43.06 74.712 43.284C75.2027 43.508 75.592 43.8387 75.88 44.276C76.168 44.7027 76.312 45.236 76.312 45.876C76.312 46.836 75.9493 47.5827 75.224 48.116C74.5093 48.6387 73.4427 48.9 72.024 48.9H66.68ZM68.28 47.604H71.96C72.8453 47.604 73.5227 47.4547 73.992 47.156C74.4613 46.8574 74.696 46.388 74.696 45.748C74.696 45.0974 74.4613 44.6227 73.992 44.324C73.5227 44.0254 72.8453 43.876 71.96 43.876H68.136V42.58H71.56C72.3707 42.58 73 42.4307 73.448 42.132C73.896 41.8334 74.12 41.3854 74.12 40.788C74.12 40.1907 73.896 39.7427 73.448 39.444C73 39.1454 72.3707 38.996 71.56 38.996H68.28V47.604ZM83.9894 48.9V47.108L83.9094 46.772V43.716C83.9094 43.0654 83.7174 42.564 83.3334 42.212C82.96 41.8494 82.3947 41.668 81.6374 41.668C81.136 41.668 80.6454 41.7534 80.1654 41.924C79.6854 42.084 79.28 42.3027 78.9494 42.58L78.3094 41.428C78.7467 41.076 79.2694 40.8094 79.8774 40.628C80.496 40.436 81.1414 40.34 81.8134 40.34C82.976 40.34 83.872 40.6227 84.5014 41.188C85.1307 41.7534 85.4454 42.6174 85.4454 43.78V48.9H83.9894ZM81.2054 48.996C80.576 48.996 80.0214 48.8894 79.5414 48.676C79.072 48.4627 78.7094 48.1694 78.4534 47.796C78.1974 47.412 78.0694 46.98 78.0694 46.5C78.0694 46.0414 78.176 45.6254 78.3894 45.252C78.6134 44.8787 78.9707 44.58 79.4614 44.356C79.9627 44.132 80.6347 44.02 81.4774 44.02H84.1654V45.124H81.5414C80.7734 45.124 80.256 45.252 79.9894 45.508C79.7227 45.764 79.5894 46.0734 79.5894 46.436C79.5894 46.852 79.7547 47.188 80.0854 47.444C80.416 47.6894 80.8747 47.812 81.4614 47.812C82.0374 47.812 82.5387 47.684 82.9654 47.428C83.4027 47.172 83.7174 46.7987 83.9094 46.308L84.2134 47.364C84.0107 47.8654 83.6534 48.2654 83.1414 48.564C82.6294 48.852 81.984 48.996 81.2054 48.996ZM92.9759 40.34C93.6692 40.34 94.2772 40.4734 94.7999 40.74C95.3332 41.0067 95.7492 41.412 96.0479 41.956C96.3465 42.5 96.4959 43.188 96.4959 44.02V48.9H94.9599V44.196C94.9599 43.3747 94.7572 42.756 94.3519 42.34C93.9572 41.924 93.3972 41.716 92.6719 41.716C92.1279 41.716 91.6532 41.8227 91.2479 42.036C90.8425 42.2494 90.5279 42.564 90.3039 42.98C90.0905 43.396 89.9839 43.9134 89.9839 44.532V48.9H88.4479V40.42H89.9199V42.708L89.6799 42.1C89.9572 41.5454 90.3839 41.1134 90.9599 40.804C91.5359 40.4947 92.2079 40.34 92.9759 40.34ZM103.21 52.1C102.432 52.1 101.674 51.988 100.938 51.764C100.213 51.5507 99.6212 51.2414 99.1625 50.836L99.8985 49.652C100.293 49.9934 100.778 50.26 101.354 50.452C101.93 50.6547 102.533 50.756 103.162 50.756C104.165 50.756 104.901 50.5214 105.371 50.052C105.84 49.5827 106.075 48.868 106.075 47.908V46.116L106.234 44.436L106.155 42.74V40.42H107.611V47.748C107.611 49.2414 107.237 50.34 106.49 51.044C105.744 51.748 104.65 52.1 103.21 52.1ZM103.018 48.548C102.197 48.548 101.461 48.3774 100.81 48.036C100.17 47.684 99.6585 47.1987 99.2745 46.58C98.9012 45.9614 98.7145 45.2467 98.7145 44.436C98.7145 43.6147 98.9012 42.9 99.2745 42.292C99.6585 41.6734 100.17 41.1934 100.81 40.852C101.461 40.5107 102.197 40.34 103.018 40.34C103.744 40.34 104.405 40.4894 105.003 40.788C105.6 41.076 106.075 41.524 106.427 42.132C106.789 42.74 106.97 43.508 106.97 44.436C106.97 45.3534 106.789 46.116 106.427 46.724C106.075 47.332 105.6 47.7907 105.003 48.1C104.405 48.3987 103.744 48.548 103.018 48.548ZM103.194 47.204C103.76 47.204 104.261 47.0867 104.698 46.852C105.136 46.6174 105.477 46.292 105.722 45.876C105.978 45.46 106.106 44.98 106.106 44.436C106.106 43.892 105.978 43.412 105.722 42.996C105.477 42.58 105.136 42.26 104.698 42.036C104.261 41.8014 103.76 41.684 103.194 41.684C102.629 41.684 102.122 41.8014 101.674 42.036C101.237 42.26 100.89 42.58 100.634 42.996C100.389 43.412 100.266 43.892 100.266 44.436C100.266 44.98 100.389 45.46 100.634 45.876C100.89 46.292 101.237 46.6174 101.674 46.852C102.122 47.0867 102.629 47.204 103.194 47.204ZM110.705 48.9V37.028H112.241V48.9H110.705ZM120.598 48.9V47.108L120.518 46.772V43.716C120.518 43.0654 120.326 42.564 119.942 42.212C119.569 41.8494 119.003 41.668 118.246 41.668C117.745 41.668 117.254 41.7534 116.774 41.924C116.294 42.084 115.889 42.3027 115.558 42.58L114.918 41.428C115.355 41.076 115.878 40.8094 116.486 40.628C117.105 40.436 117.75 40.34 118.422 40.34C119.585 40.34 120.481 40.6227 121.11 41.188C121.739 41.7534 122.054 42.6174 122.054 43.78V48.9H120.598ZM117.814 48.996C117.185 48.996 116.63 48.8894 116.15 48.676C115.681 48.4627 115.318 48.1694 115.062 47.796C114.806 47.412 114.678 46.98 114.678 46.5C114.678 46.0414 114.785 45.6254 114.998 45.252C115.222 44.8787 115.579 44.58 116.07 44.356C116.571 44.132 117.243 44.02 118.086 44.02H120.774V45.124H118.15C117.382 45.124 116.865 45.252 116.598 45.508C116.331 45.764 116.198 46.0734 116.198 46.436C116.198 46.852 116.363 47.188 116.694 47.444C117.025 47.6894 117.483 47.812 118.07 47.812C118.646 47.812 119.147 47.684 119.574 47.428C120.011 47.172 120.326 46.7987 120.518 46.308L120.822 47.364C120.619 47.8654 120.262 48.2654 119.75 48.564C119.238 48.852 118.593 48.996 117.814 48.996ZM128.561 48.996C127.739 48.996 127.003 48.8147 126.353 48.452C125.713 48.0894 125.206 47.5827 124.833 46.932C124.459 46.2814 124.273 45.524 124.273 44.66C124.273 43.796 124.459 43.044 124.833 42.404C125.206 41.7534 125.713 41.2467 126.353 40.884C127.003 40.5214 127.739 40.34 128.561 40.34C129.275 40.34 129.921 40.5 130.497 40.82C131.073 41.14 131.531 41.62 131.873 42.26C132.225 42.9 132.401 43.7 132.401 44.66C132.401 45.62 132.23 46.42 131.889 47.06C131.558 47.7 131.105 48.1854 130.529 48.516C129.953 48.836 129.297 48.996 128.561 48.996ZM128.689 47.652C129.222 47.652 129.702 47.5294 130.129 47.284C130.566 47.0387 130.907 46.692 131.153 46.244C131.409 45.7854 131.537 45.2574 131.537 44.66C131.537 44.052 131.409 43.5294 131.153 43.092C130.907 42.644 130.566 42.2974 130.129 42.052C129.702 41.8067 129.222 41.684 128.689 41.684C128.145 41.684 127.659 41.8067 127.233 42.052C126.806 42.2974 126.465 42.644 126.209 43.092C125.953 43.5294 125.825 44.052 125.825 44.66C125.825 45.2574 125.953 45.7854 126.209 46.244C126.465 46.692 126.806 47.0387 127.233 47.284C127.659 47.5294 128.145 47.652 128.689 47.652ZM131.585 48.9V46.612L131.681 44.644L131.521 42.676V37.028H133.057V48.9H131.585ZM139.899 48.996C138.992 48.996 138.192 48.8094 137.499 48.436C136.816 48.0627 136.283 47.5507 135.899 46.9C135.526 46.2494 135.339 45.5027 135.339 44.66C135.339 43.8174 135.52 43.0707 135.883 42.42C136.256 41.7694 136.763 41.2627 137.403 40.9C138.054 40.5267 138.784 40.34 139.595 40.34C140.416 40.34 141.142 40.5214 141.771 40.884C142.4 41.2467 142.891 41.7587 143.243 42.42C143.606 43.0707 143.787 43.8334 143.787 44.708C143.787 44.772 143.782 44.8467 143.771 44.932C143.771 45.0174 143.766 45.0974 143.755 45.172H136.539V44.068H142.955L142.331 44.452C142.342 43.908 142.23 43.4227 141.995 42.996C141.76 42.5694 141.435 42.2387 141.019 42.004C140.614 41.7587 140.139 41.636 139.595 41.636C139.062 41.636 138.587 41.7587 138.171 42.004C137.755 42.2387 137.43 42.5747 137.195 43.012C136.96 43.4387 136.843 43.9294 136.843 44.484V44.74C136.843 45.3054 136.971 45.812 137.227 46.26C137.494 46.6974 137.862 47.0387 138.331 47.284C138.8 47.5294 139.339 47.652 139.947 47.652C140.448 47.652 140.902 47.5667 141.307 47.396C141.723 47.2254 142.086 46.9694 142.395 46.628L143.243 47.62C142.859 48.068 142.379 48.4094 141.803 48.644C141.238 48.8787 140.603 48.996 139.899 48.996ZM148.512 48.996C147.808 48.996 147.136 48.9 146.496 48.708C145.866 48.516 145.37 48.2814 145.008 48.004L145.648 46.788C146.01 47.0334 146.458 47.2414 146.992 47.412C147.525 47.5827 148.069 47.668 148.624 47.668C149.338 47.668 149.85 47.5667 150.16 47.364C150.48 47.1614 150.64 46.8787 150.64 46.516C150.64 46.2494 150.544 46.0414 150.352 45.892C150.16 45.7427 149.904 45.6307 149.584 45.556C149.274 45.4814 148.928 45.4174 148.544 45.364C148.16 45.3 147.776 45.2254 147.392 45.14C147.008 45.044 146.656 44.916 146.336 44.756C146.016 44.5854 145.76 44.356 145.568 44.068C145.376 43.7694 145.28 43.3747 145.28 42.884C145.28 42.372 145.424 41.924 145.712 41.54C146 41.156 146.405 40.8627 146.928 40.66C147.461 40.4467 148.09 40.34 148.816 40.34C149.37 40.34 149.93 40.4094 150.496 40.548C151.072 40.676 151.541 40.8627 151.904 41.108L151.248 42.324C150.864 42.068 150.464 41.892 150.048 41.796C149.632 41.7 149.216 41.652 148.8 41.652C148.128 41.652 147.626 41.764 147.296 41.988C146.965 42.2014 146.8 42.4787 146.8 42.82C146.8 43.108 146.896 43.332 147.088 43.492C147.29 43.6414 147.546 43.7587 147.856 43.844C148.176 43.9294 148.528 44.004 148.912 44.068C149.296 44.1214 149.68 44.196 150.064 44.292C150.448 44.3774 150.794 44.5 151.104 44.66C151.424 44.82 151.68 45.044 151.872 45.332C152.074 45.62 152.176 46.004 152.176 46.484C152.176 46.996 152.026 47.4387 151.728 47.812C151.429 48.1854 151.008 48.4787 150.464 48.692C149.92 48.8947 149.269 48.996 148.512 48.996ZM158.783 40.34C159.477 40.34 160.085 40.4734 160.607 40.74C161.141 41.0067 161.557 41.412 161.855 41.956C162.154 42.5 162.303 43.188 162.303 44.02V48.9H160.767V44.196C160.767 43.3747 160.565 42.756 160.159 42.34C159.765 41.924 159.205 41.716 158.479 41.716C157.935 41.716 157.461 41.8227 157.055 42.036C156.65 42.2494 156.335 42.564 156.111 42.98C155.898 43.396 155.791 43.9134 155.791 44.532V48.9H154.255V37.028H155.791V42.708L155.487 42.1C155.765 41.5454 156.191 41.1134 156.767 40.804C157.343 40.4947 158.015 40.34 158.783 40.34Z" fill="#505050"/>
</g>
<g filter="url(#filter2_d_138_4282)">
<rect x="139" y="111" width="152" height="44.19" rx="18" fill="white" shape-rendering="crispEdges"/>
<g clip-path="url(#clip6_138_4282)">
<g clip-path="url(#clip7_138_4282)">
<g clip-path="url(#clip8_138_4282)">
<path d="M176.903 124.09H153.097C151.94 124.09 151 125.01 151 126.147V133.09H179V126.147C179 125.01 178.06 124.09 176.903 124.09Z" fill="#C8414B"/>
<path d="M151 140.033C151 141.168 151.94 142.09 153.097 142.09H176.903C178.06 142.09 179 141.168 179 140.033V133.088H151V140.033Z" fill="#E3E3E3"/>
</g>
</g>
</g>
<path opacity="0.8" d="M190.68 137.9V126.7H192.28V137.9H190.68ZM200.097 129.34C200.79 129.34 201.398 129.473 201.921 129.74C202.454 130.007 202.87 130.412 203.169 130.956C203.468 131.5 203.617 132.188 203.617 133.02V137.9H202.081V133.196C202.081 132.375 201.878 131.756 201.473 131.34C201.078 130.924 200.518 130.716 199.793 130.716C199.249 130.716 198.774 130.823 198.369 131.036C197.964 131.249 197.649 131.564 197.425 131.98C197.212 132.396 197.105 132.913 197.105 133.532V137.9H195.569V129.42H197.041V131.708L196.801 131.1C197.078 130.545 197.505 130.113 198.081 129.804C198.657 129.495 199.329 129.34 200.097 129.34ZM210.124 137.996C209.302 137.996 208.566 137.815 207.916 137.452C207.276 137.089 206.769 136.583 206.396 135.932C206.022 135.281 205.836 134.524 205.836 133.66C205.836 132.796 206.022 132.044 206.396 131.404C206.769 130.753 207.276 130.247 207.916 129.884C208.566 129.521 209.302 129.34 210.124 129.34C210.838 129.34 211.484 129.5 212.06 129.82C212.636 130.14 213.094 130.62 213.436 131.26C213.788 131.9 213.964 132.7 213.964 133.66C213.964 134.62 213.793 135.42 213.452 136.06C213.121 136.7 212.668 137.185 212.092 137.516C211.516 137.836 210.86 137.996 210.124 137.996ZM210.252 136.652C210.785 136.652 211.265 136.529 211.692 136.284C212.129 136.039 212.47 135.692 212.716 135.244C212.972 134.785 213.1 134.257 213.1 133.66C213.1 133.052 212.972 132.529 212.716 132.092C212.47 131.644 212.129 131.297 211.692 131.052C211.265 130.807 210.785 130.684 210.252 130.684C209.708 130.684 209.222 130.807 208.796 131.052C208.369 131.297 208.028 131.644 207.772 132.092C207.516 132.529 207.388 133.052 207.388 133.66C207.388 134.257 207.516 134.785 207.772 135.244C208.028 135.692 208.369 136.039 208.796 136.284C209.222 136.529 209.708 136.652 210.252 136.652ZM213.148 137.9V135.612L213.244 133.644L213.084 131.676V126.028H214.62V137.9H213.148ZM221.318 137.996C220.465 137.996 219.707 137.809 219.046 137.436C218.385 137.063 217.862 136.551 217.478 135.9C217.094 135.239 216.902 134.492 216.902 133.66C216.902 132.817 217.094 132.071 217.478 131.42C217.862 130.769 218.385 130.263 219.046 129.9C219.707 129.527 220.465 129.34 221.318 129.34C222.161 129.34 222.913 129.527 223.574 129.9C224.246 130.263 224.769 130.769 225.142 131.42C225.526 132.06 225.718 132.807 225.718 133.66C225.718 134.503 225.526 135.249 225.142 135.9C224.769 136.551 224.246 137.063 223.574 137.436C222.913 137.809 222.161 137.996 221.318 137.996ZM221.318 136.652C221.862 136.652 222.347 136.529 222.774 136.284C223.211 136.039 223.553 135.692 223.798 135.244C224.043 134.785 224.166 134.257 224.166 133.66C224.166 133.052 224.043 132.529 223.798 132.092C223.553 131.644 223.211 131.297 222.774 131.052C222.347 130.807 221.862 130.684 221.318 130.684C220.774 130.684 220.289 130.807 219.862 131.052C219.435 131.297 219.094 131.644 218.838 132.092C218.582 132.529 218.454 133.052 218.454 133.66C218.454 134.257 218.582 134.785 218.838 135.244C219.094 135.692 219.435 136.039 219.862 136.284C220.289 136.529 220.774 136.652 221.318 136.652ZM232.53 129.34C233.224 129.34 233.832 129.473 234.354 129.74C234.888 130.007 235.304 130.412 235.602 130.956C235.901 131.5 236.05 132.188 236.05 133.02V137.9H234.514V133.196C234.514 132.375 234.312 131.756 233.906 131.34C233.512 130.924 232.952 130.716 232.226 130.716C231.682 130.716 231.208 130.823 230.802 131.036C230.397 131.249 230.082 131.564 229.858 131.98C229.645 132.396 229.538 132.913 229.538 133.532V137.9H228.002V129.42H229.474V131.708L229.234 131.1C229.512 130.545 229.938 130.113 230.514 129.804C231.09 129.495 231.762 129.34 232.53 129.34ZM242.829 137.996C241.922 137.996 241.122 137.809 240.429 137.436C239.746 137.063 239.213 136.551 238.829 135.9C238.456 135.249 238.269 134.503 238.269 133.66C238.269 132.817 238.45 132.071 238.813 131.42C239.186 130.769 239.693 130.263 240.333 129.9C240.984 129.527 241.714 129.34 242.525 129.34C243.346 129.34 244.072 129.521 244.701 129.884C245.33 130.247 245.821 130.759 246.173 131.42C246.536 132.071 246.717 132.833 246.717 133.708C246.717 133.772 246.712 133.847 246.701 133.932C246.701 134.017 246.696 134.097 246.685 134.172H239.469V133.068H245.885L245.261 133.452C245.272 132.908 245.16 132.423 244.925 131.996C244.69 131.569 244.365 131.239 243.949 131.004C243.544 130.759 243.069 130.636 242.525 130.636C241.992 130.636 241.517 130.759 241.101 131.004C240.685 131.239 240.36 131.575 240.125 132.012C239.89 132.439 239.773 132.929 239.773 133.484V133.74C239.773 134.305 239.901 134.812 240.157 135.26C240.424 135.697 240.792 136.039 241.261 136.284C241.73 136.529 242.269 136.652 242.877 136.652C243.378 136.652 243.832 136.567 244.237 136.396C244.653 136.225 245.016 135.969 245.325 135.628L246.173 136.62C245.789 137.068 245.309 137.409 244.733 137.644C244.168 137.879 243.533 137.996 242.829 137.996ZM251.442 137.996C250.738 137.996 250.066 137.9 249.426 137.708C248.796 137.516 248.3 137.281 247.938 137.004L248.578 135.788C248.94 136.033 249.388 136.241 249.922 136.412C250.455 136.583 250.999 136.668 251.554 136.668C252.268 136.668 252.78 136.567 253.09 136.364C253.41 136.161 253.57 135.879 253.57 135.516C253.57 135.249 253.474 135.041 253.282 134.892C253.09 134.743 252.834 134.631 252.514 134.556C252.204 134.481 251.858 134.417 251.474 134.364C251.09 134.3 250.706 134.225 250.322 134.14C249.938 134.044 249.586 133.916 249.266 133.756C248.946 133.585 248.69 133.356 248.498 133.068C248.306 132.769 248.21 132.375 248.21 131.884C248.21 131.372 248.354 130.924 248.642 130.54C248.93 130.156 249.335 129.863 249.858 129.66C250.391 129.447 251.02 129.34 251.746 129.34C252.3 129.34 252.86 129.409 253.426 129.548C254.002 129.676 254.471 129.863 254.834 130.108L254.178 131.324C253.794 131.068 253.394 130.892 252.978 130.796C252.562 130.7 252.146 130.652 251.73 130.652C251.058 130.652 250.556 130.764 250.226 130.988C249.895 131.201 249.73 131.479 249.73 131.82C249.73 132.108 249.826 132.332 250.018 132.492C250.22 132.641 250.476 132.759 250.786 132.844C251.106 132.929 251.458 133.004 251.842 133.068C252.226 133.121 252.61 133.196 252.994 133.292C253.378 133.377 253.724 133.5 254.034 133.66C254.354 133.82 254.61 134.044 254.802 134.332C255.004 134.62 255.106 135.004 255.106 135.484C255.106 135.996 254.956 136.439 254.658 136.812C254.359 137.185 253.938 137.479 253.394 137.692C252.85 137.895 252.199 137.996 251.442 137.996ZM257.185 137.9V129.42H258.721V137.9H257.185ZM257.953 127.788C257.655 127.788 257.404 127.692 257.201 127.5C257.009 127.308 256.913 127.073 256.913 126.796C256.913 126.508 257.009 126.268 257.201 126.076C257.404 125.884 257.655 125.788 257.953 125.788C258.252 125.788 258.497 125.884 258.689 126.076C258.892 126.257 258.993 126.487 258.993 126.764C258.993 127.052 258.897 127.297 258.705 127.5C258.513 127.692 258.263 127.788 257.953 127.788ZM267.078 137.9V136.108L266.998 135.772V132.716C266.998 132.065 266.806 131.564 266.422 131.212C266.049 130.849 265.483 130.668 264.726 130.668C264.225 130.668 263.734 130.753 263.254 130.924C262.774 131.084 262.369 131.303 262.038 131.58L261.398 130.428C261.835 130.076 262.358 129.809 262.966 129.628C263.585 129.436 264.23 129.34 264.902 129.34C266.065 129.34 266.961 129.623 267.59 130.188C268.219 130.753 268.534 131.617 268.534 132.78V137.9H267.078ZM264.294 137.996C263.665 137.996 263.11 137.889 262.63 137.676C262.161 137.463 261.798 137.169 261.542 136.796C261.286 136.412 261.158 135.98 261.158 135.5C261.158 135.041 261.265 134.625 261.478 134.252C261.702 133.879 262.059 133.58 262.55 133.356C263.051 133.132 263.723 133.02 264.566 133.02H267.254V134.124H264.63C263.862 134.124 263.345 134.252 263.078 134.508C262.811 134.764 262.678 135.073 262.678 135.436C262.678 135.852 262.843 136.188 263.174 136.444C263.505 136.689 263.963 136.812 264.55 136.812C265.126 136.812 265.627 136.684 266.054 136.428C266.491 136.172 266.806 135.799 266.998 135.308L267.302 136.364C267.099 136.865 266.742 137.265 266.23 137.564C265.718 137.852 265.073 137.996 264.294 137.996Z" fill="#505050"/>
</g>
<g filter="url(#filter3_d_138_4282)">
<rect x="383" y="105.73" width="139.77" height="44.19" rx="18" fill="white" shape-rendering="crispEdges"/>
<g clip-path="url(#clip9_138_4282)">
<g clip-path="url(#clip10_138_4282)">
<g clip-path="url(#clip11_138_4282)">
<path d="M420.91 118.82H397.096C395.941 118.82 395 119.739 395 120.876V134.764C395 135.903 395.941 136.82 397.095 136.82H420.905C422.065 136.82 423 135.897 423 134.764V120.876C423.001 120.605 422.948 120.337 422.843 120.087C422.738 119.837 422.584 119.611 422.39 119.422C421.994 119.036 421.463 118.82 420.91 118.82Z" fill="#FF4B55"/>
<path d="M409.226 122.454L410.517 126.254L414.597 126.284C414.827 126.284 414.92 126.574 414.734 126.704L411.452 129.081L412.682 132.896C412.754 133.111 412.502 133.289 412.316 133.156L409.002 130.831L405.682 133.161C405.495 133.289 405.249 133.111 405.316 132.902L406.545 129.087L403.264 126.709C403.077 126.575 403.177 126.291 403.401 126.291L407.481 126.259L408.772 122.459C408.85 122.239 409.155 122.239 409.226 122.454Z" fill="#FFE15A"/>
</g>
</g>
</g>
<path opacity="0.8" d="M437.912 133.27L432.984 122.07H434.712L439.24 132.406H438.248L442.808 122.07H444.408L439.496 133.27H437.912ZM445.772 133.27V124.79H447.308V133.27H445.772ZM446.54 123.158C446.242 123.158 445.991 123.062 445.788 122.87C445.596 122.678 445.5 122.443 445.5 122.166C445.5 121.878 445.596 121.638 445.788 121.446C445.991 121.254 446.242 121.158 446.54 121.158C446.839 121.158 447.084 121.254 447.276 121.446C447.479 121.627 447.58 121.857 447.58 122.134C447.58 122.422 447.484 122.667 447.292 122.87C447.1 123.062 446.85 123.158 446.54 123.158ZM454.177 133.366C453.27 133.366 452.47 133.179 451.777 132.806C451.094 132.433 450.561 131.921 450.177 131.27C449.804 130.619 449.617 129.873 449.617 129.03C449.617 128.187 449.798 127.441 450.161 126.79C450.534 126.139 451.041 125.633 451.681 125.27C452.332 124.897 453.062 124.71 453.873 124.71C454.694 124.71 455.42 124.891 456.049 125.254C456.678 125.617 457.169 126.129 457.521 126.79C457.884 127.441 458.065 128.203 458.065 129.078C458.065 129.142 458.06 129.217 458.049 129.302C458.049 129.387 458.044 129.467 458.033 129.542H450.817V128.438H457.233L456.609 128.822C456.62 128.278 456.508 127.793 456.273 127.366C456.038 126.939 455.713 126.609 455.297 126.374C454.892 126.129 454.417 126.006 453.873 126.006C453.34 126.006 452.865 126.129 452.449 126.374C452.033 126.609 451.708 126.945 451.473 127.382C451.238 127.809 451.121 128.299 451.121 128.854V129.11C451.121 129.675 451.249 130.182 451.505 130.63C451.772 131.067 452.14 131.409 452.609 131.654C453.078 131.899 453.617 132.022 454.225 132.022C454.726 132.022 455.18 131.937 455.585 131.766C456.001 131.595 456.364 131.339 456.673 130.998L457.521 131.99C457.137 132.438 456.657 132.779 456.081 133.014C455.516 133.249 454.881 133.366 454.177 133.366ZM463.27 133.366C462.417 133.366 461.755 133.137 461.286 132.678C460.817 132.219 460.582 131.563 460.582 130.71V122.934H462.118V130.646C462.118 131.105 462.23 131.457 462.454 131.702C462.689 131.947 463.019 132.07 463.446 132.07C463.926 132.07 464.326 131.937 464.646 131.67L465.126 132.774C464.891 132.977 464.609 133.126 464.278 133.222C463.958 133.318 463.622 133.366 463.27 133.366ZM459.142 126.054V124.79H464.55V126.054H459.142ZM471.671 124.71C472.364 124.71 472.972 124.843 473.495 125.11C474.028 125.377 474.444 125.782 474.743 126.326C475.042 126.87 475.191 127.558 475.191 128.39V133.27H473.655V128.566C473.655 127.745 473.452 127.126 473.047 126.71C472.652 126.294 472.092 126.086 471.367 126.086C470.823 126.086 470.348 126.193 469.943 126.406C469.538 126.619 469.223 126.934 468.999 127.35C468.786 127.766 468.679 128.283 468.679 128.902V133.27H467.143V124.79H468.615V127.078L468.375 126.47C468.652 125.915 469.079 125.483 469.655 125.174C470.231 124.865 470.903 124.71 471.671 124.71ZM483.457 133.27V131.478L483.377 131.142V128.086C483.377 127.435 483.185 126.934 482.801 126.582C482.428 126.219 481.863 126.038 481.105 126.038C480.604 126.038 480.113 126.123 479.633 126.294C479.153 126.454 478.748 126.673 478.417 126.95L477.777 125.798C478.215 125.446 478.737 125.179 479.345 124.998C479.964 124.806 480.609 124.71 481.281 124.71C482.444 124.71 483.34 124.993 483.969 125.558C484.599 126.123 484.913 126.987 484.913 128.15V133.27H483.457ZM480.673 133.366C480.044 133.366 479.489 133.259 479.009 133.046C478.54 132.833 478.177 132.539 477.921 132.166C477.665 131.782 477.537 131.35 477.537 130.87C477.537 130.411 477.644 129.995 477.857 129.622C478.081 129.249 478.439 128.95 478.929 128.726C479.431 128.502 480.103 128.39 480.945 128.39H483.633V129.494H481.009C480.241 129.494 479.724 129.622 479.457 129.878C479.191 130.134 479.057 130.443 479.057 130.806C479.057 131.222 479.223 131.558 479.553 131.814C479.884 132.059 480.343 132.182 480.929 132.182C481.505 132.182 482.007 132.054 482.433 131.798C482.871 131.542 483.185 131.169 483.377 130.678L483.681 131.734C483.479 132.235 483.121 132.635 482.609 132.934C482.097 133.222 481.452 133.366 480.673 133.366ZM498.524 124.71C499.207 124.71 499.809 124.843 500.332 125.11C500.855 125.377 501.26 125.782 501.548 126.326C501.847 126.87 501.996 127.558 501.996 128.39V133.27H500.46V128.566C500.46 127.745 500.268 127.126 499.884 126.71C499.5 126.294 498.961 126.086 498.268 126.086C497.756 126.086 497.308 126.193 496.924 126.406C496.54 126.619 496.241 126.934 496.028 127.35C495.825 127.766 495.724 128.283 495.724 128.902V133.27H494.188V128.566C494.188 127.745 493.996 127.126 493.612 126.71C493.239 126.294 492.7 126.086 491.996 126.086C491.495 126.086 491.052 126.193 490.668 126.406C490.284 126.619 489.985 126.934 489.772 127.35C489.559 127.766 489.452 128.283 489.452 128.902V133.27H487.916V124.79H489.388V127.046L489.148 126.47C489.415 125.915 489.825 125.483 490.38 125.174C490.935 124.865 491.58 124.71 492.316 124.71C493.127 124.71 493.825 124.913 494.412 125.318C494.999 125.713 495.383 126.315 495.564 127.126L494.94 126.87C495.196 126.219 495.644 125.697 496.284 125.302C496.924 124.907 497.671 124.71 498.524 124.71Z" fill="#505050"/>
</g>
<g filter="url(#filter4_d_138_4282)">
<rect x="305" y="173" width="133" height="46" rx="12" fill="white" shape-rendering="crispEdges"/>
<path d="M315.036 202L320.796 189.4H322.11L327.87 202H326.466L321.174 190.174H321.714L316.422 202H315.036ZM317.304 198.634L317.7 197.554H325.026L325.422 198.634H317.304ZM334.668 192.46C335.436 192.46 336.108 192.61 336.684 192.91C337.272 193.198 337.728 193.642 338.052 194.242C338.388 194.842 338.556 195.598 338.556 196.51V202H337.278V196.636C337.278 195.64 337.026 194.89 336.522 194.386C336.03 193.87 335.334 193.612 334.434 193.612C333.762 193.612 333.174 193.75 332.67 194.026C332.178 194.29 331.794 194.68 331.518 195.196C331.254 195.7 331.122 196.312 331.122 197.032V202H329.844V192.55H331.068V195.142L330.87 194.656C331.17 193.972 331.65 193.438 332.31 193.054C332.97 192.658 333.756 192.46 334.668 192.46ZM345.93 202.09C345.03 202.09 344.22 201.886 343.5 201.478C342.792 201.07 342.234 200.506 341.826 199.786C341.418 199.054 341.214 198.214 341.214 197.266C341.214 196.306 341.418 195.466 341.826 194.746C342.234 194.026 342.792 193.468 343.5 193.072C344.22 192.664 345.03 192.46 345.93 192.46C346.758 192.46 347.496 192.646 348.144 193.018C348.804 193.39 349.326 193.936 349.71 194.656C350.106 195.364 350.304 196.234 350.304 197.266C350.304 198.286 350.112 199.156 349.728 199.876C349.344 200.596 348.822 201.148 348.162 201.532C347.514 201.904 346.77 202.09 345.93 202.09ZM346.02 200.956C346.692 200.956 347.292 200.806 347.82 200.506C348.36 200.194 348.78 199.762 349.08 199.21C349.392 198.646 349.548 197.998 349.548 197.266C349.548 196.522 349.392 195.874 349.08 195.322C348.78 194.77 348.36 194.344 347.82 194.044C347.292 193.732 346.692 193.576 346.02 193.576C345.36 193.576 344.766 193.732 344.238 194.044C343.71 194.344 343.29 194.77 342.978 195.322C342.666 195.874 342.51 196.522 342.51 197.266C342.51 197.998 342.666 198.646 342.978 199.21C343.29 199.762 343.71 200.194 344.238 200.506C344.766 200.806 345.36 200.956 346.02 200.956ZM349.584 202V199.156L349.71 197.248L349.53 195.34V188.644H350.808V202H349.584ZM363.251 202.09C362.339 202.09 361.517 201.886 360.785 201.478C360.065 201.058 359.495 200.488 359.075 199.768C358.655 199.036 358.445 198.202 358.445 197.266C358.445 196.318 358.655 195.484 359.075 194.764C359.495 194.044 360.065 193.48 360.785 193.072C361.505 192.664 362.327 192.46 363.251 192.46C364.187 192.46 365.015 192.664 365.735 193.072C366.467 193.48 367.037 194.044 367.445 194.764C367.865 195.484 368.075 196.318 368.075 197.266C368.075 198.202 367.865 199.036 367.445 199.768C367.037 200.488 366.467 201.058 365.735 201.478C365.003 201.886 364.175 202.09 363.251 202.09ZM363.251 200.956C363.935 200.956 364.541 200.806 365.069 200.506C365.597 200.194 366.011 199.762 366.311 199.21C366.623 198.646 366.779 197.998 366.779 197.266C366.779 196.522 366.623 195.874 366.311 195.322C366.011 194.77 365.597 194.344 365.069 194.044C364.541 193.732 363.941 193.576 363.269 193.576C362.597 193.576 361.997 193.732 361.469 194.044C360.941 194.344 360.521 194.77 360.209 195.322C359.897 195.874 359.741 196.522 359.741 197.266C359.741 197.998 359.897 198.646 360.209 199.21C360.521 199.762 360.941 200.194 361.469 200.506C361.997 200.806 362.591 200.956 363.251 200.956ZM373.832 202.09C372.944 202.09 372.26 201.85 371.78 201.37C371.3 200.89 371.06 200.212 371.06 199.336V190.462H372.338V199.264C372.338 199.816 372.476 200.242 372.752 200.542C373.04 200.842 373.448 200.992 373.976 200.992C374.54 200.992 375.008 200.83 375.38 200.506L375.83 201.424C375.578 201.652 375.272 201.82 374.912 201.928C374.564 202.036 374.204 202.09 373.832 202.09ZM369.368 193.612V192.55H375.218V193.612H369.368ZM383.14 192.46C383.908 192.46 384.58 192.61 385.156 192.91C385.744 193.198 386.2 193.642 386.524 194.242C386.86 194.842 387.028 195.598 387.028 196.51V202H385.75V196.636C385.75 195.64 385.498 194.89 384.994 194.386C384.502 193.87 383.806 193.612 382.906 193.612C382.234 193.612 381.646 193.75 381.142 194.026C380.65 194.29 380.266 194.68 379.99 195.196C379.726 195.7 379.594 196.312 379.594 197.032V202H378.316V188.644H379.594V195.142L379.342 194.656C379.642 193.972 380.122 193.438 380.782 193.054C381.442 192.658 382.228 192.46 383.14 192.46ZM394.654 202.09C393.67 202.09 392.806 201.886 392.062 201.478C391.318 201.058 390.736 200.488 390.316 199.768C389.896 199.036 389.686 198.202 389.686 197.266C389.686 196.33 389.884 195.502 390.28 194.782C390.688 194.062 391.24 193.498 391.936 193.09C392.644 192.67 393.436 192.46 394.312 192.46C395.2 192.46 395.986 192.664 396.67 193.072C397.366 193.468 397.912 194.032 398.308 194.764C398.704 195.484 398.902 196.318 398.902 197.266C398.902 197.326 398.896 197.392 398.884 197.464C398.884 197.524 398.884 197.59 398.884 197.662H390.658V196.708H398.2L397.696 197.086C397.696 196.402 397.546 195.796 397.246 195.268C396.958 194.728 396.562 194.308 396.058 194.008C395.554 193.708 394.972 193.558 394.312 193.558C393.664 193.558 393.082 193.708 392.566 194.008C392.05 194.308 391.648 194.728 391.36 195.268C391.072 195.808 390.928 196.426 390.928 197.122V197.32C390.928 198.04 391.084 198.676 391.396 199.228C391.72 199.768 392.164 200.194 392.728 200.506C393.304 200.806 393.958 200.956 394.69 200.956C395.266 200.956 395.8 200.854 396.292 200.65C396.796 200.446 397.228 200.134 397.588 199.714L398.308 200.542C397.888 201.046 397.36 201.43 396.724 201.694C396.1 201.958 395.41 202.09 394.654 202.09ZM401.664 202V192.55H402.888V195.124L402.762 194.674C403.026 193.954 403.47 193.408 404.094 193.036C404.718 192.652 405.492 192.46 406.416 192.46V193.702C406.368 193.702 406.32 193.702 406.272 193.702C406.224 193.69 406.176 193.684 406.128 193.684C405.132 193.684 404.352 193.99 403.788 194.602C403.224 195.202 402.942 196.06 402.942 197.176V202H401.664ZM411.551 202.09C410.771 202.09 410.033 201.982 409.337 201.766C408.641 201.538 408.095 201.256 407.699 200.92L408.275 199.912C408.659 200.2 409.151 200.452 409.751 200.668C410.351 200.872 410.981 200.974 411.641 200.974C412.541 200.974 413.189 200.836 413.585 200.56C413.981 200.272 414.179 199.894 414.179 199.426C414.179 199.078 414.065 198.808 413.837 198.616C413.621 198.412 413.333 198.262 412.973 198.166C412.613 198.058 412.211 197.968 411.767 197.896C411.323 197.824 410.879 197.74 410.435 197.644C410.003 197.548 409.607 197.41 409.247 197.23C408.887 197.038 408.593 196.78 408.365 196.456C408.149 196.132 408.041 195.7 408.041 195.16C408.041 194.644 408.185 194.182 408.473 193.774C408.761 193.366 409.181 193.048 409.733 192.82C410.297 192.58 410.981 192.46 411.785 192.46C412.397 192.46 413.009 192.544 413.621 192.712C414.233 192.868 414.737 193.078 415.133 193.342L414.575 194.368C414.155 194.08 413.705 193.876 413.225 193.756C412.745 193.624 412.265 193.558 411.785 193.558C410.933 193.558 410.303 193.708 409.895 194.008C409.499 194.296 409.301 194.668 409.301 195.124C409.301 195.484 409.409 195.766 409.625 195.97C409.853 196.174 410.147 196.336 410.507 196.456C410.879 196.564 411.281 196.654 411.713 196.726C412.157 196.798 412.595 196.888 413.027 196.996C413.471 197.092 413.873 197.23 414.233 197.41C414.605 197.578 414.899 197.824 415.115 198.148C415.343 198.46 415.457 198.874 415.457 199.39C415.457 199.942 415.301 200.422 414.989 200.83C414.689 201.226 414.245 201.538 413.657 201.766C413.081 201.982 412.379 202.09 411.551 202.09ZM418.088 202.09C417.824 202.09 417.596 201.994 417.404 201.802C417.224 201.61 417.134 201.376 417.134 201.1C417.134 200.812 417.224 200.578 417.404 200.398C417.596 200.218 417.824 200.128 418.088 200.128C418.352 200.128 418.574 200.218 418.754 200.398C418.946 200.578 419.042 200.812 419.042 201.1C419.042 201.376 418.946 201.61 418.754 201.802C418.574 201.994 418.352 202.09 418.088 202.09ZM422.063 202.09C421.799 202.09 421.571 201.994 421.379 201.802C421.199 201.61 421.109 201.376 421.109 201.1C421.109 200.812 421.199 200.578 421.379 200.398C421.571 200.218 421.799 200.128 422.063 200.128C422.327 200.128 422.549 200.218 422.729 200.398C422.921 200.578 423.017 200.812 423.017 201.1C423.017 201.376 422.921 201.61 422.729 201.802C422.549 201.994 422.327 202.09 422.063 202.09ZM426.037 202.09C425.773 202.09 425.545 201.994 425.353 201.802C425.173 201.61 425.083 201.376 425.083 201.1C425.083 200.812 425.173 200.578 425.353 200.398C425.545 200.218 425.773 200.128 426.037 200.128C426.301 200.128 426.523 200.218 426.703 200.398C426.895 200.578 426.991 200.812 426.991 201.1C426.991 201.376 426.895 201.61 426.703 201.802C426.523 201.994 426.301 202.09 426.037 202.09Z" fill="#757D9D"/>
</g>
<g filter="url(#filter5_d_138_4282)">
<rect x="207" y="43" width="205" height="46" rx="12" fill="#2161D0" shape-rendering="crispEdges"/>
<path d="M225.54 70.54L225.372 66.844L234.18 57.7H237.684L230.364 65.476L228.636 67.372L225.54 70.54ZM222.756 74.5V57.7H225.876V74.5H222.756ZM234.468 74.5L228.036 66.844L230.1 64.564L238.116 74.5H234.468ZM243.12 64.684H251.472V67.252H243.12V64.684ZM243.36 71.884H252.84V74.5H240.24V57.7H252.504V60.316H243.36V71.884ZM260.259 74.5V67.852L260.955 69.772L253.659 57.7H256.995L262.851 67.42H260.979L266.883 57.7H269.955L262.659 69.772L263.379 67.852V74.5H260.259ZM278.631 74.5V57.7H281.199L288.543 69.964H287.199L294.423 57.7H296.991L297.015 74.5H294.063L294.039 62.332H294.663L288.519 72.58H287.127L280.887 62.332H281.607V74.5H278.631ZM299.177 74.5L306.737 57.7H309.809L317.393 74.5H314.129L307.625 59.356H308.873L302.393 74.5H299.177ZM302.657 70.612L303.497 68.164H312.569L313.409 70.612H302.657ZM319.529 74.5V57.7H326.441C327.929 57.7 329.201 57.94 330.257 58.42C331.329 58.9 332.153 59.588 332.729 60.484C333.305 61.38 333.593 62.444 333.593 63.676C333.593 64.908 333.305 65.972 332.729 66.868C332.153 67.748 331.329 68.428 330.257 68.908C329.201 69.372 327.929 69.604 326.441 69.604H321.257L322.649 68.188V74.5H319.529ZM330.521 74.5L326.273 68.404H329.609L333.881 74.5H330.521ZM322.649 68.524L321.257 67.036H326.297C327.673 67.036 328.705 66.74 329.393 66.148C330.097 65.556 330.449 64.732 330.449 63.676C330.449 62.604 330.097 61.78 329.393 61.204C328.705 60.628 327.673 60.34 326.297 60.34H321.257L322.649 58.804V68.524ZM339.868 70.54L339.7 66.844L348.508 57.7H352.012L344.692 65.476L342.964 67.372L339.868 70.54ZM337.084 74.5V57.7H340.204V74.5H337.084ZM348.796 74.5L342.364 66.844L344.428 64.564L352.444 74.5H348.796ZM357.449 64.684H365.801V67.252H357.449V64.684ZM357.689 71.884H367.169V74.5H354.569V57.7H366.833V60.316H357.689V71.884ZM374.055 74.5V60.34H368.487V57.7H382.743V60.34H377.175V74.5H374.055ZM390.128 74.74C388.816 74.74 387.56 74.556 386.36 74.188C385.16 73.804 384.208 73.316 383.504 72.724L384.584 70.3C385.256 70.828 386.088 71.268 387.08 71.62C388.072 71.972 389.088 72.148 390.128 72.148C391.008 72.148 391.72 72.052 392.264 71.86C392.808 71.668 393.208 71.412 393.464 71.092C393.72 70.756 393.848 70.38 393.848 69.964C393.848 69.452 393.664 69.044 393.296 68.74C392.928 68.42 392.448 68.172 391.856 67.996C391.28 67.804 390.632 67.628 389.912 67.468C389.208 67.308 388.496 67.124 387.776 66.916C387.072 66.692 386.424 66.412 385.832 66.076C385.256 65.724 384.784 65.26 384.416 64.684C384.048 64.108 383.864 63.372 383.864 62.476C383.864 61.564 384.104 60.732 384.584 59.98C385.08 59.212 385.824 58.604 386.816 58.156C387.824 57.692 389.096 57.46 390.632 57.46C391.64 57.46 392.64 57.588 393.632 57.844C394.624 58.1 395.488 58.468 396.224 58.948L395.24 61.372C394.488 60.924 393.712 60.596 392.912 60.388C392.112 60.164 391.344 60.052 390.608 60.052C389.744 60.052 389.04 60.156 388.496 60.364C387.968 60.572 387.576 60.844 387.32 61.18C387.08 61.516 386.96 61.9 386.96 62.332C386.96 62.844 387.136 63.26 387.488 63.58C387.856 63.884 388.328 64.124 388.904 64.3C389.496 64.476 390.152 64.652 390.872 64.828C391.592 64.988 392.304 65.172 393.008 65.38C393.728 65.588 394.376 65.86 394.952 66.196C395.544 66.532 396.016 66.988 396.368 67.564C396.736 68.14 396.92 68.868 396.92 69.748C396.92 70.644 396.672 71.476 396.176 72.244C395.696 72.996 394.952 73.604 393.944 74.068C392.936 74.516 391.664 74.74 390.128 74.74Z" fill="white"/>
</g>
<path d="M429.518 110.193C430.729 109.354 431.031 107.693 430.193 106.482C429.354 105.271 427.693 104.969 426.482 105.807C425.271 106.646 424.969 108.307 425.807 109.518C426.646 110.729 428.307 111.031 429.518 110.193ZM428.411 107.715L427.849 106.903L427.026 107.472L427.589 108.285L428.411 107.715ZM426.724 105.278L425.599 103.653L424.776 104.222L425.901 105.847L426.724 105.278ZM424.474 102.028L423.349 100.403L422.526 100.972L423.651 102.597L424.474 102.028ZM422.224 98.7779L421.099 97.1529L420.276 97.7221L421.401 99.3471L422.224 98.7779ZM419.974 95.5279L418.849 93.9029L418.026 94.4721L419.151 96.0971L419.974 95.5279ZM417.724 92.2779L416.599 90.6529L415.776 91.2221L416.901 92.8471L417.724 92.2779ZM415.474 89.0279L414.349 87.4029L413.526 87.9721L414.651 89.5971L415.474 89.0279ZM413.224 85.7779L412.099 84.1529L411.276 84.7221L412.401 86.3471L413.224 85.7779ZM410.974 82.5279L409.849 80.9029L409.026 81.4722L410.151 83.0971L410.974 82.5279ZM408.724 79.2779L407.599 77.6529L406.776 78.2222L407.901 79.8472L408.724 79.2779ZM406.474 76.0279L405.349 74.403L404.526 74.9722L405.651 76.5972L406.474 76.0279ZM404.224 72.778L403.099 71.153L402.276 71.7222L403.401 73.3472L404.224 72.778ZM401.974 69.528L401.411 68.7155L400.589 69.2847L401.151 70.0972L401.974 69.528Z" fill="#2161D0"/>
<path d="M340.132 186.663C341.603 186.591 342.736 185.339 342.663 183.868C342.591 182.397 341.339 181.264 339.868 181.337C338.397 181.409 337.264 182.661 337.337 184.132C337.409 185.603 338.661 186.736 340.132 186.663ZM340.499 183.975L340.449 182.965L339.451 183.015L339.501 184.025L340.499 183.975ZM340.349 180.945L340.249 178.925L339.251 178.975L339.351 180.995L340.349 180.945ZM340.149 176.905L340.049 174.885L339.051 174.935L339.151 176.955L340.149 176.905ZM339.949 172.865L339.849 170.845L338.851 170.895L338.951 172.915L339.949 172.865ZM339.749 168.825L339.649 166.805L338.651 166.855L338.751 168.875L339.749 168.825ZM339.549 164.785L339.449 162.765L338.451 162.815L338.551 164.835L339.549 164.785ZM339.349 160.745L339.249 158.725L338.251 158.775L338.351 160.795L339.349 160.745ZM339.149 156.705L339.049 154.685L338.051 154.735L338.151 156.755L339.149 156.705ZM338.949 152.665L338.849 150.645L337.851 150.695L337.951 152.715L338.949 152.665ZM338.749 148.625L338.649 146.605L337.651 146.655L337.751 148.675L338.749 148.625ZM338.549 144.585L338.449 142.565L337.451 142.615L337.551 144.635L338.549 144.585ZM338.349 140.545L338.249 138.525L337.251 138.575L337.351 140.595L338.349 140.545ZM338.149 136.505L338.049 134.485L337.051 134.535L337.151 136.555L338.149 136.505ZM337.949 132.465L337.849 130.445L336.851 130.495L336.951 132.515L337.949 132.465ZM337.749 128.425L337.649 126.405L336.651 126.455L336.751 128.475L337.749 128.425ZM337.549 124.385L337.449 122.365L336.451 122.415L336.551 124.435L337.549 124.385ZM337.349 120.345L337.249 118.325L336.251 118.375L336.351 120.395L337.349 120.345ZM337.149 116.305L337.049 114.285L336.051 114.335L336.151 116.355L337.149 116.305ZM336.949 112.265L336.849 110.245L335.851 110.295L335.951 112.315L336.949 112.265ZM336.749 108.225L336.649 106.205L335.651 106.255L335.751 108.275L336.749 108.225ZM336.549 104.185L336.449 102.165L335.451 102.215L335.551 104.235L336.549 104.185ZM336.349 100.145L336.249 98.1253L335.251 98.1747L335.351 100.195L336.349 100.145ZM336.149 96.1053L336.049 94.0853L335.051 94.1347L335.151 96.1547L336.149 96.1053ZM335.949 92.0653L335.849 90.0453L334.851 90.0947L334.951 92.1147L335.949 92.0653ZM335.749 88.0253L335.649 86.0053L334.651 86.0547L334.751 88.0747L335.749 88.0253ZM335.549 83.9852L335.499 82.9753L334.501 83.0247L334.551 84.0347L335.549 83.9852Z" fill="#2161D0"/>
<path d="M217.82 115.536C218.668 116.74 220.332 117.028 221.536 116.18C222.74 115.332 223.028 113.668 222.18 112.464C221.332 111.26 219.668 110.972 218.464 111.82C217.26 112.668 216.972 114.332 217.82 115.536ZM220.288 114.409L221.134 113.813L220.558 112.995L219.712 113.591L220.288 114.409ZM222.826 112.62L224.519 111.428L223.943 110.61L222.25 111.803L222.826 112.62ZM226.211 110.236L227.903 109.043L227.327 108.226L225.635 109.418L226.211 110.236ZM229.596 107.851L231.288 106.659L230.712 105.841L229.02 107.034L229.596 107.851ZM232.98 105.466L234.673 104.274L234.097 103.457L232.404 104.649L232.98 105.466ZM236.365 103.082L238.057 101.89L237.481 101.072L235.789 102.264L236.365 103.082ZM239.75 100.697L241.442 99.5049L240.866 98.6874L239.174 99.8797L239.75 100.697ZM243.134 98.3126L244.826 97.1203L244.25 96.3028L242.558 97.4951L243.134 98.3126ZM246.519 95.928L248.211 94.7357L247.635 93.9182L245.943 95.1105L246.519 95.928ZM249.903 93.5434L251.596 92.3511L251.02 91.5336L249.327 92.7259L249.903 93.5434ZM253.288 91.1587L254.98 89.9664L254.404 89.149L252.712 90.3413L253.288 91.1587ZM256.673 88.7741L258.365 87.5818L257.789 86.7643L256.097 87.9567L256.673 88.7741ZM260.057 86.3895L261.75 85.1972L261.174 84.3797L259.481 85.572L260.057 86.3895ZM263.442 84.0049L264.288 83.4087L263.712 82.5913L262.866 83.1874L263.442 84.0049Z" fill="#2161D0"/>
<path d="M183.951 42.2928C183.009 43.4242 183.161 45.1058 184.293 46.0486C185.424 46.9914 187.106 46.8386 188.049 45.7072C188.991 44.5758 188.839 42.8942 187.707 41.9514C186.576 41.0086 184.894 41.1614 183.951 42.2928ZM185.68 44.3841L186.43 45.0091L187.07 44.2409L186.32 43.6159L185.68 44.3841ZM187.93 46.2591L189.43 47.5091L190.07 46.7409L188.57 45.4909L187.93 46.2591ZM190.93 48.7591L192.43 50.0091L193.07 49.2409L191.57 47.9909L190.93 48.7591ZM193.93 51.2591L195.43 52.5091L196.07 51.7409L194.57 50.4909L193.93 51.2591ZM196.93 53.7591L198.43 55.0091L199.07 54.2409L197.57 52.9909L196.93 53.7591ZM199.93 56.2591L201.43 57.5091L202.07 56.7409L200.57 55.4909L199.93 56.2591ZM202.93 58.7591L204.43 60.0091L205.07 59.2409L203.57 57.9909L202.93 58.7591ZM205.93 61.2591L207.43 62.5091L208.07 61.7409L206.57 60.4909L205.93 61.2591ZM208.93 63.7591L209.68 64.3841L210.32 63.6159L209.57 62.9909L208.93 63.7591Z" fill="#2161D0"/>
<defs>
<filter id="filter0_d_138_4282" x="390.1" y="0.829981" width="169.88" height="73.99" filterUnits="userSpaceOnUse" color-interpolation-filters="sRGB">
<feFlood flood-opacity="0" result="BackgroundImageFix"/>
<feColorMatrix in="SourceAlpha" type="matrix" values="0 0 0 0 0 0 0 0 0 0 0 0 0 0 0 0 0 0 127 0" result="hardAlpha"/>
<feOffset dy="4"/>
<feGaussianBlur stdDeviation="7.45"/>
<feComposite in2="hardAlpha" operator="out"/>
<feColorMatrix type="matrix" values="0 0 0 0 0 0 0 0 0 0 0 0 0 0 0 0 0 0 0.25 0"/>
<feBlend mode="normal" in2="BackgroundImageFix" result="effect1_dropShadow_138_4282"/>
<feBlend mode="normal" in="SourceGraphic" in2="effect1_dropShadow_138_4282" result="shape"/>
</filter>
<filter id="filter1_d_138_4282" x="0.1" y="11.1" width="200.66" height="73.99" filterUnits="userSpaceOnUse" color-interpolation-filters="sRGB">
<feFlood flood-opacity="0" result="BackgroundImageFix"/>
<feColorMatrix in="SourceAlpha" type="matrix" values="0 0 0 0 0 0 0 0 0 0 0 0 0 0 0 0 0 0 127 0" result="hardAlpha"/>
<feOffset dy="4"/>
<feGaussianBlur stdDeviation="7.45"/>
<feComposite in2="hardAlpha" operator="out"/>
<feColorMatrix type="matrix" values="0 0 0 0 0 0 0 0 0 0 0 0 0 0 0 0 0 0 0.25 0"/>
<feBlend mode="normal" in2="BackgroundImageFix" result="effect1_dropShadow_138_4282"/>
<feBlend mode="normal" in="SourceGraphic" in2="effect1_dropShadow_138_4282" result="shape"/>
</filter>
<filter id="filter2_d_138_4282" x="124.1" y="100.1" width="181.8" height="73.99" filterUnits="userSpaceOnUse" color-interpolation-filters="sRGB">
<feFlood flood-opacity="0" result="BackgroundImageFix"/>
<feColorMatrix in="SourceAlpha" type="matrix" values="0 0 0 0 0 0 0 0 0 0 0 0 0 0 0 0 0 0 127 0" result="hardAlpha"/>
<feOffset dy="4"/>
<feGaussianBlur stdDeviation="7.45"/>
<feComposite in2="hardAlpha" operator="out"/>
<feColorMatrix type="matrix" values="0 0 0 0 0 0 0 0 0 0 0 0 0 0 0 0 0 0 0.25 0"/>
<feBlend mode="normal" in2="BackgroundImageFix" result="effect1_dropShadow_138_4282"/>
<feBlend mode="normal" in="SourceGraphic" in2="effect1_dropShadow_138_4282" result="shape"/>
</filter>
<filter id="filter3_d_138_4282" x="368.1" y="94.83" width="169.57" height="73.99" filterUnits="userSpaceOnUse" color-interpolation-filters="sRGB">
<feFlood flood-opacity="0" result="BackgroundImageFix"/>
<feColorMatrix in="SourceAlpha" type="matrix" values="0 0 0 0 0 0 0 0 0 0 0 0 0 0 0 0 0 0 127 0" result="hardAlpha"/>
<feOffset dy="4"/>
<feGaussianBlur stdDeviation="7.45"/>
<feComposite in2="hardAlpha" operator="out"/>
<feColorMatrix type="matrix" values="0 0 0 0 0 0 0 0 0 0 0 0 0 0 0 0 0 0 0.25 0"/>
<feBlend mode="normal" in2="BackgroundImageFix" result="effect1_dropShadow_138_4282"/>
<feBlend mode="normal" in="SourceGraphic" in2="effect1_dropShadow_138_4282" result="shape"/>
</filter>
<filter id="filter4_d_138_4282" x="290.1" y="162.1" width="162.8" height="75.8" filterUnits="userSpaceOnUse" color-interpolation-filters="sRGB">
<feFlood flood-opacity="0" result="BackgroundImageFix"/>
<feColorMatrix in="SourceAlpha" type="matrix" values="0 0 0 0 0 0 0 0 0 0 0 0 0 0 0 0 0 0 127 0" result="hardAlpha"/>
<feOffset dy="4"/>
<feGaussianBlur stdDeviation="7.45"/>
<feComposite in2="hardAlpha" operator="out"/>
<feColorMatrix type="matrix" values="0 0 0 0 0 0 0 0 0 0 0 0 0 0 0 0 0 0 0.25 0"/>
<feBlend mode="normal" in2="BackgroundImageFix" result="effect1_dropShadow_138_4282"/>
<feBlend mode="normal" in="SourceGraphic" in2="effect1_dropShadow_138_4282" result="shape"/>
</filter>
<filter id="filter5_d_138_4282" x="192.1" y="32.1" width="234.8" height="75.8" filterUnits="userSpaceOnUse" color-interpolation-filters="sRGB">
<feFlood flood-opacity="0" result="BackgroundImageFix"/>
<feColorMatrix in="SourceAlpha" type="matrix" values="0 0 0 0 0 0 0 0 0 0 0 0 0 0 0 0 0 0 127 0" result="hardAlpha"/>
<feOffset dy="4"/>
<feGaussianBlur stdDeviation="7.45"/>
<feComposite in2="hardAlpha" operator="out"/>
<feColorMatrix type="matrix" values="0 0 0 0 0 0 0 0 0 0 0 0 0 0 0 0 0 0 0.25 0"/>
<feBlend mode="normal" in2="BackgroundImageFix" result="effect1_dropShadow_138_4282"/>
<feBlend mode="normal" in="SourceGraphic" in2="effect1_dropShadow_138_4282" result="shape"/>
</filter>
<clipPath id="clip0_138_4282">
<rect width="28" height="18" fill="white" transform="translate(445 24.82)"/>
</clipPath>
<clipPath id="clip1_138_4282">
<rect width="28" height="18" fill="white" transform="translate(445 24.82)"/>
</clipPath>
<clipPath id="clip2_138_4282">
<rect width="28" height="18" fill="white" transform="translate(445 24.82)"/>
</clipPath>
<clipPath id="clip3_138_4282">
<rect width="28" height="18" fill="white" transform="translate(27 35.09)"/>
</clipPath>
<clipPath id="clip4_138_4282">
<rect width="28" height="18" fill="white" transform="translate(27 35.09)"/>
</clipPath>
<clipPath id="clip5_138_4282">
<rect width="28" height="18" fill="white" transform="translate(27 35.09)"/>
</clipPath>
<clipPath id="clip6_138_4282">
<rect width="28" height="18" fill="white" transform="translate(151 124.09)"/>
</clipPath>
<clipPath id="clip7_138_4282">
<rect width="28" height="18" fill="white" transform="translate(151 124.09)"/>
</clipPath>
<clipPath id="clip8_138_4282">
<rect width="28" height="18" fill="white" transform="translate(151 124.09)"/>
</clipPath>
<clipPath id="clip9_138_4282">
<rect width="28" height="18" fill="white" transform="translate(395 118.82)"/>
</clipPath>
<clipPath id="clip10_138_4282">
<rect width="28" height="18" fill="white" transform="translate(395 118.82)"/>
</clipPath>
<clipPath id="clip11_138_4282">
<rect width="28" height="18" fill="white" transform="translate(395 118.82)"/>
</clipPath>
</defs>
</svg>
