<svg width="1537" height="85" viewBox="0 0 1537 85" fill="none" xmlns="http://www.w3.org/2000/svg">
<rect width="1537" height="85" fill="#A5C6FF"/>
<rect x="8" y="15.5" width="80" height="54" rx="27" fill="white"/>
<path fill-rule="evenodd" clip-rule="evenodd" d="M60.199 34.0352C60.1667 34.2473 60.1291 34.464 60.0873 34.6867C58.6455 42.2125 53.7126 44.8123 47.4126 44.8123H44.2048C43.4343 44.8123 42.7849 45.3809 42.6651 46.1536L40.5576 59.7437C40.4795 60.2512 40.8641 60.7083 41.3676 60.7083H47.057C47.7306 60.7083 48.3029 60.2107 48.409 59.5353L48.4649 59.2416L49.5361 52.3308L49.605 51.9518C49.7098 51.274 50.2834 50.7761 50.957 50.7761H51.8078C57.32 50.7761 61.6352 48.5012 62.8965 41.9174C63.4231 39.1672 63.1505 36.8707 61.7564 35.2556C61.3345 34.7687 60.8112 34.3644 60.199 34.0352Z" fill="#298FC2"/>
<path fill-rule="evenodd" clip-rule="evenodd" d="M58.6901 33.4239C58.4697 33.3585 58.2425 33.2994 58.0094 33.246C57.775 33.1939 57.535 33.1477 57.2878 33.1072C56.423 32.9652 55.4751 32.8978 54.4601 32.8978H45.8907C45.6794 32.8978 45.479 32.9463 45.2997 33.0339C44.9043 33.2271 44.6108 33.6074 44.5396 34.0731L42.7165 45.8115L42.6643 46.1537C42.7841 45.381 43.4335 44.8125 44.204 44.8125H47.4118C53.7118 44.8125 58.6447 42.2113 60.0865 34.6868C60.1296 34.4641 60.1659 34.2474 60.1982 34.0353C59.8335 33.8384 59.4384 33.6702 59.013 33.5268C58.9079 33.4913 58.7995 33.4571 58.6901 33.4239Z" fill="#22284F"/>
<path fill-rule="evenodd" clip-rule="evenodd" d="M44.5396 34.0731C44.6108 33.6074 44.9048 33.2271 45.3001 33.0352C45.4807 32.9473 45.6798 32.8988 45.8911 32.8988H54.4605C55.4756 32.8988 56.4234 32.9665 57.2883 33.1086C57.5354 33.1488 57.7754 33.1952 58.0098 33.2473C58.2429 33.3004 58.4702 33.3599 58.6905 33.4249C58.7999 33.4581 58.9083 33.4926 59.0144 33.5268C59.4398 33.6702 59.8352 33.8398 60.1999 34.0353C60.6289 31.2542 60.1963 29.3606 58.7173 27.646C57.0865 25.7581 54.1435 24.9502 50.3774 24.9502H39.4439C38.6746 24.9502 38.0184 25.5188 37.8995 26.2928L33.3456 55.6381C33.2559 56.2186 33.6963 56.7424 34.2722 56.7424H41.0221L44.5396 34.0731Z" fill="#28356A"/>
<rect x="104" y="15.5" width="80" height="54" rx="27" fill="white"/>
<path fill-rule="evenodd" clip-rule="evenodd" d="M124.712 35.7514H120.793C120.525 35.7514 120.297 35.9487 120.255 36.2166L118.67 46.3899C118.639 46.5907 118.792 46.7716 118.993 46.7716H120.864C121.132 46.7716 121.36 46.5743 121.402 46.3059L121.83 43.562C121.871 43.2933 122.1 43.0963 122.367 43.0963H123.608C126.189 43.0963 127.679 41.8316 128.068 39.3256C128.243 38.2292 128.076 37.3678 127.568 36.7643C127.011 36.102 126.023 35.7514 124.712 35.7514ZM125.164 39.4671C124.95 40.8907 123.875 40.8907 122.836 40.8907H122.245L122.66 38.2319C122.685 38.0714 122.822 37.953 122.983 37.953H123.254C123.961 37.953 124.629 37.953 124.974 38.3613C125.179 38.6051 125.242 38.9669 125.164 39.4671ZM136.426 39.4214H134.549C134.389 39.4214 134.251 39.5398 134.227 39.7006L134.144 40.2319L134.012 40.0394C133.606 39.4424 132.7 39.2429 131.796 39.2429C129.722 39.2429 127.951 40.8329 127.606 43.0635C127.427 44.176 127.682 45.2398 128.305 45.9818C128.877 46.664 129.695 46.9483 130.669 46.9483C132.34 46.9483 133.266 45.8605 133.266 45.8605L133.183 46.3886C133.151 46.5904 133.305 46.7714 133.505 46.7714H135.195C135.464 46.7714 135.691 46.5741 135.733 46.3056L136.747 39.8032C136.779 39.6032 136.626 39.4214 136.426 39.4214ZM133.81 43.1191C133.629 44.2044 132.778 44.933 131.693 44.933C131.148 44.933 130.712 44.7561 130.433 44.4208C130.155 44.0879 130.05 43.6138 130.138 43.0861C130.307 42.0098 131.173 41.2576 132.241 41.2576C132.774 41.2576 133.207 41.4367 133.493 41.7749C133.778 42.1167 133.892 42.5934 133.81 43.1191ZM144.535 39.4212H146.42C146.685 39.4212 146.839 39.721 146.688 39.9403L140.416 49.1058C140.315 49.2543 140.148 49.3426 139.969 49.3426H138.085C137.82 49.3426 137.665 49.0403 137.819 48.8205L139.772 46.0296L137.695 39.8585C137.623 39.644 137.779 39.4212 138.005 39.4212H139.858C140.099 39.4212 140.311 39.5811 140.38 39.8144L141.483 43.5416L144.084 39.663C144.186 39.5116 144.355 39.4212 144.535 39.4212Z" fill="#253B80"/>
<path fill-rule="evenodd" clip-rule="evenodd" d="M164.982 46.389L166.59 36.0297C166.615 35.8689 166.752 35.7505 166.912 35.75H168.723C168.923 35.75 169.076 35.9315 169.045 36.1323L167.459 46.305C167.417 46.5735 167.189 46.7708 166.921 46.7708H165.304C165.104 46.7708 164.95 46.5898 164.982 46.389ZM152.665 35.7505H148.745C148.478 35.7505 148.25 35.9478 148.208 36.2158L146.623 46.389C146.591 46.5898 146.745 46.7708 146.945 46.7708H148.956C149.143 46.7708 149.303 46.6328 149.332 46.4449L149.782 43.5611C149.823 43.2924 150.052 43.0954 150.319 43.0954H151.559C154.141 43.0954 155.631 41.8307 156.02 39.3247C156.196 38.2283 156.027 37.3669 155.52 36.7634C154.964 36.1011 153.976 35.7505 152.665 35.7505ZM153.117 39.4662C152.903 40.8898 151.829 40.8898 150.789 40.8898H150.199L150.614 38.231C150.639 38.0705 150.775 37.9521 150.936 37.9521H151.207C151.914 37.9521 152.582 37.9521 152.927 38.3604C153.133 38.6042 153.195 38.9661 153.117 39.4662ZM164.378 39.4205H162.503C162.341 39.4205 162.205 39.5389 162.18 39.6997L162.097 40.231L161.966 40.0385C161.559 39.4415 160.654 39.242 159.75 39.242C157.676 39.242 155.905 40.8321 155.56 43.0626C155.382 44.1751 155.636 45.239 156.259 45.981C156.832 46.6631 157.649 46.9474 158.623 46.9474C160.293 46.9474 161.22 45.8596 161.22 45.8596L161.136 46.3877C161.105 46.5896 161.258 46.7705 161.46 46.7705H163.149C163.417 46.7705 163.645 46.5732 163.687 46.3047L164.702 39.8023C164.733 39.6023 164.579 39.4205 164.378 39.4205ZM161.762 43.1182C161.582 44.2036 160.73 44.9321 159.645 44.9321C159.101 44.9321 158.665 44.7552 158.385 44.4199C158.107 44.087 158.003 43.613 158.09 43.0852C158.26 42.009 159.125 41.2568 160.193 41.2568C160.726 41.2568 161.159 41.4358 161.445 41.7741C161.732 42.1158 161.845 42.5926 161.762 43.1182Z" fill="#179BD7"/>
<rect x="200" y="15.5" width="80" height="54" rx="27" fill="white"/>
<path d="M257.337 42.1644C257.337 52.0445 249.427 60.0539 239.669 60.0539C229.91 60.0539 222 52.0445 222 42.1644C222 32.2844 229.91 24.275 239.669 24.275C249.427 24.275 257.337 32.2844 257.337 42.1644Z" fill="#6481E7"/>
<path fill-rule="evenodd" clip-rule="evenodd" d="M239.876 29.5771V47.6361L247.801 42.8923L239.876 29.5771Z" fill="#C1CCF5"/>
<path fill-rule="evenodd" clip-rule="evenodd" d="M231.95 42.8923L239.876 47.6361V29.5771L231.95 42.8923Z" fill="white"/>
<path fill-rule="evenodd" clip-rule="evenodd" d="M239.876 39.245L231.95 42.8923L239.876 47.6361L247.801 42.8923L239.876 39.245Z" fill="#8299EC"/>
<path fill-rule="evenodd" clip-rule="evenodd" d="M239.876 49.1554V55.7232L247.807 44.4142L239.876 49.1554Z" fill="#C1CCF5"/>
<path fill-rule="evenodd" clip-rule="evenodd" d="M239.876 39.245L231.95 42.8923L239.876 47.6361L239.876 39.245Z" fill="#C1CCF5"/>
<path fill-rule="evenodd" clip-rule="evenodd" d="M231.95 44.4142L239.875 55.7227L239.876 49.1554L231.95 44.4142Z" fill="white"/>
<rect x="296" y="15.5" width="80" height="54" rx="27" fill="white"/>
<path d="M334.97 41.5483C336.319 41.1926 339.255 40.4187 338.698 38.367C338.127 36.2687 335.336 37.1312 333.97 37.5536C333.815 37.6014 333.678 37.6436 333.566 37.6752L334.643 41.6363C334.736 41.6101 334.846 41.5809 334.97 41.5483Z" fill="#8FC258"/>
<path d="M336.756 47.8962C338.37 47.4678 341.901 46.5307 341.286 44.2708C340.658 41.9598 337.302 42.9887 335.664 43.4908C335.481 43.5468 335.319 43.5964 335.186 43.6339L336.372 47.9999C336.482 47.969 336.611 47.9347 336.756 47.8962Z" fill="#8FC258"/>
<path fill-rule="evenodd" clip-rule="evenodd" d="M351.597 33.5223C356.472 42.2667 353.423 53.3568 344.787 58.2927C336.151 63.2286 325.198 60.1413 320.323 51.3969C315.448 42.6525 318.496 31.5624 327.132 26.6265C335.768 21.6905 346.721 24.7779 351.597 33.5223ZM336.437 34.4299C339.034 33.943 341.256 34.1661 342.119 36.4521C342.753 38.125 342.321 39.3561 341.34 40.2615C343.338 40.1897 344.724 41.4291 345.273 43.5718C345.838 46.7838 343.754 48.2724 340.503 49.3917L341.396 52.6813L339.432 53.2323L338.55 49.9869C338.041 50.1303 337.518 50.2714 336.977 50.4124L337.863 53.6733L335.901 54.2232L335.003 50.9283L331.041 52.0284L330.788 49.5494C330.788 49.5494 332.247 49.163 332.216 49.1484C332.771 48.9913 332.809 48.5466 332.776 48.2849L330.349 39.3582C330.165 38.9766 329.779 38.5837 328.983 38.8064C328.999 38.7724 327.556 39.2079 327.556 39.2079L326.98 37.0897L330.939 35.9719L330.054 32.713L332.017 32.1626L332.885 35.3566C333.408 35.1978 333.933 35.0398 334.449 34.895L333.586 31.7215L335.55 31.1705L336.437 34.4299Z" fill="#8FC258"/>
<rect x="392" y="15.5" width="80" height="54" rx="27" fill="white"/>
<path fill-rule="evenodd" clip-rule="evenodd" d="M449.337 42.1645C449.337 52.0445 441.427 60.0539 431.669 60.0539C421.911 60.0539 414 52.0445 414 42.1645C414 32.2844 421.911 24.275 431.669 24.275C441.427 24.275 449.337 32.2844 449.337 42.1645ZM427.36 42.1645L429.945 32.347H435.547L433.608 39.983L436.194 38.8923L435.547 41.2917L432.961 42.1645L431.669 46.9642H440.934L440.072 50.4544H425.204L426.713 44.5639L424.558 45.4366L425.204 43.0372L427.36 42.1645Z" fill="#A5A8A9"/>
<rect x="488" y="15.5" width="80" height="54" rx="27" fill="white"/>
<path d="M527.714 22.9248C538.232 22.9248 546.761 31.5604 546.761 42.2101C546.761 44.3387 546.421 46.3862 545.791 48.3016H540.095V32.0754L527.714 44.6111L515.333 32.0754V48.3016H509.636C509.007 46.3862 508.666 44.3387 508.666 42.2101C508.666 31.5604 517.196 22.9248 527.714 22.9248Z" fill="#FF6600"/>
<path d="M535.964 42.0218V52.2319H543.99C540.647 57.7861 534.608 61.4953 527.714 61.4953C520.821 61.4953 514.782 57.7861 511.439 52.2319H519.464V42.0218L527.714 50.3748L535.964 42.0218Z" fill="#4C4C4C"/>
<rect x="584" y="15.5" width="80" height="54" rx="27" fill="white"/>
<path d="M594.923 41.8455L596.781 39.9644L598.64 41.8465L599.721 40.7519L596.781 37.775L593.842 40.7509L594.923 41.8455Z" fill="#F3BA2F"/>
<path d="M594.162 42.6179L593.081 41.5233L592 42.6179L593.081 43.7125L594.162 42.6179Z" fill="#F3BA2F"/>
<path d="M594.925 43.3911L596.783 45.2723L598.642 43.3902L599.724 44.4842L599.723 44.4848L596.783 47.4617L593.842 44.4843L594.925 43.3911Z" fill="#F3BA2F"/>
<path d="M600.487 43.7121L601.568 42.6175L600.487 41.523L599.406 42.6175L600.487 43.7121Z" fill="#F3BA2F"/>
<path d="M597.877 42.6173L596.781 41.5065L595.683 42.6178L595.685 42.6194L596.781 43.7292L597.878 42.6184L597.878 42.6178L597.877 42.6173Z" fill="#F3BA2F"/>
<path d="M603.25 40.1223H605.601C606.184 40.1223 606.626 40.274 606.925 40.5772C607.156 40.8121 607.272 41.1032 607.272 41.4505V41.4652C607.272 41.612 607.254 41.7416 607.218 41.8541C607.182 41.9667 607.134 42.0681 607.074 42.1586C607.014 42.2492 606.944 42.3287 606.865 42.3971C606.786 42.4656 606.701 42.5244 606.609 42.5732C606.903 42.6858 607.134 42.8386 607.302 43.0319C607.47 43.2252 607.555 43.4931 607.555 43.8355V43.8501C607.555 44.085 607.51 44.2904 607.421 44.4666C607.332 44.6426 607.204 44.7894 607.037 44.9069C606.871 45.0243 606.671 45.1123 606.437 45.1711C606.203 45.2298 605.943 45.2591 605.659 45.2591H603.25V40.1223ZM605.366 42.199C605.612 42.199 605.808 42.1563 605.953 42.0706C606.098 41.985 606.17 41.8468 606.17 41.656V41.6413C606.17 41.4702 606.107 41.3394 605.982 41.2488C605.856 41.1583 605.675 41.113 605.438 41.113H604.337V42.199H605.366ZM605.663 44.2685C605.909 44.2685 606.103 44.2234 606.243 44.1328C606.383 44.0423 606.453 43.9016 606.453 43.7107V43.6961C606.453 43.5249 606.388 43.3892 606.257 43.2888C606.127 43.1887 605.917 43.1385 605.627 43.1385H604.337V44.2686L605.663 44.2685Z" fill="#F3BA2F"/>
<path d="M608.955 40.1223H610.072V45.2592H608.955V40.1223Z" fill="#F3BA2F"/>
<path d="M611.765 40.1223H612.794L615.172 43.2852V40.1223H616.273V45.2592H615.324L612.867 41.9937V45.2592H611.765V40.1223Z" fill="#F3BA2F"/>
<path d="M619.65 40.0843H620.679L622.853 45.2578H621.687L621.223 44.1057H619.077L618.613 45.2578H617.475L619.65 40.0843ZM620.824 43.1076L620.15 41.4418L619.476 43.1076H620.824Z" fill="#F3BA2F"/>
<path d="M624.057 40.1223H625.087L627.464 43.2852V40.1223H628.565V45.2592H627.616L625.159 41.9937V45.2592H624.057V40.1223Z" fill="#F3BA2F"/>
<path d="M632.582 45.3468C632.21 45.3468 631.864 45.2782 631.546 45.1414C631.227 45.0045 630.951 44.8173 630.719 44.5799C630.487 44.3427 630.306 44.0626 630.176 43.7397C630.045 43.4168 629.98 43.0719 629.98 42.7049V42.6903C629.98 42.3234 630.045 41.9798 630.176 41.6593C630.306 41.3389 630.487 41.0575 630.719 40.8154C630.951 40.5732 631.229 40.3824 631.553 40.243C631.876 40.1036 632.234 40.0339 632.625 40.0339C632.862 40.0339 633.078 40.0535 633.274 40.0925C633.47 40.1318 633.647 40.1855 633.807 40.254C633.966 40.3225 634.114 40.4057 634.249 40.5035C634.384 40.6014 634.51 40.709 634.626 40.8264L633.916 41.6556C633.717 41.4747 633.516 41.3327 633.31 41.23C633.105 41.1273 632.874 41.0759 632.618 41.0759C632.406 41.0759 632.209 41.1175 632.028 41.2007C631.846 41.2839 631.69 41.3988 631.56 41.5455C631.43 41.6923 631.328 41.8623 631.256 42.0555C631.183 42.2489 631.147 42.4555 631.147 42.6756V42.6902C631.147 42.9104 631.183 43.1184 631.256 43.3139C631.328 43.5097 631.428 43.6809 631.556 43.8276C631.684 43.9744 631.839 44.0907 632.02 44.1763C632.201 44.262 632.401 44.3047 632.618 44.3047C632.908 44.3047 633.153 44.2509 633.354 44.1432C633.554 44.0357 633.754 43.8889 633.952 43.7029L634.662 44.4294C634.532 44.5714 634.396 44.6986 634.256 44.811C634.116 44.9236 633.963 45.0202 633.796 45.101C633.629 45.1816 633.447 45.2429 633.249 45.2844C633.05 45.3259 632.828 45.3468 632.582 45.3468Z" fill="#F3BA2F"/>
<path d="M635.98 40.1223H639.8V41.1277H637.082V42.1698H639.474V43.1751H637.082V44.2539H639.836V45.2592H635.98V40.1223Z" fill="#F3BA2F"/>
<path d="M643.268 45.3463V40.1104H645.015C645.421 40.1104 645.753 40.1846 646.01 40.3329C646.269 40.4794 646.461 40.678 646.586 40.9285C646.71 41.1791 646.773 41.4586 646.773 41.7671C646.773 42.0756 646.71 42.356 646.586 42.6082C646.463 42.8605 646.273 43.0616 646.015 43.2116C645.758 43.3598 645.428 43.434 645.025 43.434H643.773V42.8715H645.005C645.283 42.8715 645.506 42.823 645.674 42.7258C645.843 42.6287 645.965 42.4974 646.04 42.3321C646.118 42.1651 646.157 41.9767 646.157 41.7671C646.157 41.5575 646.118 41.37 646.04 41.2047C645.965 41.0393 645.842 40.9098 645.672 40.8161C645.502 40.7206 645.276 40.6729 644.995 40.6729H643.894V45.3463H643.268Z" fill="black"/>
<path d="M647.466 45.3463H646.809L648.708 40.1104H649.354L651.253 45.3463H650.597L649.051 40.9388H649.011L647.466 45.3463ZM647.708 43.301H650.354V43.8635H647.708V43.301Z" fill="black"/>
<path d="M651.087 40.1104H651.804L653.238 42.5545H653.299L654.733 40.1104H655.45L653.581 43.1886V45.3463H652.955V43.1886L651.087 40.1104Z" fill="black"/>
<rect x="680" y="15.5" width="80" height="54" rx="27" fill="white"/>
<path fill-rule="evenodd" clip-rule="evenodd" d="M708.657 26.4573L702.027 40.5552C702.002 40.6076 701.994 40.6669 702.004 40.7242C702.015 40.7816 702.043 40.8341 702.085 40.874L719.99 58.2437C720.041 58.2931 720.109 58.3207 720.179 58.3207C720.25 58.3207 720.317 58.2931 720.368 58.2437L738.273 40.8751C738.315 40.8352 738.343 40.7827 738.354 40.7253C738.364 40.6679 738.356 40.6087 738.331 40.5563L731.701 26.4584C731.68 26.411 731.646 26.3709 731.602 26.3428C731.559 26.3147 731.509 26.2999 731.457 26.3H708.903C708.852 26.2994 708.801 26.3139 708.757 26.3418C708.713 26.3697 708.679 26.4098 708.657 26.4573Z" fill="#50AF95"/>
<path fill-rule="evenodd" clip-rule="evenodd" d="M722.481 42.0038C722.352 42.0135 721.688 42.0537 720.207 42.0537C719.029 42.0537 718.192 42.0179 717.898 42.0038C713.345 41.801 709.946 40.9985 709.946 40.0377C709.946 39.0768 713.345 38.2754 717.898 38.0694V41.2045C718.196 41.2262 719.049 41.2772 720.227 41.2772C721.641 41.2772 722.349 41.2176 722.477 41.2056V38.0716C727.021 38.2765 730.412 39.079 730.412 40.0377C730.412 40.9963 727.022 41.7988 722.477 42.0027L722.481 42.0038ZM722.481 37.7473V34.9418H728.822V30.6636H711.557V34.9418H717.897V37.7462C712.744 37.9859 708.868 39.0194 708.868 40.2578C708.868 41.4963 712.744 42.5287 717.897 42.7694V51.7595H722.48V42.7662C727.622 42.5265 731.491 41.4941 731.491 40.2567C731.491 39.0194 727.625 37.987 722.48 37.7462L722.481 37.7473Z" fill="white"/>
<rect x="776" y="15.5" width="80" height="54" rx="27" fill="white"/>
<path d="M795.217 39.8978C792.718 39.8978 790.766 41.8182 790.766 44.3891C790.766 46.9601 792.669 48.8641 795.217 48.8641C797.765 48.8641 799.702 46.9272 799.702 44.3727C799.702 41.8347 797.798 39.8978 795.217 39.8978ZM795.234 47.0113C793.811 47.0113 792.768 45.8924 792.768 44.3898C792.768 42.8701 793.794 41.7519 795.217 41.7519C796.657 41.7519 797.699 42.8872 797.699 44.3898C797.699 45.8924 796.657 47.0113 795.234 47.0113ZM800.247 41.8517H801.489V48.6978H803.474V40.0647H800.247V41.8517ZM785.769 41.7512C786.811 41.7512 787.639 42.4023 787.953 43.3708H790.054C789.674 41.3005 787.986 39.8978 785.785 39.8978C783.287 39.8978 781.334 41.8182 781.334 44.3898C781.334 46.9613 783.237 48.8647 785.785 48.8647C787.936 48.8647 789.657 47.462 790.038 45.3747H787.953C787.655 46.3431 786.828 47.0113 785.785 47.0113C784.345 47.0113 783.336 45.8924 783.336 44.3898C783.336 42.8701 784.329 41.7512 785.769 41.7512ZM837.975 43.5547L836.519 43.3379C835.824 43.238 835.328 43.0041 835.328 42.4529C835.328 41.8517 835.973 41.5515 836.85 41.5515C837.81 41.5515 838.422 41.9687 838.555 42.6533H840.474C840.259 40.9168 838.935 39.8984 836.9 39.8984C834.798 39.8984 833.408 40.9838 833.408 42.5199C833.408 43.989 834.319 44.8411 836.155 45.1079L837.611 45.3247C838.323 45.4246 838.72 45.7091 838.72 46.2432C838.72 46.9278 838.025 47.2117 837.066 47.2117C835.89 47.2117 835.229 46.7274 835.129 45.9929H833.177C833.359 47.6794 834.666 48.8647 837.049 48.8647C839.217 48.8647 840.656 47.8628 840.656 46.1427C840.656 44.6066 839.614 43.805 837.975 43.5547ZM802.481 36.5082C801.753 36.5082 801.207 37.0424 801.207 37.777C801.207 38.5115 801.753 39.0457 802.481 39.0457C803.21 39.0457 803.756 38.5115 803.756 37.777C803.756 37.0424 803.21 36.5082 802.481 36.5082ZM831.621 43.0206C831.621 41.1507 830.496 39.8984 828.113 39.8984C825.863 39.8984 824.605 41.0508 824.357 42.8208H826.326C826.426 42.1362 826.955 41.5685 828.08 41.5685C829.09 41.5685 829.586 42.0193 829.586 42.5705C829.586 43.2886 828.676 43.4719 827.551 43.5889C826.029 43.7557 824.142 44.2899 824.142 46.2938C824.142 47.847 825.284 48.8483 827.104 48.8483C828.527 48.8483 829.421 48.2471 829.868 47.2951C829.934 48.1466 830.563 48.6978 831.44 48.6978H832.599V46.9114H831.622V43.0206H831.621ZM829.669 45.1913C829.669 46.3437 828.676 47.1952 827.468 47.1952C826.723 47.1952 826.094 46.8779 826.094 46.2103C826.094 45.3589 827.104 45.125 828.03 45.0251C828.924 44.9416 829.42 44.7412 829.669 44.3569V45.1913ZM819.128 39.8978C818.019 39.8978 817.093 40.3656 816.431 41.1501V36.4248H814.445V48.6978H816.398V47.5625C817.06 48.3805 818.003 48.8647 819.128 48.8647C821.511 48.8647 823.315 46.9613 823.315 44.3898C823.315 41.8182 821.478 39.8978 819.128 39.8978ZM818.83 47.0113C817.407 47.0113 816.365 45.8924 816.365 44.3898C816.365 42.8872 817.424 41.7519 818.847 41.7519C820.286 41.7519 821.296 42.8707 821.296 44.3898C821.296 45.8924 820.253 47.0113 818.83 47.0113ZM809.696 39.8978C808.405 39.8978 807.561 40.4319 807.065 41.1836V40.0647H805.095V48.6972H807.081V44.0054C807.081 42.6862 807.908 41.7512 809.133 41.7512C810.275 41.7512 810.986 42.5692 810.986 43.7551V48.6978H812.972V43.6053C812.972 41.4339 811.864 39.8978 809.696 39.8978ZM850.121 44.1059C850.121 41.6349 848.334 39.8984 845.935 39.8984C843.386 39.8984 841.516 41.8353 841.516 44.3898C841.516 47.0783 843.519 48.8647 845.968 48.8647C848.036 48.8647 849.658 47.6289 850.071 45.8759H848.003C847.705 46.644 846.977 47.0783 846 47.0783C844.726 47.0783 843.766 46.2767 843.551 44.874H850.121V44.1059H850.121ZM843.667 43.4378C843.982 42.2354 844.876 41.6513 845.902 41.6513C847.027 41.6513 847.887 42.3024 848.086 43.4378H843.667Z" fill="#0052FF"/>
<rect x="872" y="15.5" width="80" height="54" rx="27" fill="white"/>
<path d="M911.862 41.5168C913.183 41.8715 916.058 42.6433 916.559 40.6197C917.07 38.5492 914.277 37.9239 912.909 37.6177C912.754 37.583 912.618 37.5524 912.506 37.5243L911.54 41.4322C911.632 41.4553 911.74 41.4843 911.862 41.5168Z" fill="#F7931A"/>
<path d="M910.365 47.8088C911.947 48.2309 915.408 49.154 915.959 46.9241C916.523 44.6441 913.167 43.8846 911.529 43.5141C911.347 43.4727 911.185 43.4362 911.053 43.4029L909.987 47.7099C910.096 47.7371 910.223 47.7709 910.365 47.8088Z" fill="#F7931A"/>
<path fill-rule="evenodd" clip-rule="evenodd" d="M929.88 42.7779C929.88 52.6239 921.997 60.6057 912.273 60.6057C902.549 60.6057 894.666 52.6239 894.666 42.7779C894.666 32.9319 902.549 24.9502 912.273 24.9502C921.997 24.9502 929.88 32.9319 929.88 42.7779ZM916.503 36.1543C918.952 37.0059 920.744 38.2811 920.392 40.6542C920.137 42.3919 919.182 43.2323 917.913 43.5266C919.654 44.4406 920.247 46.1753 919.696 48.2728C918.649 51.2913 916.161 51.5454 912.852 50.9145L912.049 54.1593L910.109 53.6711L910.902 50.4698C910.399 50.3438 909.885 50.209 909.355 50.0652L908.56 53.2821L906.622 52.7938L907.424 49.5424L903.518 48.5481L904.481 46.3077C904.481 46.3077 905.911 46.69 905.892 46.6621C906.441 46.7992 906.685 46.4381 906.781 46.1984L908.959 37.3916C908.983 36.9758 908.84 36.4519 908.054 36.2535C908.084 36.2323 906.645 35.9002 906.645 35.9002L907.161 33.8102L911.074 34.7877L911.87 31.5731L913.808 32.0613L913.029 35.2124C913.551 35.3317 914.075 35.4532 914.584 35.5814L915.358 32.4503L917.297 32.9385L916.503 36.1543Z" fill="#F7931A"/>
<rect x="968" y="15.5" width="80" height="54" rx="27" fill="white"/>
<path fill-rule="evenodd" clip-rule="evenodd" d="M994.894 36.586C995.454 36.586 995.937 36.687 996.344 36.8859C996.752 37.0865 997.089 37.3567 997.359 37.6966C997.626 38.0382 997.825 38.4376 997.953 38.895C998.08 39.3541 998.144 39.8471 998.144 40.3754C998.144 41.1861 997.997 41.9528 997.699 42.6752C997.402 43.3984 996.998 44.0259 996.484 44.5612C995.971 45.096 995.366 45.5172 994.667 45.8284C993.969 46.1404 993.211 46.2957 992.397 46.2957C992.292 46.2957 992.107 46.2931 991.845 46.287C991.584 46.2818 991.283 46.2548 990.946 46.2087C990.608 46.1613 990.25 46.0908 989.871 45.9963C989.493 45.9036 989.134 45.7735 988.796 45.6086L991.819 32.7984L994.526 32.375L993.444 36.9207C993.676 36.8154 993.909 36.7335 994.142 36.6744C994.377 36.6169 994.626 36.586 994.894 36.586ZM992.623 44.1299C993.031 44.1299 993.415 44.029 993.776 43.8301C994.138 43.6317 994.45 43.3632 994.712 43.0286C994.973 42.693 995.181 42.3145 995.332 41.8915C995.483 41.4689 995.559 41.0281 995.559 40.569C995.559 40.0055 995.466 39.5656 995.28 39.2479C995.093 38.9311 994.749 38.7723 994.249 38.7723C994.085 38.7723 993.873 38.8036 993.611 38.8597C993.348 38.9202 993.113 39.0442 992.902 39.2309L991.75 44.059C991.819 44.0708 991.881 44.0829 991.933 44.0938C991.985 44.1056 992.041 44.1143 992.098 44.1204C992.158 44.1273 992.226 44.1304 992.308 44.1304C992.391 44.1304 992.495 44.1299 992.623 44.1299Z" fill="#4D4D4D"/>
<path fill-rule="evenodd" clip-rule="evenodd" d="M1000.95 46.0498H998.367L1000.55 36.7814H1003.15L1000.95 46.0498ZM1002.21 35.653C1001.85 35.653 1001.52 35.5443 1001.23 35.3275C1000.94 35.1117 1000.79 34.7792 1000.79 34.3315C1000.79 34.0852 1000.84 33.8537 1000.94 33.6361C1001.04 33.4185 1001.17 33.2305 1001.34 33.0717C1001.5 32.9137 1001.69 32.7875 1001.9 32.6922C1002.12 32.5987 1002.35 32.5521 1002.59 32.5521C1002.96 32.5521 1003.28 32.6605 1003.57 32.8776C1003.86 33.0956 1004.01 33.4281 1004.01 33.8732C1004.01 34.1204 1003.96 34.3528 1003.86 34.5704C1003.76 34.7879 1003.63 34.9751 1003.47 35.1348C1003.31 35.2927 1003.11 35.4185 1002.9 35.5129C1002.68 35.6078 1002.46 35.653 1002.21 35.653Z" fill="#4D4D4D"/>
<path fill-rule="evenodd" clip-rule="evenodd" d="M1005.42 34.4733L1008.13 34.0499L1007.46 36.7814H1010.36L1009.84 38.9307H1006.96L1006.19 42.173C1006.12 42.4432 1006.08 42.6956 1006.07 42.9298C1006.05 43.1656 1006.08 43.368 1006.15 43.5381C1006.22 43.7087 1006.35 43.8401 1006.53 43.9337C1006.71 44.0281 1006.97 44.0755 1007.31 44.0755C1007.59 44.0755 1007.86 44.049 1008.12 43.9955C1008.38 43.9437 1008.65 43.8706 1008.91 43.7753L1009.11 45.7853C1008.76 45.9145 1008.38 46.0259 1007.97 46.1195C1007.56 46.2139 1007.08 46.2596 1006.52 46.2596C1005.72 46.2596 1005.09 46.1399 1004.65 45.9001C1004.21 45.6586 1003.89 45.3292 1003.71 44.9119C1003.52 44.4963 1003.44 44.0168 1003.46 43.4768C1003.49 42.9354 1003.57 42.3662 1003.71 41.767L1005.42 34.4733Z" fill="#4D4D4D"/>
<path fill-rule="evenodd" clip-rule="evenodd" d="M1010.25 42.3501C1010.25 41.5516 1010.38 40.7992 1010.64 40.0938C1010.89 39.3884 1011.26 38.7718 1011.74 38.2422C1012.21 37.7153 1012.79 37.2979 1013.48 36.992C1014.16 36.687 1014.92 36.5334 1015.76 36.5334C1016.28 36.5334 1016.75 36.583 1017.16 36.6835C1017.58 36.7845 1017.95 36.9154 1018.29 37.0795L1017.4 39.1252C1017.16 39.0299 1016.92 38.9459 1016.67 38.8693C1016.42 38.7918 1016.12 38.7544 1015.76 38.7544C1014.89 38.7544 1014.21 39.0542 1013.7 39.6522C1013.2 40.2509 1012.94 41.0564 1012.94 42.0673C1012.94 42.6665 1013.07 43.1504 1013.33 43.5211C1013.58 43.8915 1014.06 44.0755 1014.74 44.0755C1015.08 44.0755 1015.41 44.0399 1015.72 43.9702C1016.04 43.8997 1016.31 43.8114 1016.56 43.7061L1016.75 45.8027C1016.43 45.9311 1016.06 46.0468 1015.67 46.1478C1015.27 46.2457 1014.8 46.2957 1014.25 46.2957C1013.53 46.2957 1012.92 46.1895 1012.42 45.9794C1011.92 45.7661 1011.5 45.4828 1011.18 45.1243C1010.85 44.7648 1010.62 44.3449 1010.47 43.8632C1010.32 43.3832 1010.25 42.8775 1010.25 42.3501Z" fill="#4D4D4D"/>
<path fill-rule="evenodd" clip-rule="evenodd" d="M1021.74 46.2966C1021.12 46.2966 1020.58 46.2021 1020.13 46.0146C1019.68 45.8266 1019.3 45.5633 1019 45.2217C1018.71 44.8819 1018.48 44.4789 1018.33 44.015C1018.18 43.5516 1018.11 43.0377 1018.11 42.475C1018.11 41.7688 1018.22 41.0629 1018.45 40.3588C1018.67 39.6539 1019.01 39.0203 1019.45 38.4568C1019.89 37.8924 1020.43 37.4311 1021.08 37.0712C1021.71 36.7144 1022.45 36.5347 1023.28 36.5347C1023.88 36.5347 1024.42 36.6295 1024.88 36.8171C1025.33 37.0051 1025.71 37.2701 1026.01 37.6099C1026.31 37.9515 1026.53 38.3528 1026.68 38.8175C1026.84 39.2801 1026.91 39.7953 1026.91 40.3584C1026.91 41.0625 1026.8 41.7683 1026.58 42.4746C1026.36 43.1769 1026.03 43.8123 1025.6 44.3767C1025.17 44.9402 1024.63 45.401 1023.98 45.7596C1023.34 46.1173 1022.59 46.2966 1021.74 46.2966ZM1023.03 38.7553C1022.65 38.7553 1022.31 38.8676 1022.02 39.0895C1021.73 39.3136 1021.48 39.5956 1021.28 39.9354C1021.09 40.2766 1020.94 40.65 1020.84 41.0542C1020.74 41.4602 1020.69 41.8436 1020.69 42.2083C1020.69 42.7962 1020.78 43.254 1020.97 43.5838C1021.16 43.9115 1021.49 44.0764 1021.98 44.0764C1022.37 44.0764 1022.7 43.965 1023 43.7409C1023.29 43.5185 1023.53 43.2366 1023.73 42.8958C1023.93 42.5564 1024.08 42.1822 1024.18 41.777C1024.27 41.3723 1024.32 40.9868 1024.32 40.623C1024.32 40.0364 1024.23 39.5777 1024.04 39.2483C1023.86 38.9198 1023.52 38.7553 1023.03 38.7553Z" fill="#4D4D4D"/>
<path fill-rule="evenodd" clip-rule="evenodd" d="M1029.73 46.0498H1027.14L1029.32 36.7814H1031.93L1029.73 46.0498ZM1030.98 35.653C1030.62 35.653 1030.3 35.5443 1030.01 35.3275C1029.71 35.1117 1029.57 34.7792 1029.57 34.3315C1029.57 34.0852 1029.62 33.8537 1029.72 33.6361C1029.82 33.4185 1029.95 33.2305 1030.11 33.0717C1030.27 32.9137 1030.46 32.7875 1030.68 32.6922C1030.89 32.5987 1031.12 32.5521 1031.37 32.5521C1031.73 32.5521 1032.06 32.6605 1032.35 32.8776C1032.64 33.0956 1032.78 33.4281 1032.78 33.8732C1032.78 34.1204 1032.73 34.3528 1032.63 34.5704C1032.54 34.7879 1032.41 34.9751 1032.24 35.1348C1032.08 35.2927 1031.89 35.4185 1031.68 35.5129C1031.46 35.6078 1031.23 35.653 1030.98 35.653Z" fill="#4D4D4D"/>
<path fill-rule="evenodd" clip-rule="evenodd" d="M1033.79 37.2039C1033.99 37.1461 1034.21 37.0764 1034.45 37.0007C1034.68 36.925 1034.95 36.8545 1035.25 36.791C1035.55 36.7257 1035.88 36.6731 1036.25 36.6313C1036.61 36.5895 1037.03 36.5691 1037.49 36.5691C1038.86 36.5691 1039.8 36.9694 1040.32 37.7683C1040.84 38.5673 1040.93 39.6604 1040.59 41.0455L1039.4 46.0499H1036.8L1037.95 41.1508C1038.02 40.8449 1038.08 40.549 1038.12 40.2601C1038.16 39.9742 1038.15 39.7218 1038.11 39.5033C1038.06 39.2875 1037.95 39.1112 1037.78 38.9742C1037.61 38.8388 1037.36 38.7718 1037.01 38.7718C1036.67 38.7718 1036.33 38.8084 1035.98 38.8789L1034.28 46.0499H1031.68L1033.79 37.2039Z" fill="#4D4D4D"/>
<path fill-rule="evenodd" clip-rule="evenodd" d="M1002.54 51.5737L1002.04 52.5032H1001.49C1001.88 51.8 1002.25 51.1525 1002.62 50.5607C1002.99 49.9689 1003.35 49.4101 1003.71 48.8844H1004.2C1004.25 49.1455 1004.3 49.4097 1004.34 49.6756C1004.39 49.9419 1004.43 50.2213 1004.47 50.5137C1004.51 50.8061 1004.55 51.1164 1004.59 51.4436C1004.63 51.7709 1004.67 52.1238 1004.71 52.5037H1004.2C1004.18 52.347 1004.17 52.1895 1004.16 52.0311C1004.14 51.8727 1004.13 51.7204 1004.11 51.5742L1002.54 51.5737ZM1004.06 51.166C1004.03 50.8844 1004 50.6038 1003.97 50.3253C1003.93 50.0468 1003.89 49.7596 1003.84 49.4636C1003.72 49.6412 1003.57 49.8705 1003.39 50.1503C1003.21 50.431 1003.01 50.7691 1002.78 51.166H1004.06Z" fill="#4D4D4D"/>
<path fill-rule="evenodd" clip-rule="evenodd" d="M1006.54 52.5811C1006.32 52.5811 1006.12 52.548 1005.95 52.4819C1005.78 52.4158 1005.64 52.3218 1005.52 52.1999C1005.41 52.0785 1005.32 51.931 1005.27 51.7587C1005.21 51.5863 1005.18 51.3923 1005.18 51.1764C1005.18 50.8631 1005.23 50.5637 1005.33 50.2783C1005.43 49.9932 1005.57 49.7408 1005.75 49.5215C1005.93 49.3022 1006.15 49.1273 1006.4 48.9963C1006.66 48.8657 1006.94 48.8005 1007.26 48.8005C1007.53 48.8005 1007.74 48.8283 1007.9 48.884C1008.06 48.9397 1008.18 48.9919 1008.25 49.0407L1008.04 49.4584C1007.96 49.4062 1007.85 49.3566 1007.72 49.3096C1007.58 49.263 1007.42 49.2391 1007.23 49.2391C1006.99 49.2391 1006.78 49.2957 1006.59 49.4092C1006.4 49.5224 1006.24 49.6686 1006.11 49.8479C1005.98 50.0272 1005.88 50.2291 1005.81 50.4536C1005.74 50.6782 1005.71 50.9001 1005.71 51.1194C1005.71 51.7983 1006 52.1377 1006.58 52.1377C1006.7 52.1377 1006.82 52.1286 1006.91 52.1112C1007.01 52.0942 1007.1 52.0737 1007.18 52.0511C1007.25 52.0285 1007.32 52.0037 1007.38 51.9754C1007.44 51.9475 1007.49 51.9232 1007.53 51.9023L1007.6 52.3409C1007.55 52.3653 1007.5 52.3914 1007.43 52.4192C1007.36 52.4471 1007.29 52.4732 1007.2 52.498C1007.11 52.5224 1007.01 52.5424 1006.9 52.5581C1006.79 52.5737 1006.67 52.5811 1006.54 52.5811Z" fill="#4D4D4D"/>
<path fill-rule="evenodd" clip-rule="evenodd" d="M1009.45 52.5811C1009.23 52.5811 1009.03 52.548 1008.86 52.4819C1008.69 52.4158 1008.55 52.3218 1008.43 52.1999C1008.32 52.0785 1008.23 51.931 1008.18 51.7587C1008.12 51.5863 1008.09 51.3923 1008.09 51.1764C1008.09 50.8631 1008.14 50.5637 1008.24 50.2783C1008.34 49.9932 1008.48 49.7408 1008.66 49.5215C1008.84 49.3022 1009.06 49.1273 1009.31 48.9963C1009.57 48.8657 1009.85 48.8005 1010.17 48.8005C1010.44 48.8005 1010.65 48.8283 1010.81 48.884C1010.97 48.9397 1011.09 48.9919 1011.16 49.0407L1010.95 49.4584C1010.87 49.4062 1010.76 49.3566 1010.63 49.3096C1010.49 49.263 1010.33 49.2391 1010.14 49.2391C1009.9 49.2391 1009.69 49.2957 1009.5 49.4092C1009.31 49.5224 1009.15 49.6686 1009.02 49.8479C1008.89 50.0272 1008.79 50.2291 1008.72 50.4536C1008.65 50.6782 1008.61 50.9001 1008.61 51.1194C1008.61 51.7983 1008.91 52.1377 1009.49 52.1377C1009.61 52.1377 1009.73 52.1286 1009.82 52.1112C1009.92 52.0942 1010.01 52.0737 1010.09 52.0511C1010.16 52.0285 1010.23 52.0037 1010.29 51.9754C1010.35 51.9475 1010.4 51.9232 1010.44 51.9023L1010.5 52.3409C1010.46 52.3653 1010.41 52.3914 1010.34 52.4192C1010.27 52.4471 1010.2 52.4732 1010.11 52.498C1010.02 52.5224 1009.92 52.5424 1009.81 52.5581C1009.69 52.5737 1009.58 52.5811 1009.45 52.5811Z" fill="#4D4D4D"/>
<path fill-rule="evenodd" clip-rule="evenodd" d="M1010.84 52.5028L1011.7 48.884H1013.82L1013.72 49.307H1012.1L1011.84 50.3984H1013.28L1013.18 50.8109H1011.75L1011.44 52.0798H1013.18L1013.09 52.5028H1010.84Z" fill="#4D4D4D"/>
<path fill-rule="evenodd" clip-rule="evenodd" d="M1015.32 48.8475C1015.74 48.8475 1016.05 48.9275 1016.26 49.0877C1016.48 49.2478 1016.58 49.4811 1016.58 49.7874C1016.58 50.0241 1016.54 50.2291 1016.45 50.401C1016.36 50.5733 1016.24 50.7152 1016.08 50.827C1015.91 50.9384 1015.72 51.0206 1015.49 51.0746C1015.26 51.1286 1015.01 51.156 1014.73 51.156H1014.37L1014.05 52.5032H1013.55L1014.4 48.9315C1014.54 48.8966 1014.7 48.874 1014.86 48.8636C1015.02 48.8527 1015.17 48.8475 1015.32 48.8475ZM1015.26 49.2757C1015.01 49.2757 1014.86 49.2826 1014.81 49.2966L1014.47 50.7326H1014.8C1014.94 50.7326 1015.09 50.72 1015.24 50.6934C1015.39 50.6673 1015.53 50.6212 1015.65 50.5555C1015.77 50.4893 1015.87 50.398 1015.95 50.2809C1016.03 50.1643 1016.07 50.0141 1016.07 49.8296C1016.07 49.6312 1015.99 49.4893 1015.85 49.4036C1015.7 49.3183 1015.51 49.2757 1015.26 49.2757Z" fill="#4D4D4D"/>
<path fill-rule="evenodd" clip-rule="evenodd" d="M1019.65 48.884L1019.55 49.307H1018.47L1017.7 52.5028H1017.2L1017.96 49.307H1016.88L1016.98 48.884H1019.65Z" fill="#4D4D4D"/>
<path fill-rule="evenodd" clip-rule="evenodd" d="M1019.18 52.5028L1020.04 48.884H1022.16L1022.06 49.307H1020.44L1020.18 50.3984H1021.62L1021.52 50.8109H1020.09L1019.78 52.0798H1021.52L1021.42 52.5028H1019.18Z" fill="#4D4D4D"/>
<path fill-rule="evenodd" clip-rule="evenodd" d="M1023.65 48.8475C1024.18 48.8475 1024.58 48.9737 1024.84 49.2261C1025.1 49.4784 1025.23 49.8187 1025.23 50.2469C1025.23 50.5463 1025.19 50.8344 1025.09 51.1107C1025 51.3879 1024.85 51.6321 1024.66 51.8448C1024.46 52.0568 1024.21 52.226 1023.9 52.3514C1023.6 52.4767 1023.23 52.5394 1022.81 52.5394C1022.66 52.5394 1022.51 52.5324 1022.34 52.5185C1022.17 52.5045 1022.02 52.4802 1021.89 52.4454L1022.73 48.931C1022.87 48.8962 1023.03 48.8736 1023.19 48.8631C1023.35 48.8527 1023.5 48.8475 1023.65 48.8475ZM1023.61 49.2757C1023.35 49.2757 1023.19 49.2826 1023.14 49.2966L1022.48 52.0851C1022.51 52.092 1022.55 52.0981 1022.62 52.1033C1022.68 52.1086 1022.79 52.1112 1022.94 52.1112C1023.21 52.1112 1023.46 52.0655 1023.68 51.9732C1023.9 51.881 1024.08 51.7522 1024.23 51.5864C1024.39 51.421 1024.5 51.2248 1024.59 50.9967C1024.67 50.7687 1024.71 50.5189 1024.71 50.2474C1024.71 49.941 1024.62 49.7026 1024.45 49.5316C1024.27 49.3614 1023.99 49.2757 1023.61 49.2757Z" fill="#4D4D4D"/>
<path fill-rule="evenodd" clip-rule="evenodd" d="M1029.1 52.5028H1028.6L1029 50.8213H1027.34L1026.94 52.5028H1026.43L1027.29 48.884H1027.8L1027.43 50.3984H1029.1L1029.46 48.884H1029.96L1029.1 52.5028Z" fill="#4D4D4D"/>
<path fill-rule="evenodd" clip-rule="evenodd" d="M1029.89 52.5028L1030.75 48.884H1032.87L1032.77 49.307H1031.15L1030.89 50.3984H1032.33L1032.23 50.8109H1030.8L1030.49 52.0798H1032.23L1032.13 52.5028H1029.89Z" fill="#4D4D4D"/>
<path fill-rule="evenodd" clip-rule="evenodd" d="M1034.37 48.8475C1034.75 48.8475 1035.06 48.9258 1035.28 49.0825C1035.5 49.2391 1035.62 49.4689 1035.62 49.7713C1035.62 50.0777 1035.53 50.3348 1035.35 50.542C1035.17 50.7491 1034.92 50.8979 1034.6 50.988C1034.64 51.0616 1034.69 51.1547 1034.75 51.2678C1034.8 51.381 1034.86 51.5063 1034.92 51.6438C1034.98 51.7809 1035.03 51.924 1035.09 52.0716C1035.14 52.2199 1035.19 52.3631 1035.23 52.5024H1034.72C1034.67 52.3701 1034.62 52.236 1034.57 52.1003C1034.52 51.9645 1034.47 51.834 1034.41 51.7086C1034.36 51.5833 1034.31 51.4658 1034.25 51.3562C1034.2 51.2465 1034.15 51.1495 1034.1 51.0663C1034.06 51.0698 1034.02 51.0724 1033.97 51.0742C1033.93 51.0759 1033.88 51.0768 1033.84 51.0768H1033.44L1033.1 52.5024H1032.6L1033.45 48.9306C1033.59 48.8958 1033.75 48.8731 1033.91 48.8627C1034.07 48.8527 1034.22 48.8475 1034.37 48.8475ZM1034.31 49.2757C1034.06 49.2757 1033.91 49.2826 1033.86 49.2966L1033.53 50.6651H1033.84C1033.98 50.6651 1034.13 50.6547 1034.28 50.6338C1034.42 50.6129 1034.56 50.572 1034.68 50.5111C1034.8 50.4502 1034.9 50.3649 1034.98 50.2552C1035.06 50.1456 1035.1 50.0002 1035.1 49.8192C1035.1 49.6242 1035.03 49.485 1034.88 49.4014C1034.73 49.3175 1034.54 49.2757 1034.31 49.2757Z" fill="#4D4D4D"/>
<path fill-rule="evenodd" clip-rule="evenodd" d="M1035.65 52.5028L1036.51 48.884H1038.63L1038.53 49.307H1036.91L1036.65 50.3984H1038.09L1037.99 50.8109H1036.56L1036.25 52.0798H1037.99L1037.9 52.5028H1035.65Z" fill="#4D4D4D"/>
<path fill-rule="evenodd" clip-rule="evenodd" d="M981.567 46.2957C985.378 46.2957 988.468 43.1796 988.468 39.3357C988.468 35.4919 985.378 32.3758 981.567 32.3758C977.756 32.3758 974.666 35.4919 974.666 39.3357C974.666 43.1796 977.756 46.2957 981.567 46.2957ZM984.61 38.3436C984.747 37.4171 984.048 36.9193 983.091 36.5869L983.402 35.3314L982.644 35.1408L982.342 36.3632C982.144 36.3131 981.939 36.2657 981.735 36.2191L982.04 34.989L981.283 34.7984L980.972 36.0534C980.807 36.0155 980.645 35.9781 980.488 35.9385L980.489 35.9346L979.445 35.6717L979.243 36.4876C979.243 36.4876 979.805 36.6173 979.793 36.6256C980.1 36.703 980.156 36.9076 980.146 37.0699L979.793 38.4994C979.814 38.5046 979.841 38.512 979.872 38.5251C979.846 38.5181 979.82 38.5116 979.792 38.5046L979.296 40.5081C979.259 40.6016 979.163 40.7426 978.949 40.6891C978.957 40.7 978.398 40.5507 978.398 40.5507L978.022 41.4254L979.008 41.673C979.191 41.7191 979.371 41.7679 979.547 41.8135L979.234 43.0829L979.99 43.2735L980.301 42.0176C980.508 42.0738 980.708 42.1264 980.905 42.1756L980.595 43.4254L981.353 43.616L981.666 42.3492C982.958 42.5955 983.929 42.4963 984.338 41.3179C984.668 40.3688 984.322 39.8218 983.642 39.465C984.137 39.3501 984.51 39.022 984.61 38.3436ZM982.879 40.7913C982.645 41.74 981.061 41.2269 980.548 41.0981L980.964 39.4167C981.477 39.5459 983.124 39.8018 982.879 40.7913ZM983.113 38.3301C982.9 39.1926 981.582 38.7544 981.154 38.6473L981.531 37.1217C981.959 37.2296 983.336 37.4302 983.113 38.3301Z" fill="#F7931A"/>
<rect x="1064" y="16" width="80" height="53" rx="26.5" fill="white"/>
<path d="M1119.36 39.6062C1119.2 38.648 1118.31 38.0092 1117.11 38.0092C1116.71 38.0092 1116.39 38.0092 1115.98 38.0092C1115.26 37.9294 1115.1 38.1689 1115.1 38.7279C1115.1 41.5225 1115.1 44.2373 1115.1 47.0319C1115.1 48.4691 1113.65 49.9862 1111.97 50.3056C1106.66 51.5033 1101.36 52.6211 1096.06 53.8188C1095.5 53.9785 1094.85 53.9785 1094.21 53.9785C1093.97 53.9785 1093.57 53.8188 1093.49 53.5793C1093.41 53.4196 1093.65 53.1002 1093.81 52.9405C1094.05 52.7808 1094.37 52.6211 1094.69 52.4614C1095.66 52.1421 1096.7 51.8227 1097.67 51.5033C1101.6 50.2257 1105.54 48.9482 1109.48 47.5908C1111.24 47.0319 1112.21 45.8342 1112.21 44.3171C1112.29 39.5263 1112.21 34.6557 1112.21 29.8649C1112.21 29.0664 1111.81 28.4277 1110.92 28.1083C1109.88 27.709 1108.91 28.0284 1108.03 28.4277C1102.41 31.0626 1096.86 33.6975 1091.24 36.3325C1089.63 37.1309 1088.67 38.2488 1088.67 39.8457C1088.67 44.3969 1088.67 48.9482 1088.67 53.4995C1088.67 53.739 1088.67 53.9785 1088.75 54.1382C1089.31 55.6553 1090.76 56.6135 1092.68 56.6135C1096.62 56.6135 1100.56 56.6135 1104.49 56.6135C1108.43 56.6135 1112.29 56.6135 1116.23 56.6135C1117.11 56.6135 1117.83 56.4538 1118.48 55.8948C1119.28 55.2561 1119.28 54.3778 1119.28 53.5793C1119.28 49.651 1119.36 39.6062 1119.36 39.6062ZM1102.97 38.1689C1103.37 37.1309 1104.25 36.4922 1105.54 36.3325C1106.42 36.2526 1107.15 36.7317 1107.31 37.5302C1107.47 38.7279 1106.02 40.1651 1104.49 40.1651C1103.29 40.1651 1102.57 39.2868 1102.97 38.1689Z" fill="#FD6727"/>
<rect x="1160" y="16" width="80" height="53" rx="26.5" fill="white"/>
<path d="M1182.67 40.9132C1182.67 49.4809 1189.7 56.4682 1198.4 56.4682C1199.47 56.4682 1200.54 56.3753 1201.77 56.2685C1203.14 56.1494 1204.7 56.013 1206.69 55.9692C1209.7 55.9692 1212.97 57.0505 1216.57 60.2114C1216.9 60.5442 1217.4 60.1283 1217.07 59.7124C1213.47 55.3037 1210.21 54.4719 1206.94 53.7232C1202.92 52.8082 1200.83 50.6455 1199.41 48.15C1199.16 47.6509 1198.99 47.7341 1198.99 48.3996C1198.9 49.3978 1198.99 50.3128 1199.16 51.2278H1198.65C1192.96 51.2278 1188.27 46.5696 1188.27 40.9132C1188.27 35.2568 1192.96 30.5986 1198.65 30.5986C1204.35 30.5986 1209.03 35.2568 1209.03 40.9132C1209.03 41.2459 1209.03 41.6618 1208.95 42.0777C1208.11 41.9114 1206.69 41.9114 1205.6 41.9945C1205.18 41.9945 1205.18 42.1609 1205.52 42.2441C1208.87 42.9095 1211.21 44.9891 1211.8 48.8155C1211.8 48.9818 1211.88 48.9818 1211.96 48.8987C1213.3 46.5696 1214.14 43.8245 1214.14 40.9132C1214.14 32.2622 1207.11 25.2749 1198.4 25.2749C1189.7 25.2749 1182.67 32.3454 1182.67 40.9132Z" fill="#F28A1A"/>
<path d="M1209.79 47.3182C1210.37 47.5678 1210.62 48.3996 1210.62 48.8155C1210.71 49.481 1210.54 49.8137 1210.29 49.8137C1210.04 49.8137 1209.7 49.5641 1209.37 48.9819C1209.03 48.3996 1208.87 47.8173 1209.03 47.4846C1209.28 47.3182 1209.54 47.235 1209.79 47.3182Z" fill="#F28A1A"/>
<path d="M1206.35 49.8969C1206.69 49.8969 1207.11 50.0632 1207.53 50.396C1208.2 50.9782 1208.45 51.6437 1208.11 52.1428C1207.94 52.3923 1207.53 52.5587 1207.19 52.5587C1206.77 52.5587 1206.35 52.3923 1206.1 52.1428C1205.43 51.5605 1205.27 50.7287 1205.68 50.2296C1205.77 50.0632 1206.02 49.8969 1206.35 49.8969Z" fill="#F28A1A"/>
<rect x="1256" y="16" width="80" height="53" rx="26.5" fill="white"/>
<path d="M1283.63 43.5306C1283.01 46.5237 1280.29 48.7744 1277.04 48.7744C1276.29 48.7744 1275.58 48.6556 1274.91 48.4366L1273.41 52.7913C1274.55 53.1636 1275.77 53.365 1277.04 53.365C1282.57 53.365 1287.18 49.5377 1288.24 44.4518L1283.63 43.5306Z" fill="#EC412A"/>
<path fill-rule="evenodd" clip-rule="evenodd" d="M1310.43 33.6961V46.2873L1312.7 47.193L1311.63 49.6764L1309.38 48.7782C1308.87 48.5675 1308.53 48.2465 1308.27 47.884C1308.02 47.5131 1307.83 47.0061 1307.83 46.3219V33.6961H1310.43ZM1293.18 43.0542C1293.24 39.4535 1296.33 36.5793 1300.07 36.6345C1303.25 36.6824 1305.88 38.8214 1306.57 41.6663L1294.28 46.7144C1293.57 45.6656 1293.16 44.4037 1293.18 43.0542ZM1296 43.5591C1295.98 43.408 1295.97 43.2531 1295.97 43.0968C1296.01 40.9754 1297.82 39.2826 1300.03 39.3178C1301.23 39.3332 1302.3 39.8616 1303.02 40.6793L1296 43.5591ZM1302.76 45.8967C1302.02 46.5892 1301.01 47.011 1299.9 46.9959C1299.14 46.9837 1298.44 46.7649 1297.84 46.4005L1296.36 48.674C1297.37 49.2917 1298.57 49.6571 1299.86 49.6764C1301.75 49.7032 1303.46 48.993 1304.71 47.8202L1302.76 45.8967ZM1319.89 39.3177C1319.45 39.3177 1319.02 39.3865 1318.62 39.5148L1317.74 36.9671C1318.42 36.7504 1319.14 36.6327 1319.89 36.6327C1323.17 36.6327 1325.91 38.8744 1326.54 41.8522L1323.8 42.3887C1323.43 40.6362 1321.82 39.3177 1319.89 39.3177ZM1315.39 48.0401L1317.24 46.0291C1316.42 45.3259 1315.9 44.299 1315.9 43.1543C1315.9 42.0108 1316.42 40.9844 1317.24 40.2818L1315.39 38.2708C1313.99 39.4656 1313.1 41.2115 1313.1 43.1543C1313.1 45.0996 1313.99 46.8448 1315.39 48.0401ZM1319.89 46.9924C1321.82 46.9924 1323.43 45.675 1323.8 43.925L1326.54 44.4639C1325.91 47.4385 1323.17 49.6771 1319.89 49.6771C1319.14 49.6771 1318.41 49.559 1317.74 49.3413L1318.62 46.7946C1319.02 46.9224 1319.45 46.9924 1319.89 46.9924Z" fill="black"/>
<path d="M1269.42 50.9064L1272.18 47.3634C1270.95 46.1246 1270.17 44.3159 1270.17 42.2998C1270.17 40.2853 1270.94 38.4766 1272.18 37.2387L1269.41 33.6961C1267.32 35.8009 1266 38.8755 1266 42.2998C1266 45.726 1267.32 48.8016 1269.42 50.9064Z" fill="#1BA7DE"/>
<path d="M1274.9 36.1616C1275.57 35.9433 1276.29 35.8248 1277.04 35.8248C1280.29 35.8248 1283.01 38.0783 1283.63 41.0719L1288.24 40.1553C1287.18 35.0674 1282.57 31.2375 1277.04 31.2375C1275.77 31.2375 1274.55 31.4386 1273.41 31.8092L1274.9 36.1616Z" fill="#FECA2F"/>
<rect x="1352" y="16" width="80" height="53" rx="26.5" fill="white"/>
<path fill-rule="evenodd" clip-rule="evenodd" d="M1386.25 38.99H1388.79L1389.19 36.9149H1386.66L1386.25 38.99ZM1385.99 40.3247H1388.52L1386.91 48.518C1386.79 48.5594 1386.43 48.7051 1385.93 48.7051C1385.25 48.7051 1384.63 48.4388 1384.63 47.4944C1384.63 47.3167 1384.65 47.1144 1384.7 46.8845C1385.2 44.3279 1385.99 40.3247 1385.99 40.3247ZM1411.18 40.1375C1409.49 40.1375 1408.82 41.1361 1408.5 41.744H1408.47L1408.57 40.3264H1406.06C1406.05 40.6381 1405.94 41.6207 1405.78 42.4682C1405.78 42.4682 1405.2 45.4421 1405.09 46.0116C1405.01 46.4466 1404.85 47.0896 1404.85 47.4628C1404.85 48.2574 1405.25 48.7053 1406.14 48.7053C1406.64 48.7053 1407 48.5674 1407.13 48.518L1407.97 44.251C1408.2 43.0728 1409.05 42.3018 1410.05 42.3018C1410.86 42.3018 1411.25 42.898 1411.25 43.3854C1411.25 43.8096 1411.14 44.2797 1411.06 44.6955L1410.7 46.5228C1410.66 46.7421 1410.57 47.1634 1410.57 47.4939C1410.57 48.3017 1411.02 48.7053 1411.87 48.7053C1412.34 48.7053 1412.64 48.5873 1412.85 48.518L1413.6 44.6929C1413.76 43.8284 1413.82 43.3731 1413.82 42.8229C1413.82 41.2389 1412.91 40.1375 1411.18 40.1375ZM1399.91 42.1187C1398.49 42.1187 1397.7 43.5825 1397.7 44.8874C1397.7 45.9879 1398.2 46.7248 1399.32 46.7248C1400.58 46.7248 1401.57 45.6379 1401.57 43.7828C1401.57 42.934 1401.12 42.1187 1399.91 42.1187ZM1399.16 48.7056C1396.44 48.7056 1395.14 47.0607 1395.14 44.964C1395.14 42.0872 1397.1 40.1375 1400.12 40.1375C1402.75 40.1375 1404.14 41.7412 1404.14 43.8007C1404.14 46.8869 1402.05 48.7056 1399.16 48.7056ZM1389.66 46.7328C1389.6 47.0277 1389.57 47.2342 1389.57 47.4881C1389.57 48.4273 1390.19 48.7053 1390.85 48.7053C1391.37 48.7053 1391.7 48.5599 1391.82 48.518L1393.04 42.3074L1395.01 42.3072L1395.4 40.3247L1393.43 40.3249L1393.52 39.8366C1393.7 38.9209 1394.13 38.5184 1394.87 38.5184C1395.36 38.5184 1395.76 38.6069 1395.9 38.6433L1396.27 36.7582C1396.11 36.7178 1395.38 36.5376 1394.3 36.5376C1392.58 36.5376 1391.46 37.5919 1391.12 39.2898L1390.92 40.3247H1389.64L1389.25 42.3072H1390.53C1390.53 42.3072 1390.03 44.8751 1389.66 46.7328ZM1383.82 40.1378C1382.55 40.1378 1381.85 41.0306 1381.57 41.7427H1381.54L1381.64 40.3247H1379.13C1379.11 40.8162 1379.01 41.6473 1378.75 42.9539C1378.49 44.278 1378.24 45.5989 1377.98 46.8843C1377.94 47.1041 1377.92 47.3191 1377.92 47.501C1377.92 48.1743 1378.25 48.7047 1379.22 48.7047C1379.7 48.7047 1380.04 48.5782 1380.2 48.518L1380.94 44.7197C1381.21 43.2665 1381.7 42.3057 1383.12 42.3057C1383.76 42.3057 1384.37 42.4445 1384.5 42.4825L1384.93 40.2971C1384.84 40.2647 1384.47 40.1378 1383.82 40.1378ZM1420.62 43.6455C1420.75 42.8943 1420.32 42.1187 1419.34 42.1187C1418.15 42.1187 1417.62 42.9427 1417.39 43.6455H1420.62ZM1421.75 46.6944C1421.75 47.8339 1420.66 48.7077 1418.72 48.7077C1416.05 48.7077 1414.74 47.0255 1414.74 44.9662C1414.74 42.922 1416.08 40.1397 1419.36 40.1397C1421.53 40.1397 1423.14 41.2246 1423.14 43.7083C1423.14 44.3192 1423.01 44.9832 1422.95 45.2492H1417.2C1417.19 45.8452 1417.69 46.8781 1419.69 46.8781C1420.58 46.8781 1421.59 46.5603 1421.75 46.4794C1421.75 46.5413 1421.75 46.6534 1421.75 46.6944ZM1374.78 43.6455C1374.91 42.8943 1374.48 42.1187 1373.5 42.1187C1372.31 42.1187 1371.78 42.9427 1371.55 43.6455H1374.78ZM1375.91 46.6944C1375.91 47.8339 1374.82 48.7077 1372.88 48.7077C1370.21 48.7077 1368.9 47.0255 1368.9 44.9662C1368.9 42.922 1370.24 40.1397 1373.52 40.1397C1375.69 40.1397 1377.3 41.2246 1377.3 43.7083C1377.3 44.3192 1377.17 44.9832 1377.11 45.2492H1371.36C1371.35 45.8452 1371.85 46.8781 1373.85 46.8781C1374.74 46.8781 1375.75 46.5603 1375.91 46.4794C1375.91 46.5413 1375.91 46.6534 1375.91 46.6944ZM1360.67 37.5368H1363.22V45.6833C1363.22 46.9083 1363.82 47.5337 1364.79 47.5337C1364.89 47.5337 1364.95 47.5209 1364.97 47.5162C1364.54 48.1655 1363.99 48.698 1362.73 48.698C1361.39 48.698 1360.67 47.7599 1360.67 46.352V37.5368Z" fill="#1A1919"/>
<path fill-rule="evenodd" clip-rule="evenodd" d="M1364.1 44.5715C1363.99 44.7481 1363.93 44.9526 1363.93 45.1614V45.6969C1363.93 46.5228 1364.37 46.8187 1364.85 46.8187C1365.35 46.8187 1365.61 46.4811 1365.85 46.0973C1366.26 45.4547 1371.21 37.5368 1371.21 37.5368H1368.56L1364.1 44.5715Z" fill="#00A3DA"/>
<rect x="1448" y="16" width="80" height="53" rx="26.5" fill="white"/>
<path d="M1498.46 42.9463C1499.6 42.971 1500.75 42.8961 1501.89 42.9852C1503.05 43.1991 1503.32 44.9347 1502.3 45.5032C1501.6 45.8777 1500.77 45.6427 1500.01 45.7087H1498.46V42.9463ZM1502.55 39.8197C1502.81 40.711 1501.94 41.5113 1501.08 41.3886H1498.46C1498.48 40.548 1498.42 39.6356 1498.49 38.8393C1499.54 38.8687 1500.59 38.7794 1501.64 38.886C1502.09 38.9979 1502.46 39.3643 1502.55 39.8197ZM1508.86 26.6011C1508.91 28.3033 1508.87 30.0956 1508.88 31.8324C1508.88 38.8936 1508.89 45.9546 1508.88 53.0162C1508.83 55.6625 1506.47 57.962 1503.82 58.0148C1501.18 58.0255 1498.53 58.0165 1495.88 58.0194V47.3443C1498.77 47.3296 1501.65 47.3744 1504.54 47.322C1505.87 47.2385 1507.34 46.3615 1507.4 44.8987C1507.56 43.4295 1506.17 42.4134 1504.84 42.2529C1504.33 42.2398 1504.35 42.1055 1504.84 42.047C1506.1 41.7759 1507.1 40.4778 1506.72 39.1777C1506.41 37.8103 1504.89 37.2811 1503.62 37.2837C1501.04 37.2663 1498.46 37.2813 1495.88 37.2762C1495.9 35.2833 1495.85 33.2883 1495.91 31.2968C1496.12 28.6982 1498.53 26.5552 1501.14 26.6017C1503.71 26.6013 1506.29 26.6012 1508.86 26.6011Z" fill="url(#paint0_linear_2003_170)"/>
<path d="M1466.73 31.566C1466.8 28.9238 1469.17 26.6432 1471.81 26.6046C1474.45 26.5965 1477.09 26.6034 1479.72 26.6011C1479.72 35.4412 1479.74 44.2823 1479.71 53.122C1479.61 55.732 1477.27 57.9692 1474.66 58.0154C1472.01 58.0249 1469.37 58.0167 1466.73 58.0194V46.9844C1469.29 47.587 1471.99 47.8435 1474.6 47.4438C1476.17 47.1935 1477.88 46.4297 1478.41 44.816C1478.8 43.4357 1478.58 41.983 1478.64 40.5663V37.2763H1474.11C1474.09 39.4522 1474.15 41.632 1474.08 43.8053C1473.95 45.1412 1472.62 45.9899 1471.35 45.9446C1469.78 45.9611 1466.67 44.8122 1466.67 44.8122C1466.66 40.7354 1466.71 35.6293 1466.73 31.566Z" fill="url(#paint1_linear_2003_170)"/>
<path d="M1481.41 38.6034C1481.18 38.6536 1481.37 37.7959 1481.31 37.4706C1481.32 35.4134 1481.27 33.3539 1481.33 31.2982C1481.54 28.6886 1483.97 26.5403 1486.59 26.6014H1494.3C1494.3 35.4415 1494.32 44.2826 1494.29 53.1222C1494.19 55.7323 1491.85 57.9693 1489.23 58.0156C1486.59 58.0256 1483.95 58.0172 1481.31 58.0197V45.9294C1483.11 47.401 1485.56 47.63 1487.81 47.634C1489.51 47.6334 1491.19 47.3737 1492.84 46.9853V44.7703C1490.98 45.6891 1488.8 46.2727 1486.75 45.7448C1485.31 45.39 1484.27 44.0123 1484.29 42.5411C1484.13 41.0112 1485.03 39.396 1486.54 38.9412C1488.42 38.3568 1490.47 38.8037 1492.23 39.5635C1492.61 39.7598 1492.99 40.0032 1492.84 39.3766V37.6356C1489.89 36.9394 1486.76 36.6832 1483.8 37.4406C1482.94 37.6807 1482.11 38.0446 1481.41 38.6034Z" fill="url(#paint2_linear_2003_170)"/>
<defs>
<linearGradient id="paint0_linear_2003_170" x1="1466.39" y1="41.6382" x2="1508.61" y2="41.6382" gradientUnits="userSpaceOnUse">
<stop stop-color="#58B03A"/>
<stop offset="1" stop-color="#55B330"/>
</linearGradient>
<linearGradient id="paint1_linear_2003_170" x1="1465.97" y1="42.6111" x2="1508.19" y2="42.6111" gradientUnits="userSpaceOnUse">
<stop stop-color="#0F6EB6"/>
<stop offset="1" stop-color="#006DBA"/>
</linearGradient>
<linearGradient id="paint2_linear_2003_170" x1="1481.29" y1="41.9432" x2="1494.3" y2="41.9432" gradientUnits="userSpaceOnUse">
<stop stop-color="#DE0D3D"/>
<stop offset="1" stop-color="#E30138"/>
</linearGradient>
</defs>
</svg>
