<svg width="1536" height="85" viewBox="0 0 1536 85" fill="none" xmlns="http://www.w3.org/2000/svg">
<rect width="1536" height="85" fill="white"/>
<rect x="8" y="15.5" width="80" height="54" rx="27" fill="#EFF4FC"/>
<path d="M62.1651 33.2078C61.1797 32.812 59.6169 32.375 57.6845 32.375C52.7514 32.375 49.2775 35.0385 49.2562 38.8465C49.2152 41.656 51.7434 43.2165 53.6343 44.1533C55.5669 45.1105 56.2239 45.7354 56.2239 46.5886C56.2042 47.8991 54.6622 48.5031 53.224 48.5031C51.2296 48.5031 50.1609 48.1917 48.5369 47.4626L47.8791 47.1501L47.1801 51.5411C48.3517 52.0816 50.5103 52.5611 52.7514 52.5822C57.9929 52.5822 61.4054 49.9599 61.4458 45.9019C61.4657 43.6751 60.1308 41.9688 57.2527 40.5746C55.5055 39.6796 54.4355 39.0761 54.4355 38.1603C54.456 37.3278 55.3405 36.4751 57.3128 36.4751C58.9367 36.4333 60.1299 36.8285 61.0339 37.2241L61.4857 37.4318L62.1651 33.2078Z" fill="#3362AB"/>
<path d="M44.0562 52.2906H39.0607L42.1852 32.7296H47.1804L44.0562 52.2906Z" fill="#3362AB"/>
<path fill-rule="evenodd" clip-rule="evenodd" d="M74.9706 32.7296H71.1066C69.9151 32.7296 69.0098 33.0831 68.4957 34.3526L61.0756 52.2904H66.3172C66.3172 52.2904 67.1801 49.8761 67.3656 49.3561H73.7793C73.9227 50.0428 74.3754 52.2904 74.3754 52.2904H79.0006L74.9706 32.7296ZM68.8044 45.3608C69.2158 44.2371 70.7988 39.8878 70.7988 39.8878C70.7904 39.9046 70.8548 39.7239 70.9508 39.4544L70.952 39.4511L70.9528 39.449C71.0962 39.0465 71.309 38.4491 71.456 38.0151L71.8051 39.7006C71.8051 39.7006 72.7511 44.3829 72.9565 45.3608H68.8044Z" fill="#3362AB"/>
<path d="M34.8883 32.7296L29.9962 46.0684L29.4616 43.3631L29.4611 43.3614L27.7144 34.3739C27.4267 33.1245 26.5428 32.7708 25.4534 32.7296H17.4162L17.334 33.1248C19.2942 33.6324 21.0475 34.3637 22.5837 35.2731L27.0361 52.2699H32.3186L40.1706 32.7296H34.8883Z" fill="#3362AB"/>
<rect x="104" y="15.5" width="80" height="54" rx="27" fill="#EFF4FC"/>
<path d="M170.667 42.3117C170.667 51.5357 163.297 58.9984 154.187 58.9984C150.341 58.9984 146.816 57.6542 144.024 55.4293C147.869 52.3701 150.295 47.6422 150.295 42.3117C150.295 36.9812 147.823 32.2533 144.024 29.1941C146.816 26.9692 150.341 25.625 154.187 25.625C163.297 25.625 170.667 33.134 170.667 42.3117Z" fill="#F79E1B"/>
<path d="M144.024 29.1941C144.024 29.1941 144.024 29.1941 144.024 29.1941C147.823 32.2533 150.295 36.9812 150.295 42.3117C150.295 47.6422 147.869 52.3701 144.024 55.4293L143.978 55.4293C140.178 52.4164 137.706 47.6422 137.706 42.3118C137.706 36.9813 140.178 32.2534 143.978 29.1942C143.978 29.1942 143.978 29.1942 143.978 29.1942L144.024 29.1941Z" fill="#FF5F00"/>
<path d="M137.706 42.3118C137.706 36.9813 140.178 32.2534 143.978 29.1942C141.185 26.9693 137.66 25.6251 133.815 25.6251C124.705 25.6251 117.334 33.0877 117.334 42.3118C117.334 51.5358 124.705 58.9985 133.815 58.9985C137.66 58.9985 141.185 57.6542 143.978 55.4293C140.178 52.4164 137.706 47.6422 137.706 42.3118Z" fill="#EB001B"/>
<rect x="200" y="15.5" width="80" height="54" rx="27" fill="#EFF4FC"/>
<path d="M266.667 42.3117C266.667 51.5357 259.297 58.9984 250.187 58.9984C246.341 58.9984 242.816 57.6542 240.024 55.4293C243.869 52.3701 246.295 47.6422 246.295 42.3117C246.295 36.9812 243.823 32.2533 240.024 29.1941C242.816 26.9692 246.341 25.625 250.187 25.625C259.297 25.625 266.667 33.134 266.667 42.3117Z" fill="#0099DF"/>
<path d="M240.024 29.1941C240.024 29.1941 240.024 29.1941 240.024 29.1941C243.823 32.2533 246.295 36.9812 246.295 42.3117C246.295 47.6422 243.869 52.3701 240.024 55.4293L239.978 55.4293C236.178 52.4164 233.706 47.6422 233.706 42.3118C233.706 36.9813 236.178 32.2534 239.978 29.1942C239.978 29.1942 239.978 29.1942 239.978 29.1942L240.024 29.1941Z" fill="#6C6BBD"/>
<path d="M233.706 42.3118C233.706 36.9813 236.178 32.2534 239.978 29.1942C237.185 26.9693 233.66 25.6251 229.815 25.6251C220.705 25.6251 213.334 33.0877 213.334 42.3118C213.334 51.5358 220.705 58.9985 229.815 58.9985C233.66 58.9985 237.185 57.6542 239.978 55.4293C236.178 52.4164 233.706 47.6422 233.706 42.3118Z" fill="#EB001B"/>
<rect x="296" y="15.5" width="80" height="54" rx="27" fill="#EFF4FC"/>
<path d="M339.386 60.0268C348.769 60.0727 357.333 52.2078 357.333 42.6402C357.333 32.1784 348.769 24.9461 339.386 24.95H331.311C321.816 24.9461 314 32.1803 314 42.6402C314 52.2097 321.816 60.0727 331.311 60.0268H339.386Z" fill="#0079BE"/>
<path d="M331.349 26.3998C322.672 26.4027 315.642 33.5881 315.639 42.4566C315.642 51.3242 322.672 58.5096 331.349 58.5125C340.027 58.5096 347.061 51.3242 347.061 42.4566C347.061 33.5881 340.028 26.4027 331.349 26.3998ZM321.392 42.4566C321.39 40.4062 321.999 38.4028 323.14 36.7084C324.28 35.0141 325.899 33.7074 327.785 32.9594V51.9529C325.899 51.2054 324.28 49.899 323.139 48.2047C321.999 46.5104 321.39 44.5071 321.392 42.4566ZM334.913 51.9568V32.9584C336.8 33.7054 338.42 35.0119 339.562 36.7068C340.703 38.4018 341.312 40.4062 341.31 42.4576C341.312 44.5089 340.703 46.5132 339.561 48.208C338.42 49.9029 336.8 51.2095 334.913 51.9568Z" fill="white"/>
<rect x="392" y="15.5" width="80" height="54" rx="27" fill="#EFF4FC"/>
<path fill-rule="evenodd" clip-rule="evenodd" d="M450.562 58.2073C450.562 59.0247 450.241 59.8086 449.671 60.3866C449.1 60.9646 448.326 61.2893 447.518 61.2893H417.047C416.647 61.2897 416.251 61.2104 415.881 61.0557C415.512 60.901 415.176 60.6741 414.893 60.3878C414.61 60.1016 414.385 59.7617 414.232 59.3875C414.079 59.0134 414 58.6123 414 58.2073V27.357C414 26.952 414.079 26.5509 414.232 26.1768C414.385 25.8026 414.61 25.4627 414.893 25.1765C415.176 24.8902 415.512 24.6633 415.881 24.5086C416.251 24.3539 416.647 24.2745 417.047 24.275H447.516C448.323 24.275 449.098 24.5997 449.669 25.1777C450.239 25.7557 450.56 26.5396 450.56 27.357L450.562 58.2073Z" fill="#EDAA00"/>
<path d="M434.435 42.9545V36.3261L436.145 35.9163V36.7842C436.145 36.7842 436.587 35.6417 437.613 35.3763C437.93 35.2957 438.089 35.344 438.089 35.344V37.0349C437.781 37.0392 437.477 37.1034 437.194 37.2241C436.56 37.4769 436.242 38.0303 436.242 38.8708V42.5307L434.435 42.9545ZM425.427 45.1098C425.427 45.1098 425.15 44.6895 425.15 43.1962V39.8963L424.271 40.1065V38.7483L425.151 38.5381V37.056L426.969 36.6217V38.1003L428.253 37.7921V39.151L426.969 39.4599V42.8221C426.969 44.3498 427.369 44.6433 427.369 44.6433L425.427 45.1098ZM428.442 41.1669C428.442 39.9881 428.608 39.1286 428.964 38.4688C429.386 37.6857 430.082 37.1757 431.093 36.9425C433.086 36.4837 433.805 37.6787 433.777 39.2799C433.768 39.8522 433.77 40.1317 433.77 40.1317L430.258 40.9673V41.0248C430.258 42.1455 430.491 42.6757 431.191 42.5244C431.795 42.3955 431.963 42.0117 432.011 41.5382C432.019 41.4604 432.022 41.2664 432.022 41.2664L433.668 40.8672C433.668 40.8672 433.672 41.0037 433.668 41.1557C433.653 41.7925 433.47 43.3713 431.184 43.9176C429.018 44.4381 428.44 43.0988 428.44 41.1669H428.442ZM431.164 38.1767C430.582 38.3105 430.277 38.8884 430.264 39.8459L432.031 39.42C432.035 39.3766 432.035 39.2799 432.035 39.1314C432.031 38.4092 431.811 38.0282 431.164 38.1767H431.164ZM444.236 37.2906C444.167 35.2719 444.684 33.6692 446.909 33.1579C448.328 32.8315 448.866 33.2041 449.138 33.5649C449.401 33.9095 449.502 34.3739 449.502 35.0246V35.1451L447.76 35.5654V35.3195C447.76 34.549 447.552 34.2548 446.999 34.3949C446.341 34.5623 446.075 35.1941 446.075 36.4522V37.0384C446.075 38.3168 446.248 38.9024 447.005 38.7413C447.664 38.6012 447.754 38.0184 447.766 37.5057C447.766 37.4251 447.771 37.1673 447.771 37.1673L449.511 36.7527V37.0265C449.506 38.702 448.633 39.7583 446.998 40.1436C444.747 40.6787 444.306 39.3598 444.237 37.2906H444.236ZM438.219 40.1163C438.219 38.5809 439.109 38.0954 440.446 37.5358C441.648 37.0321 441.674 36.7821 441.679 36.345C441.685 35.9773 441.517 35.6613 440.918 35.8162C440.368 35.9562 440.222 36.3611 440.193 36.6833C440.183 36.7965 440.179 36.9101 440.182 37.0237L438.496 37.4265C438.485 37.0863 438.524 36.7463 438.612 36.4178C438.882 35.4995 439.683 34.8817 441.062 34.5588C442.855 34.1386 443.454 34.9371 443.456 36.1769V39.1125C443.456 40.5323 443.717 40.7397 443.717 40.7397L442.061 41.1368C441.97 40.943 441.895 40.7414 441.838 40.5344C441.838 40.5344 441.477 41.4583 440.227 41.7567C438.913 42.0691 438.221 41.2468 438.221 40.117L438.219 40.1163ZM441.67 38.0205C441.39 38.2186 441.096 38.3931 440.788 38.5423C440.235 38.8162 439.986 39.1524 439.986 39.6708C439.986 40.1198 440.263 40.4154 440.761 40.2893C441.297 40.1534 441.67 39.647 441.67 38.9444V38.0205ZM415.927 49.756C415.738 49.7556 415.553 49.7036 415.391 49.6056C415.229 49.5075 415.095 49.367 415.005 49.1988C414.915 49.0306 414.872 48.841 414.879 48.6498C414.887 48.4587 414.945 48.2731 415.048 48.1127L415.059 48.098L415.079 48.0931L417.549 47.5026V49.4029L417.51 49.412C416.95 49.5486 416.28 49.7034 416.142 49.7321C416.071 49.7482 415.998 49.7562 415.926 49.756H415.927ZM415.927 52.1872C415.65 52.1872 415.383 52.0759 415.187 51.8775C414.99 51.6791 414.879 51.4099 414.878 51.1289C414.877 50.9237 414.936 50.7229 415.048 50.5517L415.059 50.5328L415.079 50.5286L417.549 49.9381V51.8384L417.51 51.8489C416.95 51.9848 416.28 52.1424 416.142 52.1697C416.071 52.1838 415.998 52.1909 415.926 52.1908L415.927 52.1872ZM415.927 54.6227C415.649 54.6226 415.382 54.5105 415.186 54.3113C414.989 54.112 414.878 53.8418 414.878 53.5601C414.877 53.355 414.936 53.1542 415.048 52.983L415.059 52.9634L417.55 52.3694V54.2697L417.511 54.2795C416.919 54.4238 416.261 54.5744 416.142 54.6017C416.071 54.6155 415.999 54.6225 415.927 54.6227" fill="#231F20"/>
<path d="M415.637 47.4269L415.636 36.7947L417.55 36.3366V46.9681L415.637 47.4269Z" fill="#231F20"/>
<path d="M420.405 46.5226C420.398 46.2104 420.27 45.9136 420.049 45.6954C419.829 45.4773 419.533 45.3552 419.224 45.3552C418.916 45.3552 418.619 45.4773 418.399 45.6954C418.178 45.9136 418.05 46.2104 418.043 46.5226V56.4607C418.044 57.319 418.382 58.1417 418.981 58.7486C419.58 59.3555 420.393 59.6973 421.24 59.6989C422.134 59.6989 424.583 59.6947 424.583 59.6947V50.9257C424.584 50.6679 424.521 50.414 424.401 50.1866C424.281 49.9592 424.108 49.7653 423.896 49.6222L420.916 47.5726V52.2265C420.918 52.2613 420.912 52.2961 420.901 52.3289C420.889 52.3616 420.87 52.3915 420.847 52.4168C420.823 52.4421 420.794 52.4623 420.763 52.4761C420.731 52.4898 420.697 52.4969 420.662 52.4969C420.628 52.4969 420.594 52.4898 420.562 52.4761C420.53 52.4623 420.502 52.4421 420.478 52.4168C420.454 52.3915 420.436 52.3616 420.424 52.3289C420.412 52.2961 420.407 52.2613 420.409 52.2265C420.409 52.1767 420.403 47.1369 420.403 46.5226H420.405ZM422.001 39.1083C421.639 39.193 421.299 39.3557 421.005 39.5854C420.711 39.8151 420.469 40.1063 420.296 40.4392V39.6946L418.573 40.1078V44.8801C418.875 44.7593 419.204 44.7254 419.524 44.7821C419.845 44.8389 420.143 44.984 420.387 45.2016V42.1196C420.387 41.382 420.751 40.7922 421.268 40.6766C421.659 40.5898 421.984 40.7312 421.984 41.4338V45.93L423.799 45.4986V40.7432C423.799 39.5895 423.361 38.7819 422 39.1083H422.001ZM448.383 32.3033C448.161 32.3035 447.944 32.2369 447.759 32.1121C447.574 31.9873 447.43 31.8099 447.345 31.6022C447.26 31.3945 447.238 31.1659 447.281 30.9454C447.324 30.7248 447.431 30.5222 447.588 30.3631C447.745 30.204 447.945 30.0956 448.162 30.0516C448.38 30.0076 448.606 30.03 448.811 30.1159C449.016 30.2018 449.192 30.3474 449.315 30.5343C449.439 30.7212 449.505 30.9409 449.505 31.1658C449.504 31.4669 449.386 31.7555 449.176 31.9683C448.965 32.1811 448.68 32.3009 448.383 32.3012V32.3033ZM448.383 30.1711C448.189 30.1711 447.999 30.2294 447.838 30.3386C447.676 30.4478 447.55 30.603 447.476 30.7846C447.402 30.9661 447.382 31.166 447.42 31.3587C447.458 31.5515 447.551 31.7286 447.688 31.8677C447.826 32.0067 448.001 32.1014 448.191 32.1399C448.381 32.1783 448.579 32.1587 448.758 32.0836C448.937 32.0085 449.091 31.8812 449.199 31.7178C449.307 31.5545 449.364 31.3624 449.365 31.1658C449.364 30.9022 449.261 30.6496 449.077 30.4631C448.893 30.2767 448.643 30.1717 448.383 30.1711Z" fill="#231F20"/>
<path d="M447.974 30.4899H448.458C448.651 30.4899 448.804 30.5872 448.804 30.8457C448.804 31.0257 448.725 31.1644 448.576 31.1882C448.714 31.2022 448.783 31.2779 448.79 31.4733C448.79 31.5609 448.794 31.6701 448.798 31.7535C448.798 31.7773 448.804 31.8007 448.815 31.8216C448.827 31.8424 448.843 31.86 448.863 31.8726H448.617C448.592 31.8367 448.579 31.7938 448.579 31.75C448.571 31.6666 448.572 31.5889 448.57 31.488C448.57 31.3367 448.521 31.2702 448.37 31.2702H448.196V31.8726H447.977L447.974 30.4899ZM448.368 31.1077C448.397 31.1105 448.427 31.1065 448.455 31.0961C448.484 31.0857 448.509 31.0691 448.53 31.0475C448.551 31.0259 448.567 30.9998 448.576 30.9712C448.586 30.9426 448.59 30.9122 448.586 30.8821C448.586 30.7343 448.524 30.6573 448.379 30.6573H448.196V31.1077H448.368Z" fill="#231F20"/>
<g clip-path="url(#clip0_2003_210)">
<rect x="488" y="15.5" width="80" height="54" rx="27" fill="#EFF4FC"/>
<path d="M524 69.6384L567.977 56.675V61.2884C567.977 65.8999 564.238 69.6384 559.627 69.6384H524Z" fill="#FD6020"/>
<path fill-rule="evenodd" clip-rule="evenodd" d="M556.424 37.35C558.843 37.35 560.174 38.4402 560.174 40.4993C560.295 42.074 559.206 43.4064 557.754 43.6487L561.021 48.1304H558.48L555.698 43.7698H555.456V48.1304H553.4V37.35H556.424ZM555.456 42.3162H556.061C557.392 42.3162 557.996 41.7106 557.996 40.6204C557.996 39.6514 557.392 39.0458 556.061 39.0458H555.456V42.3162ZM546.262 48.1303H552.069V46.3134H548.319V43.4064H551.948V41.5895H548.319V39.1669H552.069V37.35H546.262V48.1303ZM540.214 44.6177L537.432 37.35H535.254L539.73 48.3726H540.819L545.295 37.35H543.117L540.214 44.6177ZM515.657 42.8007C515.657 45.8289 518.076 48.3726 521.101 48.3726C522.068 48.3726 522.915 48.1304 523.762 47.767V45.3444C523.157 46.0712 522.31 46.5557 521.343 46.5557C519.407 46.5557 517.834 45.1022 517.834 43.1641V42.9219C517.713 40.9838 519.286 39.2881 521.222 39.1669C522.189 39.1669 523.157 39.6514 523.762 40.3782V37.9556C523.036 37.4711 522.068 37.35 521.222 37.35C518.076 37.1078 515.657 39.6514 515.657 42.8007ZM511.907 41.4683C510.697 40.9838 510.334 40.7416 510.334 40.1359C510.455 39.4092 511.06 38.8035 511.786 38.9247C512.391 38.9247 512.996 39.288 513.479 39.7726L514.568 38.319C513.721 37.5923 512.633 37.1078 511.544 37.1078C509.85 36.9866 508.399 38.319 508.278 40.0148V40.1359C508.278 41.5895 508.883 42.4374 510.818 43.043C511.302 43.1641 511.786 43.4064 512.27 43.6486C512.633 43.8909 512.875 44.2543 512.875 44.7388C512.875 45.5867 512.149 46.3134 511.423 46.3134H511.302C510.334 46.3134 509.487 45.7078 509.125 44.8599L507.794 46.1923C508.52 47.5247 509.971 48.2515 511.423 48.2515C513.359 48.3726 514.931 46.9191 515.052 44.981V44.6177C514.931 43.1641 514.326 42.4374 511.907 41.4683ZM504.891 48.1303H506.947V37.35H504.891V48.1303ZM495.334 37.35H498.963C501.866 37.4712 504.165 39.8937 504.044 42.8008C504.044 44.3754 503.318 45.8289 502.108 46.9191C501.02 47.767 499.689 48.2515 498.358 48.1304H495.334V37.35ZM497.995 46.3135C498.963 46.4346 500.052 46.0712 500.778 45.4656C501.503 44.7388 501.866 43.7698 501.866 42.6796C501.866 41.7106 501.503 40.7416 500.778 40.0148C500.052 39.4092 498.963 39.0458 497.995 39.1669H497.39V46.3135H497.995Z" fill="black"/>
<path fill-rule="evenodd" clip-rule="evenodd" d="M529.931 37.1001C526.907 37.1001 524.367 39.5226 524.367 42.672C524.367 45.7001 526.786 48.2438 529.931 48.3649C533.077 48.4861 535.496 45.9424 535.617 42.7931C535.496 39.6438 533.077 37.1001 529.931 37.1001Z" fill="#FD6020"/>
</g>
<rect x="584" y="15.5" width="80" height="54" rx="27" fill="#EFF4FC"/>
<path fill-rule="evenodd" clip-rule="evenodd" d="M599.292 34.4L592 50.7378H600.729L601.811 48.1329H604.285L605.367 50.7378H614.975V48.7496L615.831 50.7378H620.801L621.658 48.7076V50.7378H641.64L644.07 48.2005L646.345 50.7378L656.609 50.7588L649.294 42.6145L656.609 34.4H646.504L644.139 36.8904L641.936 34.4H620.197L618.33 38.6169L616.42 34.4H607.709V36.3205L606.74 34.4H599.292ZM629.131 36.72H640.606L644.116 40.5584L647.739 36.72H651.248L645.916 42.6122L651.248 48.4365H647.58L644.07 44.5535L640.429 48.4365H629.131V36.72ZM631.965 41.2874V39.1453H639.125L642.249 42.5678L638.987 46.0091H631.965V43.6727H638.225V41.2874H631.965ZM600.981 36.72H605.236L610.072 47.7987V36.72H614.733L618.469 44.6634L621.912 36.72H626.55V48.4434H623.728L623.705 39.257L619.59 48.4434H617.066L612.929 39.257V48.4434H607.123L606.022 45.8152H600.076L598.978 48.4411H595.867L600.981 36.72ZM601.091 43.3855L603.051 38.7035L605.007 43.3855H601.091Z" fill="#1F72CD"/>
<rect x="680" y="15.5" width="80" height="54" rx="27" fill="#EFF4FC"/>
<path d="M704.666 58.488H735.793V26.9751H704.666V58.488Z" fill="#B31E30"/>
<path d="M715.884 36.894V38.4425H716.234C716.676 38.4425 716.876 38.2251 716.876 37.617V37.5217H717.39V39.9251H716.876V39.8225C716.876 39.2192 716.676 38.9896 716.234 38.9896H715.884V40.7214H717.351C718.02 40.7214 718.261 40.2744 718.34 39.4195H718.874V41.2734H714.056V40.7214H714.463C714.717 40.7214 714.852 40.6505 714.852 40.2036V37.3141C714.852 36.9917 714.707 36.894 714.367 36.894H714.217C713.867 36.894 713.701 36.977 713.578 37.3458L712.249 41.2734H711.238L710.468 38.7136H710.454L709.6 41.2734H708.577L707.197 37.1578C707.136 36.9551 707.033 36.894 706.753 36.894H706.651V36.3444H708.779V36.894H708.47C708.309 36.894 708.244 36.9917 708.244 37.0894C708.244 37.1627 708.27 37.2555 708.309 37.3581L709.23 40.1083H709.245L710.123 37.5217L710 37.17C709.925 36.9502 709.778 36.894 709.563 36.894H709.39V36.3444H711.588V36.894H711.199C711.05 36.894 710.992 36.9599 710.992 37.0576C710.992 37.1334 711.028 37.2384 711.052 37.3092L711.858 40.0594H711.872L712.808 37.3727C712.837 37.2848 712.864 37.2115 712.864 37.1187C712.864 37.0015 712.808 36.894 712.55 36.894H712.195V36.3444H718.874V38.0297H718.326C718.215 37.3165 718.152 36.894 717.175 36.894H715.884ZM723.887 41.2734V39.4195H723.325C723.25 40.2671 723.098 40.7214 722.336 40.7214H721.228V37.2359C721.228 36.9624 721.339 36.894 721.663 36.894H722.075V36.3444H719.385V36.894H719.81C720.104 36.894 720.203 36.9917 720.203 37.2164V40.3916C720.203 40.6505 720.063 40.7214 719.856 40.7214H719.385V41.2734H723.887ZM728.883 41.2734V39.4195H728.319C728.244 40.2671 728.087 40.7214 727.335 40.7214H726.225V37.2359C726.225 36.9624 726.336 36.894 726.659 36.894H727.069V36.3444H724.377V36.894H724.804C725.101 36.894 725.199 36.9917 725.199 37.2164V40.3916C725.199 40.6505 725.057 40.7214 724.852 40.7214H724.377V41.2734H728.883ZM732.589 36.7157C732.543 36.6693 732.095 36.1979 731.219 36.1979C730.3 36.1979 729.371 36.6693 729.371 37.6805C729.371 38.5964 730.092 39.0141 730.922 39.1948C731.197 39.2534 731.361 39.2852 731.612 39.3389C732.235 39.4732 732.65 39.6638 732.65 40.101C732.65 40.4331 732.302 40.7897 731.615 40.7897C730.654 40.7897 730.085 40.2475 729.967 39.4195H729.402V41.2734H729.902L730.063 40.8313C730.181 40.9363 730.649 41.4199 731.54 41.4199C732.674 41.4199 733.53 40.9094 733.53 39.9007C733.53 38.9237 732.732 38.5036 731.757 38.3057C731.583 38.2618 731.424 38.2349 731.245 38.1934C730.64 38.0615 730.251 37.9101 730.251 37.4704C730.251 37.0894 730.649 36.828 731.248 36.828C732.148 36.828 732.495 37.4069 732.681 38.0297H733.229V36.3444H732.833L732.589 36.7157ZM710.244 48.9574V48.403H709.877C709.537 48.403 709.411 48.3004 709.411 48.0219V46.6786H709.713C710.169 46.6786 710.367 46.8789 710.367 47.4015V47.5652H710.878V45.2961H710.367V45.3938C710.367 45.7773 710.229 46.129 709.756 46.129H709.411V44.5756H710.369C711.448 44.5756 711.561 45.1251 711.633 45.7089H712.159V44.026H707.551V44.5756H708.039C708.258 44.5756 708.381 44.6757 708.381 44.854V48.039C708.381 48.2466 708.27 48.403 708.01 48.403H707.551V48.9574H710.244ZM730.633 43.877C729.035 43.877 727.979 45.0079 727.979 46.4905C727.979 47.9706 729.035 49.1113 730.633 49.1113C732.225 49.1113 733.284 47.9706 733.284 46.4905C733.284 45.0079 732.225 43.877 730.633 43.877ZM730.633 44.4584C731.786 44.4584 732.131 45.428 732.131 46.4905C732.131 47.553 731.786 48.5251 730.633 48.5251C729.472 48.5251 729.13 47.553 729.13 46.4905C729.13 45.428 729.472 44.4584 730.633 44.4584ZM726.14 44.429C726.034 44.3338 725.578 43.877 724.678 43.877C723.238 43.877 722.333 44.9884 722.333 46.4905C722.333 48.0048 723.252 49.1113 724.678 49.1113C725.595 49.1113 726.092 48.6863 726.205 48.5813L726.478 48.9574H726.978V47.2477C726.978 46.957 727.084 46.8789 727.368 46.8789H727.503V46.3269H725.255V46.8789H725.588C725.829 46.8789 725.976 46.9888 725.976 47.2281V47.5163C725.976 48.0806 725.634 48.4738 724.888 48.4738C723.955 48.4738 723.486 47.6238 723.486 46.4905C723.486 45.3743 723.955 44.5194 724.859 44.5194C725.803 44.5194 726.123 45.4085 726.232 45.7089H726.835V44.026H726.321L726.14 44.429ZM722.09 47.7997V47.934C722.09 48.784 721.689 49.1113 721.081 49.1113C720.369 49.1113 720.131 48.7644 720.131 48.0928V47.8363C720.131 46.9888 719.773 46.6468 718.958 46.6468H718.572V48.1367C718.572 48.3346 718.661 48.403 718.874 48.403H719.409V48.9574H714.545V48.403H715.086C715.235 48.403 715.291 48.3663 715.291 48.2784C715.291 48.232 715.276 48.1563 715.247 48.0757C715.221 48.0097 714.992 47.3747 714.992 47.3747H713.255C713.255 47.3747 713.04 47.9609 713.004 48.0586C712.98 48.1318 712.96 48.1929 712.96 48.2637C712.96 48.3688 713.047 48.403 713.192 48.403H713.708V48.9574H711.416V48.403C711.805 48.403 712.051 48.3468 712.188 48.0024L713.742 44.026H714.676L716.268 48.0024C716.401 48.3517 716.652 48.403 717.04 48.403H717.238C717.448 48.403 717.542 48.3346 717.542 48.1367V44.8443C717.542 44.6464 717.467 44.5756 717.238 44.5756H716.726V44.026H719.925C720.987 44.026 721.486 44.5341 721.486 45.3035C721.486 46.2585 720.548 46.4465 720.109 46.471V46.4832C720.623 46.5223 721.057 46.7372 721.057 47.4968V47.785C721.057 48.2906 721.163 48.403 721.339 48.403C721.513 48.403 721.605 48.2637 721.605 47.934V47.7997H722.09ZM714.791 46.8276L714.135 45.0323H714.114L713.457 46.8276H714.791ZM720.463 45.3352C720.463 44.9029 720.157 44.5756 719.477 44.5756H718.572V46.0973H719.477C720.104 46.0973 720.463 45.8115 720.463 45.3352Z" fill="#FFCC02"/>
<rect x="776" y="15.5" width="80" height="54" rx="27" fill="#EFF4FC"/>
<path fill-rule="evenodd" clip-rule="evenodd" d="M795.576 37.1067C795.094 36.8674 794.524 36.7476 793.864 36.7476C793.547 36.7476 793.252 36.7828 792.977 36.8532C792.702 36.9239 792.443 37.015 792.168 37.1416L793.431 31.7002L790.234 32.207L786.666 47.5604C787.065 47.7577 787.487 47.9125 787.934 48.0249C788.381 48.1375 788.804 48.2219 789.203 48.2784C789.601 48.3346 789.956 48.3661 790.265 48.3735C790.574 48.3803 790.791 48.384 790.915 48.384C791.877 48.384 792.771 48.1972 793.596 47.8242C794.421 47.4514 795.135 46.9446 795.741 46.3039C796.346 45.6632 796.823 44.91 797.174 44.0441C797.525 43.1782 797.7 42.2595 797.7 41.288C797.7 40.6546 797.624 40.0632 797.473 39.5142C797.322 38.9649 797.088 38.4865 796.772 38.078C796.455 37.6698 796.057 37.3461 795.576 37.1067ZM792.544 45.4275C792.118 45.6669 791.664 45.7864 791.183 45.7864H790.811C790.715 45.7864 790.577 45.7783 790.18 45.707L791.524 39.9138C791.772 39.6887 792.039 39.5426 792.348 39.4719C792.657 39.4016 792.857 39.3826 793.049 39.3826C793.64 39.3826 794.097 39.5563 794.318 39.9366C794.537 40.3166 794.648 40.8446 794.648 41.5203C794.648 42.0696 794.558 42.5976 794.379 43.1044C794.201 43.6112 793.957 44.0652 793.647 44.4665C793.338 44.8677 792.97 45.1882 792.544 45.4275Z" fill="#002855"/>
<path d="M804.031 35.3923L804.501 33.3691H801.438L800.969 35.3923H804.031Z" fill="#002855"/>
<path d="M807.533 45.5294C807.758 45.645 808.068 45.7025 808.462 45.7025C808.801 45.7025 809.128 45.6701 809.445 45.6052C809.653 45.5627 809.868 45.5126 810.082 45.4378L809.444 48.1696C809.394 48.1821 809.317 48.2012 809.266 48.2132C808.772 48.3285 808.188 48.3863 807.511 48.3863C806.539 48.3863 805.785 48.2382 805.25 47.9426C804.714 47.647 804.333 47.243 804.108 46.7306C803.883 46.2185 803.784 45.6305 803.812 44.9666C803.84 44.3032 803.939 43.603 804.108 42.8671L806.18 33.9067L809.456 33.3871L808.653 36.742H812.161L811.527 39.3826H808.04L807.11 43.365C807.025 43.6971 806.972 44.0072 806.951 44.2957C806.93 44.5844 806.965 44.8334 807.057 45.0424C807.148 45.2517 807.307 45.4141 807.533 45.5294Z" fill="#002855"/>
<path d="M845.673 36.7457H842.61L840.829 44.4192H840.832L840.587 45.4748C840.417 45.5239 840.246 45.5681 840.078 45.6027C839.761 45.6677 839.433 45.7002 839.095 45.7002C838.7 45.7002 838.39 45.6426 838.165 45.527C837.939 45.4116 837.781 45.2494 837.689 45.0399C837.597 44.831 837.562 44.5821 837.583 44.2932C837.605 44.0048 837.657 43.6947 837.742 43.3626L838.672 39.3801L839.285 36.7396L839.285 36.7388H836.157L834.741 42.8649C834.571 43.6007 834.473 44.3007 834.445 44.9643C834.416 45.6281 834.515 46.2162 834.741 46.7281C834.966 47.2405 835.346 47.6448 835.882 47.9403C836.417 48.2358 837.171 48.384 838.144 48.384C838.82 48.384 839.405 48.3262 839.898 48.2107C839.918 48.2061 839.937 48.2012 839.957 48.1962L839.955 48.202C839.818 48.834 839.54 49.3465 839.095 49.7466C838.649 50.147 837.987 50.3472 837.11 50.3472C836.735 50.3472 836.395 50.3244 836.086 50.2807L835.483 52.8774C835.891 52.9314 836.343 52.9593 836.842 52.9593C837.775 52.9593 838.591 52.8502 839.29 52.6327C839.99 52.4149 840.59 52.085 841.09 51.6425C841.591 51.2002 842.009 50.6452 842.345 49.9785C842.681 49.3113 842.952 48.5216 843.158 47.6085L845.277 38.487L845.273 38.4851L845.269 38.4836L845.673 36.7457Z" fill="#002855"/>
<path d="M797.948 48.3862L800.651 36.739H803.714L801.01 48.3862H797.948Z" fill="#002855"/>
<path fill-rule="evenodd" clip-rule="evenodd" d="M832.826 43.3002C832.634 44.102 832.579 44.9069 832.661 45.7155C832.744 46.5245 833.046 47.7636 833.341 48.384H830.377C830.107 47.9168 830.048 47.6345 830.006 47.4394C829.992 47.3727 829.98 47.3162 829.963 47.2659C829.578 47.5896 829.152 47.8566 828.686 48.0675C828.219 48.2784 827.697 48.384 827.12 48.384C826.433 48.384 825.846 48.2607 825.359 48.0149C824.871 47.7689 824.473 47.4384 824.164 47.0234C823.855 46.6088 823.631 46.1236 823.494 45.568C823.357 45.0125 823.288 44.4183 823.288 43.7855C823.288 42.8151 823.456 41.9011 823.793 41.0433C824.129 40.1856 824.597 39.4366 825.194 38.7966C825.791 38.1568 827.233 36.7458 829.599 36.7458L834.35 36.7457L832.826 43.3002ZM830.652 39.3825C829.224 39.3825 828.952 39.3825 828.366 39.6933C827.951 39.9138 827.607 40.2452 827.305 40.6319C827.003 41.0188 826.766 41.4651 826.595 41.9713C826.423 42.4777 826.337 43.0049 826.337 43.5534C826.337 44.2283 826.447 44.763 826.667 45.1566C826.886 45.5504 827.292 45.7471 827.882 45.7471C828.198 45.7471 828.483 45.6839 828.737 45.5573C828.991 45.4308 829.263 45.2197 829.551 44.9245C829.578 44.5732 829.623 44.2041 829.685 43.8171C829.741 43.4637 829.812 43.1338 829.876 42.8324L829.894 42.7483L830.652 39.3825Z" fill="#002855"/>
<path fill-rule="evenodd" clip-rule="evenodd" d="M822.437 41.3541C822.437 42.3878 822.271 43.3328 821.939 44.1891C821.607 45.0459 821.147 45.7856 820.56 46.4082C819.972 47.0314 819.267 47.5162 818.445 47.863C817.622 48.2097 816.727 48.3832 815.759 48.3832C815.289 48.3832 814.818 48.3408 814.349 48.2558L813.415 52.0994H810.346L813.909 36.746C814.281 36.7458 815.799 36.7459 816.933 36.746L817.999 36.746C818.773 36.746 819.44 36.8665 820 37.107C820.56 37.3479 821.019 37.677 821.379 38.0945C821.738 38.5122 822.004 39.0007 822.177 39.5596C822.35 40.1192 822.437 40.7171 822.437 41.3541ZM814.908 45.7074C815.144 45.7642 815.434 45.7925 815.78 45.7925C816.319 45.7925 816.809 45.6899 817.252 45.4846C817.694 45.2794 818.071 44.9928 818.382 44.6244C818.693 44.2564 818.935 43.8142 819.108 43.2972C819.281 42.7805 819.367 42.2109 819.367 41.5878C819.367 40.9792 819.236 40.4622 818.973 40.0376C818.711 39.6128 818.25 39.3871 817.6 39.3843C817.146 39.3826 816.391 39.3826 816.391 39.3826L814.908 45.7074Z" fill="#002855"/>
<rect x="872" y="15.5" width="80" height="54" rx="27" fill="#EFF4FC"/>
<path fill-rule="evenodd" clip-rule="evenodd" d="M909.674 49.1786V42.3679H913.146C914.568 42.3679 915.769 41.8852 916.748 40.9333L916.983 40.692C918.771 38.7212 918.653 35.651 916.748 33.8276C915.795 32.8623 914.49 32.3395 913.146 32.3663H907.572V49.1786H909.674ZM909.674 40.3032V34.4309H913.199C913.956 34.4309 914.674 34.7259 915.209 35.2621C916.344 36.3883 916.371 38.2653 915.274 39.4317C914.739 40.0082 913.982 40.33 913.199 40.3032H909.674Z" fill="#3C4043"/>
<path fill-rule="evenodd" clip-rule="evenodd" d="M926.785 38.5737C925.884 37.7291 924.657 37.3 923.104 37.3C921.107 37.3 919.606 38.0508 918.614 39.539L920.468 40.7322C921.146 39.7133 922.073 39.2038 923.248 39.2038C923.992 39.2038 924.709 39.4854 925.271 39.9949C925.819 40.4775 926.132 41.1747 926.132 41.912V42.4081C925.323 41.9523 924.305 41.7109 923.052 41.7109C921.59 41.7109 920.415 42.0595 919.541 42.7701C918.666 43.4807 918.223 44.4192 918.223 45.6124C918.197 46.6983 918.653 47.7307 919.463 48.4278C920.285 49.1786 921.329 49.554 922.556 49.554C924.005 49.554 925.153 48.8971 926.028 47.5832H926.119V49.1786H928.129V42.0863C928.129 40.5982 927.685 39.4184 926.785 38.5737ZM921.081 47.0603C920.651 46.7385 920.39 46.2157 920.39 45.6526C920.39 45.0225 920.677 44.4996 921.238 44.084C921.812 43.6683 922.53 43.4538 923.379 43.4538C924.554 43.4404 925.467 43.7086 926.12 44.2448C926.12 45.1565 925.768 45.9475 925.076 46.6179C924.449 47.2614 923.601 47.6234 922.713 47.6234C922.126 47.6368 921.551 47.4357 921.081 47.0603Z" fill="#3C4043"/>
<path d="M932.645 54.2331L939.667 37.6755H937.383L934.133 45.9341H934.094L930.765 37.6755H928.481L933.089 48.4412L930.478 54.2331H932.645Z" fill="#3C4043"/>
<path d="M902.419 40.8931C902.419 40.2362 902.367 39.5792 902.263 38.9357H893.4V42.6494H898.478C898.269 43.8426 897.59 44.9152 896.598 45.5855V47.9988H899.626C901.401 46.3229 902.419 43.8426 902.419 40.8931Z" fill="#4285F4"/>
<path d="M893.401 50.3316C895.933 50.3316 898.073 49.4736 899.626 47.9988L896.598 45.5855C895.75 46.1754 894.667 46.5106 893.401 46.5106C890.947 46.5106 888.872 44.8079 888.128 42.5288H885.009V45.0225C886.601 48.2803 889.851 50.3316 893.401 50.3316Z" fill="#34A853"/>
<path d="M888.128 42.5288C887.736 41.3355 887.737 40.0351 888.128 38.8285V36.3482H885.008C883.664 39.0698 883.664 42.2875 885.008 45.0091L888.128 42.5288Z" fill="#FBBC04"/>
<path d="M893.401 34.8466C894.745 34.8198 896.037 35.3426 897.003 36.2945L899.692 33.5327C897.982 31.897 895.737 30.9988 893.401 31.0256C889.851 31.0256 886.601 33.0903 885.008 36.3482L888.128 38.8418C888.872 36.5493 890.947 34.8466 893.401 34.8466Z" fill="#EA4335"/>
<rect x="968" y="15.5" width="80" height="54" rx="27" fill="#EFF4FC"/>
<path fill-rule="evenodd" clip-rule="evenodd" d="M987.451 35.3828C988.498 35.4722 989.544 34.8465 990.198 34.0531C990.842 33.2374 991.267 32.1424 991.158 31.025C990.231 31.0697 989.086 31.6507 988.432 32.4664C987.832 33.1704 987.32 34.3101 987.451 35.3828ZM999.901 49.7749V32.3547H1006.28C1009.57 32.3547 1011.87 34.6789 1011.87 38.0758C1011.87 41.4727 1009.53 43.8192 1006.19 43.8192H1002.54V49.7749H999.901ZM991.147 35.5951C990.225 35.5407 989.383 35.8793 988.704 36.1528C988.266 36.3288 987.896 36.4779 987.614 36.4779C987.298 36.4779 986.913 36.3209 986.48 36.1446C985.912 35.9136 985.264 35.6495 984.583 35.6622C983.024 35.6845 981.574 36.5896 980.779 38.0311C979.143 40.9139 980.353 45.1824 981.934 47.5289C982.708 48.691 983.635 49.9649 984.856 49.9202C985.393 49.8994 985.78 49.7313 986.18 49.5574C986.64 49.3572 987.118 49.1492 987.865 49.1492C988.586 49.1492 989.043 49.3518 989.482 49.5462C989.9 49.7311 990.301 49.9087 990.896 49.8978C992.161 49.8755 992.956 48.7357 993.731 47.5736C994.566 46.3264 994.933 45.1092 994.989 44.9244C994.992 44.9139 994.994 44.9067 994.995 44.9031C994.994 44.9017 994.984 44.8968 994.965 44.8883C994.686 44.7573 992.552 43.7558 992.531 41.0704C992.511 38.8163 994.224 37.6743 994.494 37.4945C994.51 37.4836 994.521 37.4762 994.526 37.4724C993.436 35.8186 991.735 35.6398 991.147 35.5951ZM1016.69 49.909C1018.35 49.909 1019.89 49.0486 1020.58 47.6854H1020.64V49.7749H1023.08V41.1039C1023.08 38.5898 1021.12 36.9695 1018.1 36.9695C1015.3 36.9695 1013.22 38.6121 1013.15 40.8693H1015.52C1015.72 39.7966 1016.69 39.0926 1018.02 39.0926C1019.63 39.0926 1020.54 39.8636 1020.54 41.2827V42.2437L1017.25 42.4448C1014.18 42.6348 1012.53 43.9198 1012.53 46.1546C1012.53 48.4117 1014.24 49.909 1016.69 49.909ZM1017.4 47.8418C1015.99 47.8418 1015.1 47.149 1015.1 46.0875C1015.1 44.9925 1015.96 44.3556 1017.61 44.255L1020.54 44.065V45.0483C1020.54 46.6797 1019.19 47.8418 1017.4 47.8418ZM1031.18 50.4565C1030.12 53.507 1028.91 54.5127 1026.34 54.5127C1026.14 54.5127 1025.49 54.4903 1025.34 54.4456V52.3561C1025.5 52.3785 1025.9 52.4008 1026.11 52.4008C1027.28 52.4008 1027.93 51.898 1028.33 50.5906L1028.57 49.8196L1024.1 37.1372H1026.86L1029.97 47.4284H1030.02L1033.13 37.1372H1035.81L1031.18 50.4565ZM1002.54 34.6342H1005.58C1007.87 34.6342 1009.18 35.8857 1009.18 38.0869C1009.18 40.2882 1007.87 41.5509 1005.57 41.5509H1002.54V34.6342Z" fill="black"/>
<rect x="1064" y="15.5" width="80" height="54" rx="27" fill="#EFF4FC"/>
<path d="M1108.03 43.4956C1107.89 43.4885 1107.79 43.3769 1107.79 43.2407V36.1324C1107.8 35.9974 1107.92 35.8962 1108.05 35.8995H1109.29C1109.4 35.9033 1109.5 35.9844 1109.53 36.0981V37.1851H1109.55C1109.93 36.2133 1110.45 35.75 1111.38 35.75C1111.98 35.75 1112.56 35.9743 1112.94 36.5871C1113.29 37.1557 1113.29 38.1129 1113.29 38.8004V43.2725C1113.27 43.403 1113.16 43.4984 1113.03 43.4956H1111.69C1111.56 43.4902 1111.46 43.3963 1111.45 43.2725V39.4132C1111.45 39.3528 1111.45 39.2902 1111.45 39.2261C1111.46 38.4662 1111.46 37.4989 1110.61 37.4989C1110.27 37.5153 1109.96 37.7375 1109.84 38.0675C1109.65 38.5014 1109.62 38.9352 1109.62 39.4157V43.2407C1109.62 43.3849 1109.5 43.4983 1109.36 43.4956H1108.03Z" fill="#232F3E"/>
<path fill-rule="evenodd" clip-rule="evenodd" d="M1103.71 35.7598C1105.69 35.7598 1106.77 37.5246 1106.77 39.7674C1106.77 41.9354 1105.58 43.6549 1103.71 43.6549C1101.76 43.6549 1100.7 41.8901 1100.7 39.6926C1100.7 37.4952 1101.77 35.7598 1103.71 35.7598ZM1103.72 37.2109C1102.73 37.2109 1102.67 38.6007 1102.67 39.4684L1102.67 39.4971C1102.67 40.3763 1102.67 42.1891 1103.71 42.1891C1104.76 42.1891 1104.8 40.6939 1104.8 39.7821C1104.8 39.184 1104.77 38.4659 1104.6 37.8984C1104.44 37.4082 1104.14 37.2109 1103.72 37.2109Z" fill="#232F3E"/>
<path d="M1077.62 43.5104C1077.5 43.5036 1077.4 43.4041 1077.39 43.2762V36.1679C1077.39 36.0255 1077.51 35.9128 1077.64 35.9142H1078.89C1079.02 35.9215 1079.12 36.0271 1079.13 36.1593V37.0871H1079.15C1079.48 36.1888 1080.09 35.7708 1080.92 35.7708C1081.74 35.7708 1082.28 36.1888 1082.65 37.0871C1082.9 36.3958 1083.5 35.898 1084.2 35.785C1084.91 35.672 1085.62 35.9612 1086.06 36.5417C1086.42 37.0535 1086.41 37.7662 1086.4 38.4358C1086.4 38.5487 1086.4 38.6605 1086.4 38.7698V43.2541C1086.4 43.3236 1086.37 43.3897 1086.32 43.4377C1086.27 43.4858 1086.21 43.5119 1086.14 43.5104H1084.8C1084.67 43.5032 1084.57 43.3917 1084.56 43.2554V39.488C1084.56 39.431 1084.56 39.3578 1084.57 39.2747V39.274C1084.57 38.9203 1084.58 38.3871 1084.53 38.157C1084.43 37.679 1084.13 37.5442 1083.74 37.5442C1083.38 37.5554 1083.07 37.7844 1082.94 38.1264C1082.81 38.4609 1082.81 38.9994 1082.81 39.3984L1082.81 39.488V43.2541C1082.81 43.3234 1082.78 43.3893 1082.74 43.4373C1082.69 43.4853 1082.62 43.5116 1082.56 43.5104H1081.21C1081.08 43.5026 1080.98 43.3914 1080.98 43.2554V39.488C1080.98 39.411 1080.98 39.3304 1080.98 39.2478C1080.99 38.4793 1081 37.5271 1080.15 37.5271C1079.22 37.5271 1079.22 38.6101 1079.22 39.429L1079.22 43.2541C1079.22 43.3236 1079.19 43.3897 1079.15 43.4377C1079.1 43.4858 1079.03 43.5119 1078.96 43.5104H1077.62Z" fill="#232F3E"/>
<path fill-rule="evenodd" clip-rule="evenodd" d="M1074.98 43.5973C1075.08 43.6565 1075.21 43.6432 1075.3 43.5642L1075.31 43.5667C1075.57 43.3203 1076.06 42.884 1076.33 42.6475C1076.44 42.5556 1076.42 42.4024 1076.33 42.2798C1076.31 42.2427 1076.28 42.2064 1076.25 42.1702C1076.04 41.866 1075.83 41.5772 1075.83 40.9966V38.8409C1075.83 38.7712 1075.83 38.702 1075.83 38.6333C1075.83 37.8008 1075.84 37.0391 1075.23 36.4572C1074.72 35.9473 1073.87 35.7684 1073.22 35.7684C1071.95 35.7684 1070.52 36.2598 1070.23 37.8874C1070.21 37.9533 1070.23 38.0215 1070.26 38.0761C1070.3 38.1308 1070.36 38.1671 1070.42 38.1766L1071.71 38.3225C1071.84 38.3028 1071.93 38.1982 1071.95 38.0675C1072.06 37.5075 1072.52 37.2366 1073.03 37.2366C1073.3 37.2366 1073.61 37.3408 1073.78 37.5957C1073.95 37.8517 1073.94 38.1913 1073.94 38.4964C1073.94 38.5317 1073.94 38.5666 1073.94 38.6007V38.7796C1073.82 38.7938 1073.69 38.8073 1073.56 38.8211C1072.85 38.8957 1072.04 38.982 1071.42 39.26C1070.59 39.635 1070 40.3986 1070 41.5224C1070 42.9612 1070.88 43.6806 1072 43.6806C1072.96 43.6806 1073.48 43.449 1074.21 42.6744C1074.25 42.7279 1074.28 42.7773 1074.31 42.8238C1074.49 43.0947 1074.6 43.271 1074.98 43.5973ZM1073.95 40.2561L1073.95 39.8912C1072.98 39.8912 1071.95 40.1057 1071.95 41.2847C1071.95 41.8852 1072.25 42.2896 1072.77 42.2896C1073.14 42.2896 1073.48 42.0494 1073.7 41.6597C1073.95 41.1981 1073.95 40.7659 1073.95 40.2561Z" fill="#232F3E"/>
<path fill-rule="evenodd" clip-rule="evenodd" d="M1093.88 42.2749C1093.86 42.2378 1093.83 42.2014 1093.8 42.1652C1093.58 41.861 1093.38 41.5724 1093.38 40.993V38.836C1093.38 38.7627 1093.38 38.6898 1093.38 38.6176L1093.38 38.6152C1093.38 37.787 1093.39 37.0311 1092.78 36.4522C1092.27 35.9424 1091.42 35.7635 1090.77 35.7635C1089.49 35.7635 1088.07 36.2537 1087.77 37.8825C1087.76 37.9487 1087.78 38.0174 1087.81 38.0724C1087.85 38.1274 1087.91 38.1638 1087.97 38.1729L1089.27 38.3176C1089.4 38.2975 1089.49 38.1931 1089.51 38.0626C1089.62 37.5026 1090.07 37.2317 1090.58 37.2317C1090.86 37.2317 1091.18 37.3371 1091.34 37.592C1091.51 37.847 1091.5 38.1868 1091.5 38.4921C1091.5 38.5271 1091.5 38.5618 1091.5 38.5958V38.771C1091.38 38.7847 1091.26 38.7978 1091.13 38.8112C1090.42 38.8853 1089.6 38.9712 1088.98 39.2502C1088.14 39.6252 1087.55 40.3888 1087.55 41.5138C1087.55 42.9514 1088.43 43.6708 1089.56 43.6708C1090.51 43.6708 1091.03 43.4392 1091.77 42.6646C1091.8 42.7173 1091.83 42.7659 1091.86 42.8117C1092.04 43.0861 1092.15 43.2598 1092.53 43.5875C1092.64 43.6463 1092.76 43.6336 1092.85 43.5556C1093.12 43.3105 1093.6 42.873 1093.88 42.6364C1093.99 42.5519 1093.97 42.4024 1093.88 42.2749ZM1091.25 41.6535C1091.04 42.042 1090.7 42.2823 1090.32 42.2823C1089.81 42.2823 1089.51 41.8778 1089.51 41.2785C1089.51 40.0983 1090.53 39.8851 1091.5 39.8851L1091.5 40.239C1091.5 40.7552 1091.5 41.1895 1091.25 41.6535Z" fill="#232F3E"/>
<path d="M1095.02 37.1557V36.1434C1095.01 36.0741 1095.04 36.0067 1095.09 35.9579C1095.13 35.909 1095.2 35.8834 1095.27 35.8873H1099.67C1099.73 35.8849 1099.8 35.911 1099.85 35.9593C1099.89 36.0077 1099.92 36.0742 1099.92 36.1434V37.0148C1099.92 37.1606 1099.8 37.3518 1099.59 37.6533L1097.31 41.0187C1098.16 40.9979 1099.05 41.129 1099.82 41.5763C1099.96 41.6547 1100.05 41.8058 1100.06 41.9722V43.0605C1100.06 43.21 1099.9 43.3828 1099.73 43.2934C1098.27 42.5175 1096.54 42.5207 1095.08 43.3019C1094.93 43.3865 1094.77 43.2161 1094.77 43.0666V42.031C1094.76 41.7869 1094.81 41.544 1094.93 41.3337L1097.57 37.4119H1095.27C1095.2 37.4146 1095.14 37.3887 1095.09 37.3403C1095.04 37.2919 1095.01 37.2252 1095.02 37.1557Z" fill="#232F3E"/>
<path fill-rule="evenodd" clip-rule="evenodd" d="M1118.28 36.7905C1118.61 36.4838 1119 36.2385 1119.41 36.065C1119.81 35.903 1120.23 35.8198 1120.65 35.8199C1121.07 35.8118 1121.49 35.8988 1121.87 36.0748C1122.23 36.2465 1122.55 36.5054 1122.8 36.8297C1123.06 37.189 1123.26 37.5985 1123.38 38.0357C1123.52 38.5538 1123.59 39.0904 1123.58 39.6289C1123.59 40.1789 1123.52 40.7267 1123.37 41.254C1123.24 41.7015 1123.03 42.1202 1122.75 42.4882C1122.5 42.8227 1122.17 43.0932 1121.8 43.2799C1121.41 43.4674 1120.98 43.56 1120.55 43.5507C1119.75 43.5645 1118.97 43.2573 1118.38 42.6928V46.095C1118.39 46.175 1118.36 46.2559 1118.31 46.3131C1118.25 46.3703 1118.17 46.3971 1118.1 46.3855H1117.27C1117.19 46.3971 1117.11 46.3703 1117.05 46.3131C1117 46.2559 1116.97 46.175 1116.98 46.095V36.326C1116.97 36.2461 1117 36.1655 1117.06 36.1085C1117.11 36.0514 1117.19 36.0244 1117.27 36.0356H1117.88C1117.96 36.0278 1118.04 36.0544 1118.11 36.1092C1118.17 36.1641 1118.2 36.2424 1118.21 36.326L1118.28 36.7905ZM1120.26 36.9792C1119.58 36.9848 1118.92 37.2192 1118.38 37.6472V41.6915C1118.97 42.1573 1119.59 42.3897 1120.23 42.3889C1121.52 42.3889 1122.16 41.4901 1122.16 39.6926C1122.16 37.8951 1121.53 36.9903 1120.26 36.978V36.9792Z" fill="#232F3E"/>
<path fill-rule="evenodd" clip-rule="evenodd" d="M1125.34 37.3371L1125.44 37.3003C1126.11 37.0877 1126.8 36.9763 1127.5 36.9694C1128.06 36.9703 1128.46 37.0769 1128.68 37.2893C1128.91 37.5017 1129.02 37.8694 1129.02 38.3923V39.3458C1128.44 39.1925 1127.85 39.1102 1127.25 39.1007C1126.43 39.0999 1125.77 39.3103 1125.28 39.7319C1124.8 40.1535 1124.55 40.7172 1124.55 41.4231C1124.56 42.0809 1124.75 42.6058 1125.15 42.998C1125.54 43.3902 1126.07 43.5863 1126.75 43.5863C1127.16 43.5845 1127.58 43.5013 1127.96 43.3412C1128.37 43.1767 1128.75 42.9412 1129.08 42.645L1129.15 43.1242C1129.15 43.2038 1129.19 43.2784 1129.25 43.3306C1129.3 43.3827 1129.38 43.4078 1129.46 43.4H1130.06C1130.14 43.4111 1130.22 43.3841 1130.27 43.3271C1130.33 43.27 1130.35 43.1895 1130.34 43.1095V38.1509C1130.34 37.3567 1130.13 36.7713 1129.71 36.3946C1129.29 36.018 1128.63 35.8297 1127.74 35.8297C1127.3 35.8297 1126.86 35.8707 1126.42 35.9522C1126.04 36.015 1125.67 36.1223 1125.32 36.2721C1125.23 36.3023 1125.15 36.355 1125.09 36.4253C1125.05 36.5116 1125.03 36.6103 1125.04 36.7084V37.0969C1125.04 37.2722 1125.1 37.3592 1125.22 37.3592C1125.26 37.3585 1125.3 37.3511 1125.34 37.3371ZM1128.05 42.3117C1127.74 42.4314 1127.42 42.4948 1127.08 42.4992C1126.72 42.5 1126.44 42.4011 1126.24 42.2026C1126.05 42.0041 1125.95 41.721 1125.95 41.3533C1125.95 40.5109 1126.48 40.0897 1127.53 40.0897C1127.78 40.0903 1128.04 40.1075 1128.28 40.1412C1128.53 40.1735 1128.78 40.2193 1129.02 40.2785V41.7602C1128.73 41.9935 1128.4 42.1794 1128.05 42.3117Z" fill="#232F3E"/>
<path d="M1134.03 46.1232C1134.36 45.8323 1134.66 45.3531 1134.91 44.6856L1138 36.5577C1138.05 36.4476 1138.08 36.3296 1138.1 36.2084C1138.1 36.0932 1138.03 36.0343 1137.9 36.0343H1137.11C1137.01 36.0236 1136.9 36.049 1136.81 36.1066C1136.73 36.1982 1136.67 36.3078 1136.64 36.4265L1134.74 42.058L1132.78 36.4265C1132.74 36.3078 1132.69 36.1982 1132.61 36.1066C1132.52 36.049 1132.41 36.0236 1132.3 36.0343H1131.46C1131.33 36.0343 1131.26 36.0932 1131.26 36.2084C1131.27 36.3295 1131.31 36.4476 1131.36 36.5577L1134.06 43.4711L1133.8 44.2064C1133.64 44.6713 1133.46 44.9908 1133.26 45.1648C1133.03 45.3526 1132.73 45.4453 1132.43 45.4258C1132.31 45.4286 1132.18 45.4187 1132.05 45.3964C1131.99 45.381 1131.91 45.3716 1131.84 45.3682C1131.7 45.3682 1131.63 45.4602 1131.63 45.644V46.0215C1131.62 46.1255 1131.65 46.2294 1131.7 46.318C1131.76 46.3885 1131.84 46.4372 1131.93 46.4565C1132.19 46.5278 1132.46 46.562 1132.73 46.5583C1133.27 46.5591 1133.7 46.4141 1134.03 46.1232Z" fill="#232F3E"/>
<path fill-rule="evenodd" clip-rule="evenodd" d="M1097.22 48.0301C1097.52 47.247 1098.2 45.492 1097.88 45.0667H1097.88C1097.56 44.6405 1095.76 44.8642 1094.95 44.9648L1094.94 44.965C1094.7 44.9956 1094.66 44.7738 1094.88 44.6133C1096.32 43.5679 1098.68 43.8669 1098.95 44.2199C1099.23 44.5728 1098.88 47.0166 1097.53 48.1833C1097.32 48.3623 1097.12 48.2667 1097.22 48.0301ZM1087.53 49.2385C1090.67 49.2385 1094.32 48.2152 1096.83 46.2972V46.3009C1097.25 45.9773 1096.89 45.5018 1096.47 45.6881C1093.72 46.8849 1090.78 47.5096 1087.8 47.5264C1083.67 47.5264 1079.67 46.3548 1076.44 44.4098C1076.15 44.2395 1075.94 44.5397 1076.18 44.7591C1079.29 47.6632 1083.34 49.2606 1087.53 49.2385Z" fill="#FF9900"/>
<rect x="1160" y="15.5" width="80" height="54" rx="27" fill="#EFF4FC"/>
<path d="M1216.72 46.8872C1216.08 46.8872 1215.39 47.1114 1214.83 47.6943C1214.31 48.2322 1214.05 48.9045 1214.05 49.6816C1214.05 50.0403 1214.12 50.3838 1214.25 50.7277C1214.39 51.0715 1214.58 51.3704 1214.81 51.6243C1215.06 51.8935 1215.36 52.1025 1215.67 52.237C1215.99 52.3715 1216.29 52.4462 1216.67 52.4462C1216.95 52.4462 1217.22 52.4013 1217.48 52.3117C1217.74 52.237 1218.09 52.028 1218.22 51.8038V52.3417H1219.37V47.0066H1218.21V47.5448C1218.05 47.2758 1217.74 47.0963 1217.48 47.0066C1217.23 46.9319 1216.98 46.8872 1216.72 46.8872ZM1210.7 46.9021C1210.43 46.9021 1210.18 46.9321 1209.93 47.0218C1209.68 47.1114 1209.37 47.2907 1209.2 47.5597V47.0218H1208.04V54.3595H1209.19V51.819C1209.32 52.0432 1209.68 52.2372 1209.93 52.3269C1210.18 52.4167 1210.46 52.4611 1210.74 52.4611C1211.12 52.4611 1211.42 52.3866 1211.74 52.2521C1212.05 52.1178 1212.35 51.9083 1212.6 51.6392C1212.84 51.3853 1213.03 51.0864 1213.16 50.7426C1213.29 50.4138 1213.37 50.0551 1213.37 49.6965C1213.37 48.9194 1213.1 48.2471 1212.58 47.7091C1212.02 47.1263 1211.34 46.9021 1210.7 46.9021ZM1220.08 47.0218L1222.33 52.028L1221.35 54.3443H1222.56L1225.62 47.0218H1224.39L1222.9 50.7875L1221.31 47.0218H1220.08ZM1216.76 47.9184C1217.17 47.9184 1217.54 48.0529 1217.85 48.3667C1218.16 48.6955 1218.28 49.1737 1218.28 49.637C1218.28 50.145 1218.18 50.6232 1217.87 50.9518C1217.56 51.2805 1217.19 51.4002 1216.75 51.4002C1216.3 51.4002 1215.95 51.2209 1215.67 50.937C1215.36 50.608 1215.21 50.1748 1215.21 49.6965C1215.21 49.1884 1215.36 48.7253 1215.67 48.3965C1215.94 48.1126 1216.3 47.9335 1216.76 47.9184ZM1210.65 47.9333C1211.09 47.9333 1211.48 48.1125 1211.74 48.4114C1212.05 48.7401 1212.2 49.1886 1212.2 49.7117C1212.2 50.1899 1212.05 50.6232 1211.74 50.9518C1211.48 51.2359 1211.11 51.415 1210.67 51.415C1210.22 51.415 1209.85 51.2956 1209.54 50.9667C1209.25 50.6381 1209.13 50.1448 1209.13 49.6518C1209.13 49.1736 1209.25 48.7104 1209.56 48.3816C1209.85 48.0678 1210.22 47.9333 1210.65 47.9333Z" fill="#211F1F"/>
<path d="M1176.29 47.6047C1175.49 47.6047 1174.84 47.8739 1174.73 48.6061C1174.7 48.8004 1174.7 48.9797 1174.74 49.2188C1174.92 50.1599 1176.51 50.414 1176.73 50.9969C1176.78 51.1013 1176.76 51.2508 1176.75 51.3255C1176.7 51.4749 1176.61 51.6244 1176.3 51.6244C1176.02 51.6244 1175.86 51.46 1175.86 51.221V50.7876H1174.67V51.1314C1174.67 52.1477 1175.45 52.4466 1176.29 52.4466C1177.1 52.4466 1177.77 52.1626 1177.87 51.4154C1177.93 51.0269 1177.88 50.773 1177.87 50.6682C1177.68 49.7269 1175.98 49.4428 1175.86 48.905C1175.85 48.8153 1175.85 48.7257 1175.86 48.666C1175.89 48.5165 1175.99 48.3671 1176.27 48.3671C1176.54 48.3671 1176.69 48.5313 1176.69 48.7704V49.0544H1177.8V48.7407C1177.8 47.7544 1176.92 47.6047 1176.29 47.6047ZM1204.3 47.6345C1203.51 47.6345 1202.84 47.9035 1202.74 48.7553C1202.74 48.83 1202.72 48.9794 1202.72 49.0541V50.9519C1202.72 51.0416 1202.72 51.1013 1202.74 51.2508C1202.81 52.0727 1203.52 52.3716 1204.3 52.3716C1205.1 52.3716 1205.81 52.0727 1205.88 51.2508C1205.9 51.1013 1205.9 51.0416 1205.9 50.9519V49.7415H1204.32V50.3991H1204.78V51.0564C1204.78 51.1014 1204.78 51.176 1204.76 51.221C1204.73 51.3404 1204.63 51.5497 1204.3 51.5497C1203.98 51.5497 1203.86 51.3554 1203.86 51.2058C1203.85 51.1611 1203.85 51.1013 1203.85 51.0415V48.9794C1203.85 48.9047 1203.85 48.8299 1203.86 48.7702C1203.89 48.6655 1203.98 48.4415 1204.3 48.4415C1204.64 48.4415 1204.73 48.6655 1204.75 48.7702C1204.76 48.8449 1204.76 48.9494 1204.76 48.9494V49.2036H1205.88V49.0541C1205.88 49.0541 1205.88 48.8898 1205.87 48.7553C1205.79 47.9035 1205.1 47.6345 1204.3 47.6345ZM1190.83 47.6645C1190.05 47.6645 1189.4 47.9185 1189.28 48.6508C1189.25 48.845 1189.23 49.0244 1189.29 49.2485C1189.45 50.16 1191.02 50.414 1191.24 50.9969C1191.29 51.1013 1191.27 51.236 1191.26 51.3255C1191.23 51.4749 1191.12 51.6244 1190.83 51.6244C1190.55 51.6244 1190.38 51.46 1190.38 51.221V50.7876H1189.2V51.1314C1189.2 52.1328 1189.99 52.4314 1190.81 52.4314C1191.61 52.4314 1192.27 52.1623 1192.38 51.4151C1192.44 51.0266 1192.39 50.7729 1192.38 50.6831C1192.19 49.7418 1190.52 49.4727 1190.4 48.9497C1190.37 48.86 1190.38 48.7704 1190.4 48.7106C1190.43 48.5612 1190.53 48.4117 1190.8 48.4117C1191.06 48.4117 1191.21 48.576 1191.21 48.8151V49.0991H1192.32V48.7853C1192.32 47.814 1191.45 47.6645 1190.83 47.6645ZM1179.45 47.769L1178.62 52.282H1179.82L1180.44 48.1724H1180.45L1181.06 52.282H1182.25L1181.43 47.769H1179.45ZM1183.24 47.769L1183.14 52.282H1184.26L1184.29 48.2173H1184.32L1185.06 52.282H1186.19L1186.93 48.2173H1186.96L1186.99 52.282H1188.11L1188.01 47.769H1186.19L1185.63 51.221H1185.62L1185.07 47.769H1183.24ZM1193.43 47.769V51.0117C1193.43 51.1014 1193.44 51.2656 1193.44 51.3106C1193.51 52.1623 1194.16 52.4314 1194.99 52.4314C1195.82 52.4314 1196.48 52.1475 1196.55 51.3106C1196.55 51.2656 1196.57 51.1014 1196.57 51.0117V47.769H1195.43V51.0865C1195.43 51.1462 1195.43 51.221 1195.42 51.2657C1195.4 51.3854 1195.3 51.5946 1194.99 51.5946C1194.68 51.5946 1194.59 51.3854 1194.58 51.2957C1194.56 51.236 1194.56 51.176 1194.56 51.1162V47.769H1193.43ZM1197.81 47.769V52.237H1198.9L1198.84 48.5609H1198.87L1199.96 52.237H1201.56V47.769H1200.45L1200.51 51.3106H1200.49L1199.46 47.769H1197.81Z" fill="#211F1F"/>
<path d="M1206.26 34.7643C1206.11 33.5988 1205.7 32.538 1204.98 31.761C1204.21 31.0288 1203.16 30.6104 1202.01 30.461C1200.9 30.3116 1200.15 30.3564 1200.15 30.3564C1200.15 30.3564 1199.4 30.3265 1198.29 30.461C1197.14 30.6104 1196.09 31.0288 1195.33 31.761C1194.6 32.538 1194.19 33.5988 1194.04 34.7643C1193.89 35.885 1193.92 36.647 1193.92 36.647C1193.92 36.647 1193.89 37.4091 1194.03 38.5298C1194.17 39.6951 1194.59 40.7561 1195.31 41.5331C1196.08 42.2653 1197.13 42.6835 1198.28 42.8329C1199.38 42.9824 1200.14 42.9377 1200.14 42.9377C1200.14 42.9377 1200.89 42.9674 1202 42.8329C1203.15 42.6835 1204.2 42.2653 1204.96 41.5331C1205.69 40.7563 1206.1 39.6951 1206.25 38.5298C1206.39 37.4091 1206.35 36.647 1206.35 36.647C1206.35 36.647 1206.41 35.885 1206.26 34.7643Z" fill="#1E4BC6"/>
<path d="M1196.23 34.8098V38.1123H1196.83V37.171H1197.34C1197.51 37.171 1197.68 37.1409 1197.81 37.0811C1197.94 37.0217 1198.07 36.9317 1198.18 36.8272C1198.28 36.7227 1198.37 36.603 1198.43 36.4536C1198.49 36.3042 1198.52 36.1548 1198.52 35.9904C1198.52 35.826 1198.49 35.6766 1198.43 35.5272C1198.37 35.3778 1198.28 35.2582 1198.18 35.1536C1198.07 35.049 1197.96 34.9592 1197.81 34.8994C1197.66 34.8396 1197.51 34.8098 1197.34 34.8098H1196.23ZM1196.82 35.3629H1197.29C1197.38 35.3629 1197.47 35.3779 1197.54 35.4078C1197.62 35.4377 1197.68 35.4823 1197.73 35.5421C1197.78 35.6019 1197.82 35.6618 1197.85 35.7365C1197.88 35.8112 1197.9 35.8859 1197.9 35.9755C1197.9 36.0652 1197.88 36.1398 1197.85 36.2146C1197.82 36.2893 1197.79 36.3492 1197.73 36.409C1197.68 36.4687 1197.62 36.5136 1197.54 36.5435C1197.47 36.5734 1197.38 36.5882 1197.29 36.5882H1196.82V35.3629ZM1199.92 35.4525C1199.74 35.4525 1199.59 35.4823 1199.43 35.5421C1199.28 35.6019 1199.14 35.6765 1199.02 35.796C1198.9 35.9156 1198.8 36.0502 1198.72 36.2146C1198.65 36.3789 1198.62 36.5733 1198.62 36.7825C1198.62 36.9918 1198.66 37.1859 1198.74 37.3502C1198.81 37.5146 1198.91 37.6491 1199.03 37.7688C1199.15 37.8732 1199.3 37.9629 1199.45 38.0227C1199.61 38.0826 1199.76 38.1123 1199.92 38.1123C1200.1 38.1123 1200.24 38.0828 1200.39 38.0227C1200.54 37.948 1200.67 37.8584 1200.76 37.7387V38.1123H1201.36V35.4525H1200.76V35.796C1200.66 35.6914 1200.54 35.6019 1200.39 35.5421C1200.26 35.4823 1200.1 35.4525 1199.92 35.4525ZM1201.57 35.4674L1202.63 37.9929L1202.09 39.323H1202.71L1204.26 35.4674H1203.62L1202.94 37.2755L1202.21 35.4674H1201.57ZM1200.02 36.0205C1200.13 36.0205 1200.23 36.0354 1200.33 36.0952C1200.44 36.14 1200.51 36.1848 1200.58 36.2595C1200.66 36.3193 1200.7 36.4089 1200.74 36.4986C1200.79 36.5881 1200.8 36.6927 1200.8 36.7974C1200.8 36.9019 1200.79 37.0063 1200.74 37.0963C1200.7 37.186 1200.66 37.2606 1200.58 37.3354C1200.51 37.4101 1200.42 37.4551 1200.33 37.5C1200.24 37.5448 1200.14 37.5595 1200.02 37.5595C1199.9 37.5595 1199.8 37.5297 1199.71 37.5C1199.62 37.455 1199.53 37.4101 1199.46 37.3354C1199.4 37.2606 1199.34 37.1714 1199.3 37.0814C1199.25 36.9918 1199.24 36.8872 1199.24 36.7825C1199.24 36.6779 1199.25 36.5733 1199.3 36.4837C1199.33 36.394 1199.39 36.3193 1199.46 36.2446C1199.53 36.1699 1199.61 36.1251 1199.71 36.0803C1199.81 36.0355 1199.92 36.0205 1200.02 36.0205Z" fill="white"/>
<rect x="1256" y="15.5" width="80" height="54" rx="27" fill="#EFF4FC"/>
<path fill-rule="evenodd" clip-rule="evenodd" d="M1267.27 34.3999H1277.67C1278.36 34.3997 1279.02 34.6778 1279.51 35.1731C1280 35.6684 1280.28 36.3402 1280.28 37.0407V47.5627C1280.28 49.0216 1279.11 50.2043 1277.67 50.2043H1267.27C1265.83 50.2039 1264.67 49.0213 1264.67 47.5627V37.0407C1264.67 35.5822 1265.83 34.3999 1267.27 34.3999ZM1276.62 47.3311C1277.07 47.3311 1277.44 46.9579 1277.44 46.4976L1277.44 38.1073C1277.44 37.647 1277.07 37.2738 1276.62 37.2738H1268.33C1268.11 37.2738 1267.9 37.3618 1267.75 37.5182C1267.59 37.6747 1267.51 37.8869 1267.51 38.1081V46.4976C1267.51 46.9579 1267.87 47.3311 1268.33 47.3311H1276.62Z" fill="#3E4348"/>
<path d="M1270.82 44.4454C1270.56 44.4434 1270.35 44.2298 1270.35 43.9669V40.6172C1270.35 40.4899 1270.4 40.3676 1270.48 40.2773C1270.57 40.1871 1270.69 40.1364 1270.82 40.1364H1274.13C1274.26 40.1366 1274.38 40.1874 1274.47 40.2776C1274.56 40.3678 1274.61 40.4899 1274.61 40.6172V43.9662C1274.61 44.0934 1274.56 44.2156 1274.47 44.3058C1274.38 44.396 1274.26 44.4468 1274.13 44.447L1270.82 44.4454Z" fill="#3E4348"/>
<path d="M1288.22 41.5973C1287.74 41.4639 1287.28 41.3382 1286.93 41.1779C1286.27 40.8804 1285.96 40.4678 1285.96 39.8805C1285.96 38.7702 1287.02 38.2702 1288.08 38.2702C1289.08 38.2702 1289.96 38.6904 1290.55 39.4526L1290.59 39.5048L1291.44 38.833L1291.39 38.7809C1290.61 37.7733 1289.45 37.2212 1288.13 37.2212C1287.25 37.2212 1286.44 37.462 1285.86 37.8999C1285.2 38.3868 1284.85 39.093 1284.85 39.9357C1284.85 41.8949 1286.68 42.3725 1288.14 42.7567C1289.62 43.1524 1290.53 43.453 1290.53 44.597C1290.53 45.7234 1289.63 46.4511 1288.24 46.4511C1287.55 46.4511 1286.28 46.2664 1285.47 45.0272L1285.44 44.9689L1284.55 45.623L1284.58 45.6759C1285.34 46.8368 1286.65 47.5032 1288.17 47.5032C1290.24 47.5032 1291.64 46.3185 1291.64 44.5564C1291.64 42.5397 1289.74 42.0175 1288.22 41.5973Z" fill="#3E4348"/>
<path fill-rule="evenodd" clip-rule="evenodd" d="M1298.4 41.1915V40.131H1299.4V50.2036H1298.4V46.2684C1297.83 47.059 1296.98 47.4915 1295.97 47.4915C1294.07 47.4915 1292.75 45.9541 1292.75 43.7342C1292.75 41.5143 1294.08 39.9646 1295.97 39.9646C1296.97 39.9646 1297.82 40.3994 1298.4 41.1915ZM1293.8 43.7219C1293.8 45.7769 1294.96 46.5092 1296.05 46.5092L1296.05 46.5099C1297.48 46.5099 1298.4 45.4058 1298.4 43.7219C1298.4 42.038 1297.48 40.9492 1296.05 40.9492C1294.39 40.9492 1293.8 42.3815 1293.8 43.7219Z" fill="#3E4348"/>
<path d="M1305.99 40.1307V44.107C1305.99 45.4989 1305.05 46.5097 1303.75 46.5097C1302.68 46.5097 1302.15 45.8624 1302.15 44.5319V40.1307H1301.15V44.7381C1301.15 46.4636 1302.08 47.4935 1303.63 47.4935C1304.6 47.4935 1305.43 47.0787 1305.99 46.3202V47.3294H1306.99V40.1307H1305.99Z" fill="#3E4348"/>
<path fill-rule="evenodd" clip-rule="evenodd" d="M1308.87 40.886C1309.61 40.3009 1310.6 39.9658 1311.61 39.9658C1313.19 39.9658 1314.14 40.7641 1314.14 42.103V47.3302H1313.14V46.5318C1312.63 47.1706 1311.9 47.4942 1310.97 47.4942C1309.44 47.4942 1308.49 46.6483 1308.49 45.2879C1308.49 43.5187 1310.14 43.2411 1310.84 43.123C1310.95 43.1039 1311.07 43.0855 1311.19 43.067L1311.19 43.0664C1312.15 42.917 1313.14 42.7629 1313.14 41.9397C1313.14 41.0079 1311.95 40.9359 1311.58 40.9359C1310.93 40.9359 1310.02 41.1299 1309.4 41.6743L1309.34 41.7242L1308.82 40.9236L1308.87 40.886ZM1309.53 45.2312C1309.53 46.3846 1310.6 46.5095 1311.06 46.5095H1311.07C1312.07 46.5095 1313.14 45.9682 1313.14 44.4467V43.4052C1312.65 43.7163 1311.96 43.8379 1311.34 43.9463L1311.33 43.9482L1311.02 44.0042C1310.03 44.1897 1309.53 44.429 1309.53 45.2312Z" fill="#3E4348"/>
<path d="M1319.91 40.2659C1319.68 40.0949 1319.3 39.9929 1318.91 39.9929C1318.11 40.0035 1317.36 40.394 1316.89 41.0473V40.1271H1315.89V47.325H1316.89V43.4753C1316.89 41.7682 1317.84 41.0036 1318.78 41.0036C1319.05 40.9999 1319.32 41.0583 1319.57 41.1746L1319.64 41.2107L1319.96 40.295L1319.91 40.2659Z" fill="#3E4348"/>
<path fill-rule="evenodd" clip-rule="evenodd" d="M1320.21 43.7488C1320.21 41.5218 1321.58 39.9658 1323.54 39.9658C1325.43 39.9658 1326.75 41.3469 1326.74 43.3277C1326.74 43.4999 1326.73 43.6719 1326.72 43.8431L1326.71 43.9021H1321.26C1321.28 45.4873 1322.22 46.5095 1323.67 46.5095C1324.5 46.5095 1325.22 46.1683 1325.69 45.5479L1325.73 45.4912L1326.46 46.143L1326.42 46.192C1325.94 46.7848 1325.06 47.492 1323.61 47.492C1321.58 47.492 1320.21 45.9881 1320.21 43.7488ZM1323.51 40.9351C1322.29 40.9351 1321.43 41.7472 1321.29 43.0118H1325.69C1325.6 41.9949 1324.99 40.9351 1323.51 40.9351Z" fill="#3E4348"/>
<rect x="1352" y="15.5" width="80" height="54" rx="27" fill="#EFF4FC"/>
<path d="M1397.19 37.9265C1397.19 41.3986 1394.78 43.8772 1391.43 43.8772H1388.26C1388.22 43.8772 1388.19 43.8842 1388.16 43.8978C1388.13 43.9114 1388.1 43.9313 1388.07 43.9564C1388.05 43.9815 1388.03 44.0112 1388.01 44.044C1388 44.0767 1387.99 44.1118 1387.99 44.1471V48.7106C1387.99 48.782 1387.97 48.8504 1387.92 48.901C1387.87 48.9516 1387.8 48.9802 1387.73 48.9805H1385.51C1385.46 48.9803 1385.41 48.9643 1385.37 48.9346C1385.32 48.9049 1385.29 48.8628 1385.27 48.8136C1385.26 48.7814 1385.25 48.7469 1385.25 48.7119V32.2443C1385.25 32.2089 1385.25 32.1738 1385.27 32.1411C1385.28 32.1084 1385.3 32.0786 1385.33 32.0535C1385.35 32.0284 1385.38 32.0085 1385.41 31.995C1385.44 31.9814 1385.48 31.9744 1385.51 31.9744H1391.44C1394.78 31.9705 1397.19 34.4491 1397.19 37.9265ZM1394.43 37.9265C1394.43 35.9303 1393.08 34.4713 1391.26 34.4713H1388.26C1388.22 34.4713 1388.19 34.4783 1388.16 34.4918C1388.13 34.5054 1388.1 34.5253 1388.07 34.5504C1388.05 34.5755 1388.03 34.6052 1388.01 34.638C1388 34.6707 1387.99 34.7058 1387.99 34.7412V41.0961C1387.99 41.1674 1388.02 41.2357 1388.07 41.2861C1388.12 41.3364 1388.19 41.3647 1388.26 41.3647H1391.26C1393.08 41.3778 1394.43 39.9174 1394.43 37.9265ZM1397.85 45.8213C1397.82 45.2888 1397.93 44.7589 1398.16 44.2798C1398.39 43.8007 1398.74 43.3876 1399.17 43.078C1400.03 42.4195 1401.38 42.0792 1403.37 42.0088L1405.48 41.9332V41.3021C1405.48 40.0374 1404.64 39.5028 1403.3 39.5028C1401.95 39.5028 1401.1 39.9852 1400.9 40.7741C1400.89 40.8296 1400.85 40.8781 1400.81 40.9121C1400.76 40.9461 1400.71 40.9636 1400.65 40.9618H1398.56C1398.52 40.9629 1398.49 40.9554 1398.45 40.9398C1398.41 40.9242 1398.38 40.901 1398.36 40.8717C1398.33 40.8425 1398.31 40.8079 1398.3 40.7705C1398.29 40.7331 1398.29 40.6938 1398.3 40.6554C1398.61 38.7857 1400.14 37.3645 1403.39 37.3645C1406.85 37.3645 1408.1 38.9943 1408.1 42.1053V48.7106C1408.09 48.7827 1408.07 48.8515 1408.01 48.9021C1407.96 48.9527 1407.9 48.9809 1407.82 48.9805H1405.72C1405.65 48.9803 1405.58 48.9522 1405.53 48.9023C1405.51 48.8773 1405.49 48.8476 1405.48 48.8149C1405.46 48.7822 1405.46 48.7472 1405.46 48.7119V48.2178C1405.46 48.1769 1405.45 48.1368 1405.42 48.1027C1405.4 48.0686 1405.37 48.0421 1405.33 48.0267C1405.29 48.0113 1405.25 48.0078 1405.21 48.0165C1405.17 48.0252 1405.14 48.0459 1405.11 48.0756C1404.48 48.7706 1403.46 49.2726 1401.83 49.2726C1399.43 49.2726 1397.85 48.0078 1397.85 45.8213ZM1405.48 44.3897V43.8772L1402.74 44.0233C1401.3 44.0976 1400.46 44.7039 1400.46 45.7248C1400.46 46.6479 1401.23 47.159 1402.57 47.159C1404.4 47.159 1405.48 46.1616 1405.48 44.3897ZM1410.21 53.9717V52.0576C1410.21 52.0175 1410.22 51.9779 1410.23 51.9417C1410.25 51.9056 1410.28 51.8737 1410.31 51.8483C1410.34 51.8229 1410.37 51.8047 1410.41 51.7949C1410.45 51.7851 1410.49 51.784 1410.53 51.7916C1410.85 51.8529 1411.18 51.8842 1411.51 51.8855C1412.07 51.9133 1412.63 51.7485 1413.09 51.4176C1413.55 51.0867 1413.89 50.6087 1414.05 50.0601L1414.19 49.6194C1414.21 49.5602 1414.21 49.4961 1414.19 49.4369L1409.81 38.0412C1409.79 37.9999 1409.78 37.9553 1409.79 37.9113C1409.79 37.8672 1409.81 37.8251 1409.83 37.7884C1409.86 37.7517 1409.89 37.7216 1409.93 37.7007C1409.97 37.6798 1410.01 37.6687 1410.06 37.6683H1412.18C1412.23 37.6689 1412.29 37.686 1412.33 37.7174C1412.38 37.7487 1412.41 37.793 1412.43 37.8443L1415.41 45.8813C1415.42 45.9347 1415.46 45.9809 1415.5 46.0136C1415.55 46.0463 1415.6 46.0638 1415.66 46.0638C1415.72 46.0638 1415.77 46.0463 1415.82 46.0136C1415.86 45.9809 1415.9 45.9347 1415.92 45.8813L1418.5 37.8665C1418.52 37.8117 1418.55 37.7641 1418.6 37.7303C1418.65 37.6966 1418.7 37.6786 1418.76 37.6787H1420.96C1421 37.679 1421.04 37.6901 1421.08 37.711C1421.12 37.7318 1421.15 37.762 1421.18 37.7987C1421.2 37.8355 1421.22 37.8778 1421.23 37.9221C1421.23 37.9663 1421.23 38.0112 1421.21 38.0529L1416.52 50.7081C1415.44 53.6496 1413.59 54.4019 1411.56 54.4019C1411.17 54.4124 1410.78 54.3654 1410.41 54.2624C1410.35 54.2458 1410.29 54.2075 1410.26 54.1543C1410.22 54.1011 1410.2 54.0365 1410.21 53.9717ZM1371.01 31.0252C1368.22 31.005 1365.53 32.0689 1363.49 33.998C1363.4 34.0789 1363.35 34.1898 1363.34 34.3091C1363.33 34.4284 1363.36 34.5476 1363.43 34.6434L1364.69 36.3905C1364.73 36.4487 1364.79 36.4971 1364.85 36.5323C1364.91 36.5674 1364.98 36.5886 1365.05 36.5942C1365.12 36.5998 1365.19 36.5897 1365.26 36.5646C1365.32 36.5396 1365.38 36.5002 1365.43 36.4492C1366.16 35.7064 1367.04 35.1192 1368 34.7219C1368.96 34.3245 1369.99 34.1249 1371.02 34.1349C1375.36 34.1349 1377.62 37.4362 1377.62 40.6958C1377.62 44.2397 1375.24 46.7327 1371.83 46.7822C1369.19 46.7822 1367.2 45.0103 1367.2 42.6699C1367.2 42.0786 1367.33 41.4953 1367.58 40.9621C1367.84 40.4289 1368.2 39.959 1368.66 39.5863C1368.75 39.5052 1368.81 39.3893 1368.82 39.2635C1368.84 39.1376 1368.8 39.012 1368.72 38.9135L1367.39 37.2159C1367.35 37.1645 1367.3 37.1219 1367.25 37.0904C1367.19 37.0589 1367.13 37.0392 1367.06 37.0325C1367 37.0258 1366.93 37.0323 1366.87 37.0514C1366.81 37.0706 1366.75 37.1021 1366.7 37.1442C1365.89 37.8093 1365.23 38.6508 1364.78 39.607C1364.32 40.5631 1364.09 41.6097 1364.09 42.6699C1364.09 46.6988 1367.47 49.8593 1371.8 49.8854H1371.86C1377 49.8176 1380.72 45.9608 1380.72 40.6893C1380.72 36.0085 1377.32 31.0252 1371.02 31.0252H1371.01Z" fill="#5A31F4"/>
<rect x="1448" y="15.5" width="80" height="54" rx="27" fill="#EFF4FC"/>
<path d="M1499.08 35.3547C1498.52 35.3514 1497.96 35.4609 1497.44 35.6768C1496.91 35.8928 1496.44 36.211 1496.04 36.6131L1495.84 35.6151H1492.42V54.303L1496.31 53.4496V48.9222C1497.08 49.5775 1498.06 49.9361 1499.07 49.9347C1501.84 49.9347 1504.38 47.6349 1504.38 42.5435C1504.38 37.886 1501.81 35.3547 1499.08 35.3547ZM1498.15 46.391C1497.81 46.4109 1497.47 46.3537 1497.15 46.2236C1496.84 46.0935 1496.55 45.8938 1496.32 45.6388V39.694C1496.55 39.4298 1496.84 39.2212 1497.16 39.0836C1497.48 38.946 1497.83 38.8827 1498.18 38.8985C1499.61 38.8985 1500.58 40.533 1500.58 42.6303C1500.58 44.7276 1499.59 46.391 1498.15 46.391Z" fill="#6772E5"/>
<path d="M1511.55 35.3547C1507.81 35.3547 1505.54 38.6237 1505.54 42.746C1505.54 47.6205 1508.22 50.0938 1512.05 50.0938C1513.55 50.1185 1515.02 49.755 1516.34 49.038V45.7835C1515.14 46.394 1513.82 46.7018 1512.48 46.6803C1510.94 46.6803 1509.62 46.1162 1509.42 44.2213H1517.11C1517.11 44.0044 1517.11 43.151 1517.11 42.7749C1517.24 38.6237 1515.29 35.3547 1511.55 35.3547ZM1509.45 41.2417C1509.45 39.4192 1510.55 38.6526 1511.52 38.6526C1512.49 38.6526 1513.52 39.4192 1513.52 41.2417H1509.45Z" fill="#6772E5"/>
<path d="M1481.94 36.6999L1481.69 35.5138H1478.38V49.5587H1482.21V40.0412C1482.55 39.6161 1483.02 39.3081 1483.54 39.1581C1484.07 39.0082 1484.62 39.0236 1485.14 39.2022V35.5138C1484.55 35.282 1483.91 35.2747 1483.32 35.4931C1482.73 35.7116 1482.24 36.1408 1481.94 36.6999Z" fill="#6772E5"/>
<path d="M1462.59 39.7374C1462.59 39.101 1463.11 38.8551 1463.92 38.8551C1465.27 38.8845 1466.6 39.2417 1467.78 39.8965V36.0924C1466.56 35.5909 1465.24 35.3402 1463.92 35.3547C1460.77 35.3547 1458.67 37.0615 1458.67 39.9255C1458.67 44.4094 1464.58 43.6862 1464.58 45.6099C1464.58 46.3621 1463.95 46.608 1463.15 46.608C1461.64 46.5186 1460.17 46.0728 1458.87 45.3062V49.1971C1460.21 49.8061 1461.67 50.1215 1463.15 50.1228C1466.38 50.1228 1468.61 48.4594 1468.61 45.5521C1468.54 40.6921 1462.59 41.5599 1462.59 39.7374Z" fill="#6772E5"/>
<path d="M1473.77 32.1871L1469.98 33.026V45.9426C1469.96 46.4869 1470.05 47.0296 1470.25 47.5374C1470.44 48.0452 1470.74 48.5075 1471.11 48.896C1471.49 49.2846 1471.94 49.5912 1472.44 49.7971C1472.94 50.0031 1473.47 50.104 1474.01 50.0938C1474.95 50.1363 1475.88 49.9529 1476.74 49.5587V46.3042C1476.24 46.5212 1473.79 47.2588 1473.79 44.8578V39.0721H1476.74V35.6874H1473.79L1473.77 32.1871Z" fill="#6772E5"/>
<path d="M1486.58 34.2988L1490.48 33.4744V30.3501L1486.58 31.1746V34.2988Z" fill="#6772E5"/>
<path d="M1490.48 35.6151H1486.58V49.5587H1490.48V35.6151Z" fill="#6772E5"/>
<defs>
<clipPath id="clip0_2003_210">
<rect x="488" y="15.5" width="80" height="54" rx="27" fill="white"/>
</clipPath>
</defs>
</svg>
