<svg width="1580" height="129" viewBox="0 0 1580 129" fill="none" xmlns="http://www.w3.org/2000/svg">
<g filter="url(#filter0_d_2003_210)">
<rect width="1536" height="85" transform="translate(22 22)" fill="white"/>
<rect x="30" y="37.5" width="80" height="54" rx="27" fill="#EFF4FC"/>
<path d="M84.165 55.2078C83.1797 54.812 81.6169 54.375 79.6845 54.375C74.7514 54.375 71.2775 57.0385 71.2562 60.8465C71.2152 63.656 73.7434 65.2165 75.6343 66.1533C77.5669 67.1105 78.2239 67.7354 78.2239 68.5886C78.2042 69.8991 76.6622 70.5031 75.224 70.5031C73.2296 70.5031 72.1609 70.1917 70.5369 69.4626L69.8791 69.1501L69.1801 73.5411C70.3517 74.0816 72.5103 74.5611 74.7514 74.5822C79.9929 74.5822 83.4054 71.9599 83.4458 67.9019C83.4657 65.6751 82.1308 63.9688 79.2527 62.5746C77.5055 61.6796 76.4355 61.0761 76.4355 60.1603C76.456 59.3278 77.3405 58.4751 79.3128 58.4751C80.9367 58.4333 82.1299 58.8285 83.0339 59.2241L83.4857 59.4318L84.165 55.2078Z" fill="#3362AB"/>
<path d="M66.0562 74.2906H61.0607L64.1852 54.7296H69.1804L66.0562 74.2906Z" fill="#3362AB"/>
<path fill-rule="evenodd" clip-rule="evenodd" d="M96.9706 54.7296H93.1066C91.9151 54.7296 91.0098 55.0831 90.4957 56.3526L83.0756 74.2904H88.3172C88.3172 74.2904 89.1801 71.8761 89.3656 71.3561H95.7793C95.9227 72.0428 96.3754 74.2904 96.3754 74.2904H101.001L96.9706 54.7296ZM90.8044 67.3608C91.2158 66.2371 92.7988 61.8878 92.7988 61.8878C92.7904 61.9046 92.8548 61.7239 92.9508 61.4544L92.952 61.4511L92.9528 61.449C93.0962 61.0465 93.309 60.4491 93.456 60.0151L93.8051 61.7006C93.8051 61.7006 94.7511 66.3829 94.9565 67.3608H90.8044Z" fill="#3362AB"/>
<path d="M56.8883 54.7296L51.9962 68.0684L51.4616 65.3631L51.4611 65.3614L49.7144 56.3739C49.4267 55.1245 48.5428 54.7708 47.4534 54.7296H39.4162L39.334 55.1248C41.2942 55.6324 43.0475 56.3637 44.5837 57.2731L49.0361 74.2699H54.3186L62.1706 54.7296H56.8883Z" fill="#3362AB"/>
<rect x="126" y="37.5" width="80" height="54" rx="27" fill="#EFF4FC"/>
<path d="M192.667 64.3117C192.667 73.5357 185.297 80.9984 176.187 80.9984C172.341 80.9984 168.816 79.6542 166.024 77.4293C169.869 74.3701 172.295 69.6422 172.295 64.3117C172.295 58.9812 169.823 54.2533 166.024 51.1941C168.816 48.9692 172.341 47.625 176.187 47.625C185.297 47.625 192.667 55.134 192.667 64.3117Z" fill="#F79E1B"/>
<path d="M166.024 51.1941C166.024 51.1941 166.024 51.1941 166.024 51.1941C169.823 54.2533 172.295 58.9812 172.295 64.3117C172.295 69.6422 169.869 74.3701 166.024 77.4293L165.978 77.4293C162.178 74.4164 159.706 69.6422 159.706 64.3118C159.706 58.9813 162.178 54.2534 165.978 51.1942C165.978 51.1942 165.978 51.1942 165.978 51.1942L166.024 51.1941Z" fill="#FF5F00"/>
<path d="M159.706 64.3118C159.706 58.9813 162.178 54.2534 165.978 51.1942C163.185 48.9693 159.66 47.6251 155.815 47.6251C146.705 47.6251 139.334 55.0877 139.334 64.3118C139.334 73.5358 146.705 80.9985 155.815 80.9985C159.66 80.9985 163.185 79.6542 165.978 77.4293C162.178 74.4164 159.706 69.6422 159.706 64.3118Z" fill="#EB001B"/>
<rect x="222" y="37.5" width="80" height="54" rx="27" fill="#EFF4FC"/>
<path d="M288.667 64.3117C288.667 73.5357 281.297 80.9984 272.187 80.9984C268.341 80.9984 264.816 79.6542 262.024 77.4293C265.869 74.3701 268.295 69.6422 268.295 64.3117C268.295 58.9812 265.823 54.2533 262.024 51.1941C264.816 48.9692 268.341 47.625 272.187 47.625C281.297 47.625 288.667 55.134 288.667 64.3117Z" fill="#0099DF"/>
<path d="M262.024 51.1941C262.024 51.1941 262.024 51.1941 262.024 51.1941C265.823 54.2533 268.295 58.9812 268.295 64.3117C268.295 69.6422 265.869 74.3701 262.024 77.4293L261.978 77.4293C258.178 74.4164 255.706 69.6422 255.706 64.3118C255.706 58.9813 258.178 54.2534 261.978 51.1942C261.978 51.1942 261.978 51.1942 261.978 51.1942L262.024 51.1941Z" fill="#6C6BBD"/>
<path d="M255.706 64.3118C255.706 58.9813 258.178 54.2534 261.978 51.1942C259.185 48.9693 255.66 47.6251 251.815 47.6251C242.705 47.6251 235.334 55.0877 235.334 64.3118C235.334 73.5358 242.705 80.9985 251.815 80.9985C255.66 80.9985 259.185 79.6542 261.978 77.4293C258.178 74.4164 255.706 69.6422 255.706 64.3118Z" fill="#EB001B"/>
<rect x="318" y="37.5" width="80" height="54" rx="27" fill="#EFF4FC"/>
<path d="M361.386 82.0268C370.769 82.0727 379.333 74.2078 379.333 64.6402C379.333 54.1784 370.769 46.9461 361.386 46.95H353.311C343.816 46.9461 336 54.1803 336 64.6402C336 74.2097 343.816 82.0727 353.311 82.0268H361.386Z" fill="#0079BE"/>
<path d="M353.349 48.3998C344.672 48.4027 337.642 55.5881 337.639 64.4566C337.642 73.3242 344.672 80.5096 353.349 80.5125C362.027 80.5096 369.061 73.3242 369.061 64.4566C369.061 55.5881 362.028 48.4027 353.349 48.3998ZM343.392 64.4566C343.39 62.4062 343.999 60.4028 345.14 58.7084C346.28 57.0141 347.899 55.7074 349.785 54.9594V73.9529C347.899 73.2054 346.28 71.899 345.139 70.2047C343.999 68.5104 343.39 66.5071 343.392 64.4566ZM356.913 73.9568V54.9584C358.8 55.7054 360.42 57.0119 361.562 58.7068C362.703 60.4018 363.312 62.4062 363.31 64.4576C363.312 66.5089 362.703 68.5132 361.561 70.208C360.42 71.9029 358.8 73.2095 356.913 73.9568Z" fill="white"/>
<rect x="414" y="37.5" width="80" height="54" rx="27" fill="#EFF4FC"/>
<path fill-rule="evenodd" clip-rule="evenodd" d="M472.562 80.2073C472.562 81.0247 472.241 81.8086 471.671 82.3866C471.1 82.9646 470.326 83.2893 469.518 83.2893H439.047C438.647 83.2897 438.251 83.2104 437.881 83.0557C437.512 82.901 437.176 82.6741 436.893 82.3878C436.61 82.1016 436.385 81.7617 436.232 81.3875C436.079 81.0134 436 80.6123 436 80.2073V49.357C436 48.952 436.079 48.5509 436.232 48.1768C436.385 47.8026 436.61 47.4627 436.893 47.1765C437.176 46.8902 437.512 46.6633 437.881 46.5086C438.251 46.3539 438.647 46.2745 439.047 46.275H469.516C470.323 46.275 471.098 46.5997 471.669 47.1777C472.239 47.7557 472.56 48.5396 472.56 49.357L472.562 80.2073Z" fill="#EDAA00"/>
<path d="M456.435 64.9545V58.3261L458.145 57.9163V58.7842C458.145 58.7842 458.587 57.6417 459.613 57.3763C459.93 57.2957 460.089 57.344 460.089 57.344V59.0349C459.781 59.0392 459.477 59.1034 459.194 59.2241C458.56 59.4769 458.242 60.0303 458.242 60.8708V64.5307L456.435 64.9545ZM447.427 67.1098C447.427 67.1098 447.15 66.6895 447.15 65.1962V61.8963L446.271 62.1065V60.7483L447.151 60.5381V59.056L448.969 58.6217V60.1003L450.253 59.7921V61.151L448.969 61.4599V64.8221C448.969 66.3498 449.369 66.6433 449.369 66.6433L447.427 67.1098ZM450.442 63.1669C450.442 61.9881 450.608 61.1286 450.964 60.4688C451.386 59.6857 452.082 59.1757 453.093 58.9425C455.086 58.4837 455.805 59.6787 455.777 61.2799C455.768 61.8522 455.77 62.1317 455.77 62.1317L452.258 62.9673V63.0248C452.258 64.1455 452.491 64.6757 453.191 64.5244C453.795 64.3955 453.963 64.0117 454.011 63.5382C454.019 63.4604 454.022 63.2664 454.022 63.2664L455.668 62.8672C455.668 62.8672 455.672 63.0037 455.668 63.1557C455.653 63.7925 455.47 65.3713 453.184 65.9176C451.018 66.4381 450.44 65.0988 450.44 63.1669H450.442ZM453.164 60.1767C452.582 60.3105 452.277 60.8884 452.264 61.8459L454.031 61.42C454.035 61.3766 454.035 61.2799 454.035 61.1314C454.031 60.4092 453.811 60.0282 453.164 60.1767H453.164ZM466.236 59.2906C466.167 57.2719 466.684 55.6692 468.909 55.1579C470.328 54.8315 470.866 55.2041 471.138 55.5649C471.401 55.9095 471.502 56.3739 471.502 57.0246V57.1451L469.76 57.5654V57.3195C469.76 56.549 469.552 56.2548 468.999 56.3949C468.341 56.5623 468.075 57.1941 468.075 58.4522V59.0384C468.075 60.3168 468.248 60.9024 469.005 60.7413C469.664 60.6012 469.754 60.0184 469.766 59.5057C469.766 59.4251 469.771 59.1673 469.771 59.1673L471.511 58.7527V59.0265C471.506 60.702 470.633 61.7583 468.998 62.1436C466.747 62.6787 466.306 61.3598 466.237 59.2906H466.236ZM460.219 62.1163C460.219 60.5809 461.109 60.0954 462.446 59.5358C463.648 59.0321 463.674 58.7821 463.679 58.345C463.685 57.9773 463.517 57.6613 462.918 57.8162C462.368 57.9562 462.222 58.3611 462.193 58.6833C462.183 58.7965 462.179 58.9101 462.182 59.0237L460.496 59.4265C460.485 59.0863 460.524 58.7463 460.612 58.4178C460.882 57.4995 461.683 56.8817 463.062 56.5588C464.855 56.1386 465.454 56.9371 465.456 58.1769V61.1125C465.456 62.5323 465.717 62.7397 465.717 62.7397L464.061 63.1368C463.97 62.943 463.895 62.7414 463.838 62.5344C463.838 62.5344 463.477 63.4583 462.227 63.7567C460.913 64.0691 460.221 63.2468 460.221 62.117L460.219 62.1163ZM463.67 60.0205C463.39 60.2186 463.096 60.3931 462.788 60.5423C462.235 60.8162 461.986 61.1524 461.986 61.6708C461.986 62.1198 462.263 62.4154 462.761 62.2893C463.297 62.1534 463.67 61.647 463.67 60.9444V60.0205ZM437.927 71.756C437.738 71.7556 437.553 71.7036 437.391 71.6056C437.229 71.5075 437.095 71.367 437.005 71.1988C436.915 71.0306 436.872 70.841 436.879 70.6498C436.887 70.4587 436.945 70.2731 437.048 70.1127L437.059 70.098L437.079 70.0931L439.549 69.5026V71.4029L439.51 71.412C438.95 71.5486 438.28 71.7034 438.142 71.7321C438.071 71.7482 437.998 71.7562 437.926 71.756H437.927ZM437.927 74.1872C437.65 74.1872 437.383 74.0759 437.187 73.8775C436.99 73.6791 436.879 73.4099 436.878 73.1289C436.877 72.9237 436.936 72.7229 437.048 72.5517L437.059 72.5328L437.079 72.5286L439.549 71.9381V73.8384L439.51 73.8489C438.95 73.9848 438.28 74.1424 438.142 74.1697C438.071 74.1838 437.998 74.1909 437.926 74.1907L437.927 74.1872ZM437.927 76.6227C437.649 76.6226 437.382 76.5105 437.186 76.3113C436.989 76.112 436.878 75.8418 436.878 75.5601C436.877 75.355 436.936 75.1542 437.048 74.983L437.059 74.9634L439.55 74.3694V76.2697L439.511 76.2795C438.919 76.4238 438.261 76.5744 438.142 76.6017C438.071 76.6155 437.999 76.6225 437.927 76.6227" fill="#231F20"/>
<path d="M437.637 69.4269L437.636 58.7947L439.55 58.3366V68.9681L437.637 69.4269Z" fill="#231F20"/>
<path d="M442.405 68.5226C442.398 68.2104 442.27 67.9136 442.049 67.6954C441.829 67.4773 441.533 67.3552 441.224 67.3552C440.916 67.3552 440.619 67.4773 440.399 67.6954C440.178 67.9136 440.05 68.2104 440.043 68.5226V78.4607C440.044 79.319 440.382 80.1417 440.981 80.7486C441.58 81.3555 442.393 81.6973 443.24 81.6989C444.134 81.6989 446.583 81.6947 446.583 81.6947V72.9257C446.584 72.6679 446.521 72.414 446.401 72.1866C446.281 71.9592 446.108 71.7653 445.896 71.6222L442.916 69.5726V74.2265C442.918 74.2613 442.912 74.2961 442.901 74.3289C442.889 74.3616 442.87 74.3915 442.847 74.4168C442.823 74.4421 442.794 74.4623 442.763 74.4761C442.731 74.4898 442.697 74.4969 442.662 74.4969C442.628 74.4969 442.594 74.4898 442.562 74.4761C442.53 74.4623 442.502 74.4421 442.478 74.4168C442.454 74.3915 442.436 74.3616 442.424 74.3289C442.412 74.2961 442.407 74.2613 442.409 74.2265C442.409 74.1767 442.403 69.1369 442.403 68.5226H442.405ZM444.001 61.1083C443.639 61.193 443.299 61.3557 443.005 61.5854C442.711 61.8151 442.469 62.1063 442.296 62.4392V61.6946L440.573 62.1078V66.8801C440.875 66.7593 441.204 66.7254 441.524 66.7821C441.845 66.8389 442.143 66.984 442.387 67.2016V64.1196C442.387 63.382 442.751 62.7922 443.268 62.6766C443.659 62.5898 443.984 62.7312 443.984 63.4338V67.93L445.799 67.4986V62.7432C445.799 61.5895 445.361 60.7819 444 61.1083H444.001ZM470.383 54.3033C470.161 54.3035 469.944 54.2369 469.759 54.1121C469.574 53.9873 469.43 53.8099 469.345 53.6022C469.26 53.3945 469.238 53.1659 469.281 52.9454C469.324 52.7248 469.431 52.5222 469.588 52.3631C469.745 52.204 469.945 52.0956 470.162 52.0516C470.38 52.0076 470.606 52.03 470.811 52.1159C471.016 52.2018 471.192 52.3474 471.315 52.5343C471.439 52.7212 471.505 52.9409 471.505 53.1658C471.504 53.4669 471.386 53.7555 471.176 53.9683C470.965 54.1811 470.68 54.3009 470.383 54.3012V54.3033ZM470.383 52.1711C470.189 52.1711 469.999 52.2294 469.838 52.3386C469.676 52.4478 469.55 52.603 469.476 52.7846C469.402 52.9661 469.382 53.166 469.42 53.3587C469.458 53.5515 469.551 53.7286 469.688 53.8677C469.826 54.0067 470.001 54.1014 470.191 54.1399C470.381 54.1783 470.579 54.1587 470.758 54.0836C470.937 54.0085 471.091 53.8812 471.199 53.7178C471.307 53.5545 471.364 53.3624 471.365 53.1658C471.364 52.9022 471.261 52.6496 471.077 52.4631C470.893 52.2767 470.643 52.1717 470.383 52.1711Z" fill="#231F20"/>
<path d="M469.974 52.4899H470.458C470.651 52.4899 470.804 52.5872 470.804 52.8457C470.804 53.0257 470.725 53.1644 470.576 53.1882C470.714 53.2022 470.783 53.2779 470.79 53.4733C470.79 53.5609 470.794 53.6701 470.798 53.7535C470.798 53.7773 470.804 53.8007 470.815 53.8216C470.827 53.8424 470.843 53.86 470.863 53.8726H470.617C470.592 53.8367 470.579 53.7938 470.579 53.75C470.571 53.6666 470.572 53.5889 470.57 53.488C470.57 53.3367 470.521 53.2702 470.37 53.2702H470.196V53.8726H469.977L469.974 52.4899ZM470.368 53.1077C470.397 53.1105 470.427 53.1065 470.455 53.0961C470.484 53.0857 470.509 53.0691 470.53 53.0475C470.551 53.0259 470.567 52.9998 470.576 52.9712C470.586 52.9426 470.59 52.9122 470.586 52.8821C470.586 52.7343 470.524 52.6573 470.379 52.6573H470.196V53.1077H470.368Z" fill="#231F20"/>
<g clip-path="url(#clip0_2003_210)">
<rect x="510" y="37.5" width="80" height="54" rx="27" fill="#EFF4FC"/>
<path d="M546 91.6384L589.977 78.675V83.2884C589.977 87.8999 586.238 91.6384 581.627 91.6384H546Z" fill="#FD6020"/>
<path fill-rule="evenodd" clip-rule="evenodd" d="M578.424 59.35C580.843 59.35 582.174 60.4402 582.174 62.4993C582.295 64.074 581.206 65.4064 579.754 65.6487L583.021 70.1304H580.48L577.698 65.7698H577.456V70.1304H575.4V59.35H578.424ZM577.456 64.3162H578.061C579.392 64.3162 579.996 63.7106 579.996 62.6204C579.996 61.6514 579.392 61.0458 578.061 61.0458H577.456V64.3162ZM568.262 70.1303H574.069V68.3134H570.319V65.4064H573.948V63.5895H570.319V61.1669H574.069V59.35H568.262V70.1303ZM562.214 66.6177L559.432 59.35H557.254L561.73 70.3726H562.819L567.295 59.35H565.117L562.214 66.6177ZM537.657 64.8007C537.657 67.8289 540.076 70.3726 543.101 70.3726C544.068 70.3726 544.915 70.1304 545.762 69.767V67.3444C545.157 68.0712 544.31 68.5557 543.343 68.5557C541.407 68.5557 539.834 67.1022 539.834 65.1641V64.9219C539.713 62.9838 541.286 61.2881 543.222 61.1669C544.189 61.1669 545.157 61.6514 545.762 62.3782V59.9556C545.036 59.4711 544.068 59.35 543.222 59.35C540.076 59.1078 537.657 61.6514 537.657 64.8007ZM533.907 63.4683C532.697 62.9838 532.334 62.7416 532.334 62.1359C532.455 61.4092 533.06 60.8035 533.786 60.9247C534.391 60.9247 534.996 61.288 535.479 61.7726L536.568 60.319C535.721 59.5923 534.633 59.1078 533.544 59.1078C531.85 58.9866 530.399 60.319 530.278 62.0148V62.1359C530.278 63.5895 530.883 64.4374 532.818 65.043C533.302 65.1641 533.786 65.4064 534.27 65.6486C534.633 65.8909 534.875 66.2543 534.875 66.7388C534.875 67.5867 534.149 68.3134 533.423 68.3134H533.302C532.334 68.3134 531.487 67.7078 531.125 66.8599L529.794 68.1923C530.52 69.5247 531.971 70.2515 533.423 70.2515C535.359 70.3726 536.931 68.9191 537.052 66.981V66.6177C536.931 65.1641 536.326 64.4374 533.907 63.4683ZM526.891 70.1303H528.947V59.35H526.891V70.1303ZM517.334 59.35H520.963C523.866 59.4712 526.165 61.8937 526.044 64.8008C526.044 66.3754 525.318 67.8289 524.108 68.9191C523.02 69.767 521.689 70.2515 520.358 70.1304H517.334V59.35ZM519.995 68.3135C520.963 68.4346 522.052 68.0712 522.778 67.4656C523.503 66.7388 523.866 65.7698 523.866 64.6796C523.866 63.7106 523.503 62.7416 522.778 62.0148C522.052 61.4092 520.963 61.0458 519.995 61.1669H519.39V68.3135H519.995Z" fill="black"/>
<path fill-rule="evenodd" clip-rule="evenodd" d="M551.931 59.1001C548.907 59.1001 546.367 61.5226 546.367 64.672C546.367 67.7001 548.786 70.2438 551.931 70.3649C555.077 70.4861 557.496 67.9424 557.617 64.7931C557.496 61.6438 555.077 59.1001 551.931 59.1001Z" fill="#FD6020"/>
</g>
<rect x="606" y="37.5" width="80" height="54" rx="27" fill="#EFF4FC"/>
<path fill-rule="evenodd" clip-rule="evenodd" d="M621.292 56.4L614 72.7378H622.729L623.811 70.1329H626.285L627.367 72.7378H636.975V70.7496L637.831 72.7378H642.801L643.658 70.7076V72.7378H663.64L666.07 70.2005L668.345 72.7378L678.609 72.7588L671.294 64.6145L678.609 56.4H668.504L666.139 58.8904L663.936 56.4H642.197L640.33 60.6169L638.42 56.4H629.709V58.3205L628.74 56.4H621.292ZM651.131 58.72H662.606L666.116 62.5584L669.739 58.72H673.248L667.916 64.6122L673.248 70.4365H669.58L666.07 66.5535L662.429 70.4365H651.131V58.72ZM653.965 63.2874V61.1453H661.125L664.249 64.5678L660.987 68.0091H653.965V65.6727H660.225V63.2874H653.965ZM622.981 58.72H627.236L632.072 69.7987V58.72H636.733L640.469 66.6634L643.912 58.72H648.55V70.4434H645.728L645.705 61.257L641.59 70.4434H639.066L634.929 61.257V70.4434H629.123L628.022 67.8152H622.076L620.978 70.4411H617.867L622.981 58.72ZM623.091 65.3855L625.051 60.7035L627.007 65.3855H623.091Z" fill="#1F72CD"/>
<rect x="702" y="37.5" width="80" height="54" rx="27" fill="#EFF4FC"/>
<path d="M726.666 80.488H757.793V48.9751H726.666V80.488Z" fill="#B31E30"/>
<path d="M737.884 58.894V60.4425H738.234C738.676 60.4425 738.876 60.2251 738.876 59.617V59.5217H739.39V61.9251H738.876V61.8225C738.876 61.2192 738.676 60.9896 738.234 60.9896H737.884V62.7214H739.351C740.02 62.7214 740.261 62.2744 740.34 61.4195H740.874V63.2734H736.056V62.7214H736.463C736.717 62.7214 736.852 62.6505 736.852 62.2036V59.3141C736.852 58.9917 736.707 58.894 736.367 58.894H736.217C735.867 58.894 735.701 58.977 735.578 59.3458L734.249 63.2734H733.238L732.468 60.7136H732.454L731.6 63.2734H730.577L729.197 59.1578C729.136 58.9551 729.033 58.894 728.753 58.894H728.651V58.3444H730.779V58.894H730.47C730.309 58.894 730.244 58.9917 730.244 59.0894C730.244 59.1627 730.27 59.2555 730.309 59.3581L731.23 62.1083H731.245L732.123 59.5217L732 59.17C731.925 58.9502 731.778 58.894 731.563 58.894H731.39V58.3444H733.588V58.894H733.199C733.05 58.894 732.992 58.9599 732.992 59.0576C732.992 59.1334 733.028 59.2384 733.052 59.3092L733.858 62.0594H733.872L734.808 59.3727C734.837 59.2848 734.864 59.2115 734.864 59.1187C734.864 59.0015 734.808 58.894 734.55 58.894H734.195V58.3444H740.874V60.0297H740.326C740.215 59.3165 740.152 58.894 739.175 58.894H737.884ZM745.887 63.2734V61.4195H745.325C745.25 62.2671 745.098 62.7214 744.336 62.7214H743.228V59.2359C743.228 58.9624 743.339 58.894 743.663 58.894H744.075V58.3444H741.385V58.894H741.81C742.104 58.894 742.203 58.9917 742.203 59.2164V62.3916C742.203 62.6505 742.063 62.7214 741.856 62.7214H741.385V63.2734H745.887ZM750.883 63.2734V61.4195H750.319C750.244 62.2671 750.087 62.7214 749.335 62.7214H748.225V59.2359C748.225 58.9624 748.336 58.894 748.659 58.894H749.069V58.3444H746.377V58.894H746.804C747.101 58.894 747.199 58.9917 747.199 59.2164V62.3916C747.199 62.6505 747.057 62.7214 746.852 62.7214H746.377V63.2734H750.883ZM754.589 58.7157C754.543 58.6693 754.095 58.1979 753.219 58.1979C752.3 58.1979 751.371 58.6693 751.371 59.6805C751.371 60.5964 752.092 61.0141 752.922 61.1948C753.197 61.2534 753.361 61.2852 753.612 61.3389C754.235 61.4732 754.65 61.6638 754.65 62.101C754.65 62.4331 754.302 62.7897 753.615 62.7897C752.654 62.7897 752.085 62.2475 751.967 61.4195H751.402V63.2734H751.902L752.063 62.8313C752.181 62.9363 752.649 63.4199 753.54 63.4199C754.674 63.4199 755.53 62.9094 755.53 61.9007C755.53 60.9237 754.732 60.5036 753.757 60.3057C753.583 60.2618 753.424 60.2349 753.245 60.1934C752.64 60.0615 752.251 59.9101 752.251 59.4704C752.251 59.0894 752.649 58.828 753.248 58.828C754.148 58.828 754.495 59.4069 754.681 60.0297H755.229V58.3444H754.833L754.589 58.7157ZM732.244 70.9574V70.403H731.877C731.537 70.403 731.411 70.3004 731.411 70.0219V68.6786H731.713C732.169 68.6786 732.367 68.8789 732.367 69.4015V69.5652H732.878V67.2961H732.367V67.3938C732.367 67.7773 732.229 68.129 731.756 68.129H731.411V66.5756H732.369C733.448 66.5756 733.561 67.1251 733.633 67.7089H734.159V66.026H729.551V66.5756H730.039C730.258 66.5756 730.381 66.6757 730.381 66.854V70.039C730.381 70.2466 730.27 70.403 730.01 70.403H729.551V70.9574H732.244ZM752.633 65.877C751.035 65.877 749.979 67.0079 749.979 68.4905C749.979 69.9706 751.035 71.1113 752.633 71.1113C754.225 71.1113 755.284 69.9706 755.284 68.4905C755.284 67.0079 754.225 65.877 752.633 65.877ZM752.633 66.4584C753.786 66.4584 754.131 67.428 754.131 68.4905C754.131 69.553 753.786 70.5251 752.633 70.5251C751.472 70.5251 751.13 69.553 751.13 68.4905C751.13 67.428 751.472 66.4584 752.633 66.4584ZM748.14 66.429C748.034 66.3338 747.578 65.877 746.678 65.877C745.238 65.877 744.333 66.9884 744.333 68.4905C744.333 70.0048 745.252 71.1113 746.678 71.1113C747.595 71.1113 748.092 70.6863 748.205 70.5813L748.478 70.9574H748.978V69.2477C748.978 68.957 749.084 68.8789 749.368 68.8789H749.503V68.3269H747.255V68.8789H747.588C747.829 68.8789 747.976 68.9888 747.976 69.2281V69.5163C747.976 70.0806 747.634 70.4738 746.888 70.4738C745.955 70.4738 745.486 69.6238 745.486 68.4905C745.486 67.3743 745.955 66.5194 746.859 66.5194C747.803 66.5194 748.123 67.4085 748.232 67.7089H748.835V66.026H748.321L748.14 66.429ZM744.09 69.7997V69.934C744.09 70.784 743.689 71.1113 743.081 71.1113C742.369 71.1113 742.131 70.7644 742.131 70.0928V69.8363C742.131 68.9888 741.773 68.6468 740.958 68.6468H740.572V70.1367C740.572 70.3346 740.661 70.403 740.874 70.403H741.409V70.9574H736.545V70.403H737.086C737.235 70.403 737.291 70.3663 737.291 70.2784C737.291 70.232 737.276 70.1563 737.247 70.0757C737.221 70.0097 736.992 69.3747 736.992 69.3747H735.255C735.255 69.3747 735.04 69.9609 735.004 70.0586C734.98 70.1318 734.96 70.1929 734.96 70.2637C734.96 70.3688 735.047 70.403 735.192 70.403H735.708V70.9574H733.416V70.403C733.805 70.403 734.051 70.3468 734.188 70.0024L735.742 66.026H736.676L738.268 70.0024C738.401 70.3517 738.652 70.403 739.04 70.403H739.238C739.448 70.403 739.542 70.3346 739.542 70.1367V66.8443C739.542 66.6464 739.467 66.5756 739.238 66.5756H738.726V66.026H741.925C742.987 66.026 743.486 66.5341 743.486 67.3035C743.486 68.2585 742.548 68.4465 742.109 68.471V68.4832C742.623 68.5223 743.057 68.7372 743.057 69.4968V69.785C743.057 70.2906 743.163 70.403 743.339 70.403C743.513 70.403 743.605 70.2637 743.605 69.934V69.7997H744.09ZM736.791 68.8276L736.135 67.0323H736.114L735.457 68.8276H736.791ZM742.463 67.3352C742.463 66.9029 742.157 66.5756 741.477 66.5756H740.572V68.0973H741.477C742.104 68.0973 742.463 67.8115 742.463 67.3352Z" fill="#FFCC02"/>
<rect x="798" y="37.5" width="80" height="54" rx="27" fill="#EFF4FC"/>
<path fill-rule="evenodd" clip-rule="evenodd" d="M817.576 59.1067C817.094 58.8674 816.524 58.7476 815.864 58.7476C815.547 58.7476 815.252 58.7828 814.977 58.8532C814.702 58.9239 814.443 59.015 814.168 59.1416L815.431 53.7002L812.234 54.207L808.666 69.5604C809.065 69.7577 809.487 69.9125 809.934 70.0249C810.381 70.1375 810.804 70.2219 811.203 70.2784C811.601 70.3345 811.956 70.3661 812.265 70.3735C812.574 70.3803 812.791 70.384 812.915 70.384C813.877 70.384 814.771 70.1972 815.596 69.8242C816.421 69.4514 817.135 68.9446 817.741 68.3039C818.346 67.6632 818.823 66.91 819.174 66.0441C819.525 65.1782 819.7 64.2595 819.7 63.288C819.7 62.6546 819.624 62.0632 819.473 61.5142C819.322 60.9649 819.088 60.4865 818.772 60.078C818.455 59.6698 818.057 59.3461 817.576 59.1067ZM814.544 67.4275C814.118 67.6669 813.664 67.7864 813.183 67.7864H812.811C812.715 67.7864 812.577 67.7783 812.18 67.707L813.524 61.9138C813.772 61.6887 814.039 61.5426 814.348 61.4719C814.657 61.4016 814.857 61.3826 815.049 61.3826C815.64 61.3826 816.097 61.5563 816.318 61.9366C816.537 62.3166 816.648 62.8446 816.648 63.5203C816.648 64.0696 816.558 64.5976 816.379 65.1044C816.201 65.6112 815.957 66.0652 815.647 66.4665C815.338 66.8677 814.97 67.1882 814.544 67.4275Z" fill="#002855"/>
<path d="M826.031 57.3923L826.501 55.3691H823.438L822.969 57.3923H826.031Z" fill="#002855"/>
<path d="M829.533 67.5294C829.758 67.645 830.068 67.7025 830.462 67.7025C830.801 67.7025 831.128 67.6701 831.445 67.6052C831.653 67.5627 831.868 67.5126 832.082 67.4378L831.444 70.1696C831.394 70.1821 831.317 70.2012 831.266 70.2132C830.772 70.3285 830.188 70.3863 829.511 70.3863C828.539 70.3863 827.785 70.2382 827.25 69.9426C826.714 69.647 826.333 69.243 826.108 68.7306C825.883 68.2185 825.784 67.6305 825.812 66.9666C825.84 66.3032 825.939 65.603 826.108 64.8671L828.18 55.9067L831.456 55.3871L830.653 58.742H834.161L833.527 61.3826H830.04L829.11 65.365C829.025 65.6971 828.972 66.0072 828.951 66.2957C828.93 66.5844 828.965 66.8334 829.057 67.0424C829.148 67.2517 829.307 67.4141 829.533 67.5294Z" fill="#002855"/>
<path d="M867.673 58.7457H864.61L862.829 66.4192H862.832L862.587 67.4748C862.417 67.5239 862.246 67.5681 862.078 67.6027C861.761 67.6677 861.433 67.7002 861.095 67.7002C860.7 67.7002 860.39 67.6426 860.165 67.527C859.939 67.4116 859.781 67.2494 859.689 67.0399C859.597 66.831 859.562 66.5821 859.583 66.2932C859.605 66.0048 859.657 65.6947 859.742 65.3626L860.672 61.3801L861.285 58.7396L861.285 58.7388H858.157L856.741 64.8649C856.571 65.6007 856.473 66.3007 856.445 66.9643C856.416 67.6281 856.515 68.2162 856.741 68.7281C856.966 69.2405 857.346 69.6448 857.882 69.9403C858.417 70.2358 859.171 70.384 860.144 70.384C860.82 70.384 861.405 70.3262 861.898 70.2107C861.918 70.2061 861.937 70.2012 861.957 70.1962L861.955 70.202C861.818 70.834 861.54 71.3465 861.095 71.7466C860.649 72.147 859.987 72.3472 859.11 72.3472C858.735 72.3472 858.395 72.3244 858.086 72.2807L857.483 74.8774C857.891 74.9314 858.343 74.9593 858.842 74.9593C859.775 74.9593 860.591 74.8502 861.29 74.6327C861.99 74.4149 862.59 74.085 863.09 73.6425C863.591 73.2002 864.009 72.6452 864.345 71.9785C864.681 71.3113 864.952 70.5216 865.158 69.6085L867.277 60.487L867.273 60.4851L867.269 60.4836L867.673 58.7457Z" fill="#002855"/>
<path d="M819.948 70.3862L822.651 58.739H825.714L823.01 70.3862H819.948Z" fill="#002855"/>
<path fill-rule="evenodd" clip-rule="evenodd" d="M854.826 65.3002C854.634 66.102 854.579 66.9069 854.661 67.7155C854.744 68.5245 855.046 69.7636 855.341 70.384H852.377C852.107 69.9168 852.048 69.6345 852.006 69.4394C851.992 69.3727 851.98 69.3162 851.963 69.2659C851.578 69.5896 851.152 69.8566 850.686 70.0675C850.219 70.2784 849.697 70.384 849.12 70.384C848.433 70.384 847.846 70.2607 847.359 70.0149C846.871 69.7689 846.473 69.4384 846.164 69.0234C845.855 68.6088 845.631 68.1236 845.494 67.568C845.357 67.0125 845.288 66.4183 845.288 65.7855C845.288 64.8151 845.456 63.9011 845.793 63.0433C846.129 62.1856 846.597 61.4366 847.194 60.7966C847.791 60.1568 849.233 58.7458 851.599 58.7458L856.35 58.7457L854.826 65.3002ZM852.652 61.3825C851.224 61.3825 850.952 61.3825 850.366 61.6933C849.951 61.9138 849.607 62.2452 849.305 62.6319C849.003 63.0188 848.766 63.4651 848.595 63.9713C848.423 64.4777 848.337 65.0049 848.337 65.5534C848.337 66.2283 848.447 66.763 848.667 67.1566C848.886 67.5504 849.292 67.7471 849.882 67.7471C850.198 67.7471 850.483 67.6839 850.737 67.5573C850.991 67.4308 851.263 67.2197 851.551 66.9245C851.578 66.5732 851.623 66.2041 851.685 65.8171C851.741 65.4637 851.812 65.1338 851.876 64.8324L851.894 64.7483L852.652 61.3825Z" fill="#002855"/>
<path fill-rule="evenodd" clip-rule="evenodd" d="M844.437 63.3541C844.437 64.3878 844.271 65.3328 843.939 66.1891C843.607 67.0459 843.147 67.7856 842.56 68.4082C841.972 69.0314 841.267 69.5162 840.445 69.863C839.622 70.2097 838.727 70.3832 837.759 70.3832C837.289 70.3832 836.818 70.3408 836.349 70.2558L835.415 74.0994H832.346L835.909 58.746C836.281 58.7458 837.799 58.7459 838.933 58.746L839.999 58.746C840.773 58.746 841.44 58.8665 842 59.107C842.56 59.3479 843.019 59.677 843.379 60.0945C843.738 60.5122 844.004 61.0007 844.177 61.5596C844.35 62.1192 844.437 62.7171 844.437 63.3541ZM836.908 67.7074C837.144 67.7642 837.434 67.7925 837.78 67.7925C838.319 67.7925 838.809 67.6899 839.252 67.4846C839.694 67.2794 840.071 66.9928 840.382 66.6244C840.693 66.2564 840.935 65.8142 841.108 65.2972C841.281 64.7805 841.367 64.2109 841.367 63.5878C841.367 62.9792 841.236 62.4622 840.973 62.0376C840.711 61.6128 840.25 61.3871 839.6 61.3843C839.146 61.3826 838.391 61.3826 838.391 61.3826L836.908 67.7074Z" fill="#002855"/>
<rect x="894" y="37.5" width="80" height="54" rx="27" fill="#EFF4FC"/>
<path fill-rule="evenodd" clip-rule="evenodd" d="M931.674 71.1786V64.3679H935.146C936.568 64.3679 937.769 63.8852 938.748 62.9333L938.983 62.692C940.771 60.7212 940.653 57.651 938.748 55.8276C937.795 54.8623 936.49 54.3395 935.146 54.3663H929.572V71.1786H931.674ZM931.674 62.3032V56.4309H935.199C935.956 56.4309 936.674 56.7259 937.209 57.2621C938.344 58.3883 938.371 60.2653 937.274 61.4317C936.739 62.0082 935.982 62.33 935.199 62.3032H931.674Z" fill="#3C4043"/>
<path fill-rule="evenodd" clip-rule="evenodd" d="M948.785 60.5737C947.884 59.7291 946.657 59.3 945.104 59.3C943.107 59.3 941.606 60.0508 940.614 61.539L942.468 62.7322C943.146 61.7133 944.073 61.2038 945.248 61.2038C945.992 61.2038 946.709 61.4854 947.271 61.9949C947.819 62.4775 948.132 63.1747 948.132 63.912V64.4081C947.323 63.9523 946.305 63.7109 945.052 63.7109C943.59 63.7109 942.415 64.0595 941.541 64.7701C940.666 65.4807 940.223 66.4192 940.223 67.6124C940.197 68.6983 940.653 69.7307 941.463 70.4278C942.285 71.1786 943.329 71.554 944.556 71.554C946.005 71.554 947.153 70.8971 948.028 69.5832H948.119V71.1786H950.129V64.0863C950.129 62.5982 949.685 61.4184 948.785 60.5737ZM943.081 69.0603C942.651 68.7385 942.39 68.2157 942.39 67.6526C942.39 67.0225 942.677 66.4996 943.238 66.084C943.812 65.6683 944.53 65.4538 945.379 65.4538C946.554 65.4404 947.467 65.7086 948.12 66.2448C948.12 67.1565 947.768 67.9475 947.076 68.6179C946.449 69.2614 945.601 69.6234 944.713 69.6234C944.126 69.6368 943.551 69.4357 943.081 69.0603Z" fill="#3C4043"/>
<path d="M954.645 76.2331L961.667 59.6755H959.383L956.133 67.9341H956.094L952.765 59.6755H950.481L955.089 70.4412L952.478 76.2331H954.645Z" fill="#3C4043"/>
<path d="M924.419 62.8931C924.419 62.2362 924.367 61.5792 924.263 60.9357H915.4V64.6494H920.478C920.269 65.8426 919.59 66.9152 918.598 67.5855V69.9988H921.626C923.401 68.3229 924.419 65.8426 924.419 62.8931Z" fill="#4285F4"/>
<path d="M915.401 72.3316C917.933 72.3316 920.073 71.4736 921.626 69.9988L918.598 67.5855C917.75 68.1754 916.667 68.5106 915.401 68.5106C912.947 68.5106 910.872 66.8079 910.128 64.5288H907.009V67.0225C908.601 70.2803 911.851 72.3316 915.401 72.3316Z" fill="#34A853"/>
<path d="M910.128 64.5288C909.736 63.3355 909.737 62.0351 910.128 60.8285V58.3482H907.008C905.664 61.0698 905.664 64.2875 907.008 67.0091L910.128 64.5288Z" fill="#FBBC04"/>
<path d="M915.401 56.8466C916.745 56.8198 918.037 57.3426 919.003 58.2945L921.692 55.5327C919.982 53.897 917.737 52.9988 915.401 53.0256C911.851 53.0256 908.601 55.0903 907.008 58.3482L910.128 60.8418C910.872 58.5493 912.947 56.8466 915.401 56.8466Z" fill="#EA4335"/>
<rect x="990" y="37.5" width="80" height="54" rx="27" fill="#EFF4FC"/>
<path fill-rule="evenodd" clip-rule="evenodd" d="M1009.45 57.3828C1010.5 57.4722 1011.54 56.8465 1012.2 56.0531C1012.84 55.2374 1013.27 54.1424 1013.16 53.025C1012.23 53.0697 1011.09 53.6507 1010.43 54.4664C1009.83 55.1704 1009.32 56.3101 1009.45 57.3828ZM1021.9 71.7749V54.3547H1028.28C1031.57 54.3547 1033.87 56.6789 1033.87 60.0758C1033.87 63.4727 1031.53 65.8192 1028.19 65.8192H1024.54V71.7749H1021.9ZM1013.15 57.5951C1012.22 57.5407 1011.38 57.8793 1010.7 58.1528C1010.27 58.3288 1009.9 58.4779 1009.61 58.4779C1009.3 58.4779 1008.91 58.3209 1008.48 58.1446C1007.91 57.9136 1007.26 57.6495 1006.58 57.6622C1005.02 57.6845 1003.57 58.5896 1002.78 60.0311C1001.14 62.9139 1002.35 67.1824 1003.93 69.5289C1004.71 70.691 1005.63 71.9649 1006.86 71.9202C1007.39 71.8994 1007.78 71.7313 1008.18 71.5574C1008.64 71.3572 1009.12 71.1492 1009.87 71.1492C1010.59 71.1492 1011.04 71.3518 1011.48 71.5462C1011.9 71.7311 1012.3 71.9087 1012.9 71.8978C1014.16 71.8755 1014.96 70.7357 1015.73 69.5736C1016.57 68.3264 1016.93 67.1092 1016.99 66.9244C1016.99 66.9139 1016.99 66.9067 1017 66.9031C1016.99 66.9017 1016.98 66.8968 1016.97 66.8883C1016.69 66.7573 1014.55 65.7558 1014.53 63.0704C1014.51 60.8163 1016.22 59.6743 1016.49 59.4945C1016.51 59.4836 1016.52 59.4762 1016.53 59.4724C1015.44 57.8186 1013.74 57.6398 1013.15 57.5951ZM1038.69 71.909C1040.35 71.909 1041.89 71.0486 1042.58 69.6854H1042.64V71.7749H1045.08V63.1039C1045.08 60.5898 1043.12 58.9695 1040.1 58.9695C1037.3 58.9695 1035.22 60.6121 1035.15 62.8693H1037.52C1037.72 61.7966 1038.69 61.0926 1040.02 61.0926C1041.63 61.0926 1042.54 61.8636 1042.54 63.2827V64.2437L1039.25 64.4448C1036.18 64.6347 1034.53 65.9198 1034.53 68.1546C1034.53 70.4117 1036.24 71.909 1038.69 71.909ZM1039.4 69.8418C1037.99 69.8418 1037.1 69.149 1037.1 68.0875C1037.1 66.9925 1037.96 66.3556 1039.61 66.255L1042.54 66.065V67.0483C1042.54 68.6797 1041.19 69.8418 1039.4 69.8418ZM1053.18 72.4565C1052.12 75.507 1050.91 76.5127 1048.34 76.5127C1048.14 76.5127 1047.49 76.4903 1047.34 76.4456V74.3561C1047.5 74.3785 1047.9 74.4008 1048.11 74.4008C1049.28 74.4008 1049.93 73.898 1050.33 72.5906L1050.57 71.8196L1046.1 59.1372H1048.86L1051.97 69.4284H1052.02L1055.13 59.1372H1057.81L1053.18 72.4565ZM1024.54 56.6342H1027.58C1029.87 56.6342 1031.18 57.8857 1031.18 60.0869C1031.18 62.2882 1029.87 63.5509 1027.57 63.5509H1024.54V56.6342Z" fill="black"/>
<rect x="1086" y="37.5" width="80" height="54" rx="27" fill="#EFF4FC"/>
<path d="M1130.03 65.4956C1129.89 65.4885 1129.79 65.3769 1129.79 65.2407V58.1324C1129.8 57.9974 1129.92 57.8962 1130.05 57.8995H1131.29C1131.4 57.9033 1131.5 57.9844 1131.53 58.0981V59.1851H1131.55C1131.93 58.2133 1132.45 57.75 1133.38 57.75C1133.98 57.75 1134.56 57.9743 1134.94 58.5871C1135.29 59.1557 1135.29 60.1129 1135.29 60.8004V65.2725C1135.27 65.403 1135.16 65.4984 1135.03 65.4956H1133.69C1133.56 65.4902 1133.46 65.3963 1133.45 65.2725V61.4132C1133.45 61.3528 1133.45 61.2902 1133.45 61.2261C1133.46 60.4662 1133.46 59.4989 1132.61 59.4989C1132.27 59.5153 1131.96 59.7375 1131.84 60.0675C1131.65 60.5014 1131.62 60.9352 1131.62 61.4157V65.2407C1131.62 65.3849 1131.5 65.4983 1131.36 65.4956H1130.03Z" fill="#232F3E"/>
<path fill-rule="evenodd" clip-rule="evenodd" d="M1125.71 57.7598C1127.69 57.7598 1128.77 59.5246 1128.77 61.7674C1128.77 63.9354 1127.58 65.6549 1125.71 65.6549C1123.76 65.6549 1122.7 63.8901 1122.7 61.6926C1122.7 59.4952 1123.77 57.7598 1125.71 57.7598ZM1125.72 59.2109C1124.73 59.2109 1124.67 60.6007 1124.67 61.4684L1124.67 61.4971C1124.67 62.3763 1124.67 64.1891 1125.71 64.1891C1126.76 64.1891 1126.8 62.6939 1126.8 61.7821C1126.8 61.184 1126.77 60.4659 1126.6 59.8984C1126.44 59.4082 1126.14 59.2109 1125.72 59.2109Z" fill="#232F3E"/>
<path d="M1099.62 65.5104C1099.5 65.5036 1099.4 65.4041 1099.39 65.2762V58.1679C1099.39 58.0255 1099.51 57.9128 1099.64 57.9142H1100.89C1101.02 57.9215 1101.12 58.0271 1101.13 58.1593V59.0871H1101.15C1101.48 58.1888 1102.09 57.7708 1102.92 57.7708C1103.74 57.7708 1104.28 58.1888 1104.65 59.0871C1104.9 58.3958 1105.5 57.898 1106.2 57.785C1106.91 57.672 1107.62 57.9612 1108.06 58.5417C1108.42 59.0535 1108.41 59.7662 1108.4 60.4358C1108.4 60.5487 1108.4 60.6605 1108.4 60.7698V65.2541C1108.4 65.3236 1108.37 65.3897 1108.32 65.4377C1108.27 65.4858 1108.21 65.5119 1108.14 65.5104H1106.8C1106.67 65.5032 1106.57 65.3917 1106.56 65.2554V61.488C1106.56 61.431 1106.56 61.3578 1106.57 61.2747V61.274C1106.57 60.9203 1106.58 60.3871 1106.53 60.157C1106.43 59.679 1106.13 59.5442 1105.74 59.5442C1105.38 59.5554 1105.07 59.7844 1104.94 60.1264C1104.81 60.4609 1104.81 60.9994 1104.81 61.3984L1104.81 61.488V65.2541C1104.81 65.3234 1104.78 65.3893 1104.74 65.4373C1104.69 65.4853 1104.62 65.5116 1104.56 65.5104H1103.21C1103.08 65.5026 1102.98 65.3914 1102.98 65.2554V61.488C1102.98 61.411 1102.98 61.3304 1102.98 61.2478C1102.99 60.4793 1103 59.5271 1102.15 59.5271C1101.22 59.5271 1101.22 60.6101 1101.22 61.429L1101.22 65.2541C1101.22 65.3236 1101.19 65.3897 1101.15 65.4377C1101.1 65.4858 1101.03 65.5119 1100.96 65.5104H1099.62Z" fill="#232F3E"/>
<path fill-rule="evenodd" clip-rule="evenodd" d="M1096.98 65.5973C1097.08 65.6565 1097.21 65.6432 1097.3 65.5642L1097.31 65.5667C1097.57 65.3203 1098.06 64.884 1098.33 64.6475C1098.44 64.5556 1098.42 64.4024 1098.33 64.2798C1098.31 64.2427 1098.28 64.2064 1098.25 64.1702C1098.04 63.866 1097.83 63.5772 1097.83 62.9966V60.8409C1097.83 60.7712 1097.83 60.702 1097.83 60.6333C1097.83 59.8008 1097.84 59.0391 1097.23 58.4572C1096.72 57.9473 1095.87 57.7684 1095.22 57.7684C1093.95 57.7684 1092.52 58.2598 1092.23 59.8874C1092.21 59.9533 1092.23 60.0215 1092.26 60.0761C1092.3 60.1308 1092.36 60.1671 1092.42 60.1766L1093.71 60.3225C1093.84 60.3028 1093.93 60.1982 1093.95 60.0675C1094.06 59.5075 1094.52 59.2366 1095.03 59.2366C1095.3 59.2366 1095.61 59.3408 1095.78 59.5957C1095.95 59.8517 1095.94 60.1913 1095.94 60.4964C1095.94 60.5317 1095.94 60.5666 1095.94 60.6007V60.7796C1095.82 60.7938 1095.69 60.8073 1095.56 60.8211C1094.85 60.8957 1094.04 60.982 1093.42 61.26C1092.59 61.635 1092 62.3986 1092 63.5224C1092 64.9612 1092.88 65.6806 1094 65.6806C1094.96 65.6806 1095.48 65.449 1096.21 64.6744C1096.25 64.7279 1096.28 64.7773 1096.31 64.8238C1096.49 65.0947 1096.6 65.271 1096.98 65.5973ZM1095.95 62.2561L1095.95 61.8912C1094.98 61.8912 1093.95 62.1057 1093.95 63.2847C1093.95 63.8852 1094.25 64.2896 1094.77 64.2896C1095.14 64.2896 1095.48 64.0494 1095.7 63.6597C1095.95 63.1981 1095.95 62.7659 1095.95 62.2561Z" fill="#232F3E"/>
<path fill-rule="evenodd" clip-rule="evenodd" d="M1115.88 64.2749C1115.86 64.2378 1115.83 64.2014 1115.8 64.1652C1115.58 63.861 1115.38 63.5724 1115.38 62.993V60.836C1115.38 60.7627 1115.38 60.6898 1115.38 60.6176L1115.38 60.6152C1115.38 59.787 1115.39 59.0311 1114.78 58.4522C1114.27 57.9424 1113.42 57.7635 1112.77 57.7635C1111.49 57.7635 1110.07 58.2537 1109.77 59.8825C1109.76 59.9487 1109.78 60.0174 1109.81 60.0724C1109.85 60.1274 1109.91 60.1638 1109.97 60.1729L1111.27 60.3176C1111.4 60.2975 1111.49 60.1931 1111.51 60.0626C1111.62 59.5026 1112.07 59.2317 1112.58 59.2317C1112.86 59.2317 1113.18 59.3371 1113.34 59.592C1113.51 59.847 1113.5 60.1868 1113.5 60.4921C1113.5 60.5271 1113.5 60.5618 1113.5 60.5958V60.771C1113.38 60.7847 1113.26 60.7978 1113.13 60.8112C1112.42 60.8853 1111.6 60.9712 1110.98 61.2502C1110.14 61.6252 1109.55 62.3888 1109.55 63.5138C1109.55 64.9514 1110.43 65.6708 1111.56 65.6708C1112.51 65.6708 1113.03 65.4392 1113.77 64.6646C1113.8 64.7173 1113.83 64.7659 1113.86 64.8117C1114.04 65.0861 1114.15 65.2598 1114.53 65.5875C1114.64 65.6463 1114.76 65.6336 1114.85 65.5556C1115.12 65.3105 1115.6 64.873 1115.88 64.6364C1115.99 64.5519 1115.97 64.4024 1115.88 64.2749ZM1113.25 63.6535C1113.04 64.042 1112.7 64.2823 1112.32 64.2823C1111.81 64.2823 1111.51 63.8778 1111.51 63.2785C1111.51 62.0983 1112.53 61.8851 1113.5 61.8851L1113.5 62.239C1113.5 62.7552 1113.5 63.1895 1113.25 63.6535Z" fill="#232F3E"/>
<path d="M1117.02 59.1557V58.1434C1117.01 58.0741 1117.04 58.0067 1117.09 57.9579C1117.13 57.909 1117.2 57.8834 1117.27 57.8873H1121.67C1121.73 57.8849 1121.8 57.911 1121.85 57.9593C1121.89 58.0077 1121.92 58.0742 1121.92 58.1434V59.0148C1121.92 59.1606 1121.8 59.3518 1121.59 59.6533L1119.31 63.0187C1120.16 62.9979 1121.05 63.129 1121.82 63.5763C1121.96 63.6547 1122.05 63.8058 1122.06 63.9722V65.0605C1122.06 65.21 1121.9 65.3828 1121.73 65.2934C1120.27 64.5175 1118.54 64.5207 1117.08 65.3019C1116.93 65.3865 1116.77 65.2161 1116.77 65.0666V64.031C1116.76 63.7869 1116.81 63.544 1116.93 63.3337L1119.57 59.4119H1117.27C1117.2 59.4146 1117.14 59.3887 1117.09 59.3403C1117.04 59.2919 1117.01 59.2252 1117.02 59.1557Z" fill="#232F3E"/>
<path fill-rule="evenodd" clip-rule="evenodd" d="M1140.28 58.7905C1140.61 58.4838 1141 58.2385 1141.41 58.065C1141.81 57.903 1142.23 57.8198 1142.65 57.8199C1143.07 57.8118 1143.49 57.8988 1143.87 58.0748C1144.23 58.2465 1144.55 58.5054 1144.8 58.8297C1145.06 59.189 1145.26 59.5985 1145.38 60.0357C1145.52 60.5538 1145.59 61.0904 1145.58 61.6289C1145.59 62.1789 1145.52 62.7267 1145.37 63.254C1145.24 63.7015 1145.03 64.1202 1144.75 64.4882C1144.5 64.8227 1144.17 65.0932 1143.8 65.2799C1143.41 65.4674 1142.98 65.56 1142.55 65.5507C1141.75 65.5645 1140.97 65.2573 1140.38 64.6928V68.095C1140.39 68.175 1140.36 68.2559 1140.31 68.3131C1140.25 68.3703 1140.17 68.3971 1140.1 68.3855H1139.27C1139.19 68.3971 1139.11 68.3703 1139.05 68.3131C1139 68.2559 1138.97 68.175 1138.98 68.095V58.326C1138.97 58.2461 1139 58.1655 1139.06 58.1085C1139.11 58.0514 1139.19 58.0244 1139.27 58.0356H1139.88C1139.96 58.0278 1140.04 58.0544 1140.11 58.1092C1140.17 58.1641 1140.2 58.2424 1140.21 58.326L1140.28 58.7905ZM1142.26 58.9792C1141.58 58.9848 1140.92 59.2192 1140.38 59.6472V63.6915C1140.97 64.1573 1141.59 64.3897 1142.23 64.3889C1143.52 64.3889 1144.16 63.4901 1144.16 61.6926C1144.16 59.8951 1143.53 58.9903 1142.26 58.978V58.9792Z" fill="#232F3E"/>
<path fill-rule="evenodd" clip-rule="evenodd" d="M1147.34 59.3371L1147.44 59.3003C1148.11 59.0877 1148.8 58.9763 1149.5 58.9694C1150.06 58.9703 1150.46 59.0769 1150.68 59.2893C1150.91 59.5017 1151.02 59.8694 1151.02 60.3923V61.3458C1150.44 61.1925 1149.85 61.1102 1149.25 61.1007C1148.43 61.0999 1147.77 61.3103 1147.28 61.7319C1146.8 62.1535 1146.55 62.7172 1146.55 63.4231C1146.56 64.0809 1146.75 64.6058 1147.15 64.998C1147.54 65.3902 1148.07 65.5863 1148.75 65.5863C1149.16 65.5845 1149.58 65.5013 1149.96 65.3412C1150.37 65.1767 1150.75 64.9412 1151.08 64.645L1151.15 65.1242C1151.15 65.2038 1151.19 65.2784 1151.25 65.3306C1151.3 65.3827 1151.38 65.4078 1151.46 65.4H1152.06C1152.14 65.4111 1152.22 65.3841 1152.27 65.3271C1152.33 65.27 1152.35 65.1895 1152.34 65.1095V60.1509C1152.34 59.3567 1152.13 58.7713 1151.71 58.3946C1151.29 58.018 1150.63 57.8297 1149.74 57.8297C1149.3 57.8297 1148.86 57.8707 1148.42 57.9522C1148.04 58.015 1147.67 58.1223 1147.32 58.2721C1147.23 58.3023 1147.15 58.355 1147.09 58.4253C1147.05 58.5116 1147.03 58.6103 1147.04 58.7084V59.0969C1147.04 59.2722 1147.1 59.3592 1147.22 59.3592C1147.26 59.3585 1147.3 59.3511 1147.34 59.3371ZM1150.05 64.3117C1149.74 64.4314 1149.42 64.4948 1149.08 64.4992C1148.72 64.5 1148.44 64.4011 1148.24 64.2026C1148.05 64.0041 1147.95 63.721 1147.95 63.3533C1147.95 62.5109 1148.48 62.0897 1149.53 62.0897C1149.78 62.0903 1150.04 62.1075 1150.28 62.1412C1150.53 62.1735 1150.78 62.2193 1151.02 62.2785V63.7602C1150.73 63.9935 1150.4 64.1794 1150.05 64.3117Z" fill="#232F3E"/>
<path d="M1156.03 68.1232C1156.36 67.8323 1156.66 67.3531 1156.91 66.6856L1160 58.5577C1160.05 58.4476 1160.08 58.3296 1160.1 58.2084C1160.1 58.0932 1160.03 58.0343 1159.9 58.0343H1159.11C1159.01 58.0236 1158.9 58.049 1158.81 58.1066C1158.73 58.1982 1158.67 58.3078 1158.64 58.4265L1156.74 64.058L1154.78 58.4265C1154.74 58.3078 1154.69 58.1982 1154.61 58.1066C1154.52 58.049 1154.41 58.0236 1154.3 58.0343H1153.46C1153.33 58.0343 1153.26 58.0932 1153.26 58.2084C1153.27 58.3295 1153.31 58.4476 1153.36 58.5577L1156.06 65.4711L1155.8 66.2064C1155.64 66.6713 1155.46 66.9908 1155.26 67.1648C1155.03 67.3526 1154.73 67.4453 1154.43 67.4258C1154.31 67.4286 1154.18 67.4187 1154.05 67.3964C1153.99 67.381 1153.91 67.3716 1153.84 67.3682C1153.7 67.3682 1153.63 67.4602 1153.63 67.644V68.0215C1153.62 68.1255 1153.65 68.2294 1153.7 68.318C1153.76 68.3885 1153.84 68.4372 1153.93 68.4565C1154.19 68.5278 1154.46 68.562 1154.73 68.5583C1155.27 68.5591 1155.7 68.4141 1156.03 68.1232Z" fill="#232F3E"/>
<path fill-rule="evenodd" clip-rule="evenodd" d="M1119.22 70.0301C1119.52 69.247 1120.2 67.492 1119.88 67.0667H1119.88C1119.56 66.6405 1117.76 66.8642 1116.95 66.9648L1116.94 66.965C1116.7 66.9956 1116.66 66.7738 1116.88 66.6133C1118.32 65.5679 1120.68 65.8669 1120.95 66.2199C1121.23 66.5728 1120.88 69.0166 1119.53 70.1833C1119.32 70.3623 1119.12 70.2667 1119.22 70.0301ZM1109.53 71.2385C1112.67 71.2385 1116.32 70.2152 1118.83 68.2972V68.3009C1119.25 67.9773 1118.89 67.5018 1118.47 67.6881C1115.72 68.8849 1112.78 69.5096 1109.8 69.5264C1105.67 69.5264 1101.67 68.3548 1098.44 66.4098C1098.15 66.2395 1097.94 66.5397 1098.18 66.7591C1101.29 69.6632 1105.34 71.2606 1109.53 71.2385Z" fill="#FF9900"/>
<rect x="1182" y="37.5" width="80" height="54" rx="27" fill="#EFF4FC"/>
<path d="M1238.72 68.8872C1238.08 68.8872 1237.39 69.1114 1236.83 69.6943C1236.31 70.2322 1236.05 70.9045 1236.05 71.6816C1236.05 72.0403 1236.12 72.3838 1236.25 72.7277C1236.39 73.0715 1236.58 73.3704 1236.81 73.6243C1237.06 73.8935 1237.36 74.1025 1237.67 74.237C1237.99 74.3715 1238.29 74.4462 1238.67 74.4462C1238.95 74.4462 1239.22 74.4013 1239.48 74.3117C1239.74 74.237 1240.09 74.028 1240.22 73.8038V74.3417H1241.37V69.0066H1240.21V69.5448C1240.05 69.2758 1239.74 69.0963 1239.48 69.0066C1239.23 68.9319 1238.98 68.8872 1238.72 68.8872ZM1232.7 68.9021C1232.43 68.9021 1232.18 68.9321 1231.93 69.0218C1231.68 69.1114 1231.37 69.2907 1231.2 69.5597V69.0218H1230.04V76.3595H1231.19V73.819C1231.32 74.0432 1231.68 74.2372 1231.93 74.3269C1232.18 74.4167 1232.46 74.4611 1232.74 74.4611C1233.12 74.4611 1233.42 74.3866 1233.74 74.2521C1234.05 74.1178 1234.35 73.9083 1234.6 73.6392C1234.84 73.3853 1235.03 73.0864 1235.16 72.7426C1235.29 72.4138 1235.37 72.0551 1235.37 71.6965C1235.37 70.9194 1235.1 70.2471 1234.58 69.7091C1234.02 69.1263 1233.34 68.9021 1232.7 68.9021ZM1242.08 69.0218L1244.33 74.028L1243.35 76.3443H1244.56L1247.62 69.0218H1246.39L1244.9 72.7875L1243.31 69.0218H1242.08ZM1238.76 69.9184C1239.17 69.9184 1239.54 70.0529 1239.85 70.3667C1240.16 70.6955 1240.28 71.1737 1240.28 71.637C1240.28 72.145 1240.18 72.6232 1239.87 72.9518C1239.56 73.2805 1239.19 73.4002 1238.75 73.4002C1238.3 73.4002 1237.95 73.2209 1237.67 72.937C1237.36 72.608 1237.21 72.1748 1237.21 71.6965C1237.21 71.1884 1237.36 70.7253 1237.67 70.3965C1237.94 70.1126 1238.3 69.9335 1238.76 69.9184ZM1232.65 69.9333C1233.09 69.9333 1233.48 70.1125 1233.74 70.4114C1234.05 70.7401 1234.2 71.1886 1234.2 71.7117C1234.2 72.1899 1234.05 72.6232 1233.74 72.9518C1233.48 73.2359 1233.11 73.415 1232.67 73.415C1232.22 73.415 1231.85 73.2956 1231.54 72.9667C1231.25 72.6381 1231.13 72.1448 1231.13 71.6518C1231.13 71.1736 1231.25 70.7104 1231.56 70.3816C1231.85 70.0678 1232.22 69.9333 1232.65 69.9333Z" fill="#211F1F"/>
<path d="M1198.29 69.6047C1197.49 69.6047 1196.84 69.8739 1196.73 70.6061C1196.7 70.8004 1196.7 70.9797 1196.74 71.2188C1196.92 72.1599 1198.51 72.414 1198.73 72.9969C1198.78 73.1013 1198.76 73.2508 1198.75 73.3255C1198.7 73.4749 1198.61 73.6244 1198.3 73.6244C1198.02 73.6244 1197.86 73.46 1197.86 73.221V72.7876H1196.67V73.1314C1196.67 74.1477 1197.45 74.4466 1198.29 74.4466C1199.1 74.4466 1199.77 74.1626 1199.87 73.4154C1199.93 73.0269 1199.88 72.773 1199.87 72.6682C1199.68 71.7269 1197.98 71.4428 1197.86 70.905C1197.85 70.8153 1197.85 70.7257 1197.86 70.666C1197.89 70.5165 1197.99 70.3671 1198.27 70.3671C1198.54 70.3671 1198.69 70.5313 1198.69 70.7704V71.0544H1199.8V70.7407C1199.8 69.7544 1198.92 69.6047 1198.29 69.6047ZM1226.3 69.6345C1225.51 69.6345 1224.84 69.9035 1224.74 70.7553C1224.74 70.83 1224.72 70.9794 1224.72 71.0541V72.9519C1224.72 73.0416 1224.72 73.1013 1224.74 73.2508C1224.81 74.0727 1225.52 74.3716 1226.3 74.3716C1227.1 74.3716 1227.81 74.0727 1227.88 73.2508C1227.9 73.1013 1227.9 73.0416 1227.9 72.9519V71.7415H1226.32V72.3991H1226.78V73.0564C1226.78 73.1014 1226.78 73.176 1226.76 73.221C1226.73 73.3404 1226.63 73.5497 1226.3 73.5497C1225.98 73.5497 1225.86 73.3554 1225.86 73.2058C1225.85 73.1611 1225.85 73.1013 1225.85 73.0415V70.9794C1225.85 70.9047 1225.85 70.8299 1225.86 70.7702C1225.89 70.6655 1225.98 70.4415 1226.3 70.4415C1226.64 70.4415 1226.73 70.6655 1226.75 70.7702C1226.76 70.8449 1226.76 70.9494 1226.76 70.9494V71.2036H1227.88V71.0541C1227.88 71.0541 1227.88 70.8898 1227.87 70.7553C1227.79 69.9035 1227.1 69.6345 1226.3 69.6345ZM1212.83 69.6645C1212.05 69.6645 1211.4 69.9185 1211.28 70.6508C1211.25 70.845 1211.23 71.0244 1211.29 71.2485C1211.45 72.16 1213.02 72.414 1213.24 72.9969C1213.29 73.1013 1213.27 73.236 1213.26 73.3255C1213.23 73.4749 1213.12 73.6244 1212.83 73.6244C1212.55 73.6244 1212.38 73.46 1212.38 73.221V72.7876H1211.2V73.1314C1211.2 74.1328 1211.99 74.4314 1212.81 74.4314C1213.61 74.4314 1214.27 74.1623 1214.38 73.4151C1214.44 73.0266 1214.39 72.7729 1214.38 72.6831C1214.19 71.7418 1212.52 71.4727 1212.4 70.9497C1212.37 70.86 1212.38 70.7704 1212.4 70.7106C1212.43 70.5612 1212.53 70.4117 1212.8 70.4117C1213.06 70.4117 1213.21 70.576 1213.21 70.8151V71.0991H1214.32V70.7853C1214.32 69.814 1213.45 69.6645 1212.83 69.6645ZM1201.45 69.769L1200.62 74.282H1201.82L1202.44 70.1724H1202.45L1203.06 74.282H1204.25L1203.43 69.769H1201.45ZM1205.24 69.769L1205.14 74.282H1206.26L1206.29 70.2173H1206.32L1207.06 74.282H1208.19L1208.93 70.2173H1208.96L1208.99 74.282H1210.11L1210.01 69.769H1208.19L1207.63 73.221H1207.62L1207.07 69.769H1205.24ZM1215.43 69.769V73.0117C1215.43 73.1014 1215.44 73.2656 1215.44 73.3106C1215.51 74.1623 1216.16 74.4314 1216.99 74.4314C1217.82 74.4314 1218.48 74.1475 1218.55 73.3106C1218.55 73.2656 1218.57 73.1014 1218.57 73.0117V69.769H1217.43V73.0865C1217.43 73.1462 1217.43 73.221 1217.42 73.2657C1217.4 73.3854 1217.3 73.5946 1216.99 73.5946C1216.68 73.5946 1216.59 73.3854 1216.58 73.2957C1216.56 73.236 1216.56 73.176 1216.56 73.1162V69.769H1215.43ZM1219.81 69.769V74.237H1220.9L1220.84 70.5609H1220.87L1221.96 74.237H1223.56V69.769H1222.45L1222.51 73.3106H1222.49L1221.46 69.769H1219.81Z" fill="#211F1F"/>
<path d="M1228.26 56.7643C1228.11 55.5988 1227.7 54.538 1226.98 53.761C1226.21 53.0288 1225.16 52.6104 1224.01 52.461C1222.9 52.3116 1222.15 52.3564 1222.15 52.3564C1222.15 52.3564 1221.4 52.3265 1220.29 52.461C1219.14 52.6104 1218.09 53.0288 1217.33 53.761C1216.6 54.538 1216.19 55.5988 1216.04 56.7643C1215.89 57.885 1215.92 58.647 1215.92 58.647C1215.92 58.647 1215.89 59.4091 1216.03 60.5298C1216.17 61.6951 1216.59 62.7561 1217.31 63.5331C1218.08 64.2653 1219.13 64.6835 1220.28 64.8329C1221.38 64.9824 1222.14 64.9377 1222.14 64.9377C1222.14 64.9377 1222.89 64.9674 1224 64.8329C1225.15 64.6835 1226.2 64.2653 1226.96 63.5331C1227.69 62.7563 1228.1 61.6951 1228.25 60.5298C1228.39 59.4091 1228.35 58.647 1228.35 58.647C1228.35 58.647 1228.41 57.885 1228.26 56.7643Z" fill="#1E4BC6"/>
<path d="M1218.23 56.8098V60.1123H1218.83V59.171H1219.34C1219.51 59.171 1219.68 59.1409 1219.81 59.0811C1219.94 59.0217 1220.07 58.9317 1220.18 58.8272C1220.28 58.7227 1220.37 58.603 1220.43 58.4536C1220.49 58.3042 1220.52 58.1548 1220.52 57.9904C1220.52 57.826 1220.49 57.6766 1220.43 57.5272C1220.37 57.3778 1220.28 57.2582 1220.18 57.1536C1220.07 57.049 1219.96 56.9592 1219.81 56.8994C1219.66 56.8396 1219.51 56.8098 1219.34 56.8098L1218.23 56.8098ZM1218.82 57.3629H1219.29C1219.38 57.3629 1219.47 57.3779 1219.54 57.4078C1219.62 57.4377 1219.68 57.4823 1219.73 57.5421C1219.78 57.6019 1219.82 57.6618 1219.85 57.7365C1219.88 57.8112 1219.9 57.8859 1219.9 57.9755C1219.9 58.0652 1219.88 58.1398 1219.85 58.2146C1219.82 58.2893 1219.79 58.3492 1219.73 58.409C1219.68 58.4687 1219.62 58.5136 1219.54 58.5435C1219.47 58.5734 1219.38 58.5882 1219.29 58.5882H1218.82V57.3629ZM1221.92 57.4525C1221.74 57.4525 1221.59 57.4823 1221.43 57.5421C1221.28 57.6019 1221.14 57.6765 1221.02 57.796C1220.9 57.9156 1220.8 58.0502 1220.72 58.2146C1220.65 58.3789 1220.62 58.5733 1220.62 58.7825C1220.62 58.9918 1220.66 59.1859 1220.74 59.3502C1220.81 59.5146 1220.91 59.6491 1221.03 59.7688C1221.15 59.8732 1221.3 59.9629 1221.45 60.0227C1221.61 60.0826 1221.76 60.1123 1221.92 60.1123C1222.1 60.1123 1222.24 60.0828 1222.39 60.0227C1222.54 59.948 1222.67 59.8584 1222.76 59.7387V60.1123H1223.36V57.4525H1222.76V57.796C1222.66 57.6914 1222.54 57.6019 1222.39 57.5421C1222.26 57.4823 1222.1 57.4525 1221.92 57.4525ZM1223.57 57.4674L1224.63 59.9929L1224.09 61.323H1224.71L1226.26 57.4674H1225.62L1224.94 59.2755L1224.21 57.4674H1223.57ZM1222.02 58.0205C1222.13 58.0205 1222.23 58.0354 1222.33 58.0952C1222.44 58.14 1222.51 58.1848 1222.58 58.2595C1222.66 58.3193 1222.7 58.4089 1222.74 58.4986C1222.79 58.5881 1222.8 58.6927 1222.8 58.7974C1222.8 58.9019 1222.79 59.0063 1222.74 59.0963C1222.7 59.186 1222.66 59.2606 1222.58 59.3354C1222.51 59.4101 1222.42 59.4551 1222.33 59.5C1222.24 59.5448 1222.14 59.5595 1222.02 59.5595C1221.9 59.5595 1221.8 59.5297 1221.71 59.5C1221.62 59.455 1221.53 59.4101 1221.46 59.3354C1221.4 59.2606 1221.34 59.1714 1221.3 59.0814C1221.25 58.9918 1221.24 58.8872 1221.24 58.7825C1221.24 58.6779 1221.25 58.5733 1221.3 58.4837C1221.33 58.394 1221.39 58.3193 1221.46 58.2446C1221.53 58.1699 1221.61 58.1251 1221.71 58.0803C1221.81 58.0355 1221.92 58.0205 1222.02 58.0205Z" fill="white"/>
<rect x="1278" y="37.5" width="80" height="54" rx="27" fill="#EFF4FC"/>
<path fill-rule="evenodd" clip-rule="evenodd" d="M1289.27 56.3999H1299.67C1300.36 56.3997 1301.02 56.6778 1301.51 57.1731C1302 57.6684 1302.28 58.3402 1302.28 59.0407V69.5627C1302.28 71.0216 1301.11 72.2043 1299.67 72.2043H1289.27C1287.83 72.2039 1286.67 71.0213 1286.67 69.5627V59.0407C1286.67 57.5822 1287.83 56.3999 1289.27 56.3999ZM1298.62 69.3311C1299.07 69.3311 1299.44 68.9579 1299.44 68.4976L1299.44 60.1073C1299.44 59.647 1299.07 59.2738 1298.62 59.2738H1290.33C1290.11 59.2738 1289.9 59.3618 1289.75 59.5182C1289.59 59.6747 1289.51 59.8869 1289.51 60.1081V68.4976C1289.51 68.9579 1289.87 69.3311 1290.33 69.3311H1298.62Z" fill="#3E4348"/>
<path d="M1292.82 66.4454C1292.56 66.4434 1292.35 66.2298 1292.35 65.9669V62.6172C1292.35 62.4899 1292.4 62.3676 1292.48 62.2773C1292.57 62.1871 1292.69 62.1364 1292.82 62.1364H1296.13C1296.26 62.1366 1296.38 62.1874 1296.47 62.2776C1296.56 62.3678 1296.61 62.4899 1296.61 62.6172V65.9662C1296.61 66.0934 1296.56 66.2156 1296.47 66.3058C1296.38 66.396 1296.26 66.4468 1296.13 66.447L1292.82 66.4454Z" fill="#3E4348"/>
<path d="M1310.22 63.5973C1309.74 63.4639 1309.28 63.3382 1308.93 63.1779C1308.27 62.8804 1307.96 62.4678 1307.96 61.8805C1307.96 60.7702 1309.02 60.2702 1310.08 60.2702C1311.08 60.2702 1311.96 60.6904 1312.55 61.4526L1312.59 61.5048L1313.44 60.833L1313.39 60.7809C1312.61 59.7733 1311.45 59.2212 1310.13 59.2212C1309.25 59.2212 1308.44 59.462 1307.86 59.8999C1307.2 60.3868 1306.85 61.093 1306.85 61.9357C1306.85 63.8949 1308.68 64.3725 1310.14 64.7567C1311.62 65.1524 1312.53 65.453 1312.53 66.597C1312.53 67.7234 1311.63 68.4511 1310.24 68.4511C1309.55 68.4511 1308.28 68.2664 1307.47 67.0272L1307.44 66.9689L1306.55 67.623L1306.58 67.6759C1307.34 68.8368 1308.65 69.5032 1310.17 69.5032C1312.24 69.5032 1313.64 68.3185 1313.64 66.5564C1313.64 64.5397 1311.74 64.0175 1310.22 63.5973Z" fill="#3E4348"/>
<path fill-rule="evenodd" clip-rule="evenodd" d="M1320.4 63.1915V62.131H1321.4V72.2036H1320.4V68.2684C1319.83 69.059 1318.98 69.4915 1317.97 69.4915C1316.07 69.4915 1314.75 67.9541 1314.75 65.7342C1314.75 63.5143 1316.08 61.9646 1317.97 61.9646C1318.97 61.9646 1319.82 62.3994 1320.4 63.1915ZM1315.8 65.7219C1315.8 67.7769 1316.96 68.5092 1318.05 68.5092L1318.05 68.5099C1319.48 68.5099 1320.4 67.4058 1320.4 65.7219C1320.4 64.038 1319.48 62.9492 1318.05 62.9492C1316.39 62.9492 1315.8 64.3815 1315.8 65.7219Z" fill="#3E4348"/>
<path d="M1327.99 62.1307V66.107C1327.99 67.4989 1327.05 68.5097 1325.75 68.5097C1324.68 68.5097 1324.15 67.8624 1324.15 66.5319V62.1307H1323.15V66.7381C1323.15 68.4636 1324.08 69.4935 1325.63 69.4935C1326.6 69.4935 1327.43 69.0787 1327.99 68.3202V69.3294H1328.99V62.1307H1327.99Z" fill="#3E4348"/>
<path fill-rule="evenodd" clip-rule="evenodd" d="M1330.87 62.886C1331.61 62.3009 1332.6 61.9658 1333.61 61.9658C1335.19 61.9658 1336.14 62.7641 1336.14 64.103V69.3302H1335.14V68.5318C1334.63 69.1706 1333.9 69.4942 1332.97 69.4942C1331.44 69.4942 1330.49 68.6483 1330.49 67.2879C1330.49 65.5187 1332.14 65.2411 1332.84 65.123C1332.95 65.1039 1333.07 65.0855 1333.19 65.067L1333.19 65.0664C1334.15 64.917 1335.14 64.7629 1335.14 63.9397C1335.14 63.0079 1333.95 62.9359 1333.58 62.9359C1332.93 62.9359 1332.02 63.1299 1331.4 63.6743L1331.34 63.7242L1330.82 62.9236L1330.87 62.886ZM1331.53 67.2312C1331.53 68.3846 1332.6 68.5095 1333.06 68.5095H1333.07C1334.07 68.5095 1335.14 67.9682 1335.14 66.4467V65.4052C1334.65 65.7163 1333.96 65.8379 1333.34 65.9463L1333.33 65.9482L1333.02 66.0042C1332.03 66.1897 1331.53 66.429 1331.53 67.2312Z" fill="#3E4348"/>
<path d="M1341.91 62.2659C1341.68 62.0949 1341.3 61.9929 1340.91 61.9929C1340.11 62.0035 1339.36 62.394 1338.89 63.0473V62.1271H1337.89V69.325H1338.89V65.4753C1338.89 63.7682 1339.84 63.0036 1340.78 63.0036C1341.05 62.9999 1341.32 63.0583 1341.57 63.1746L1341.64 63.2107L1341.96 62.295L1341.91 62.2659Z" fill="#3E4348"/>
<path fill-rule="evenodd" clip-rule="evenodd" d="M1342.21 65.7488C1342.21 63.5218 1343.58 61.9658 1345.54 61.9658C1347.43 61.9658 1348.75 63.3469 1348.74 65.3277C1348.74 65.4999 1348.73 65.6719 1348.72 65.8431L1348.71 65.9021H1343.26C1343.28 67.4873 1344.22 68.5095 1345.67 68.5095C1346.5 68.5095 1347.22 68.1683 1347.69 67.5479L1347.73 67.4912L1348.46 68.143L1348.42 68.192C1347.94 68.7848 1347.06 69.492 1345.61 69.492C1343.58 69.492 1342.21 67.9881 1342.21 65.7488ZM1345.51 62.9351C1344.29 62.9351 1343.43 63.7472 1343.29 65.0118H1347.69C1347.6 63.9949 1346.99 62.9351 1345.51 62.9351Z" fill="#3E4348"/>
<rect x="1374" y="37.5" width="80" height="54" rx="27" fill="#EFF4FC"/>
<path d="M1419.19 59.9265C1419.19 63.3986 1416.78 65.8772 1413.43 65.8772H1410.26C1410.22 65.8772 1410.19 65.8842 1410.16 65.8978C1410.13 65.9114 1410.1 65.9313 1410.07 65.9564C1410.05 65.9815 1410.03 66.0112 1410.01 66.044C1410 66.0767 1409.99 66.1118 1409.99 66.1471V70.7106C1409.99 70.782 1409.97 70.8504 1409.92 70.901C1409.87 70.9516 1409.8 70.9802 1409.73 70.9805H1407.51C1407.46 70.9803 1407.41 70.9643 1407.37 70.9346C1407.32 70.9049 1407.29 70.8628 1407.27 70.8136C1407.26 70.7814 1407.25 70.7469 1407.25 70.7119V54.2443C1407.25 54.2089 1407.25 54.1738 1407.27 54.1411C1407.28 54.1084 1407.3 54.0786 1407.33 54.0535C1407.35 54.0284 1407.38 54.0085 1407.41 53.995C1407.44 53.9814 1407.48 53.9744 1407.51 53.9744H1413.44C1416.78 53.9705 1419.19 56.4491 1419.19 59.9265V59.9265ZM1416.43 59.9265C1416.43 57.9303 1415.08 56.4713 1413.26 56.4713H1410.26C1410.22 56.4713 1410.19 56.4783 1410.16 56.4918C1410.13 56.5054 1410.1 56.5253 1410.07 56.5504C1410.05 56.5755 1410.03 56.6052 1410.01 56.638C1410 56.6707 1409.99 56.7058 1409.99 56.7412V63.0961C1409.99 63.1674 1410.02 63.2357 1410.07 63.2861C1410.12 63.3364 1410.19 63.3647 1410.26 63.3647H1413.26C1415.08 63.3778 1416.43 61.9174 1416.43 59.9265ZM1419.85 67.8213C1419.82 67.2888 1419.93 66.7589 1420.16 66.2798C1420.39 65.8007 1420.74 65.3876 1421.17 65.078C1422.03 64.4195 1423.38 64.0792 1425.37 64.0088L1427.48 63.9332V63.3021C1427.48 62.0374 1426.64 61.5028 1425.3 61.5028C1423.95 61.5028 1423.1 61.9852 1422.9 62.7741C1422.89 62.8296 1422.85 62.8781 1422.81 62.9121C1422.76 62.9461 1422.71 62.9636 1422.65 62.9618H1420.56C1420.52 62.9629 1420.49 62.9554 1420.45 62.9398C1420.41 62.9242 1420.38 62.901 1420.36 62.8717C1420.33 62.8425 1420.31 62.8079 1420.3 62.7705C1420.29 62.7331 1420.29 62.6938 1420.3 62.6554C1420.61 60.7857 1422.14 59.3645 1425.39 59.3645C1428.85 59.3645 1430.1 60.9943 1430.1 64.1053V70.7106C1430.09 70.7827 1430.07 70.8515 1430.01 70.9021C1429.96 70.9527 1429.9 70.9809 1429.82 70.9805H1427.72C1427.65 70.9803 1427.58 70.9522 1427.53 70.9023C1427.51 70.8773 1427.49 70.8476 1427.48 70.8149C1427.46 70.7822 1427.46 70.7472 1427.46 70.7119V70.2178C1427.46 70.1769 1427.45 70.1368 1427.42 70.1027C1427.4 70.0686 1427.37 70.0421 1427.33 70.0267C1427.29 70.0113 1427.25 70.0078 1427.21 70.0165C1427.17 70.0252 1427.14 70.0459 1427.11 70.0756C1426.48 70.7706 1425.46 71.2726 1423.83 71.2726C1421.43 71.2726 1419.85 70.0078 1419.85 67.8213V67.8213ZM1427.48 66.3897V65.8772L1424.74 66.0233C1423.3 66.0976 1422.46 66.7039 1422.46 67.7248C1422.46 68.6479 1423.23 69.159 1424.57 69.159C1426.4 69.159 1427.48 68.1616 1427.48 66.3897V66.3897ZM1432.21 75.9717V74.0576C1432.21 74.0175 1432.22 73.9779 1432.23 73.9417C1432.25 73.9056 1432.28 73.8737 1432.31 73.8483C1432.34 73.8229 1432.37 73.8047 1432.41 73.7949C1432.45 73.7851 1432.49 73.784 1432.53 73.7916C1432.85 73.8529 1433.18 73.8842 1433.51 73.8855C1434.07 73.9133 1434.63 73.7485 1435.09 73.4176C1435.55 73.0867 1435.89 72.6087 1436.05 72.0601L1436.19 71.6194C1436.21 71.5602 1436.21 71.4961 1436.19 71.4369L1431.81 60.0412C1431.79 59.9999 1431.78 59.9553 1431.79 59.9113C1431.79 59.8672 1431.81 59.8251 1431.83 59.7884C1431.86 59.7517 1431.89 59.7216 1431.93 59.7007C1431.97 59.6798 1432.01 59.6687 1432.06 59.6683H1434.18C1434.23 59.6689 1434.29 59.686 1434.33 59.7174C1434.38 59.7487 1434.41 59.793 1434.43 59.8443L1437.41 67.8813C1437.42 67.9347 1437.46 67.9809 1437.5 68.0136C1437.55 68.0463 1437.6 68.0638 1437.66 68.0638C1437.72 68.0638 1437.77 68.0463 1437.82 68.0136C1437.86 67.9809 1437.9 67.9347 1437.92 67.8813L1440.5 59.8665C1440.52 59.8117 1440.55 59.7641 1440.6 59.7303C1440.65 59.6966 1440.7 59.6786 1440.76 59.6787H1442.96C1443 59.679 1443.04 59.6901 1443.08 59.711C1443.12 59.7318 1443.15 59.762 1443.18 59.7987C1443.2 59.8355 1443.22 59.8778 1443.23 59.9221C1443.23 59.9663 1443.23 60.0112 1443.21 60.0529L1438.52 72.7081C1437.44 75.6496 1435.59 76.4019 1433.56 76.4019C1433.17 76.4124 1432.78 76.3654 1432.41 76.2624C1432.35 76.2458 1432.29 76.2075 1432.26 76.1543C1432.22 76.1011 1432.2 76.0365 1432.21 75.9717V75.9717ZM1393.01 53.0252C1390.22 53.005 1387.53 54.0689 1385.49 55.998C1385.4 56.0789 1385.35 56.1898 1385.34 56.3091C1385.33 56.4284 1385.36 56.5476 1385.43 56.6434L1386.69 58.3905C1386.73 58.4487 1386.79 58.4971 1386.85 58.5323C1386.91 58.5674 1386.98 58.5886 1387.05 58.5942C1387.12 58.5998 1387.19 58.5897 1387.26 58.5646C1387.32 58.5396 1387.38 58.5002 1387.43 58.4492C1388.16 57.7064 1389.04 57.1192 1390 56.7219C1390.96 56.3245 1391.99 56.1249 1393.02 56.1349C1397.36 56.1349 1399.62 59.4362 1399.62 62.6958C1399.62 66.2397 1397.24 68.7327 1393.83 68.7822C1391.19 68.7822 1389.2 67.0103 1389.2 64.6699C1389.2 64.0786 1389.33 63.4953 1389.58 62.9621C1389.84 62.4289 1390.2 61.959 1390.66 61.5863C1390.75 61.5052 1390.81 61.3893 1390.82 61.2635C1390.84 61.1376 1390.8 61.012 1390.72 60.9135L1389.39 59.2159C1389.35 59.1645 1389.3 59.1219 1389.25 59.0904C1389.19 59.0589 1389.13 59.0392 1389.06 59.0325C1389 59.0258 1388.93 59.0323 1388.87 59.0514C1388.81 59.0706 1388.75 59.1021 1388.7 59.1442C1387.89 59.8093 1387.23 60.6508 1386.78 61.607C1386.32 62.5631 1386.09 63.6097 1386.09 64.6699C1386.09 68.6988 1389.47 71.8593 1393.8 71.8854H1393.86C1399 71.8176 1402.72 67.9608 1402.72 62.6893C1402.72 58.0085 1399.32 53.0252 1393.02 53.0252H1393.01Z" fill="#5A31F4"/>
<rect x="1470" y="37.5" width="80" height="54" rx="27" fill="#EFF4FC"/>
<path d="M1521.08 57.3547C1520.52 57.3514 1519.96 57.4609 1519.44 57.6768C1518.91 57.8928 1518.44 58.211 1518.04 58.6131L1517.84 57.6151H1514.42V76.303L1518.31 75.4496V70.9222C1519.08 71.5775 1520.06 71.9361 1521.07 71.9347C1523.84 71.9347 1526.38 69.6349 1526.38 64.5435C1526.38 59.886 1523.81 57.3547 1521.08 57.3547ZM1520.15 68.391C1519.81 68.4109 1519.47 68.3537 1519.15 68.2236C1518.84 68.0935 1518.55 67.8938 1518.32 67.6388V61.694C1518.55 61.4298 1518.84 61.2212 1519.16 61.0836C1519.48 60.946 1519.83 60.8827 1520.18 60.8985C1521.61 60.8985 1522.58 62.533 1522.58 64.6303C1522.58 66.7276 1521.59 68.391 1520.15 68.391Z" fill="#6772E5"/>
<path d="M1533.55 57.3547C1529.81 57.3547 1527.54 60.6237 1527.54 64.746C1527.54 69.6205 1530.22 72.0938 1534.05 72.0938C1535.55 72.1185 1537.02 71.755 1538.34 71.0379V67.7835C1537.14 68.394 1535.82 68.7018 1534.48 68.6803C1532.94 68.6803 1531.62 68.1162 1531.42 66.2213H1539.11C1539.11 66.0044 1539.11 65.151 1539.11 64.7749C1539.24 60.6237 1537.29 57.3547 1533.55 57.3547ZM1531.45 63.2417C1531.45 61.4192 1532.55 60.6526 1533.52 60.6526C1534.49 60.6526 1535.52 61.4192 1535.52 63.2417H1531.45Z" fill="#6772E5"/>
<path d="M1503.94 58.6999L1503.69 57.5138H1500.38V71.5587H1504.21V62.0412C1504.55 61.6161 1505.02 61.3081 1505.54 61.1581C1506.07 61.0082 1506.62 61.0236 1507.14 61.2022V57.5138C1506.55 57.282 1505.91 57.2747 1505.32 57.4931C1504.73 57.7116 1504.24 58.1408 1503.94 58.6999Z" fill="#6772E5"/>
<path d="M1484.59 61.7374C1484.59 61.101 1485.11 60.8551 1485.92 60.8551C1487.27 60.8845 1488.6 61.2417 1489.78 61.8965V58.0924C1488.56 57.5909 1487.24 57.3402 1485.92 57.3547C1482.77 57.3547 1480.67 59.0615 1480.67 61.9255C1480.67 66.4094 1486.58 65.6862 1486.58 67.6099C1486.58 68.3621 1485.95 68.608 1485.15 68.608C1483.64 68.5186 1482.17 68.0728 1480.87 67.3062V71.1971C1482.21 71.8061 1483.67 72.1215 1485.15 72.1228C1488.38 72.1228 1490.61 70.4594 1490.61 67.5521C1490.54 62.6921 1484.59 63.5599 1484.59 61.7374Z" fill="#6772E5"/>
<path d="M1495.77 54.1871L1491.98 55.026V67.9426C1491.96 68.4869 1492.05 69.0296 1492.25 69.5374C1492.44 70.0452 1492.74 70.5075 1493.11 70.896C1493.49 71.2846 1493.94 71.5912 1494.44 71.7971C1494.94 72.0031 1495.47 72.104 1496.01 72.0938C1496.95 72.1363 1497.88 71.9529 1498.74 71.5587V68.3042C1498.24 68.5212 1495.79 69.2588 1495.79 66.8578V61.0721H1498.74V57.6874H1495.79L1495.77 54.1871Z" fill="#6772E5"/>
<path d="M1508.58 56.2988L1512.48 55.4744V52.3501L1508.58 53.1746V56.2988Z" fill="#6772E5"/>
<path d="M1512.48 57.6151H1508.58V71.5587H1512.48V57.6151Z" fill="#6772E5"/>
</g>
<defs>
<filter id="filter0_d_2003_210" x="0.200001" y="0.200001" width="1579.6" height="128.6" filterUnits="userSpaceOnUse" color-interpolation-filters="sRGB">
<feFlood flood-opacity="0" result="BackgroundImageFix"/>
<feColorMatrix in="SourceAlpha" type="matrix" values="0 0 0 0 0 0 0 0 0 0 0 0 0 0 0 0 0 0 127 0" result="hardAlpha"/>
<feOffset/>
<feGaussianBlur stdDeviation="10.9"/>
<feComposite in2="hardAlpha" operator="out"/>
<feColorMatrix type="matrix" values="0 0 0 0 0.0299988 0 0 0 0 0.115034 0 0 0 0 0.262516 0 0 0 0.14 0"/>
<feBlend mode="normal" in2="BackgroundImageFix" result="effect1_dropShadow_2003_210"/>
<feBlend mode="normal" in="SourceGraphic" in2="effect1_dropShadow_2003_210" result="shape"/>
</filter>
<clipPath id="clip0_2003_210">
<rect x="510" y="37.5" width="80" height="54" rx="27" fill="white"/>
</clipPath>
</defs>
</svg>
