<svg width="382" height="191" viewBox="0 0 382 191" fill="none" xmlns="http://www.w3.org/2000/svg">
<path d="M229.861 21.4092C239.785 21.4092 249.738 21.4934 259.662 21.3532C261.961 21.325 262.942 21.8019 262.774 24.3C262.55 27.4431 262.55 30.5865 262.774 33.7299C262.914 35.975 262.297 36.6207 259.97 36.6207C241.832 36.5083 223.665 36.5647 205.526 36.5647C203.816 36.5647 202.05 36.7609 200.368 36.5083C197.62 36.1156 196.976 37.154 197.06 39.7919C197.144 41.9811 197.536 42.6828 199.864 42.655C215.479 42.5426 231.094 42.5986 246.71 42.5986C256.971 42.5986 265.017 50.2323 265.297 59.8591C265.633 70.8888 257.139 78.9153 246.906 78.8875C229.861 78.8311 212.844 78.8875 195.798 78.8875C192.855 78.8875 189.911 78.7751 186.967 78.9153C185.173 78.9995 184.725 78.2982 184.78 76.6423C184.893 73.3023 184.977 69.9346 184.78 66.5946C184.64 64.2935 185.341 63.732 187.612 63.7602C207.489 63.8443 227.366 63.7602 247.243 63.8721C249.85 63.8721 250.382 63.0863 250.411 60.6449C250.438 58.1468 249.597 57.6977 247.298 57.6977C231.879 57.7823 216.488 57.7541 201.069 57.7541C192.182 57.7541 185.005 52.6181 182.678 44.6194C180.435 36.9293 183.547 28.566 190.304 24.1877C193.247 22.2792 196.499 21.3532 200.06 21.3532C209.984 21.3532 219.937 21.3532 229.861 21.3532V21.4092Z" fill="#2161D0"/>
<path d="M140.199 63.8719C150.236 63.8719 160.273 63.9561 170.309 63.8159C172.664 63.7877 173.253 64.5176 173.113 66.7346C172.916 69.6536 172.888 72.6282 173.113 75.5473C173.337 78.2134 172.496 79.0274 169.777 78.9992C159.852 78.8309 149.9 78.9151 139.975 78.8869C130.444 78.8869 120.911 78.8869 111.38 78.8869C99.8854 78.8591 92.4 71.3095 92.4 59.8307C92.4 52.9264 92.4 46.0221 92.4 39.1182C92.456 29.4636 100.334 21.4931 109.978 21.4367C125.089 21.3526 140.199 21.3808 155.283 21.3808C164.534 21.3808 172.412 28.8743 172.916 38.4165C173.225 44.17 172.973 49.9795 173.057 55.7608C173.057 57.4167 172.384 57.7817 170.87 57.7817C152.002 57.7535 133.163 57.7257 114.295 57.7817C112.557 57.7817 112.305 57.0522 112.333 55.5925C112.417 52.2529 112.501 48.8851 112.333 45.5452C112.193 43.2436 112.753 42.4859 115.249 42.5141C128.537 42.6543 141.798 42.5142 155.086 42.6261C157.525 42.6261 158.17 41.9527 158.114 39.5951C158.058 37.4341 157.806 36.4239 155.198 36.4521C140.199 36.5923 125.201 36.5641 110.202 36.4521C108.1 36.4521 107.455 36.929 107.511 39.1182C107.651 46.4152 107.679 53.7404 107.511 61.0374C107.455 63.395 108.212 63.8719 110.399 63.8437C120.323 63.7317 130.275 63.7877 140.199 63.7877V63.8719Z" fill="#2161D0"/>
<path d="M193.096 189.866C182.554 189.866 171.983 189.808 161.444 189.895C159.311 189.895 158.375 189.34 158.463 187.089C158.58 183.815 158.612 180.541 158.407 177.267C158.258 174.9 158.99 174.227 161.384 174.256C174.056 174.374 186.728 174.315 199.372 174.315C207.492 174.315 215.636 174.198 223.755 174.374C226.439 174.432 226.761 173.409 226.849 171.1C226.966 168.527 226.09 167.884 223.639 167.913C207.697 168.001 191.75 167.972 175.84 167.972C168.102 167.972 161.939 165.049 157.969 158.15C150.99 145.99 160.099 130.117 174.084 130.088C194.759 130.029 215.463 130.088 236.134 130C238.882 130 239.903 130.701 239.642 133.566C239.348 136.606 239.348 139.705 239.642 142.745C239.875 145.346 239.027 145.961 236.544 145.931C217.769 145.843 198.966 145.873 180.187 145.873C178.496 145.873 176.8 145.873 175.137 145.873C171.457 145.873 170.231 147.539 171.284 151.076C171.81 152.772 173.18 152.128 174.173 152.128C190.32 152.157 206.467 152.128 222.614 152.128C231.289 152.128 237.448 155.899 241.012 163.967C245.917 175.046 237.858 189.077 225.684 189.603C214.82 190.071 203.956 189.691 193.068 189.691C193.068 189.72 193.068 189.779 193.068 189.808L193.096 189.866Z" fill="#3C3C3C"/>
<path d="M33.0263 21.4088C42.6424 21.4088 52.2864 21.437 61.9023 21.4088C71.7423 21.3528 79.48 27.5832 80.4614 37.3502C81.3023 45.91 81.3586 54.6103 80.4055 63.1705C79.3682 72.5443 72.0228 78.8589 62.5751 78.9149C42.6142 79.0273 22.6533 78.9149 2.66436 78.9713C0.505664 78.9713 -0.0269997 78.2974 0.00103523 76.2206C0.0851401 58.7639 0.0571052 41.3072 0.00103523 23.8506C0.00103523 21.7174 0.757977 21.3806 2.63632 21.3806C12.785 21.4648 22.9056 21.4088 33.0543 21.4088H33.0263ZM40.6519 36.5921C33.0543 36.5921 25.4568 36.6485 17.8874 36.5361C15.8969 36.5361 15.0839 36.8169 15.1119 39.1181C15.2801 46.4993 15.252 53.9086 15.1119 61.318C15.0558 63.535 15.8128 63.956 17.8593 63.9282C32.9421 63.844 48.0251 63.844 63.1078 63.9282C64.986 63.9282 65.7432 63.6192 65.7151 61.5142C65.5746 54.021 65.5746 46.5274 65.7151 39.0339C65.7432 36.9289 65.0142 36.5921 63.136 36.6203C55.6505 36.7327 48.1651 36.6485 40.6797 36.6485L40.6519 36.5921Z" fill="#2161D0"/>
<path d="M98.6017 130.089C108.618 130.089 118.662 130.147 128.678 130.089C138.839 130.031 147.044 137.104 147.831 147.248C148.297 153.299 148.823 159.467 145.38 165.108C141.7 171.13 136.356 174.287 129.466 174.375C115.42 174.55 101.402 174.404 87.3601 174.462C85.5762 174.462 84.6722 174.17 84.7606 172.065C84.9053 168.587 84.8169 165.079 84.6723 161.601C84.5557 159.262 85.4035 158.59 87.7659 158.59C101.374 158.707 115.01 158.59 128.618 158.677C131.334 158.677 132.825 158.268 132.387 155.053C132.094 152.889 132.298 150.609 132.443 148.417C132.56 146.488 131.86 145.874 129.932 145.874C121.816 145.962 113.668 145.874 105.548 145.874C97.9589 145.874 90.3372 145.991 82.7437 145.845C80.321 145.786 79.7385 146.546 79.7666 148.885C79.8831 161.337 79.7666 173.819 79.8831 186.272C79.8831 189.049 79.2403 190.306 76.2029 190.043C72.9646 189.78 69.662 189.955 66.3916 189.985C64.7001 189.985 63.9689 189.429 64.001 187.587C64.0573 169.201 64.0573 150.814 64.001 132.427C64.001 130.001 65.2545 130.001 66.9781 130.001C77.5166 130.031 88.0873 130.001 98.6298 130.001L98.6017 130.089Z" fill="#3C3C3C"/>
<path d="M286.382 130.089C296.398 130.089 306.443 130.089 316.459 130.089C326.853 130.089 334.884 137.163 335.615 147.598C336.053 153.766 336.548 160.051 332.751 165.664C329.131 171.042 324.169 174.199 317.773 174.316C303.405 174.55 289.07 174.374 274.703 174.462C272.862 174.462 272.368 173.848 272.425 172.095C272.541 168.616 272.601 165.108 272.425 161.63C272.28 159.233 273.128 158.56 275.462 158.59C288.982 158.677 302.473 158.59 315.993 158.736C318.97 158.765 320.577 158.327 320.023 154.818C319.553 151.954 321.336 148.066 319.348 146.371C317.656 144.939 313.92 145.903 311.087 145.903C297.568 145.903 284.048 145.961 270.556 145.845C268.045 145.845 267.402 146.634 267.431 149.06C267.547 161.542 267.431 173.995 267.579 186.476C267.607 189.37 266.703 190.13 263.987 189.955C260.833 189.751 257.651 189.838 254.497 189.955C252.541 190.014 251.693 189.487 251.693 187.295C251.753 169.113 251.782 150.931 251.693 132.778C251.693 130.323 252.802 130.06 254.791 130.089C265.329 130.147 275.9 130.089 286.442 130.089H286.382Z" fill="#3C3C3C"/>
<path d="M274.321 39.3991C274.321 27.2186 274.378 15.0381 274.266 2.85764C274.266 0.584656 274.77 -0.145205 277.097 0.0231642C280.433 0.247527 283.797 0.191533 287.134 0.0231642C289.068 -0.0610203 289.545 0.640636 289.516 2.46489C289.405 7.85347 289.6 13.2139 289.432 18.6024C289.376 20.8476 289.937 21.4651 292.236 21.4651C306.926 21.3531 321.644 21.4091 336.335 21.4091C347.268 21.4091 355.006 29.2394 354.978 40.2409C354.978 52.2253 354.95 64.181 355.034 76.1649C355.034 78.2417 354.558 79.084 352.343 78.9434C349.203 78.775 346.063 78.775 342.923 78.9434C340.624 79.084 339.839 78.4943 339.867 75.9966C340.008 63.7319 339.867 51.4394 339.979 39.1466C339.979 37.0698 339.559 36.4804 337.372 36.4804C322.261 36.5924 307.15 36.5924 292.068 36.4804C289.881 36.4804 289.432 37.0975 289.432 39.2025C289.516 51.4672 289.432 63.7601 289.516 76.0526C289.516 78.2981 289.012 79.1118 286.657 78.9434C283.433 78.719 280.153 78.7468 276.929 78.9434C274.742 79.084 274.237 78.3259 274.266 76.2209C274.35 63.9566 274.321 51.6638 274.321 39.3709V39.3991Z" fill="#2161D0"/>
<path d="M366.696 50.1195C366.696 41.5033 366.752 32.859 366.668 24.2428C366.668 22.1378 366.976 21.1276 369.444 21.352C372.752 21.6327 376.116 21.4925 379.48 21.4084C381.134 21.352 381.779 21.7733 381.779 23.5693C381.723 41.335 381.779 59.0724 381.779 76.8377C381.779 78.3534 381.414 78.9986 379.732 78.9426C376.284 78.8025 372.836 78.8025 369.387 78.9708C367.285 79.0828 366.612 78.4935 366.64 76.3044C366.752 67.5762 366.696 58.8477 366.696 50.1195Z" fill="#2161D0"/>
</svg>
