<svg width="744" height="751" viewBox="0 0 744 751" fill="none" xmlns="http://www.w3.org/2000/svg">
<g opacity="0.31" clip-path="url(#clip0_130_3490)">
<path d="M583.25 582.997C700.848 463.37 698.607 270.259 578.242 151.672C457.878 33.0852 264.971 33.9283 147.373 153.555C29.774 273.182 32.0158 466.293 152.38 584.88C272.744 703.467 465.651 702.624 583.25 582.997Z" fill="white"/>
<path d="M125.945 214.391C126.385 216.577 133.406 218.289 138.578 213.025C143.751 207.761 145.455 204.261 153.343 207.721C161.232 211.181 177.624 233.371 187.705 237.257C197.781 241.145 207.367 240.227 207.272 232.371C207.183 224.514 196.164 214.522 198.255 207.088C200.348 199.66 207 171.686 199.039 162.117C191.079 152.548 178.428 152.166 161.577 165.776C144.727 179.386 122.703 198.255 125.945 214.391Z" fill="#CADDFF"/>
<path d="M252.508 477.55C251.405 480.972 252.264 484.525 254.736 486.736C262.479 493.677 277.853 514.959 277.309 527.308C276.617 543.033 293.152 553.273 298.478 558.776C309.297 569.957 315.398 573.625 333.702 565.602C352.006 557.585 357.4 552.697 368.956 562.145C380.507 571.598 422.909 610.365 437.353 616.873C451.796 623.381 477.192 632.002 485.501 631.5C493.809 630.997 506.134 622.878 484.872 614.475C463.61 606.072 452.696 603.039 451.54 587.424C450.384 571.81 443.021 540.434 436.486 532.064C429.95 523.694 429.877 514.938 432.846 510.145C435.82 505.352 441.364 494.412 441.127 489.351C440.889 484.29 428.568 481.807 420.509 476.753C412.446 471.707 408.476 467.793 415.23 450.322C421.983 432.851 401.202 423.955 380.844 436.711C360.492 449.466 341.989 451.502 335.535 441.284C329.082 431.067 316.95 445.168 305.272 449.103C293.593 453.033 287.588 446.658 276.035 452.455C260.419 460.298 254.65 470.917 252.517 477.542L252.508 477.55Z" fill="#99B9FF"/>
<path d="M515.27 208.408C506.06 206.611 497.687 197.449 494.683 176.307C492.326 159.704 472.601 160.761 464.247 161.981C462.713 162.205 461.72 160.44 462.671 159.224C467.841 152.606 483.416 140.787 520.278 165.16C567.961 196.683 557.197 179.714 556.637 170.977C556.076 162.24 539.75 161.467 538.416 144.847C537.575 134.37 531.766 123.744 526.274 115.851C447.534 69.0176 352.648 60.5361 268.549 90.317C275.591 97.0877 298.189 122.641 260.457 141.008C260.457 141.008 234.842 150.319 272.849 179.584C310.856 208.85 288.685 158.825 290.013 154.677C291.342 150.53 296.748 141.312 316.34 166.978C316.34 166.978 323.787 175.224 308.318 188.168C292.85 201.113 297.098 210.747 300.814 214.413C304.529 218.073 315.65 226.306 314.906 241.02C314.157 255.741 334.55 271.285 338.951 254.71C343.352 238.136 331.562 211.975 339.239 200.446C346.916 188.918 368.089 192.504 373.912 180.059C379.742 167.618 359.857 156.207 364.393 151.587C368.935 146.966 387.759 146.429 393.368 154.678C398.978 162.932 388.156 180.453 400.15 184.999C412.144 189.546 417.078 178.945 424.923 182.133C432.767 185.316 425.655 205.58 407.789 209.797C389.924 214.013 398.328 225.933 388.234 226.897C378.139 227.861 367.924 218.709 363.46 229.763C358.996 240.818 360.959 251.848 355.621 266.585C350.277 281.322 348.148 295.591 354.653 302C361.157 308.409 371.759 311.583 380.169 323.502C388.572 335.421 413.277 366.124 440.39 327.378C467.502 288.632 480.61 309.725 482.468 311.558C484.326 313.391 508.036 337.658 515.4 338.548C522.757 339.434 542.103 343.949 547.461 370.136C552.819 396.324 592.224 426.965 597.107 412.689C601.994 398.412 593.407 370.856 595.914 349.693C598.426 328.529 574.339 272.074 554.982 266.637C535.625 261.201 541.748 234.505 535.652 223.954C529.555 213.403 524.469 210.207 515.259 208.41L515.27 208.408Z" fill="#99B9FF"/>
<path d="M60.1471 372.92C68.0811 380.35 77.738 391.246 80.744 403.996C89.8176 442.472 102.203 453.72 124.6 478.643C146.998 503.566 221.454 511.912 233.956 508.032C246.457 504.147 237.211 492.541 228.829 484.287C220.447 476.027 206.94 469.638 192.473 464.915C178.01 460.191 171.832 454.108 169.292 448.745C166.751 443.382 171.133 436.27 178.911 436.311C186.688 436.352 199.357 430.511 201.276 423.596C203.628 415.094 189.588 405.472 187.52 399.623C185.451 393.774 193.27 380.517 189.173 367.903C185.072 355.291 188.684 344.552 193.275 331.926C197.866 319.301 203.716 309.819 202.497 305.761C201.278 301.702 193.197 297.549 188.516 288.177C183.839 278.804 181.165 264.737 175.256 263.68C169.346 262.623 156.474 264.235 151.977 286.48C147.479 308.725 144.149 312.111 133.724 309.466C123.299 306.817 114.184 281.639 130.838 264.7C147.493 247.761 145.527 239.159 142.034 234.758C138.542 230.358 128.893 231.339 122.303 236.281C115.711 241.218 117.847 245.228 102.882 278.122C92.8919 300.074 74.8353 311.829 65.728 317.948C62.3207 336.242 60.4542 354.637 60.1535 372.924L60.1471 372.92Z" fill="#99B9FF"/>
<path d="M607.464 200.565C603.514 203.12 612.279 210.316 609.452 216.122C606.625 221.928 607.036 225.905 616.154 232.747C625.276 239.582 634.095 251.857 633.831 260.186C633.566 268.514 630.418 277.58 639.935 287.672C649.454 297.77 650.031 316.232 647.96 324.927C645.889 333.627 642.791 347.033 651.208 355.324C656.625 360.663 663.413 367.629 669.967 371.622C670.172 315.01 654.725 258.278 623.708 208.471C617.468 204.004 609.707 199.101 607.451 200.557L607.464 200.565Z" fill="#99B9FF"/>
<path d="M520.749 665.456C519.991 665.624 519.18 665.278 518.794 664.556C518.331 663.686 518.655 662.608 519.524 662.145C543.547 649.285 565.964 633.535 586.142 615.33C586.874 614.67 587.997 614.731 588.656 615.464C589.315 616.197 589.255 617.321 588.523 617.981C568.13 636.383 545.479 652.3 521.199 665.295C521.051 665.372 520.897 665.428 520.745 665.462L520.749 665.456Z" fill="#5479F7"/>
<path d="M655.596 530.225C655.165 530.32 654.704 530.256 654.296 530.01C653.454 529.5 653.178 528.405 653.687 527.563C676.877 488.901 688.399 456.217 694.78 410.99C694.917 410.015 695.815 409.335 696.791 409.478C697.766 409.616 698.44 410.517 698.303 411.492C691.848 457.233 680.193 490.289 656.739 529.402C656.477 529.836 656.06 530.122 655.596 530.225Z" fill="#5479F7"/>
<path d="M491.29 651.129C490.474 651.31 489.62 650.896 489.273 650.1C488.88 649.197 489.292 648.144 490.194 647.751C523.754 633.132 553.977 612.818 580.008 587.363C580.712 586.676 581.84 586.686 582.526 587.391C583.213 588.096 583.203 589.225 582.5 589.912C556.154 615.669 525.577 636.228 491.618 651.018C491.512 651.063 491.399 651.099 491.288 651.124L491.29 651.129Z" fill="#5479F7"/>
<path d="M640.886 504.882C640.523 504.962 640.134 504.927 639.767 504.765C638.871 504.361 638.472 503.305 638.875 502.409C657.951 460.108 668.609 428.682 670.315 383.811C670.351 382.825 671.181 382.061 672.161 382.098C673.146 382.134 673.91 382.965 673.873 383.946C672.147 429.402 661.382 461.167 642.12 503.873C641.88 504.408 641.411 504.76 640.879 504.878L640.886 504.882Z" fill="#5479F7"/>
<path d="M172.004 604.061C171.483 604.177 170.922 604.058 170.476 603.692C163.827 598.15 157.32 592.25 151.133 586.153C92.5807 528.464 59.8157 451.57 58.8601 369.628C57.9098 287.684 88.8884 210.503 146.1 152.305C196.706 100.827 264.218 68.9931 336.206 62.6791C407.348 56.4363 478.869 75.2834 537.593 115.753C538.402 116.315 538.609 117.425 538.049 118.234C537.494 119.043 536.386 119.249 535.571 118.689C414.181 35.034 251.448 50.2241 148.643 154.81C31.9211 273.545 34.1591 465.904 153.633 583.609C159.75 589.639 166.188 595.471 172.761 600.947C173.519 601.576 173.62 602.703 172.992 603.461C172.73 603.774 172.383 603.977 172.01 604.06L172.004 604.061Z" fill="#5479F7"/>
</g>
<defs>
<clipPath id="clip0_130_3490">
<rect width="622" height="631" fill="white" transform="translate(0 134.498) rotate(-12.488)"/>
</clipPath>
</defs>
</svg>
