<svg width="36" height="36" viewBox="0 0 36 36" fill="none" xmlns="http://www.w3.org/2000/svg">
<g clip-path="url(#clip0_138_4290)">
<path d="M27.8715 3.21L18.474 0.076495C18.1663 -0.0259866 17.8337 -0.0259866 17.526 0.076495L8.1285 3.21C6.63436 3.70632 5.33463 4.66088 4.41397 5.93806C3.49331 7.21524 2.99856 8.75008 3 10.3245V18C3 29.3445 16.8 35.61 17.391 35.871C17.5827 35.9562 17.7902 36.0002 18 36.0002C18.2098 36.0002 18.4173 35.9562 18.609 35.871C19.2 35.61 33 29.3445 33 18V10.3245C33.0014 8.75008 32.5067 7.21524 31.586 5.93806C30.6654 4.66088 29.3656 3.70632 27.8715 3.21ZM30 18C30 26.1825 20.5215 31.5495 18 32.8335C15.4755 31.554 6 26.2035 6 18V10.3245C6.00009 9.37991 6.29742 8.4593 6.84985 7.69311C7.40229 6.92691 8.18182 6.35398 9.078 6.0555L18 3.08099L26.922 6.0555C27.8182 6.35398 28.5977 6.92691 29.1502 7.69311C29.7026 8.4593 29.9999 9.37991 30 10.3245V18Z" fill="white"/>
<path d="M22.9501 12.45L16.6681 18.75L13.3021 15.24C13.167 15.0923 13.0037 14.9731 12.8218 14.8895C12.64 14.8059 12.4433 14.7595 12.2432 14.7531C12.0431 14.7467 11.8438 14.7804 11.657 14.8522C11.4702 14.924 11.2996 15.0325 11.1554 15.1712C11.0111 15.31 10.8961 15.4762 10.8171 15.6601C10.738 15.844 10.6966 16.0418 10.6952 16.242C10.6938 16.4421 10.7325 16.6405 10.809 16.8255C10.8855 17.0105 10.9982 17.1783 11.1406 17.319L14.5996 20.919C14.8575 21.1976 15.1693 21.421 15.5161 21.5757C15.8629 21.7304 16.2374 21.8132 16.6171 21.819H16.6666C17.0386 21.8202 17.4073 21.7475 17.751 21.6051C18.0948 21.4627 18.4068 21.2535 18.6691 20.9895L25.0771 14.5815C25.217 14.4418 25.3281 14.276 25.4039 14.0934C25.4798 13.9108 25.519 13.7151 25.5192 13.5173C25.5194 13.3196 25.4806 13.1238 25.4052 12.941C25.3297 12.7583 25.219 12.5922 25.0793 12.4522C24.9396 12.3123 24.7738 12.2012 24.5912 12.1253C24.4086 12.0495 24.2129 12.0103 24.0151 12.0101C23.8174 12.0099 23.6216 12.0487 23.4389 12.1241C23.2561 12.1996 23.09 12.3103 22.9501 12.45Z" fill="white"/>
</g>
<defs>
<clipPath id="clip0_138_4290">
<rect width="36" height="36" fill="white"/>
</clipPath>
</defs>
</svg>
